<?xml version="1.0" encoding="UTF-8"?>
<!--Generator: Apple Native CoreSVG 149-->
<!DOCTYPE svg
PUBLIC "-//W3C//DTD SVG 1.1//EN"
       "http://www.w3.org/Graphics/SVG/1.1/DTD/svg11.dtd">
<svg version="1.1" xmlns="http://www.w3.org/2000/svg" xmlns:xlink="http://www.w3.org/1999/xlink" width="3300" height="2200">
 <!--glyph: "uni100BE0.medium", point size: 100.0, font version: "17.0d8e1", template writer version: "58"-->
 <g id="Notes">
  <rect height="2200" id="artboard" style="fill:white;opacity:1" width="3300" x="0" y="0"/>
  <line style="fill:none;stroke:black;opacity:1;stroke-width:0.5;" x1="263" x2="3036" y1="292" y2="292"/>
  <text style="stroke:none;fill:black;font-family:SF Pro,SF Pro Display,SF Pro Text,sans-serif;font-size:13;font-weight:bold;" transform="matrix(1 0 0 1 263 322)">Weight/Scale Variations</text>
  <text style="stroke:none;fill:black;font-family:SF Pro,SF Pro Display,SF Pro Text,sans-serif;font-size:13;text-anchor:middle;" transform="matrix(1 0 0 1 559.711 322)">Ultralight</text>
  <text style="stroke:none;fill:black;font-family:SF Pro,SF Pro Display,SF Pro Text,sans-serif;font-size:13;text-anchor:middle;" transform="matrix(1 0 0 1 856.422 322)">Thin</text>
  <text style="stroke:none;fill:black;font-family:SF Pro,SF Pro Display,SF Pro Text,sans-serif;font-size:13;text-anchor:middle;" transform="matrix(1 0 0 1 1153.13 322)">Light</text>
  <text style="stroke:none;fill:black;font-family:SF Pro,SF Pro Display,SF Pro Text,sans-serif;font-size:13;text-anchor:middle;" transform="matrix(1 0 0 1 1449.84 322)">Regular</text>
  <text style="stroke:none;fill:black;font-family:SF Pro,SF Pro Display,SF Pro Text,sans-serif;font-size:13;text-anchor:middle;" transform="matrix(1 0 0 1 1746.56 322)">Medium</text>
  <text style="stroke:none;fill:black;font-family:SF Pro,SF Pro Display,SF Pro Text,sans-serif;font-size:13;text-anchor:middle;" transform="matrix(1 0 0 1 2043.27 322)">Semibold</text>
  <text style="stroke:none;fill:black;font-family:SF Pro,SF Pro Display,SF Pro Text,sans-serif;font-size:13;text-anchor:middle;" transform="matrix(1 0 0 1 2339.98 322)">Bold</text>
  <text style="stroke:none;fill:black;font-family:SF Pro,SF Pro Display,SF Pro Text,sans-serif;font-size:13;text-anchor:middle;" transform="matrix(1 0 0 1 2636.69 322)">Heavy</text>
  <text style="stroke:none;fill:black;font-family:SF Pro,SF Pro Display,SF Pro Text,sans-serif;font-size:13;text-anchor:middle;" transform="matrix(1 0 0 1 2933.4 322)">Black</text>
  <line style="fill:none;stroke:black;opacity:1;stroke-width:0.5;" x1="263" x2="3036" y1="1903" y2="1903"/>
  <g transform="matrix(1 0 0 1 263 1933)">
   <path d="M9.24805 0.830078Q10.8691 0.830078 12.2949 0.214844Q13.7207-0.400391 14.8096-1.49414Q15.8984-2.58789 16.5186-4.01367Q17.1387-5.43945 17.1387-7.05078Q17.1387-8.66211 16.5186-10.0879Q15.8984-11.5137 14.8047-12.6074Q13.7109-13.7012 12.2852-14.3164Q10.8594-14.9316 9.23828-14.9316Q7.62695-14.9316 6.20117-14.3164Q4.77539-13.7012 3.69141-12.6074Q2.60742-11.5137 1.9873-10.0879Q1.36719-8.66211 1.36719-7.05078Q1.36719-5.43945 1.9873-4.01367Q2.60742-2.58789 3.69629-1.49414Q4.78516-0.400391 6.21094 0.214844Q7.63672 0.830078 9.24805 0.830078ZM9.24805-0.654297Q7.91992-0.654297 6.7627-1.14746Q5.60547-1.64062 4.73145-2.51953Q3.85742-3.39844 3.36426-4.56055Q2.87109-5.72266 2.87109-7.05078Q2.87109-8.37891 3.35938-9.54102Q3.84766-10.7031 4.72168-11.582Q5.5957-12.4609 6.75293-12.9541Q7.91016-13.4473 9.23828-13.4473Q10.5762-13.4473 11.7334-12.9541Q12.8906-12.4609 13.7695-11.582Q14.6484-10.7031 15.1465-9.54102Q15.6445-8.37891 15.6445-7.05078Q15.6445-5.72266 15.1514-4.56055Q14.6582-3.39844 13.7842-2.51953Q12.9102-1.64062 11.748-1.14746Q10.5859-0.654297 9.24805-0.654297ZM5.83984-7.04102Q5.83984-6.71875 6.04492-6.51855Q6.25-6.31836 6.5918-6.31836L8.50586-6.31836L8.50586-4.39453Q8.50586-4.0625 8.70605-3.85742Q8.90625-3.65234 9.22852-3.65234Q9.56055-3.65234 9.76562-3.85742Q9.9707-4.0625 9.9707-4.39453L9.9707-6.31836L11.8945-6.31836Q12.2266-6.31836 12.4316-6.51855Q12.6367-6.71875 12.6367-7.04102Q12.6367-7.37305 12.4316-7.57812Q12.2266-7.7832 11.8945-7.7832L9.9707-7.7832L9.9707-9.69727Q9.9707-10.0391 9.76562-10.2441Q9.56055-10.4492 9.22852-10.4492Q8.90625-10.4492 8.70605-10.2441Q8.50586-10.0391 8.50586-9.69727L8.50586-7.7832L6.5918-7.7832Q6.25-7.7832 6.04492-7.57812Q5.83984-7.37305 5.83984-7.04102Z"/>
  </g>
  <g transform="matrix(1 0 0 1 281.867 1933)">
   <path d="M11.709 2.91016Q13.75 2.91016 15.5518 2.12891Q17.3535 1.34766 18.7305-0.0292969Q20.1074-1.40625 20.8887-3.20801Q21.6699-5.00977 21.6699-7.05078Q21.6699-9.0918 20.8887-10.8936Q20.1074-12.6953 18.7305-14.0723Q17.3535-15.4492 15.5469-16.2305Q13.7402-17.0117 11.6992-17.0117Q9.6582-17.0117 7.85645-16.2305Q6.05469-15.4492 4.68262-14.0723Q3.31055-12.6953 2.5293-10.8936Q1.74805-9.0918 1.74805-7.05078Q1.74805-5.00977 2.5293-3.20801Q3.31055-1.40625 4.6875-0.0292969Q6.06445 1.34766 7.86621 2.12891Q9.66797 2.91016 11.709 2.91016ZM11.709 1.25Q9.98047 1.25 8.47656 0.605469Q6.97266-0.0390625 5.83496-1.17676Q4.69727-2.31445 4.05762-3.81836Q3.41797-5.32227 3.41797-7.05078Q3.41797-8.7793 4.05762-10.2832Q4.69727-11.7871 5.83008-12.9297Q6.96289-14.0723 8.4668-14.7119Q9.9707-15.3516 11.6992-15.3516Q13.4277-15.3516 14.9316-14.7119Q16.4355-14.0723 17.5781-12.9297Q18.7207-11.7871 19.3652-10.2832Q20.0098-8.7793 20.0098-7.05078Q20.0098-5.32227 19.3701-3.81836Q18.7305-2.31445 17.5928-1.17676Q16.4551-0.0390625 14.9463 0.605469Q13.4375 1.25 11.709 1.25ZM7.39258-7.04102Q7.39258-6.68945 7.62695-6.46484Q7.86133-6.24023 8.23242-6.24023L10.8789-6.24023L10.8789-3.57422Q10.8789-3.21289 11.1035-2.9834Q11.3281-2.75391 11.6797-2.75391Q12.0508-2.75391 12.2852-2.9834Q12.5195-3.21289 12.5195-3.57422L12.5195-6.24023L15.1758-6.24023Q15.5371-6.24023 15.7715-6.46484Q16.0059-6.68945 16.0059-7.04102Q16.0059-7.41211 15.7715-7.6416Q15.5371-7.87109 15.1758-7.87109L12.5195-7.87109L12.5195-10.5176Q12.5195-10.8984 12.2852-11.1279Q12.0508-11.3574 11.6797-11.3574Q11.3281-11.3574 11.1035-11.1279Q10.8789-10.8984 10.8789-10.5176L10.8789-7.87109L8.23242-7.87109Q7.85156-7.87109 7.62207-7.6416Q7.39258-7.41211 7.39258-7.04102Z"/>
  </g>
  <g transform="matrix(1 0 0 1 305.646 1933)">
   <path d="M14.9707 5.66406Q17.0605 5.66406 18.96 5.01465Q20.8594 4.36523 22.4512 3.19336Q24.043 2.02148 25.2197 0.429688Q26.3965-1.16211 27.0459-3.06641Q27.6953-4.9707 27.6953-7.05078Q27.6953-9.14062 27.0459-11.04Q26.3965-12.9395 25.2197-14.5312Q24.043-16.123 22.4512-17.2998Q20.8594-18.4766 18.9551-19.126Q17.0508-19.7754 14.9609-19.7754Q12.8711-19.7754 10.9717-19.126Q9.07227-18.4766 7.48535-17.2998Q5.89844-16.123 4.72168-14.5312Q3.54492-12.9395 2.90039-11.04Q2.25586-9.14062 2.25586-7.05078Q2.25586-4.9707 2.90527-3.06641Q3.55469-1.16211 4.72656 0.429688Q5.89844 2.02148 7.49023 3.19336Q9.08203 4.36523 10.9814 5.01465Q12.8809 5.66406 14.9707 5.66406ZM14.9707 3.84766Q13.1641 3.84766 11.5283 3.2959Q9.89258 2.74414 8.53516 1.74805Q7.17773 0.751953 6.17676-0.610352Q5.17578-1.97266 4.62891-3.6084Q4.08203-5.24414 4.08203-7.05078Q4.08203-8.86719 4.62891-10.5029Q5.17578-12.1387 6.17188-13.501Q7.16797-14.8633 8.52539-15.8594Q9.88281-16.8555 11.5186-17.4023Q13.1543-17.9492 14.9609-17.9492Q16.7773-17.9492 18.4131-17.4023Q20.0488-16.8555 21.4111-15.8594Q22.7734-14.8633 23.7695-13.501Q24.7656-12.1387 25.3174-10.5029Q25.8691-8.86719 25.8691-7.05078Q25.8789-5.24414 25.332-3.6084Q24.7852-1.97266 23.7842-0.610352Q22.7832 0.751953 21.4209 1.74805Q20.0586 2.74414 18.4229 3.2959Q16.7871 3.84766 14.9707 3.84766ZM9.45312-7.04102Q9.45312-6.66016 9.71191-6.41113Q9.9707-6.16211 10.3711-6.16211L14.0625-6.16211L14.0625-2.46094Q14.0625-2.06055 14.3115-1.80664Q14.5605-1.55273 14.9414-1.55273Q15.3516-1.55273 15.6055-1.80664Q15.8594-2.06055 15.8594-2.46094L15.8594-6.16211L19.5605-6.16211Q19.9609-6.16211 20.2148-6.41113Q20.4688-6.66016 20.4688-7.04102Q20.4688-7.45117 20.2148-7.70508Q19.9609-7.95898 19.5605-7.95898L15.8594-7.95898L15.8594-11.6504Q15.8594-12.0605 15.6055-12.3145Q15.3516-12.5684 14.9414-12.5684Q14.5605-12.5684 14.3115-12.3096Q14.0625-12.0508 14.0625-11.6504L14.0625-7.95898L10.3711-7.95898Q9.96094-7.95898 9.70703-7.70508Q9.45312-7.45117 9.45312-7.04102Z"/>
  </g>
  <text style="stroke:none;fill:black;font-family:SF Pro,SF Pro Display,SF Pro Text,sans-serif;font-size:13;font-weight:bold;" transform="matrix(1 0 0 1 263 1953)">Design Variations</text>
  <text style="stroke:none;fill:black;font-family:SF Pro,SF Pro Display,SF Pro Text,sans-serif;font-size:13;" transform="matrix(1 0 0 1 263 1971)">Symbols are supported in up to nine weights and three scales.</text>
  <text style="stroke:none;fill:black;font-family:SF Pro,SF Pro Display,SF Pro Text,sans-serif;font-size:13;" transform="matrix(1 0 0 1 263 1989)">For optimal layout with text and other symbols, vertically align</text>
  <text style="stroke:none;fill:black;font-family:SF Pro,SF Pro Display,SF Pro Text,sans-serif;font-size:13;" transform="matrix(1 0 0 1 263 2007)">symbols with the adjacent text.</text>
  <line style="fill:none;stroke:#00AEEF;stroke-width:0.5;opacity:1.0;" x1="776" x2="776" y1="1919" y2="1933"/>
  <g transform="matrix(1 0 0 1 776 1933)">
   <path d="M3.31055 0.15625Q3.70117 0.15625 3.91602-0.00976562Q4.13086-0.175781 4.26758-0.585938L5.52734-4.0332L11.2891-4.0332L12.5488-0.585938Q12.6855-0.175781 12.9004-0.00976562Q13.1152 0.15625 13.4961 0.15625Q13.8867 0.15625 14.1162-0.0585938Q14.3457-0.273438 14.3457-0.644531Q14.3457-0.869141 14.2383-1.17188L9.6582-13.3691Q9.48242-13.8184 9.17969-14.043Q8.87695-14.2676 8.4082-14.2676Q7.5-14.2676 7.17773-13.3789L2.59766-1.16211Q2.49023-0.859375 2.49023-0.634766Q2.49023-0.263672 2.70996-0.0537109Q2.92969 0.15625 3.31055 0.15625ZM6.00586-5.51758L8.37891-12.0898L8.42773-12.0898L10.8008-5.51758Z"/>
  </g>
  <line style="fill:none;stroke:#00AEEF;stroke-width:0.5;opacity:1.0;" x1="793.197" x2="793.197" y1="1919" y2="1933"/>
  <text style="stroke:none;fill:black;font-family:SF Pro,SF Pro Display,SF Pro Text,sans-serif;font-size:13;font-weight:bold;" transform="matrix(1 0 0 1 776 1953)">Margins</text>
  <text style="stroke:none;fill:black;font-family:SF Pro,SF Pro Display,SF Pro Text,sans-serif;font-size:13;" transform="matrix(1 0 0 1 776 1971)">Leading and trailing margins on the left and right side of each symbol</text>
  <text style="stroke:none;fill:black;font-family:SF Pro,SF Pro Display,SF Pro Text,sans-serif;font-size:13;" transform="matrix(1 0 0 1 776 1989)">can be adjusted by modifying the x-location of the margin guidelines.</text>
  <text style="stroke:none;fill:black;font-family:SF Pro,SF Pro Display,SF Pro Text,sans-serif;font-size:13;" transform="matrix(1 0 0 1 776 2007)">Modifications are automatically applied proportionally to all</text>
  <text style="stroke:none;fill:black;font-family:SF Pro,SF Pro Display,SF Pro Text,sans-serif;font-size:13;" transform="matrix(1 0 0 1 776 2025)">scales and weights.</text>
  <g transform="matrix(1 0 0 1 1289 1933)">
   <path d="M2.8418 1.86523L4.54102 3.57422Q5.18555 4.22852 5.90332 4.17969Q6.62109 4.13086 7.31445 3.35938L18.0078-8.42773L17.041-9.4043L6.42578 2.27539Q6.16211 2.57812 5.89355 2.61719Q5.625 2.65625 5.27344 2.30469L4.10156 1.14258Q3.75 0.791016 3.79395 0.522461Q3.83789 0.253906 4.14062-0.0195312L15.6152-10.8203L14.6387-11.7871L3.04688-0.898438Q2.30469-0.214844 2.25098 0.498047Q2.19727 1.21094 2.8418 1.86523ZM9.25781-16.3281Q8.94531-16.0254 8.90625-15.6348Q8.86719-15.2441 9.04297-14.9512Q9.21875-14.6777 9.55566-14.541Q9.89258-14.4043 10.3809-14.5215Q11.4746-14.7754 12.5977-14.7314Q13.7207-14.6875 14.7949-13.9844L14.209-12.5293Q13.9551-11.9043 14.0674-11.4404Q14.1797-10.9766 14.5801-10.5664L16.875-8.25195Q17.2363-7.88086 17.5781-7.82227Q17.9199-7.76367 18.3398-7.8418L19.4043-8.03711L20.0684-7.36328L20.0293-6.80664Q20-6.43555 20.1221-6.12305Q20.2441-5.81055 20.6055-5.44922L21.3672-4.70703Q21.7285-4.3457 22.1533-4.33105Q22.5781-4.31641 22.9297-4.66797L25.8398-7.58789Q26.1914-7.93945 26.1816-8.35449Q26.1719-8.76953 25.8105-9.13086L25.0391-9.89258Q24.6875-10.2539 24.3799-10.3857Q24.0723-10.5176 23.7109-10.4883L23.1348-10.4395L22.4902-11.0742L22.7344-12.1973Q22.832-12.6172 22.6953-12.9834Q22.5586-13.3496 22.1191-13.7891L19.9219-15.9766Q18.6719-17.2168 17.2607-17.8369Q15.8496-18.457 14.4189-18.4814Q12.9883-18.5059 11.665-17.959Q10.3418-17.4121 9.25781-16.3281ZM10.752-15.957Q11.6602-16.6211 12.7002-16.9043Q13.7402-17.1875 14.8047-17.085Q15.8691-16.9824 16.8701-16.5137Q17.8711-16.0449 18.7012-15.2051L21.1328-12.793Q21.3086-12.6172 21.3525-12.4512Q21.3965-12.2852 21.3379-12.0312L21.0156-10.5469L22.5195-9.0625L23.5059-9.12109Q23.6914-9.13086 23.7891-9.09668Q23.8867-9.0625 24.0332-8.91602L24.6094-8.33984L22.168-5.89844L21.5918-6.47461Q21.4453-6.62109 21.4062-6.71875Q21.3672-6.81641 21.377-7.01172L21.4453-7.98828L19.9512-9.47266L18.4277-9.21875Q18.1836-9.16992 18.042-9.2041Q17.9004-9.23828 17.7148-9.41406L15.7129-11.416Q15.5176-11.5918 15.4932-11.7529Q15.4688-11.9141 15.5859-12.1875L16.4648-14.2773Q15.293-15.3711 13.8281-15.791Q12.3633-16.2109 10.8398-15.7617Q10.7227-15.7324 10.6885-15.8057Q10.6543-15.8789 10.752-15.957Z"/>
  </g>
  <text style="stroke:none;fill:black;font-family:SF Pro,SF Pro Display,SF Pro Text,sans-serif;font-size:13;font-weight:bold;" transform="matrix(1 0 0 1 1289 1953)">Exporting</text>
  <text style="stroke:none;fill:black;font-family:SF Pro,SF Pro Display,SF Pro Text,sans-serif;font-size:13;" transform="matrix(1 0 0 1 1289 1971)">Symbols should be outlined when exporting to ensure the</text>
  <text style="stroke:none;fill:black;font-family:SF Pro,SF Pro Display,SF Pro Text,sans-serif;font-size:13;" transform="matrix(1 0 0 1 1289 1989)">design is preserved when submitting to Xcode.</text>
  <text id="template-version" style="stroke:none;fill:black;font-family:SF Pro,SF Pro Display,SF Pro Text,sans-serif;font-size:13;text-anchor:end;" transform="matrix(1 0 0 1 3036 1933)">Template v.3.0</text>
  <text style="stroke:none;fill:black;font-family:SF Pro,SF Pro Display,SF Pro Text,sans-serif;font-size:13;text-anchor:end;" transform="matrix(1 0 0 1 3036 1951)">Requires Xcode 13 or greater</text>
  <text id="descriptive-name" style="stroke:none;fill:black;font-family:SF Pro,SF Pro Display,SF Pro Text,sans-serif;font-size:13;text-anchor:end;" transform="matrix(1 0 0 1 3036 1969)">Generated from infinity</text>
  <text style="stroke:none;fill:black;font-family:SF Pro,SF Pro Display,SF Pro Text,sans-serif;font-size:13;text-anchor:end;" transform="matrix(1 0 0 1 3036 1987)">Typeset at 100 points</text>
  <text style="stroke:none;fill:black;font-family:SF Pro,SF Pro Display,SF Pro Text,sans-serif;font-size:13;" transform="matrix(1 0 0 1 263 726)">Small</text>
  <text style="stroke:none;fill:black;font-family:SF Pro,SF Pro Display,SF Pro Text,sans-serif;font-size:13;" transform="matrix(1 0 0 1 263 1156)">Medium</text>
  <text style="stroke:none;fill:black;font-family:SF Pro,SF Pro Display,SF Pro Text,sans-serif;font-size:13;" transform="matrix(1 0 0 1 263 1586)">Large</text>
 </g>
 <g id="Guides">
  <g id="H-reference" style="fill:#27AAE1;stroke:none;" transform="matrix(1 0 0 1 339 696)">
   <path d="M0.993347 0L3.6377 0L29.3282-67.1326L30.0301-67.1326L30.0301-70.459L28.1227-70.459ZM11.6882-24.4797L46.9818-24.4797L46.2311-26.7288L12.4382-26.7288ZM55.1193 0L57.7637 0L30.6381-70.459L29.4327-70.459L29.4327-67.1326Z"/>
  </g>
  <line id="Baseline-S" style="fill:none;stroke:#27AAE1;opacity:1;stroke-width:0.5;" x1="263" x2="3036" y1="696" y2="696"/>
  <line id="Capline-S" style="fill:none;stroke:#27AAE1;opacity:1;stroke-width:0.5;" x1="263" x2="3036" y1="625.541" y2="625.541"/>
  <g id="H-reference" style="fill:#27AAE1;stroke:none;" transform="matrix(1 0 0 1 339 1126)">
   <path d="M0.993347 0L3.6377 0L29.3282-67.1326L30.0301-67.1326L30.0301-70.459L28.1227-70.459ZM11.6882-24.4797L46.9818-24.4797L46.2311-26.7288L12.4382-26.7288ZM55.1193 0L57.7637 0L30.6381-70.459L29.4327-70.459L29.4327-67.1326Z"/>
  </g>
  <line id="Baseline-M" style="fill:none;stroke:#27AAE1;opacity:1;stroke-width:0.5;" x1="263" x2="3036" y1="1126" y2="1126"/>
  <line id="Capline-M" style="fill:none;stroke:#27AAE1;opacity:1;stroke-width:0.5;" x1="263" x2="3036" y1="1055.54" y2="1055.54"/>
  <g id="H-reference" style="fill:#27AAE1;stroke:none;" transform="matrix(1 0 0 1 339 1556)">
   <path d="M0.993347 0L3.6377 0L29.3282-67.1326L30.0301-67.1326L30.0301-70.459L28.1227-70.459ZM11.6882-24.4797L46.9818-24.4797L46.2311-26.7288L12.4382-26.7288ZM55.1193 0L57.7637 0L30.6381-70.459L29.4327-70.459L29.4327-67.1326Z"/>
  </g>
  <line id="Baseline-L" style="fill:none;stroke:#27AAE1;opacity:1;stroke-width:0.5;" x1="263" x2="3036" y1="1556" y2="1556"/>
  <line id="Capline-L" style="fill:none;stroke:#27AAE1;opacity:1;stroke-width:0.5;" x1="263" x2="3036" y1="1485.54" y2="1485.54"/>
  <line id="left-margin-Regular-M" style="fill:none;stroke:#00AEEF;stroke-width:0.5;opacity:1.0;" x1="1377.46" x2="1377.46" y1="1030.79" y2="1150.12"/>
  <line id="right-margin-Regular-M" style="fill:none;stroke:#00AEEF;stroke-width:0.5;opacity:1.0;" x1="1522.23" x2="1522.23" y1="1030.79" y2="1150.12"/>
 </g>
 <g id="Symbols">
  <g id="Black-L" transform="matrix(1 0 0 1 2828.22 1556)">
   <path d="M11.2793-35.2539Q11.2793-25.0488 14.4775-16.6748Q17.6758-8.30078 23.584-2.29492Q29.4922 3.71094 37.6709 6.95801Q45.8496 10.2051 55.8105 10.2051Q62.5 10.2051 68.6768 8.37402Q74.8535 6.54297 80.7617 2.80762Q86.6699-0.927734 92.4805-6.64062L105.176-18.9941L117.871-6.64062Q123.682-0.927734 129.59 2.80762Q135.498 6.54297 141.699 8.37402Q147.9 10.2051 154.541 10.2051Q164.502 10.2051 172.705 6.95801Q180.908 3.71094 186.792-2.29492Q192.676-8.30078 195.874-16.6748Q199.072-25.0488 199.072-35.2539Q199.072-45.5078 195.874-53.8574Q192.676-62.207 186.792-68.2373Q180.908-74.2676 172.705-77.5146Q164.502-80.7617 154.541-80.7617Q147.9-80.7617 141.699-78.9062Q135.498-77.0508 129.59-73.3154Q123.682-69.5801 117.871-63.916L105.176-51.5137L92.4805-63.916Q86.6699-69.5801 80.7617-73.3154Q74.8535-77.0508 68.6768-78.9062Q62.5-80.7617 55.8105-80.7617Q45.8496-80.7617 37.6709-77.5146Q29.4922-74.2676 23.584-68.2373Q17.6758-62.207 14.4775-53.8574Q11.2793-45.5078 11.2793-35.2539ZM34.7656-35.2539Q34.7656-41.9434 37.3779-46.8994Q39.9902-51.8555 44.7266-54.5654Q49.4629-57.2754 55.8105-57.2754Q60.8398-57.2754 65.7959-54.7852Q70.752-52.2949 76.0742-47.168L88.5254-35.2539L76.0742-23.3398Q70.752-18.2617 65.7959-15.7715Q60.8398-13.2812 55.8105-13.2812Q49.4629-13.2812 44.7266-15.9912Q39.9902-18.7012 37.3779-23.6328Q34.7656-28.5645 34.7656-35.2539ZM121.826-35.2539L134.277-47.168Q139.6-52.2949 144.556-54.7852Q149.512-57.2754 154.541-57.2754Q160.938-57.2754 165.649-54.5654Q170.361-51.8555 172.974-46.8994Q175.586-41.9434 175.586-35.2539Q175.586-28.5645 172.974-23.6328Q170.361-18.7012 165.649-15.9912Q160.938-13.2812 154.541-13.2812Q149.512-13.2812 144.556-15.7715Q139.6-18.2617 134.277-23.3398Z"/>
  </g>
  <g id="Heavy-L" transform="matrix(1 0 0 1 2534.72 1556)">
   <path d="M11.2793-35.2539Q11.2793-25.5211 14.3047-17.5564Q17.3302-9.59167 22.9214-3.87955Q28.5126 1.83258 36.2362 4.91257Q43.9598 7.99255 53.3562 7.99255Q59.7916 7.99255 65.7032 6.20766Q71.6148 4.42276 77.2812 0.79689Q82.9475-2.82898 88.6086-8.358L101.984-21.3104L115.336-8.358Q120.996-2.82898 126.668 0.79689Q132.34 4.42276 138.265 6.20766Q144.189 7.99255 150.588 7.99255Q159.985 7.99255 167.732 4.91257Q175.48 1.83258 181.047-3.87955Q186.614-9.59167 189.639-17.5564Q192.664-25.5211 192.664-35.2539Q192.664-45.0241 189.639-52.9758Q186.614-60.9276 181.047-66.6584Q175.48-72.3892 167.732-75.4692Q159.985-78.5492 150.588-78.5492Q144.189-78.5492 138.265-76.7456Q132.34-74.942 126.668-71.3104Q120.996-67.6788 115.336-62.1872L101.984-49.2088L88.6086-62.1872Q82.9475-67.6788 77.2812-71.3104Q71.6148-74.942 65.7032-76.7456Q59.7916-78.5492 53.3562-78.5492Q43.9598-78.5492 36.2362-75.4692Q28.5126-72.3892 22.9214-66.6584Q17.3302-60.9276 14.3047-52.9758Q11.2793-45.0241 11.2793-35.2539ZM31.4926-35.2539Q31.4926-42.2661 34.2316-47.4583Q36.9705-52.6505 41.8915-55.4932Q46.8124-58.3359 53.3562-58.3359Q58.6845-58.3359 63.802-55.7129Q68.9194-53.0899 74.4606-47.7905L87.661-35.2539L74.4606-22.7287Q68.9079-17.4667 63.7905-14.8438Q58.6731-12.2208 53.3562-12.2208Q46.8124-12.2208 41.8915-15.0635Q36.9705-17.9062 34.2316-23.0797Q31.4926-28.2532 31.4926-35.2539ZM116.283-35.2539L129.483-47.7905Q135.036-53.0899 140.153-55.7129Q145.271-58.3359 150.588-58.3359Q157.181-58.3359 162.083-55.4932Q166.985-52.6505 169.718-47.4583Q172.451-42.2661 172.451-35.2539Q172.451-28.2532 169.718-23.0797Q166.985-17.9062 162.083-15.0635Q157.181-12.2208 150.588-12.2208Q145.271-12.2208 140.153-14.8438Q135.036-17.4667 129.494-22.7287Z"/>
  </g>
  <g id="Bold-L" transform="matrix(1 0 0 1 2241.59 1556)">
   <path d="M11.2793-35.2539Q11.2793-26.0498 14.1113-18.5425Q16.9434-11.0352 22.1802-5.65186Q27.417-0.268555 34.6313 2.62451Q41.8457 5.51758 50.6104 5.51758Q56.7627 5.51758 62.3779 3.78418Q67.9932 2.05078 73.3887-1.45264Q78.7842-4.95605 84.2773-10.2783L98.4131-23.9014L112.5-10.2783Q117.993-4.95605 123.401-1.45264Q128.809 2.05078 134.424 3.78418Q140.039 5.51758 146.167 5.51758Q154.932 5.51758 162.17 2.62451Q169.409-0.268555 174.622-5.65186Q179.834-11.0352 182.666-18.5425Q185.498-26.0498 185.498-35.2539Q185.498-44.4824 182.666-51.9897Q179.834-59.4971 174.622-64.8926Q169.409-70.2881 162.17-73.1812Q154.932-76.0742 146.167-76.0742Q140.039-76.0742 134.424-74.3286Q128.809-72.583 123.401-69.0674Q117.993-65.5518 112.5-60.2539L98.4131-46.6309L84.2773-60.2539Q78.7842-65.5518 73.3887-69.0674Q67.9932-72.583 62.3779-74.3286Q56.7627-76.0742 50.6104-76.0742Q41.8457-76.0742 34.6313-73.1812Q27.417-70.2881 22.1802-64.8926Q16.9434-59.4971 14.1113-51.9897Q11.2793-44.4824 11.2793-35.2539ZM27.832-35.2539Q27.832-42.627 30.7129-48.0835Q33.5938-53.54 38.7207-56.5308Q43.8477-59.5215 50.6104-59.5215Q56.2744-59.5215 61.5723-56.7505Q66.8701-53.9795 72.6562-48.4863L86.6943-35.2539L72.6562-22.0459Q66.8457-16.5771 61.5479-13.8062Q56.25-11.0352 50.6104-11.0352Q43.8477-11.0352 38.7207-14.0259Q33.5938-17.0166 30.7129-22.4609Q27.832-27.9053 27.832-35.2539ZM110.083-35.2539L124.121-48.4863Q129.932-53.9795 135.229-56.7505Q140.527-59.5215 146.167-59.5215Q152.979-59.5215 158.093-56.5308Q163.208-53.54 166.077-48.0835Q168.945-42.627 168.945-35.2539Q168.945-27.9053 166.077-22.4609Q163.208-17.0166 158.093-14.0259Q152.979-11.0352 146.167-11.0352Q140.527-11.0352 135.229-13.8062Q129.932-16.5771 124.146-22.0459Z"/>
  </g>
  <g id="Semibold-L" transform="matrix(1 0 0 1 1947.35 1556)">
   <path d="M11.2793-35.2539Q11.2793-26.4145 13.9782-19.2226Q16.6771-12.0308 21.6694-6.87408Q26.6617-1.71738 33.5251 1.04713Q40.3885 3.81165 48.7175 3.81165Q54.6745 3.81165 60.0853 2.11372Q65.4961 0.415802 70.705-3.00331Q75.914-6.42242 81.2912-11.6028L95.9511-25.6874L110.545-11.6028Q115.923-6.42242 121.148-3.00331Q126.373 0.415802 131.775 2.11372Q137.177 3.81165 143.119 3.81165Q151.448 3.81165 158.336 1.04713Q165.224-1.71738 170.192-6.87408Q175.159-12.0308 177.858-19.2226Q180.556-26.4145 180.556-35.2539Q180.556-44.1093 177.858-51.31Q175.159-58.5106 170.192-63.6749Q165.224-68.8393 158.336-71.6038Q151.448-74.3683 143.119-74.3683Q137.177-74.3683 131.775-72.6624Q126.373-70.9564 121.148-67.5209Q115.923-64.0854 110.545-58.9211L95.9511-44.8532L81.2912-58.9211Q75.914-64.0854 70.705-67.5209Q65.4961-70.9564 60.0853-72.6624Q54.6745-74.3683 48.7175-74.3683Q40.3885-74.3683 33.5251-71.6038Q26.6617-68.8393 21.6694-63.6749Q16.6771-58.5106 13.9782-51.31Q11.2793-44.1093 11.2793-35.2539ZM25.3082-35.2539Q25.3082-42.8757 28.2867-48.5146Q31.2653-54.1534 36.5345-57.2464Q41.8037-60.3394 48.7175-60.3394Q54.6127-60.3394 60.0349-57.4661Q65.4572-54.5929 71.4119-48.9662L86.0275-35.2539L71.4119-21.5752Q65.4236-15.9637 60.0014-13.0905Q54.5792-10.2173 48.7175-10.2173Q41.8037-10.2173 36.5345-13.3102Q31.2653-16.4032 28.2867-22.0341Q25.3082-27.6649 25.3082-35.2539ZM105.808-35.2539L120.424-48.9662Q126.412-54.5929 131.834-57.4661Q137.257-60.3394 143.119-60.3394Q150.082-60.3394 155.343-57.2464Q160.604-54.1534 163.566-48.5146Q166.528-42.8757 166.528-35.2539Q166.528-27.6649 163.566-22.0341Q160.604-16.4032 155.343-13.3102Q150.082-10.2173 143.119-10.2173Q137.257-10.2173 131.834-13.0905Q126.412-15.9637 120.457-21.5752Z"/>
  </g>
  <g id="Medium-L" transform="matrix(1 0 0 1 1652.51 1556)">
   <path d="M11.2793-35.2539Q11.2793-26.6907 13.8771-19.738Q16.4749-12.7853 21.2818-7.80029Q26.0887-2.81525 32.6859-0.148773Q39.283 2.5177 47.2824 2.5177Q53.0907 2.5177 58.3466 0.846863Q63.6024-0.823975 68.6699-4.179Q73.7373-7.53403 79.0276-12.6068L94.0849-27.0424L109.062-12.6068Q114.352-7.53403 119.44-4.179Q124.527-0.823975 129.767 0.846863Q135.007 2.5177 140.807 2.5177Q148.807 2.5177 155.428-0.148773Q162.05-2.81525 166.832-7.80029Q171.615-12.7853 174.213-19.738Q176.81-26.6907 176.81-35.2539Q176.81-43.8263 174.213-50.7946Q171.615-57.7629 166.832-62.7522Q162.05-67.7414 155.428-70.4079Q148.807-73.0743 140.807-73.0743Q135.007-73.0743 129.767-71.3989Q124.527-69.7235 119.44-66.3486Q114.352-62.9738 109.062-57.9102L94.0849-43.5059L79.0276-57.9102Q73.7373-62.9738 68.6699-66.3486Q63.6024-69.7235 58.3466-71.3989Q53.0907-73.0743 47.2824-73.0743Q39.283-73.0743 32.6859-70.4079Q26.0887-67.7414 21.2818-62.7522Q16.4749-57.7629 13.8771-50.7946Q11.2793-43.8263 11.2793-35.2539ZM23.3948-35.2539Q23.3948-43.0641 26.4473-48.8411Q29.4998-54.6181 34.8766-57.7885Q40.2534-60.9589 47.2824-60.9589Q53.3524-60.9589 58.8692-58.0082Q64.386-55.0575 70.4689-49.3301L85.5225-35.2539L70.4689-21.2181Q64.3456-15.4991 58.8291-12.5484Q53.3127-9.59778 47.2824-9.59778Q40.2534-9.59778 34.8766-12.7682Q29.4998-15.9386 26.4473-21.711Q23.3948-27.4834 23.3948-35.2539ZM102.567-35.2539L117.621-49.3301Q123.744-55.0575 129.261-58.0082Q134.777-60.9589 140.807-60.9589Q147.884-60.9589 153.257-57.7885Q158.63-54.6181 161.662-48.8411Q164.695-43.0641 164.695-35.2539Q164.695-27.4834 161.662-21.711Q158.63-15.9386 153.257-12.7682Q147.884-9.59778 140.807-9.59778Q134.777-9.59778 129.261-12.5484Q123.744-15.4991 117.661-21.2181Z"/>
  </g>
  <g id="Regular-L" transform="matrix(1 0 0 1 1358.24 1556)">
   <path d="M11.2793-35.2539Q11.2793-27.0508 13.7451-20.4102Q16.2109-13.7695 20.7764-9.00879Q25.3418-4.24805 31.5918-1.70898Q37.8418 0.830078 45.4102 0.830078Q51.0254 0.830078 56.0791-0.805664Q61.1328-2.44141 66.0156-5.71289Q70.8984-8.98438 76.0742-13.916L91.6504-28.8086L107.129-13.916Q112.305-8.98438 117.212-5.71289Q122.119-2.44141 127.148-0.805664Q132.178 0.830078 137.793 0.830078Q145.361 0.830078 151.636-1.70898Q157.91-4.24805 162.451-9.00879Q166.992-13.7695 169.458-20.4102Q171.924-27.0508 171.924-35.2539Q171.924-43.457 169.458-50.1221Q166.992-56.7871 162.451-61.5479Q157.91-66.3086 151.636-68.8477Q145.361-71.3867 137.793-71.3867Q132.178-71.3867 127.148-69.751Q122.119-68.1152 117.212-64.8193Q112.305-61.5234 107.129-56.5918L91.6504-41.748L76.0742-56.5918Q70.8984-61.5234 66.0156-64.8193Q61.1328-68.1152 56.0791-69.751Q51.0254-71.3867 45.4102-71.3867Q37.8418-71.3867 31.5918-68.8477Q25.3418-66.3086 20.7764-61.5479Q16.2109-56.7871 13.7451-50.1221Q11.2793-43.457 11.2793-35.2539ZM20.8984-35.2539Q20.8984-43.3105 24.0479-49.2676Q27.1973-55.2246 32.7148-58.4961Q38.2324-61.7676 45.4102-61.7676Q51.709-61.7676 57.3486-58.7158Q62.9883-55.6641 69.2383-49.8047L84.8633-35.2539L69.2383-20.752Q62.9395-14.8926 57.2998-11.8408Q51.6602-8.78906 45.4102-8.78906Q38.2324-8.78906 32.7148-12.0605Q27.1973-15.332 24.0479-21.2891Q20.8984-27.2461 20.8984-35.2539ZM98.3398-35.2539L113.965-49.8047Q120.264-55.6641 125.903-58.7158Q131.543-61.7676 137.793-61.7676Q145.02-61.7676 150.537-58.4961Q156.055-55.2246 159.18-49.2676Q162.305-43.3105 162.305-35.2539Q162.305-27.2461 159.18-21.2891Q156.055-15.332 150.537-12.0605Q145.02-8.78906 137.793-8.78906Q131.543-8.78906 125.903-11.8408Q120.264-14.8926 114.014-20.752Z"/>
  </g>
  <g id="Light-L" transform="matrix(1 0 0 1 1063.98 1556)">
   <path d="M11.2793-35.2539Q11.2793-27.52 13.6543-21.2353Q16.0294-14.9506 20.3979-10.4469Q24.7665-5.9433 30.7137-3.53279Q36.6608-1.12228 43.8057-1.12228Q49.3301-1.12228 54.2248-2.76566Q59.1194-4.40903 63.8584-7.66563Q68.5974-10.9222 73.7129-15.7623L89.1983-30.4733L104.601-15.7623Q109.731-10.9222 114.48-7.66563Q119.228-4.40903 124.106-2.76566Q128.984-1.12228 134.509-1.12228Q141.653-1.12228 147.617-3.53279Q153.581-5.9433 157.925-10.4469Q162.27-14.9506 164.652-21.2353Q167.035-27.52 167.035-35.2539Q167.035-43.0031 164.652-49.2973Q162.27-55.5916 157.925-60.1025Q153.581-64.6133 147.617-67.0238Q141.653-69.4344 134.509-69.4344Q128.984-69.4344 124.106-67.7834Q119.228-66.1324 114.48-62.8666Q109.731-59.6008 104.601-54.7455L89.1983-40.0833L73.7129-54.7455Q68.5974-59.6008 63.8584-62.8666Q59.1194-66.1324 54.2248-67.7834Q49.3301-69.4344 43.8057-69.4344Q36.6608-69.4344 30.7137-67.0238Q24.7665-64.6133 20.3979-60.1025Q16.0294-55.5916 13.6543-49.2973Q11.2793-43.0031 11.2793-35.2539ZM18.5066-35.2539Q18.5066-43.4013 21.785-49.4568Q25.0633-55.5122 30.7701-58.8593Q36.4769-62.2063 43.8057-62.2063Q50.4372-62.2063 56.2206-58.9882Q62.0041-55.7701 68.5272-49.6986L84.1064-35.2539L68.4967-20.858Q61.9408-14.7713 56.1573-11.5608Q50.3738-8.35037 43.8057-8.35037Q36.4769-8.35037 30.7701-11.6898Q25.0633-15.0291 21.785-21.0922Q18.5066-27.1553 18.5066-35.2539ZM94.2078-35.2539L109.787-49.6986Q116.343-55.7701 122.126-58.9882Q127.91-62.2063 134.509-62.2063Q141.856-62.2063 147.562-58.8593Q153.269-55.5122 156.538-49.4568Q159.807-43.4013 159.807-35.2539Q159.807-27.1553 156.538-21.0922Q153.269-15.0291 147.562-11.6898Q141.856-8.35037 134.509-8.35037Q127.94-8.35037 122.157-11.5608Q116.373-14.7713 109.851-20.858Z"/>
  </g>
  <g id="Thin-L" transform="matrix(1 0 0 1 770.498 1556)">
   <path d="M11.2793-35.2539Q11.2793-28.1403 13.5342-22.3259Q15.789-16.5115 19.8975-12.3486Q24.0059-8.18558 29.5528-5.94521Q35.0998-3.70483 41.684-3.70483Q47.0879-3.70483 51.7727-5.35812Q56.4575-7.01141 61.0062-10.2478Q65.5548-13.4842 70.5902-18.2053L85.955-32.6759L101.258-18.2053Q106.329-13.4842 110.867-10.2478Q115.405-7.01141 120.082-5.35812Q124.76-3.70483 130.164-3.70483Q136.749-3.70483 142.302-5.94521Q147.856-8.18558 151.94-12.3486Q156.024-16.5115 158.297-22.3259Q160.569-28.1403 160.569-35.2539Q160.569-42.4026 158.297-48.2063Q156.024-54.01 151.94-58.1905Q147.856-62.3711 142.302-64.6114Q136.749-66.8518 130.164-66.8518Q124.76-66.8518 120.082-65.181Q115.405-63.5101 110.867-60.2844Q106.329-57.0587 101.258-52.3026L85.955-37.8807L70.5902-52.3026Q65.5548-57.0587 61.0062-60.2844Q56.4575-63.5101 51.7727-65.181Q47.0879-66.8518 41.684-66.8518Q35.0998-66.8518 29.5528-64.6114Q24.0059-62.3711 19.8975-58.1905Q15.789-54.01 13.5342-48.2063Q11.2793-42.4026 11.2793-35.2539ZM15.3442-35.2539Q15.3442-43.5211 18.7923-49.7066Q22.2404-55.8922 28.1975-59.3395Q34.1545-62.7869 41.684-62.7869Q48.7556-62.7869 54.7295-59.3487Q60.7033-55.9105 67.5858-49.5583L83.1055-35.2539L67.5156-20.9984Q60.6194-14.6111 54.6455-11.1904Q48.6717-7.76978 41.684-7.76978Q34.1545-7.76978 28.1975-11.1992Q22.2404-14.6286 18.7923-20.8321Q15.3442-27.0355 15.3442-35.2539ZM88.7428-35.2539L104.262-49.5583Q111.159-55.9105 117.132-59.3487Q123.106-62.7869 130.164-62.7869Q137.672-62.7869 143.629-59.3395Q149.586-55.8922 153.045-49.7066Q156.504-43.5211 156.504-35.2539Q156.504-27.0355 153.045-20.8321Q149.586-14.6286 143.629-11.1992Q137.672-7.76978 130.164-7.76978Q123.176-7.76978 117.202-11.1904Q111.229-14.6111 104.346-20.9984Z"/>
  </g>
  <g id="Ultralight-L" transform="matrix(1 0 0 1 475.443 1556)">
   <path d="M11.2793-35.2539Q11.2793-28.4584 13.4727-22.8851Q15.6662-17.3119 19.6411-13.3228Q23.616-9.3338 28.9577-7.18079Q34.2995-5.02777 40.5968-5.02777Q45.9396-5.02777 50.5165-6.6864Q55.0934-8.34503 59.5448-11.5711Q63.9961-14.7972 68.9903-19.4557L84.2941-33.8036L99.5453-19.4557Q104.585-14.7972 109.016-11.5711Q113.446-8.34503 118.021-6.6864Q122.596-5.02777 127.939-5.02777Q134.236-5.02777 139.579-7.18079Q144.923-9.3338 148.874-13.3228Q152.824-17.3119 155.04-22.8851Q157.256-28.4584 157.256-35.2539Q157.256-42.0944 155.04-47.6471Q152.824-53.1998 148.874-57.2113Q144.923-61.2228 139.579-63.3759Q134.236-65.5289 127.939-65.5289Q122.596-65.5289 118.021-63.8477Q113.446-62.1666 109.016-58.9615Q104.585-55.7564 99.5453-51.0521L84.2941-36.7531L68.9903-51.0521Q63.9961-55.7564 59.5448-58.9615Q55.0934-62.1666 50.5165-63.8477Q45.9396-65.5289 40.5968-65.5289Q34.2995-65.5289 28.9577-63.3759Q23.616-61.2228 19.6411-57.2113Q15.6662-53.1998 13.4727-47.6471Q11.2793-42.0944 11.2793-35.2539ZM13.7238-35.2539Q13.7238-43.5829 17.2592-49.8352Q20.7947-56.0875 26.8799-59.586Q32.9651-63.0844 40.5968-63.0844Q47.8943-63.0844 53.9654-59.5333Q60.0365-55.9822 67.1043-49.4865L82.5928-35.2539L67.0135-21.0701Q59.9426-14.5294 53.8715-11.0008Q47.8004-7.47223 40.5968-7.47223Q32.9651-7.47223 26.8799-10.9482Q20.7947-14.4241 17.2592-20.6989Q13.7238-26.9737 13.7238-35.2539ZM85.9428-35.2539L101.432-49.4865Q108.502-55.9822 114.573-59.5333Q120.644-63.0844 127.939-63.0844Q135.529-63.0844 141.614-59.586Q147.699-56.0875 151.255-49.8352Q154.812-43.5829 154.812-35.2539Q154.812-26.9737 151.255-20.6989Q147.699-14.4241 141.614-10.9482Q135.529-7.47223 127.939-7.47223Q120.735-7.47223 114.664-11.0008Q108.593-14.5294 101.526-21.0701Z"/>
  </g>
  <g id="Black-M" transform="matrix(1 0 0 1 2849.98 1126)">
   <path d="M8.74023-35.2539Q8.74023-24.3652 13.2812-16.1377Q17.8223-7.91016 25.9277-3.34473Q34.0332 1.2207 44.8242 1.2207Q52.832 1.2207 60.0586-2.09961Q67.2852-5.41992 74.1699-12.207L83.4473-21.2402L92.6758-12.207Q99.5605-5.41992 106.787-2.09961Q114.014 1.2207 122.021 1.2207Q132.812 1.2207 140.918-3.34473Q149.023-7.91016 153.564-16.1377Q158.105-24.3652 158.105-35.2539Q158.105-46.1914 153.564-54.3945Q149.023-62.5977 140.918-67.1631Q132.812-71.7285 122.021-71.7285Q114.014-71.7285 106.787-68.4082Q99.5605-65.0879 92.6758-58.3008L83.4473-49.2676L74.1699-58.3008Q67.2852-65.0879 60.0586-68.4082Q52.832-71.7285 44.8242-71.7285Q34.0332-71.7285 25.9277-67.1631Q17.8223-62.5977 13.2812-54.3945Q8.74023-46.1914 8.74023-35.2539ZM28.9062-35.2539Q28.9062-40.1855 30.8838-43.8477Q32.8613-47.5098 36.4258-49.5361Q39.9902-51.5625 44.8242-51.5625Q48.584-51.5625 52.3193-49.6826Q56.0547-47.8027 60.1074-43.9453L69.0918-35.2539L60.1074-26.6113Q56.0547-22.7051 52.3193-20.8252Q48.584-18.9453 44.8242-18.9453Q39.9902-18.9453 36.4258-20.9717Q32.8613-22.998 30.8838-26.6602Q28.9062-30.3223 28.9062-35.2539ZM97.7539-35.2539L106.738-43.9453Q110.791-47.8027 114.526-49.6826Q118.262-51.5625 122.021-51.5625Q126.855-51.5625 130.42-49.5361Q133.984-47.5098 135.962-43.8477Q137.939-40.1855 137.939-35.2539Q137.939-30.3223 135.962-26.6602Q133.984-22.998 130.42-20.9717Q126.855-18.9453 122.021-18.9453Q118.262-18.9453 114.526-20.8252Q110.791-22.7051 106.738-26.6113Z"/>
  </g>
  <g id="Heavy-M" transform="matrix(1 0 0 1 2555.87 1126)">
   <path d="M8.74023-35.2539Q8.74023-24.8489 13.0219-17.0193Q17.3035-9.18961 24.9538-4.85458Q32.6042-0.519562 42.7612-0.519562Q50.4463-0.519562 57.3273-3.73039Q64.2082-6.94122 70.8969-13.4979L80.8426-23.1415L90.7394-13.4979Q97.4281-6.94122 104.315-3.73039Q111.201-0.519562 118.875-0.519562Q129.032-0.519562 136.683-4.85458Q144.333-9.18961 148.615-17.0193Q152.896-24.8489 152.896-35.2539Q152.896-45.6955 148.615-53.5069Q144.333-61.3182 136.683-65.6532Q129.032-69.9883 118.875-69.9883Q111.201-69.9883 104.315-66.7774Q97.4281-63.5666 90.7394-57.0099L80.8426-47.3663L70.8969-57.0099Q64.2082-63.5666 57.3273-66.7774Q50.4463-69.9883 42.7612-69.9883Q32.6042-69.9883 24.9538-65.6532Q17.3035-61.3182 13.0219-53.5069Q8.74023-45.6955 8.74023-35.2539ZM26.2329-35.2539Q26.2329-40.4854 28.2967-44.355Q30.3604-48.2246 34.0691-50.3605Q37.7777-52.4963 42.7612-52.4963Q46.74-52.4963 50.6081-50.5241Q54.4762-48.5519 58.6899-44.5679L68.412-35.2539L58.6784-25.9773Q54.4762-21.9559 50.6081-19.9837Q46.74-18.0115 42.7612-18.0115Q37.7777-18.0115 34.0691-20.1473Q30.3604-22.2832 28.2967-26.1585Q26.2329-30.0339 26.2329-35.2539ZM93.2251-35.2539L102.946-44.5679Q107.161-48.5519 111.029-50.5241Q114.896-52.4963 118.875-52.4963Q123.859-52.4963 127.568-50.3605Q131.276-48.2246 133.34-44.355Q135.404-40.4854 135.404-35.2539Q135.404-30.0339 133.34-26.1585Q131.276-22.2832 127.568-20.1473Q123.859-18.0115 118.875-18.0115Q114.896-18.0115 111.029-19.9837Q107.161-21.9559 102.958-25.9773Z"/>
  </g>
  <g id="Bold-M" transform="matrix(1 0 0 1 2262.07 1126)">
   <path d="M8.74023-35.2539Q8.74023-25.3906 12.7319-18.0054Q16.7236-10.6201 23.8647-6.54297Q31.0059-2.46582 40.4541-2.46582Q47.7783-2.46582 54.2725-5.5542Q60.7666-8.64258 67.2363-14.9414L77.9297-25.2686L88.5742-14.9414Q95.0439-8.64258 101.55-5.5542Q108.057-2.46582 115.356-2.46582Q124.805-2.46582 131.946-6.54297Q139.087-10.6201 143.079-18.0054Q147.07-25.3906 147.07-35.2539Q147.07-45.1416 143.079-52.5146Q139.087-59.8877 131.946-63.9648Q124.805-68.042 115.356-68.042Q108.057-68.042 101.55-64.9536Q95.0439-61.8652 88.5742-55.5664L77.9297-45.2393L67.2363-55.5664Q60.7666-61.8652 54.2725-64.9536Q47.7783-68.042 40.4541-68.042Q31.0059-68.042 23.8647-63.9648Q16.7236-59.8877 12.7319-52.5146Q8.74023-45.1416 8.74023-35.2539ZM23.2422-35.2539Q23.2422-40.8203 25.4028-44.9219Q27.5635-49.0234 31.4331-51.2817Q35.3027-53.54 40.4541-53.54Q44.6777-53.54 48.6938-51.4648Q52.71-49.3896 57.1045-45.2637L67.6514-35.2539L57.0801-25.2686Q52.71-21.1182 48.6938-19.043Q44.6777-16.9678 40.4541-16.9678Q35.3027-16.9678 31.4331-19.2261Q27.5635-21.4844 25.4028-25.5981Q23.2422-29.7119 23.2422-35.2539ZM88.1592-35.2539L98.7061-45.2637Q103.101-49.3896 107.117-51.4648Q111.133-53.54 115.356-53.54Q120.508-53.54 124.377-51.2817Q128.247-49.0234 130.408-44.9219Q132.568-40.8203 132.568-35.2539Q132.568-29.7119 130.408-25.5981Q128.247-21.4844 124.377-19.2261Q120.508-16.9678 115.356-16.9678Q111.133-16.9678 107.117-19.043Q103.101-21.1182 98.7305-25.2686Z"/>
  </g>
  <g id="Semibold-M" transform="matrix(1 0 0 1 1967.37 1126)">
   <path d="M8.74023-35.2539Q8.74023-25.7637 12.532-18.6852Q16.3239-11.6066 23.114-7.70721Q29.9042-3.80783 38.8634-3.80783Q45.9389-3.80783 52.1664-6.8119Q58.3939-9.81598 64.7125-15.937L75.9209-26.7349L87.0811-15.937Q93.3998-9.81598 99.6441-6.8119Q105.888-3.80783 112.93-3.80783Q121.889-3.80783 128.68-7.70721Q135.47-11.6066 139.262-18.6852Q143.053-25.7637 143.053-35.2539Q143.053-44.7594 139.262-51.8303Q135.47-58.9012 128.68-62.8006Q121.889-66.7 112.93-66.7Q105.888-66.7 99.6441-63.6959Q93.3998-60.6918 87.0811-54.5708L75.9209-43.7729L64.7125-54.5708Q58.3939-60.6918 52.1664-63.6959Q45.9389-66.7 38.8634-66.7Q29.9042-66.7 23.114-62.8006Q16.3239-58.9012 12.532-51.8303Q8.74023-44.7594 8.74023-35.2539ZM21.1807-35.2539Q21.1807-41.0515 23.4077-45.3129Q25.6348-49.5743 29.6158-51.9173Q33.5968-54.2603 38.8634-54.2603Q43.2556-54.2603 47.374-52.1137Q51.4923-49.9672 56.0112-45.7436L67.1272-35.2539L55.9784-24.7795Q51.4923-20.5406 47.374-18.3941Q43.2556-16.2476 38.8634-16.2476Q33.5968-16.2476 29.6158-18.5905Q25.6348-20.9335 23.4077-25.2117Q21.1807-29.4899 21.1807-35.2539ZM84.6664-35.2539L95.7825-45.7436Q100.301-49.9672 104.42-52.1137Q108.538-54.2603 112.93-54.2603Q118.197-54.2603 122.178-51.9173Q126.159-49.5743 128.386-45.3129Q130.613-41.0515 130.613-35.2539Q130.613-29.4899 128.386-25.2117Q126.159-20.9335 122.178-18.5905Q118.197-16.2476 112.93-16.2476Q108.538-16.2476 104.42-18.3941Q100.301-20.5406 95.8153-24.7795Z"/>
  </g>
  <g id="Medium-M" transform="matrix(1 0 0 1 1672.18 1126)">
   <path d="M8.74023-35.2539Q8.74023-26.0468 12.3802-19.2005Q16.0202-12.3543 22.5441-8.58994Q29.068-4.82559 37.6572-4.82559Q44.5442-4.82559 50.5695-7.7652Q56.5948-10.7048 62.7991-16.6916L74.398-27.8465L85.9489-16.6916Q92.1532-10.7048 98.1987-7.7652Q104.244-4.82559 111.091-4.82559Q119.679-4.82559 126.203-8.58994Q132.727-12.3543 136.367-19.2005Q140.008-26.0468 140.008-35.2539Q140.008-44.4695 136.367-51.3115Q132.727-58.1535 126.203-61.9179Q119.679-65.6822 111.091-65.6822Q104.244-65.6822 98.1987-62.7426Q92.1532-59.803 85.9489-53.8162L74.398-42.6613L62.7991-53.8162Q56.5948-59.803 50.5695-62.7426Q44.5442-65.6822 37.6572-65.6822Q29.068-65.6822 22.5441-61.9179Q16.0202-58.1535 12.3802-51.3115Q8.74023-44.4695 8.74023-35.2539ZM19.6175-35.2539Q19.6175-41.2262 21.8952-45.6093Q24.173-49.9924 28.2379-52.3991Q32.3029-54.8058 37.6572-54.8058Q42.1776-54.8058 46.3734-52.6054Q50.5692-50.4051 55.1826-46.1075L66.7297-35.2539L55.1422-24.4095Q50.5692-20.1027 46.3734-17.9024Q42.1776-15.7021 37.6572-15.7021Q32.3029-15.7021 28.2379-18.1087Q24.173-20.5154 21.8952-24.9184Q19.6175-29.3213 19.6175-35.2539ZM82.0183-35.2539L93.5654-46.1075Q98.1789-50.4051 102.375-52.6054Q106.57-54.8058 111.091-54.8058Q116.445-54.8058 120.51-52.3991Q124.575-49.9924 126.853-45.6093Q129.131-41.2262 129.131-35.2539Q129.131-29.3213 126.853-24.9184Q124.575-20.5154 120.51-18.1087Q116.445-15.7021 111.091-15.7021Q106.57-15.7021 102.375-17.9024Q98.1789-20.1027 93.605-24.4095Z"/>
  </g>
  <g id="Regular-M" transform="matrix(1 0 0 1 1377.46 1126)">
   <path d="M8.74023-35.2539Q8.74023-26.416 12.1826-19.873Q15.625-13.3301 21.8018-9.74121Q27.9785-6.15234 36.084-6.15234Q42.7246-6.15234 48.4863-9.00879Q54.248-11.8652 60.3027-17.6758L72.4121-29.2969L84.4727-17.6758Q90.5273-11.8652 96.3135-9.00879Q102.1-6.15234 108.691-6.15234Q116.797-6.15234 122.974-9.74121Q129.15-13.3301 132.593-19.873Q136.035-26.416 136.035-35.2539Q136.035-44.0918 132.593-50.6348Q129.15-57.1777 122.974-60.7666Q116.797-64.3555 108.691-64.3555Q102.1-64.3555 96.3135-61.499Q90.5273-58.6426 84.4727-52.832L72.4121-41.2109L60.3027-52.832Q54.248-58.6426 48.4863-61.499Q42.7246-64.3555 36.084-64.3555Q27.9785-64.3555 21.8018-60.7666Q15.625-57.1777 12.1826-50.6348Q8.74023-44.0918 8.74023-35.2539ZM17.5781-35.2539Q17.5781-41.4551 19.9219-45.9961Q22.2656-50.5371 26.4404-53.0273Q30.6152-55.5176 36.084-55.5176Q40.7715-55.5176 45.0684-53.2471Q49.3652-50.9766 54.1016-46.582L66.2109-35.2539L54.0527-23.9258Q49.3652-19.5312 45.0684-17.2607Q40.7715-14.9902 36.084-14.9902Q30.6152-14.9902 26.4404-17.4805Q22.2656-19.9707 19.9219-24.5361Q17.5781-29.1016 17.5781-35.2539ZM78.5645-35.2539L90.6738-46.582Q95.4102-50.9766 99.707-53.2471Q104.004-55.5176 108.691-55.5176Q114.16-55.5176 118.335-53.0273Q122.51-50.5371 124.854-45.9961Q127.197-41.4551 127.197-35.2539Q127.197-29.1016 124.854-24.5361Q122.51-19.9707 118.335-17.4805Q114.16-14.9902 108.691-14.9902Q104.004-14.9902 99.707-17.2607Q95.4102-19.5312 90.7227-23.9258Z"/>
  </g>
  <g id="Light-M" transform="matrix(1 0 0 1 1082.94 1126)">
   <path d="M8.74023-35.2539Q8.74023-26.976 12.0388-20.8267Q15.3374-14.6774 21.1887-11.2926Q27.0401-7.90787 34.6458-7.90787Q41.1652-7.90787 46.6923-10.7719Q52.2194-13.636 58.1833-19.326L70.2171-30.7953L82.2021-19.326Q88.1813-13.636 93.7176-10.7719Q99.2538-7.90787 105.74-7.90787Q113.346-7.90787 119.197-11.2926Q125.048-14.6774 128.347-20.8267Q131.645-26.976 131.645-35.2539Q131.645-43.5318 128.347-49.6811Q125.048-55.8304 119.197-59.2152Q113.346-62.5999 105.74-62.5999Q99.2538-62.5999 93.7176-59.7359Q88.1813-56.8718 82.2021-51.1818L70.2171-39.7125L58.1833-51.1818Q52.2194-56.8718 46.6923-59.7359Q41.1652-62.5999 34.6458-62.5999Q27.0401-62.5999 21.1887-59.2152Q15.3374-55.8304 12.0388-49.6811Q8.74023-43.5318 8.74023-35.2539ZM15.4289-35.2539Q15.4289-41.5306 17.8936-46.17Q20.3583-50.8095 24.707-53.368Q29.0558-55.9265 34.6458-55.9265Q39.6362-55.9265 44.0617-53.5046Q48.4871-51.0826 53.4508-46.476L65.5296-35.2539L53.4019-24.0318Q48.4573-19.4252 44.0392-17.0109Q39.621-14.5966 34.6458-14.5966Q29.0558-14.5966 24.707-17.1474Q20.3583-19.6983 17.8936-24.3546Q15.4289-29.0108 15.4289-35.2539ZM74.8558-35.2539L86.9354-46.476Q91.8983-51.0826 96.3238-53.5046Q100.749-55.9265 105.74-55.9265Q111.33-55.9265 115.678-53.368Q120.027-50.8095 122.492-46.17Q124.957-41.5306 124.957-35.2539Q124.957-29.0108 122.492-24.3546Q120.027-19.6983 115.678-17.1474Q111.33-14.5966 105.74-14.5966Q100.764-14.5966 96.3467-17.0109Q91.9289-19.4252 86.9843-24.0318Z"/>
  </g>
  <g id="Thin-M" transform="matrix(1 0 0 1 789.132 1126)">
   <path d="M8.74023-35.2539Q8.74023-27.7168 11.8488-22.0879Q14.9574-16.4589 20.3781-13.3446Q25.7988-10.2303 32.7446-10.2303Q39.1037-10.2303 44.3207-13.1042Q49.5377-15.9782 55.381-21.508L67.3149-32.7774L79.1992-21.508Q85.0784-15.9782 90.2843-13.1042Q95.4903-10.2303 101.836-10.2303Q108.781-10.2303 114.202-13.3446Q119.624-16.4589 122.732-22.0879Q125.84-27.7168 125.84-35.2539Q125.84-42.791 122.732-48.42Q119.624-54.0489 114.202-57.1632Q108.781-60.2776 101.836-60.2776Q95.4903-60.2776 90.2843-57.4036Q85.0784-54.5296 79.1992-48.9998L67.3149-37.7304L55.381-48.9998Q49.5377-54.5296 44.3207-57.4036Q39.1037-60.2776 32.7446-60.2776Q25.7988-60.2776 20.3781-57.1632Q14.9574-54.0489 11.8488-48.42Q8.74023-42.791 8.74023-35.2539ZM12.5862-35.2539Q12.5862-41.6306 15.2111-46.4001Q17.836-51.1696 22.4152-53.8181Q26.9943-56.4667 32.7446-56.4667Q38.1348-56.4667 42.7303-53.8448Q47.3259-51.223 52.5902-46.3356L64.6286-35.2539L52.5414-24.1722Q47.2557-19.2848 42.6777-16.6805Q38.0997-14.0762 32.7446-14.0762Q26.9943-14.0762 22.4152-16.7072Q17.836-19.3382 15.2111-24.1146Q12.5862-28.891 12.5862-35.2539ZM69.9516-35.2539L81.9908-46.3356Q87.2543-51.223 91.8499-53.8448Q96.4455-56.4667 101.836-56.4667Q107.586-56.4667 112.165-53.8181Q116.744-51.1696 119.369-46.4001Q121.994-41.6306 121.994-35.2539Q121.994-28.891 119.369-24.1146Q116.744-19.3382 112.165-16.7072Q107.586-14.0762 101.836-14.0762Q96.4806-14.0762 91.9025-16.6805Q87.3245-19.2848 82.0396-24.1722Z"/>
  </g>
  <g id="Ultralight-M" transform="matrix(1 0 0 1 493.908 1126)">
   <path d="M8.74023-35.2539Q8.74023-28.096 11.7512-22.7337Q14.7621-17.3714 19.9627-14.3955Q25.1633-11.4197 31.7703-11.4197Q38.047-11.4197 43.1049-14.299Q48.1628-17.1783 53.9452-22.6257L65.8279-33.7921L77.6611-22.6257Q83.4885-17.1783 88.5254-14.299Q93.5623-11.4197 99.8367-11.4197Q106.444-11.4197 111.644-14.3955Q116.844-17.3714 119.855-22.7337Q122.866-28.096 122.866-35.2539Q122.866-42.4118 119.855-47.7741Q116.844-53.1364 111.644-56.1123Q106.444-59.0881 99.8367-59.0881Q93.5623-59.0881 88.5254-56.2088Q83.4885-53.3295 77.6611-47.8821L65.8279-36.7157L53.9452-47.8821Q48.1628-53.3295 43.1049-56.2088Q38.047-59.0881 31.7703-59.0881Q25.1633-59.0881 19.9627-56.1123Q14.7621-53.1364 11.7512-47.7741Q8.74023-42.4118 8.74023-35.2539ZM11.1298-35.2539Q11.1298-41.6824 13.8371-46.5183Q16.5443-51.3542 21.241-54.0489Q25.9377-56.7436 31.7703-56.7436Q37.3657-56.7436 42.0486-54.0192Q46.7316-51.2947 52.1492-46.2639L64.1678-35.2539L52.1004-24.2439Q46.6408-19.2131 41.9807-16.5112Q37.3207-13.8092 31.7703-13.8092Q25.9377-13.8092 21.241-16.4814Q16.5443-19.1536 13.8371-23.9914Q11.1298-28.8292 11.1298-35.2539ZM67.4393-35.2539L79.4579-46.2639Q84.8747-51.2947 89.5576-54.0192Q94.2406-56.7436 99.8367-56.7436Q105.669-56.7436 110.366-54.0489Q115.063-51.3542 117.77-46.5183Q120.477-41.6824 120.477-35.2539Q120.477-28.8292 117.77-23.9914Q115.063-19.1536 110.366-16.4814Q105.669-13.8092 99.8367-13.8092Q94.2863-13.8092 89.6263-16.5112Q84.9663-19.2131 79.5067-24.2439Z"/>
  </g>
  <g id="Black-S" transform="matrix(1 0 0 1 2867.38 696)">
   <path d="M6.83594-35.2539Q6.83594-26.6113 10.4492-20.0684Q14.0625-13.5254 20.5566-9.8877Q27.0508-6.25 35.6445-6.25Q42.041-6.25 47.7783-8.88672Q53.5156-11.5234 58.9844-16.8945L66.0156-23.7793L73.0469-16.8945Q78.5156-11.5234 84.2773-8.88672Q90.0391-6.25 96.3867-6.25Q104.98-6.25 111.475-9.8877Q117.969-13.5254 121.582-20.0684Q125.195-26.6113 125.195-35.2539Q125.195-43.9453 121.582-50.4639Q117.969-56.9824 111.475-60.6201Q104.98-64.2578 96.3867-64.2578Q90.0391-64.2578 84.2773-61.6211Q78.5156-58.9844 73.0469-53.6133L66.0156-46.7285L58.9844-53.6133Q53.5156-58.9844 47.7783-61.6211Q42.041-64.2578 35.6445-64.2578Q27.0508-64.2578 20.5566-60.6201Q14.0625-56.9824 10.4492-50.4639Q6.83594-43.9453 6.83594-35.2539ZM23.3398-35.2539Q23.3398-39.0625 24.8535-41.8701Q26.3672-44.6777 29.1504-46.2158Q31.9336-47.7539 35.6445-47.7539Q38.5254-47.7539 41.4307-46.3135Q44.3359-44.873 47.4609-41.8457L54.2969-35.2539L47.4609-28.6621Q44.3359-25.6836 41.4307-24.2188Q38.5254-22.7539 35.6445-22.7539Q31.9336-22.7539 29.1504-24.292Q26.3672-25.8301 24.8535-28.6621Q23.3398-31.4941 23.3398-35.2539ZM77.7344-35.2539L84.5703-41.8457Q87.6953-44.873 90.6006-46.3135Q93.5059-47.7539 96.3867-47.7539Q100.146-47.7539 102.905-46.2158Q105.664-44.6777 107.178-41.8701Q108.691-39.0625 108.691-35.2539Q108.691-31.4941 107.178-28.6621Q105.664-25.8301 102.905-24.292Q100.146-22.7539 96.3867-22.7539Q93.5059-22.7539 90.6006-24.2188Q87.6953-25.6836 84.5703-28.6621Z"/>
  </g>
  <g id="Heavy-S" transform="matrix(1 0 0 1 2572.62 696)">
   <path d="M6.83594-35.2539Q6.83594-26.9569 10.2474-20.702Q13.6589-14.447 19.8017-10.9825Q25.9445-7.51801 34.066-7.51801Q40.1855-7.51801 45.6635-10.0567Q51.1414-12.5954 56.4491-17.7818L64.0678-25.2197L71.6873-17.7818Q76.9943-12.5954 82.4909-10.0567Q87.9875-7.51801 94.0704-7.51801Q102.203-7.51801 108.34-10.9825Q114.477-14.447 117.888-20.702Q121.3-26.9569 121.3-35.2539Q121.3-43.5883 117.888-49.8245Q114.477-56.0608 108.34-59.5253Q102.203-62.9898 94.0704-62.9898Q87.9875-62.9898 82.4909-60.4511Q76.9943-57.9124 71.6873-52.726L64.0678-45.2881L56.4491-52.726Q51.1414-57.9124 45.6635-60.4511Q40.1855-62.9898 34.066-62.9898Q25.9445-62.9898 19.8017-59.5253Q13.6589-56.0608 10.2474-49.8245Q6.83594-43.5883 6.83594-35.2539ZM21.3234-35.2539Q21.3234-39.2929 22.9004-42.2733Q24.4774-45.2538 27.3582-46.8784Q30.2391-48.5031 34.066-48.5031Q37.1078-48.5031 40.0997-47.0051Q43.0916-45.507 46.3318-42.3988L53.801-35.2539L46.3318-28.109Q43.0916-25.0381 40.0997-23.5214Q37.1078-22.0047 34.066-22.0047Q30.2391-22.0047 27.3582-23.6294Q24.4774-25.2541 22.9004-28.2532Q21.3234-31.2523 21.3234-35.2539ZM74.3347-35.2539L81.8047-42.3988Q85.0449-45.507 88.0363-47.0051Q91.0278-48.5031 94.0704-48.5031Q97.9454-48.5031 100.802-46.8784Q103.659-45.2538 105.236-42.2733Q106.813-39.2929 106.813-35.2539Q106.813-31.2523 105.236-28.2532Q103.659-25.2541 100.802-23.6294Q97.9454-22.0047 94.0704-22.0047Q91.0278-22.0047 88.0363-23.5214Q85.0449-25.0381 81.8047-28.109Z"/>
  </g>
  <g id="Bold-S" transform="matrix(1 0 0 1 2278.09 696)">
   <path d="M6.83594-35.2539Q6.83594-27.3438 10.022-21.4111Q13.208-15.4785 18.9575-12.207Q24.707-8.93555 32.2998-8.93555Q38.1104-8.93555 43.2983-11.3647Q48.4863-13.7939 53.6133-18.7744L61.8896-26.8311L70.166-18.7744Q75.293-13.7939 80.4932-11.3647Q85.6934-8.93555 91.4795-8.93555Q99.0967-8.93555 104.834-12.207Q110.571-15.4785 113.757-21.4111Q116.943-27.3438 116.943-35.2539Q116.943-43.1885 113.757-49.1089Q110.571-55.0293 104.834-58.3008Q99.0967-61.5723 91.4795-61.5723Q85.6934-61.5723 80.4932-59.1431Q75.293-56.7139 70.166-51.7334L61.8896-43.6768L53.6133-51.7334Q48.4863-56.7139 43.2983-59.1431Q38.1104-61.5723 32.2998-61.5723Q24.707-61.5723 18.9575-58.3008Q13.208-55.0293 10.022-49.1089Q6.83594-43.1885 6.83594-35.2539ZM19.0674-35.2539Q19.0674-39.5508 20.7153-42.7246Q22.3633-45.8984 25.354-47.6196Q28.3447-49.3408 32.2998-49.3408Q35.5225-49.3408 38.6108-47.7783Q41.6992-46.2158 45.0684-43.0176L53.2471-35.2539L45.0684-27.4902Q41.6992-24.3164 38.6108-22.7417Q35.5225-21.167 32.2998-21.167Q28.3447-21.167 25.354-22.8882Q22.3633-24.6094 20.7153-27.7954Q19.0674-30.9814 19.0674-35.2539ZM70.5322-35.2539L78.7109-43.0176Q82.0801-46.2158 85.1685-47.7783Q88.2568-49.3408 91.4795-49.3408Q95.4834-49.3408 98.4497-47.6196Q101.416-45.8984 103.064-42.7246Q104.712-39.5508 104.712-35.2539Q104.712-30.9814 103.064-27.7954Q101.416-24.6094 98.4497-22.8882Q95.4834-21.167 91.4795-21.167Q88.2568-21.167 85.1685-22.7417Q82.0801-24.3164 78.7109-27.4902Z"/>
  </g>
  <g id="Semibold-S" transform="matrix(1 0 0 1 1982.88 696)">
   <path d="M6.83594-35.2539Q6.83594-27.61 9.86633-21.8998Q12.8967-16.1896 18.3754-13.0512Q23.8541-9.91287 31.0822-9.91287Q36.6798-9.91287 41.6676-12.2665Q46.6553-14.6202 51.6579-19.4588L60.3874-27.9419L69.117-19.4588Q74.1196-14.6202 79.1157-12.2665Q84.1118-9.91287 89.6935-9.91287Q96.9551-9.91287 102.417-13.0512Q107.879-16.1896 110.909-21.8998Q113.94-27.61 113.94-35.2539Q113.94-42.9131 110.909-48.6156Q107.879-54.3182 102.417-57.4566Q96.9551-60.5949 89.6935-60.5949Q84.1118-60.5949 79.1157-58.2413Q74.1196-55.8876 69.117-51.049L60.3874-42.5659L51.6579-51.049Q46.6553-55.8876 41.6676-58.2413Q36.6798-60.5949 31.0822-60.5949Q23.8541-60.5949 18.3754-57.4566Q12.8967-54.3182 9.86633-48.6156Q6.83594-42.9131 6.83594-35.2539ZM17.5125-35.2539Q17.5125-39.7285 19.2093-43.0355Q20.9061-46.3425 23.9723-48.1304Q27.0386-49.9184 31.0822-49.9184Q34.4292-49.9184 37.5843-48.3116Q40.7394-46.7049 44.1971-43.4441L52.8648-35.2539L44.1971-27.0638Q40.7394-23.819 37.5843-22.2042Q34.4292-20.5894 31.0822-20.5894Q27.0386-20.5894 23.9723-22.3774Q20.9061-24.1653 19.2093-27.4799Q17.5125-30.7945 17.5125-35.2539ZM67.9108-35.2539L76.5778-43.4441Q80.0362-46.7049 83.1913-48.3116Q86.3464-49.9184 89.6935-49.9184Q93.7859-49.9184 96.8277-48.1304Q99.8695-46.3425 101.566-43.0355Q103.263-39.7285 103.263-35.2539Q103.263-30.7945 101.566-27.4799Q99.8695-24.1653 96.8277-22.3774Q93.7859-20.5894 89.6935-20.5894Q86.3464-20.5894 83.1913-22.2042Q80.0362-23.819 76.5778-27.0638Z"/>
  </g>
  <g id="Medium-S" transform="matrix(1 0 0 1 1687.31 696)">
   <path d="M6.83594-35.2539Q6.83594-27.8122 9.74846-22.2702Q12.661-16.7282 17.934-13.6913Q23.2071-10.6544 30.159-10.6544Q35.5949-10.6544 40.4312-12.9509Q45.2675-15.2473 50.1755-19.9776L59.2491-28.7842L68.322-19.9776Q73.2307-15.2473 78.0712-12.9509Q82.9117-10.6544 88.3385-10.6544Q95.3308-10.6544 100.584-13.6913Q105.836-16.7282 108.749-22.2702Q111.662-27.8122 111.662-35.2539Q111.662-42.704 108.749-48.2418Q105.836-53.7796 100.584-56.8165Q95.3308-59.8534 88.3385-59.8534Q82.9117-59.8534 78.0712-57.5569Q73.2307-55.2605 68.322-50.5302L59.2491-41.7236L50.1755-50.5302Q45.2675-55.2605 40.4312-57.5569Q35.5949-59.8534 30.159-59.8534Q23.2071-59.8534 17.934-56.8165Q12.661-53.7796 9.74846-48.2418Q6.83594-42.704 6.83594-35.2539ZM16.333-35.2539Q16.333-39.8636 18.0668-43.2716Q19.8006-46.6797 22.924-48.518Q26.0475-50.3563 30.159-50.3563Q33.6006-50.3563 36.8061-48.7156Q40.0116-47.0749 43.5371-43.7675L52.5749-35.2539L43.5371-26.7403Q40.0116-23.4413 36.8061-21.7964Q33.6006-20.1515 30.159-20.1515Q26.0475-20.1515 22.924-21.9898Q19.8006-23.8281 18.0668-27.2408Q16.333-30.6534 16.333-35.2539ZM65.9225-35.2539L74.9611-43.7675Q78.4859-47.0749 81.6917-48.7156Q84.8976-50.3563 88.3385-50.3563Q92.4988-50.3563 95.5978-48.518Q98.6969-46.6797 100.431-43.2716Q102.165-39.8636 102.165-35.2539Q102.165-30.6534 100.431-27.2408Q98.6969-23.8281 95.5978-21.9898Q92.4988-20.1515 88.3385-20.1515Q84.8976-20.1515 81.6917-21.7964Q78.4859-23.4413 74.9611-26.7403Z"/>
  </g>
  <g id="Regular-S" transform="matrix(1 0 0 1 1392.08 696)">
   <path d="M6.83594-35.2539Q6.83594-28.0762 9.59473-22.7539Q12.3535-17.4316 17.3584-14.5264Q22.3633-11.6211 28.9551-11.6211Q34.1797-11.6211 38.8184-13.8428Q43.457-16.0645 48.2422-20.6543L57.7637-29.8828L67.2852-20.6543Q72.0703-16.0645 76.709-13.8428Q81.3477-11.6211 86.5723-11.6211Q93.2129-11.6211 98.1934-14.5264Q103.174-17.4316 105.933-22.7539Q108.691-28.0762 108.691-35.2539Q108.691-42.4316 105.933-47.7539Q103.174-53.0762 98.1934-55.9814Q93.2129-58.8867 86.5723-58.8867Q81.3477-58.8867 76.709-56.665Q72.0703-54.4434 67.2852-49.8535L57.7637-40.625L48.2422-49.8535Q43.457-54.4434 38.8184-56.665Q34.1797-58.8867 28.9551-58.8867Q22.3633-58.8867 17.3584-55.9814Q12.3535-53.0762 9.59473-47.7539Q6.83594-42.4316 6.83594-35.2539ZM14.7949-35.2539Q14.7949-40.0391 16.5771-43.5791Q18.3594-47.1191 21.5576-49.0234Q24.7559-50.9277 28.9551-50.9277Q32.5195-50.9277 35.791-49.2432Q39.0625-47.5586 42.6758-44.1895L52.1973-35.2539L42.6758-26.3184Q39.0625-22.9492 35.791-21.2646Q32.5195-19.5801 28.9551-19.5801Q24.7559-19.5801 21.5576-21.4844Q18.3594-23.3887 16.5771-26.9287Q14.7949-30.4688 14.7949-35.2539ZM63.3301-35.2539L72.8516-44.1895Q76.4648-47.5586 79.7363-49.2432Q83.0078-50.9277 86.5723-50.9277Q90.8203-50.9277 93.9941-49.0234Q97.168-47.1191 98.9502-43.5791Q100.732-40.0391 100.732-35.2539Q100.732-30.4688 98.9502-26.9287Q97.168-23.3887 93.9941-21.4844Q90.8203-19.5801 86.5723-19.5801Q83.0078-19.5801 79.7363-21.2646Q76.4648-22.9492 72.8516-26.3184Z"/>
  </g>
  <g id="Light-S" transform="matrix(1 0 0 1 1097.31 696)">
   <path d="M6.83594-35.2539Q6.83594-28.5606 9.46617-23.5867Q12.0964-18.6127 16.8137-15.889Q21.5309-13.1653 27.6833-13.1653Q32.8171-13.1653 37.2364-15.3946Q41.6557-17.6239 46.3654-22.1222L55.8266-31.1996L65.2718-22.1222Q69.9966-17.6239 74.416-15.3946Q78.8353-13.1653 83.9539-13.1653Q90.1405-13.1653 94.8406-15.889Q99.5407-18.6127 102.171-23.5867Q104.801-28.5606 104.801-35.2539Q104.801-41.9472 102.171-46.9212Q99.5407-51.8951 94.8406-54.6188Q90.1405-57.3425 83.9539-57.3425Q78.8353-57.3425 74.416-55.1136Q69.9966-52.8847 65.2718-48.3856L55.8266-39.3082L46.3654-48.3856Q41.6557-52.8847 37.2364-55.1136Q32.8171-57.3425 27.6833-57.3425Q21.5309-57.3425 16.8137-54.6188Q12.0964-51.8951 9.46617-46.9212Q6.83594-41.9472 6.83594-35.2539ZM12.8876-35.2539Q12.8876-40.1146 14.7835-43.7305Q16.6794-47.3465 20.0214-49.3187Q23.3635-51.2909 27.6833-51.2909Q31.5056-51.2909 34.898-49.4625Q38.2904-47.6341 42.1005-44.0987L51.5915-35.2539L42.0853-26.4091Q38.2751-22.8737 34.8827-21.0453Q31.4903-19.2169 27.6833-19.2169Q23.3635-19.2169 20.0214-21.1891Q16.6794-23.1613 14.7835-26.7773Q12.8876-30.3932 12.8876-35.2539ZM60.0456-35.2539L69.5366-44.0987Q73.362-47.6341 76.7544-49.4625Q80.1468-51.2909 83.9539-51.2909Q88.308-51.2909 91.6405-49.3187Q94.973-47.3465 96.8613-43.7305Q98.7495-40.1146 98.7495-35.2539Q98.7495-30.3932 96.8613-26.7773Q94.973-23.1613 91.6405-21.1891Q88.308-19.2169 83.9539-19.2169Q80.1468-19.2169 76.762-21.0453Q73.3772-22.8737 69.5518-26.4091Z"/>
  </g>
  <g id="Thin-S" transform="matrix(1 0 0 1 803.176 696)">
   <path d="M6.83594-35.2539Q6.83594-29.2015 9.29604-24.6876Q11.7561-20.1736 16.0931-17.6903Q20.43-15.2069 26.0017-15.2069Q31.0158-15.2069 35.1448-17.4461Q39.2738-19.6854 43.8828-24.0646L53.2639-32.9414L62.6099-24.0646Q67.2539-19.6854 71.3829-17.4461Q75.5119-15.2069 80.4901-15.2069Q86.0764-15.2069 90.4064-17.6903Q94.7365-20.1736 97.1966-24.6876Q99.6567-29.2015 99.6567-35.2539Q99.6567-41.3071 97.1966-45.8206Q94.7365-50.3342 90.4064-52.8175Q86.0764-55.3009 80.4901-55.3009Q75.5119-55.3009 71.3829-53.0617Q67.2539-50.8224 62.6099-46.4432L53.2639-37.5664L43.8828-46.4432Q39.2738-50.8224 35.1448-53.0617Q31.0158-55.3009 26.0017-55.3009Q20.43-55.3009 16.0931-52.8175Q11.7561-50.3342 9.29604-45.8206Q6.83594-41.3071 6.83594-35.2539ZM10.3653-35.2539Q10.3653-40.2145 12.4111-43.9304Q14.4569-47.6463 17.9893-49.7089Q21.5218-51.7715 26.0017-51.7715Q30.1643-51.7715 33.717-49.7528Q37.2696-47.7341 41.3399-43.9789L50.7912-35.2539L41.3048-26.5289Q37.2345-22.7737 33.6819-20.755Q30.1292-18.7363 26.0017-18.7363Q21.5218-18.7363 17.9893-20.7989Q14.4569-22.8615 12.4111-26.5774Q10.3653-30.2933 10.3653-35.2539ZM55.7014-35.2539L65.1527-43.9789Q69.2581-47.7341 72.8107-49.7528Q76.3634-51.7715 80.4901-51.7715Q84.9846-51.7715 88.5277-49.7089Q92.0708-47.6463 94.099-43.9304Q96.1273-40.2145 96.1273-35.2539Q96.1273-30.2933 94.099-26.5774Q92.0708-22.8615 88.5277-20.7989Q84.9846-18.7363 80.4901-18.7363Q76.3634-18.7363 72.8283-20.755Q69.2932-22.7737 65.1878-26.5289Z"/>
  </g>
  <g id="Ultralight-S" transform="matrix(1 0 0 1 507.783 696)">
   <path d="M6.83594-35.2539Q6.83594-29.5296 9.20868-25.2518Q11.5814-20.974 15.7234-18.6134Q19.8654-16.2529 25.1404-16.2529Q30.0926-16.2529 34.0729-18.4975Q38.0531-20.742 42.6117-25.0587L51.9516-33.8333L61.2457-25.0587Q65.8493-20.742 69.8296-18.4975Q73.8098-16.2529 78.7163-16.2529Q83.9951-16.2529 88.1351-18.6134Q92.2752-20.974 94.648-25.2518Q97.0207-29.5296 97.0207-35.2539Q97.0207-40.9782 94.648-45.256Q92.2752-49.5338 88.1351-51.8944Q83.9951-54.2549 78.7163-54.2549Q73.8098-54.2549 69.8296-52.0103Q65.8493-49.7658 61.2457-45.4491L51.9516-36.6745L42.6117-45.4491Q38.0531-49.7658 34.0729-52.0103Q30.0926-54.2549 25.1404-54.2549Q19.8654-54.2549 15.7234-51.8944Q11.5814-49.5338 9.20868-45.256Q6.83594-40.9782 6.83594-35.2539ZM9.07364-35.2539Q9.07364-40.2664 11.1961-44.0334Q13.3186-47.8004 16.9483-49.9088Q20.578-52.0172 25.1404-52.0172Q29.4769-52.0172 33.112-49.9016Q36.747-47.7859 40.95-43.9171L50.3807-35.2539L40.905-26.5907Q36.7012-22.7219 33.0666-20.6062Q29.4319-18.4906 25.1404-18.4906Q20.578-18.4906 16.9483-20.599Q13.3186-22.7074 11.1961-26.4744Q9.07364-30.2414 9.07364-35.2539ZM53.476-35.2539L62.9066-43.9171Q67.1562-47.7859 70.7909-49.9016Q74.4255-52.0172 78.7163-52.0172Q83.2825-52.0172 86.9331-49.9088Q90.5838-47.8004 92.6838-44.0334Q94.7838-40.2664 94.7838-35.2539Q94.7838-30.2414 92.6838-26.4744Q90.5838-22.7074 86.9331-20.599Q83.2825-18.4906 78.7163-18.4906Q74.4255-18.4906 70.8134-20.6062Q67.2012-22.7219 62.9524-26.5907Z"/>
  </g>
 </g>
</svg>
