<?xml version="1.0" encoding="UTF-8"?>
<!--Generator: Apple Native CoreSVG 149-->
<!DOCTYPE svg
PUBLIC "-//W3C//DTD SVG 1.1//EN"
       "http://www.w3.org/Graphics/SVG/1.1/DTD/svg11.dtd">
<svg version="1.1" xmlns="http://www.w3.org/2000/svg" xmlns:xlink="http://www.w3.org/1999/xlink" width="3300" height="2200">
 <!--glyph: "uni10040B.medium", point size: 100.0, font version: "17.0d8e1", template writer version: "58"-->
 <g id="Notes">
  <rect height="2200" id="artboard" style="fill:white;opacity:1" width="3300" x="0" y="0"/>
  <line style="fill:none;stroke:black;opacity:1;stroke-width:0.5;" x1="263" x2="3036" y1="292" y2="292"/>
  <text style="stroke:none;fill:black;font-family:SF Pro,SF Pro Display,SF Pro Text,sans-serif;font-size:13;font-weight:bold;" transform="matrix(1 0 0 1 263 322)">Weight/Scale Variations</text>
  <text style="stroke:none;fill:black;font-family:SF Pro,SF Pro Display,SF Pro Text,sans-serif;font-size:13;text-anchor:middle;" transform="matrix(1 0 0 1 559.711 322)">Ultralight</text>
  <text style="stroke:none;fill:black;font-family:SF Pro,SF Pro Display,SF Pro Text,sans-serif;font-size:13;text-anchor:middle;" transform="matrix(1 0 0 1 856.422 322)">Thin</text>
  <text style="stroke:none;fill:black;font-family:SF Pro,SF Pro Display,SF Pro Text,sans-serif;font-size:13;text-anchor:middle;" transform="matrix(1 0 0 1 1153.13 322)">Light</text>
  <text style="stroke:none;fill:black;font-family:SF Pro,SF Pro Display,SF Pro Text,sans-serif;font-size:13;text-anchor:middle;" transform="matrix(1 0 0 1 1449.84 322)">Regular</text>
  <text style="stroke:none;fill:black;font-family:SF Pro,SF Pro Display,SF Pro Text,sans-serif;font-size:13;text-anchor:middle;" transform="matrix(1 0 0 1 1746.56 322)">Medium</text>
  <text style="stroke:none;fill:black;font-family:SF Pro,SF Pro Display,SF Pro Text,sans-serif;font-size:13;text-anchor:middle;" transform="matrix(1 0 0 1 2043.27 322)">Semibold</text>
  <text style="stroke:none;fill:black;font-family:SF Pro,SF Pro Display,SF Pro Text,sans-serif;font-size:13;text-anchor:middle;" transform="matrix(1 0 0 1 2339.98 322)">Bold</text>
  <text style="stroke:none;fill:black;font-family:SF Pro,SF Pro Display,SF Pro Text,sans-serif;font-size:13;text-anchor:middle;" transform="matrix(1 0 0 1 2636.69 322)">Heavy</text>
  <text style="stroke:none;fill:black;font-family:SF Pro,SF Pro Display,SF Pro Text,sans-serif;font-size:13;text-anchor:middle;" transform="matrix(1 0 0 1 2933.4 322)">Black</text>
  <line style="fill:none;stroke:black;opacity:1;stroke-width:0.5;" x1="263" x2="3036" y1="1903" y2="1903"/>
  <g transform="matrix(1 0 0 1 263 1933)">
   <path d="M9.24805 0.830078Q10.8691 0.830078 12.2949 0.214844Q13.7207-0.400391 14.8096-1.49414Q15.8984-2.58789 16.5186-4.01367Q17.1387-5.43945 17.1387-7.05078Q17.1387-8.66211 16.5186-10.0879Q15.8984-11.5137 14.8047-12.6074Q13.7109-13.7012 12.2852-14.3164Q10.8594-14.9316 9.23828-14.9316Q7.62695-14.9316 6.20117-14.3164Q4.77539-13.7012 3.69141-12.6074Q2.60742-11.5137 1.9873-10.0879Q1.36719-8.66211 1.36719-7.05078Q1.36719-5.43945 1.9873-4.01367Q2.60742-2.58789 3.69629-1.49414Q4.78516-0.400391 6.21094 0.214844Q7.63672 0.830078 9.24805 0.830078ZM9.24805-0.654297Q7.91992-0.654297 6.7627-1.14746Q5.60547-1.64062 4.73145-2.51953Q3.85742-3.39844 3.36426-4.56055Q2.87109-5.72266 2.87109-7.05078Q2.87109-8.37891 3.35938-9.54102Q3.84766-10.7031 4.72168-11.582Q5.5957-12.4609 6.75293-12.9541Q7.91016-13.4473 9.23828-13.4473Q10.5762-13.4473 11.7334-12.9541Q12.8906-12.4609 13.7695-11.582Q14.6484-10.7031 15.1465-9.54102Q15.6445-8.37891 15.6445-7.05078Q15.6445-5.72266 15.1514-4.56055Q14.6582-3.39844 13.7842-2.51953Q12.9102-1.64062 11.748-1.14746Q10.5859-0.654297 9.24805-0.654297ZM5.83984-7.04102Q5.83984-6.71875 6.04492-6.51855Q6.25-6.31836 6.5918-6.31836L8.50586-6.31836L8.50586-4.39453Q8.50586-4.0625 8.70605-3.85742Q8.90625-3.65234 9.22852-3.65234Q9.56055-3.65234 9.76562-3.85742Q9.9707-4.0625 9.9707-4.39453L9.9707-6.31836L11.8945-6.31836Q12.2266-6.31836 12.4316-6.51855Q12.6367-6.71875 12.6367-7.04102Q12.6367-7.37305 12.4316-7.57812Q12.2266-7.7832 11.8945-7.7832L9.9707-7.7832L9.9707-9.69727Q9.9707-10.0391 9.76562-10.2441Q9.56055-10.4492 9.22852-10.4492Q8.90625-10.4492 8.70605-10.2441Q8.50586-10.0391 8.50586-9.69727L8.50586-7.7832L6.5918-7.7832Q6.25-7.7832 6.04492-7.57812Q5.83984-7.37305 5.83984-7.04102Z"/>
  </g>
  <g transform="matrix(1 0 0 1 281.867 1933)">
   <path d="M11.709 2.91016Q13.75 2.91016 15.5518 2.12891Q17.3535 1.34766 18.7305-0.0292969Q20.1074-1.40625 20.8887-3.20801Q21.6699-5.00977 21.6699-7.05078Q21.6699-9.0918 20.8887-10.8936Q20.1074-12.6953 18.7305-14.0723Q17.3535-15.4492 15.5469-16.2305Q13.7402-17.0117 11.6992-17.0117Q9.6582-17.0117 7.85645-16.2305Q6.05469-15.4492 4.68262-14.0723Q3.31055-12.6953 2.5293-10.8936Q1.74805-9.0918 1.74805-7.05078Q1.74805-5.00977 2.5293-3.20801Q3.31055-1.40625 4.6875-0.0292969Q6.06445 1.34766 7.86621 2.12891Q9.66797 2.91016 11.709 2.91016ZM11.709 1.25Q9.98047 1.25 8.47656 0.605469Q6.97266-0.0390625 5.83496-1.17676Q4.69727-2.31445 4.05762-3.81836Q3.41797-5.32227 3.41797-7.05078Q3.41797-8.7793 4.05762-10.2832Q4.69727-11.7871 5.83008-12.9297Q6.96289-14.0723 8.4668-14.7119Q9.9707-15.3516 11.6992-15.3516Q13.4277-15.3516 14.9316-14.7119Q16.4355-14.0723 17.5781-12.9297Q18.7207-11.7871 19.3652-10.2832Q20.0098-8.7793 20.0098-7.05078Q20.0098-5.32227 19.3701-3.81836Q18.7305-2.31445 17.5928-1.17676Q16.4551-0.0390625 14.9463 0.605469Q13.4375 1.25 11.709 1.25ZM7.39258-7.04102Q7.39258-6.68945 7.62695-6.46484Q7.86133-6.24023 8.23242-6.24023L10.8789-6.24023L10.8789-3.57422Q10.8789-3.21289 11.1035-2.9834Q11.3281-2.75391 11.6797-2.75391Q12.0508-2.75391 12.2852-2.9834Q12.5195-3.21289 12.5195-3.57422L12.5195-6.24023L15.1758-6.24023Q15.5371-6.24023 15.7715-6.46484Q16.0059-6.68945 16.0059-7.04102Q16.0059-7.41211 15.7715-7.6416Q15.5371-7.87109 15.1758-7.87109L12.5195-7.87109L12.5195-10.5176Q12.5195-10.8984 12.2852-11.1279Q12.0508-11.3574 11.6797-11.3574Q11.3281-11.3574 11.1035-11.1279Q10.8789-10.8984 10.8789-10.5176L10.8789-7.87109L8.23242-7.87109Q7.85156-7.87109 7.62207-7.6416Q7.39258-7.41211 7.39258-7.04102Z"/>
  </g>
  <g transform="matrix(1 0 0 1 305.646 1933)">
   <path d="M14.9707 5.66406Q17.0605 5.66406 18.96 5.01465Q20.8594 4.36523 22.4512 3.19336Q24.043 2.02148 25.2197 0.429688Q26.3965-1.16211 27.0459-3.06641Q27.6953-4.9707 27.6953-7.05078Q27.6953-9.14062 27.0459-11.04Q26.3965-12.9395 25.2197-14.5312Q24.043-16.123 22.4512-17.2998Q20.8594-18.4766 18.9551-19.126Q17.0508-19.7754 14.9609-19.7754Q12.8711-19.7754 10.9717-19.126Q9.07227-18.4766 7.48535-17.2998Q5.89844-16.123 4.72168-14.5312Q3.54492-12.9395 2.90039-11.04Q2.25586-9.14062 2.25586-7.05078Q2.25586-4.9707 2.90527-3.06641Q3.55469-1.16211 4.72656 0.429688Q5.89844 2.02148 7.49023 3.19336Q9.08203 4.36523 10.9814 5.01465Q12.8809 5.66406 14.9707 5.66406ZM14.9707 3.84766Q13.1641 3.84766 11.5283 3.2959Q9.89258 2.74414 8.53516 1.74805Q7.17773 0.751953 6.17676-0.610352Q5.17578-1.97266 4.62891-3.6084Q4.08203-5.24414 4.08203-7.05078Q4.08203-8.86719 4.62891-10.5029Q5.17578-12.1387 6.17188-13.501Q7.16797-14.8633 8.52539-15.8594Q9.88281-16.8555 11.5186-17.4023Q13.1543-17.9492 14.9609-17.9492Q16.7773-17.9492 18.4131-17.4023Q20.0488-16.8555 21.4111-15.8594Q22.7734-14.8633 23.7695-13.501Q24.7656-12.1387 25.3174-10.5029Q25.8691-8.86719 25.8691-7.05078Q25.8789-5.24414 25.332-3.6084Q24.7852-1.97266 23.7842-0.610352Q22.7832 0.751953 21.4209 1.74805Q20.0586 2.74414 18.4229 3.2959Q16.7871 3.84766 14.9707 3.84766ZM9.45312-7.04102Q9.45312-6.66016 9.71191-6.41113Q9.9707-6.16211 10.3711-6.16211L14.0625-6.16211L14.0625-2.46094Q14.0625-2.06055 14.3115-1.80664Q14.5605-1.55273 14.9414-1.55273Q15.3516-1.55273 15.6055-1.80664Q15.8594-2.06055 15.8594-2.46094L15.8594-6.16211L19.5605-6.16211Q19.9609-6.16211 20.2148-6.41113Q20.4688-6.66016 20.4688-7.04102Q20.4688-7.45117 20.2148-7.70508Q19.9609-7.95898 19.5605-7.95898L15.8594-7.95898L15.8594-11.6504Q15.8594-12.0605 15.6055-12.3145Q15.3516-12.5684 14.9414-12.5684Q14.5605-12.5684 14.3115-12.3096Q14.0625-12.0508 14.0625-11.6504L14.0625-7.95898L10.3711-7.95898Q9.96094-7.95898 9.70703-7.70508Q9.45312-7.45117 9.45312-7.04102Z"/>
  </g>
  <text style="stroke:none;fill:black;font-family:SF Pro,SF Pro Display,SF Pro Text,sans-serif;font-size:13;font-weight:bold;" transform="matrix(1 0 0 1 263 1953)">Design Variations</text>
  <text style="stroke:none;fill:black;font-family:SF Pro,SF Pro Display,SF Pro Text,sans-serif;font-size:13;" transform="matrix(1 0 0 1 263 1971)">Symbols are supported in up to nine weights and three scales.</text>
  <text style="stroke:none;fill:black;font-family:SF Pro,SF Pro Display,SF Pro Text,sans-serif;font-size:13;" transform="matrix(1 0 0 1 263 1989)">For optimal layout with text and other symbols, vertically align</text>
  <text style="stroke:none;fill:black;font-family:SF Pro,SF Pro Display,SF Pro Text,sans-serif;font-size:13;" transform="matrix(1 0 0 1 263 2007)">symbols with the adjacent text.</text>
  <line style="fill:none;stroke:#00AEEF;stroke-width:0.5;opacity:1.0;" x1="776" x2="776" y1="1919" y2="1933"/>
  <g transform="matrix(1 0 0 1 776 1933)">
   <path d="M3.31055 0.15625Q3.70117 0.15625 3.91602-0.00976562Q4.13086-0.175781 4.26758-0.585938L5.52734-4.0332L11.2891-4.0332L12.5488-0.585938Q12.6855-0.175781 12.9004-0.00976562Q13.1152 0.15625 13.4961 0.15625Q13.8867 0.15625 14.1162-0.0585938Q14.3457-0.273438 14.3457-0.644531Q14.3457-0.869141 14.2383-1.17188L9.6582-13.3691Q9.48242-13.8184 9.17969-14.043Q8.87695-14.2676 8.4082-14.2676Q7.5-14.2676 7.17773-13.3789L2.59766-1.16211Q2.49023-0.859375 2.49023-0.634766Q2.49023-0.263672 2.70996-0.0537109Q2.92969 0.15625 3.31055 0.15625ZM6.00586-5.51758L8.37891-12.0898L8.42773-12.0898L10.8008-5.51758Z"/>
  </g>
  <line style="fill:none;stroke:#00AEEF;stroke-width:0.5;opacity:1.0;" x1="793.197" x2="793.197" y1="1919" y2="1933"/>
  <text style="stroke:none;fill:black;font-family:SF Pro,SF Pro Display,SF Pro Text,sans-serif;font-size:13;font-weight:bold;" transform="matrix(1 0 0 1 776 1953)">Margins</text>
  <text style="stroke:none;fill:black;font-family:SF Pro,SF Pro Display,SF Pro Text,sans-serif;font-size:13;" transform="matrix(1 0 0 1 776 1971)">Leading and trailing margins on the left and right side of each symbol</text>
  <text style="stroke:none;fill:black;font-family:SF Pro,SF Pro Display,SF Pro Text,sans-serif;font-size:13;" transform="matrix(1 0 0 1 776 1989)">can be adjusted by modifying the x-location of the margin guidelines.</text>
  <text style="stroke:none;fill:black;font-family:SF Pro,SF Pro Display,SF Pro Text,sans-serif;font-size:13;" transform="matrix(1 0 0 1 776 2007)">Modifications are automatically applied proportionally to all</text>
  <text style="stroke:none;fill:black;font-family:SF Pro,SF Pro Display,SF Pro Text,sans-serif;font-size:13;" transform="matrix(1 0 0 1 776 2025)">scales and weights.</text>
  <g transform="matrix(1 0 0 1 1289 1933)">
   <path d="M2.8418 1.86523L4.54102 3.57422Q5.18555 4.22852 5.90332 4.17969Q6.62109 4.13086 7.31445 3.35938L18.0078-8.42773L17.041-9.4043L6.42578 2.27539Q6.16211 2.57812 5.89355 2.61719Q5.625 2.65625 5.27344 2.30469L4.10156 1.14258Q3.75 0.791016 3.79395 0.522461Q3.83789 0.253906 4.14062-0.0195312L15.6152-10.8203L14.6387-11.7871L3.04688-0.898438Q2.30469-0.214844 2.25098 0.498047Q2.19727 1.21094 2.8418 1.86523ZM9.25781-16.3281Q8.94531-16.0254 8.90625-15.6348Q8.86719-15.2441 9.04297-14.9512Q9.21875-14.6777 9.55566-14.541Q9.89258-14.4043 10.3809-14.5215Q11.4746-14.7754 12.5977-14.7314Q13.7207-14.6875 14.7949-13.9844L14.209-12.5293Q13.9551-11.9043 14.0674-11.4404Q14.1797-10.9766 14.5801-10.5664L16.875-8.25195Q17.2363-7.88086 17.5781-7.82227Q17.9199-7.76367 18.3398-7.8418L19.4043-8.03711L20.0684-7.36328L20.0293-6.80664Q20-6.43555 20.1221-6.12305Q20.2441-5.81055 20.6055-5.44922L21.3672-4.70703Q21.7285-4.3457 22.1533-4.33105Q22.5781-4.31641 22.9297-4.66797L25.8398-7.58789Q26.1914-7.93945 26.1816-8.35449Q26.1719-8.76953 25.8105-9.13086L25.0391-9.89258Q24.6875-10.2539 24.3799-10.3857Q24.0723-10.5176 23.7109-10.4883L23.1348-10.4395L22.4902-11.0742L22.7344-12.1973Q22.832-12.6172 22.6953-12.9834Q22.5586-13.3496 22.1191-13.7891L19.9219-15.9766Q18.6719-17.2168 17.2607-17.8369Q15.8496-18.457 14.4189-18.4814Q12.9883-18.5059 11.665-17.959Q10.3418-17.4121 9.25781-16.3281ZM10.752-15.957Q11.6602-16.6211 12.7002-16.9043Q13.7402-17.1875 14.8047-17.085Q15.8691-16.9824 16.8701-16.5137Q17.8711-16.0449 18.7012-15.2051L21.1328-12.793Q21.3086-12.6172 21.3525-12.4512Q21.3965-12.2852 21.3379-12.0312L21.0156-10.5469L22.5195-9.0625L23.5059-9.12109Q23.6914-9.13086 23.7891-9.09668Q23.8867-9.0625 24.0332-8.91602L24.6094-8.33984L22.168-5.89844L21.5918-6.47461Q21.4453-6.62109 21.4062-6.71875Q21.3672-6.81641 21.377-7.01172L21.4453-7.98828L19.9512-9.47266L18.4277-9.21875Q18.1836-9.16992 18.042-9.2041Q17.9004-9.23828 17.7148-9.41406L15.7129-11.416Q15.5176-11.5918 15.4932-11.7529Q15.4688-11.9141 15.5859-12.1875L16.4648-14.2773Q15.293-15.3711 13.8281-15.791Q12.3633-16.2109 10.8398-15.7617Q10.7227-15.7324 10.6885-15.8057Q10.6543-15.8789 10.752-15.957Z"/>
  </g>
  <text style="stroke:none;fill:black;font-family:SF Pro,SF Pro Display,SF Pro Text,sans-serif;font-size:13;font-weight:bold;" transform="matrix(1 0 0 1 1289 1953)">Exporting</text>
  <text style="stroke:none;fill:black;font-family:SF Pro,SF Pro Display,SF Pro Text,sans-serif;font-size:13;" transform="matrix(1 0 0 1 1289 1971)">Symbols should be outlined when exporting to ensure the</text>
  <text style="stroke:none;fill:black;font-family:SF Pro,SF Pro Display,SF Pro Text,sans-serif;font-size:13;" transform="matrix(1 0 0 1 1289 1989)">design is preserved when submitting to Xcode.</text>
  <text id="template-version" style="stroke:none;fill:black;font-family:SF Pro,SF Pro Display,SF Pro Text,sans-serif;font-size:13;text-anchor:end;" transform="matrix(1 0 0 1 3036 1933)">Template v.3.0</text>
  <text style="stroke:none;fill:black;font-family:SF Pro,SF Pro Display,SF Pro Text,sans-serif;font-size:13;text-anchor:end;" transform="matrix(1 0 0 1 3036 1951)">Requires Xcode 13 or greater</text>
  <text id="descriptive-name" style="stroke:none;fill:black;font-family:SF Pro,SF Pro Display,SF Pro Text,sans-serif;font-size:13;text-anchor:end;" transform="matrix(1 0 0 1 3036 1969)">Generated from square.stack</text>
  <text style="stroke:none;fill:black;font-family:SF Pro,SF Pro Display,SF Pro Text,sans-serif;font-size:13;text-anchor:end;" transform="matrix(1 0 0 1 3036 1987)">Typeset at 100 points</text>
  <text style="stroke:none;fill:black;font-family:SF Pro,SF Pro Display,SF Pro Text,sans-serif;font-size:13;" transform="matrix(1 0 0 1 263 726)">Small</text>
  <text style="stroke:none;fill:black;font-family:SF Pro,SF Pro Display,SF Pro Text,sans-serif;font-size:13;" transform="matrix(1 0 0 1 263 1156)">Medium</text>
  <text style="stroke:none;fill:black;font-family:SF Pro,SF Pro Display,SF Pro Text,sans-serif;font-size:13;" transform="matrix(1 0 0 1 263 1586)">Large</text>
 </g>
 <g id="Guides">
  <g id="H-reference" style="fill:#27AAE1;stroke:none;" transform="matrix(1 0 0 1 339 696)">
   <path d="M0.993347 0L3.6377 0L29.3282-67.1326L30.0301-67.1326L30.0301-70.459L28.1227-70.459ZM11.6882-24.4797L46.9818-24.4797L46.2311-26.7288L12.4382-26.7288ZM55.1193 0L57.7637 0L30.6381-70.459L29.4327-70.459L29.4327-67.1326Z"/>
  </g>
  <line id="Baseline-S" style="fill:none;stroke:#27AAE1;opacity:1;stroke-width:0.5;" x1="263" x2="3036" y1="696" y2="696"/>
  <line id="Capline-S" style="fill:none;stroke:#27AAE1;opacity:1;stroke-width:0.5;" x1="263" x2="3036" y1="625.541" y2="625.541"/>
  <g id="H-reference" style="fill:#27AAE1;stroke:none;" transform="matrix(1 0 0 1 339 1126)">
   <path d="M0.993347 0L3.6377 0L29.3282-67.1326L30.0301-67.1326L30.0301-70.459L28.1227-70.459ZM11.6882-24.4797L46.9818-24.4797L46.2311-26.7288L12.4382-26.7288ZM55.1193 0L57.7637 0L30.6381-70.459L29.4327-70.459L29.4327-67.1326Z"/>
  </g>
  <line id="Baseline-M" style="fill:none;stroke:#27AAE1;opacity:1;stroke-width:0.5;" x1="263" x2="3036" y1="1126" y2="1126"/>
  <line id="Capline-M" style="fill:none;stroke:#27AAE1;opacity:1;stroke-width:0.5;" x1="263" x2="3036" y1="1055.54" y2="1055.54"/>
  <g id="H-reference" style="fill:#27AAE1;stroke:none;" transform="matrix(1 0 0 1 339 1556)">
   <path d="M0.993347 0L3.6377 0L29.3282-67.1326L30.0301-67.1326L30.0301-70.459L28.1227-70.459ZM11.6882-24.4797L46.9818-24.4797L46.2311-26.7288L12.4382-26.7288ZM55.1193 0L57.7637 0L30.6381-70.459L29.4327-70.459L29.4327-67.1326Z"/>
  </g>
  <line id="Baseline-L" style="fill:none;stroke:#27AAE1;opacity:1;stroke-width:0.5;" x1="263" x2="3036" y1="1556" y2="1556"/>
  <line id="Capline-L" style="fill:none;stroke:#27AAE1;opacity:1;stroke-width:0.5;" x1="263" x2="3036" y1="1485.54" y2="1485.54"/>
  <line id="left-margin-Regular-M" style="fill:none;stroke:#00AEEF;stroke-width:0.5;opacity:1.0;" x1="1394.57" x2="1394.57" y1="1030.79" y2="1150.12"/>
  <line id="right-margin-Regular-M" style="fill:none;stroke:#00AEEF;stroke-width:0.5;opacity:1.0;" x1="1505.12" x2="1505.12" y1="1030.79" y2="1150.12"/>
 </g>
 <g id="Symbols">
  <g id="Black-L" transform="matrix(1 0 0 1 2858.03 1556)">
   <path d="M39.9902 44.873L111.426 44.873Q122.363 44.873 128.516 38.6475Q134.668 32.4219 134.668 21.0449L134.668-49.9023Q134.668-61.3281 128.418-67.5293Q122.168-73.7305 110.742-73.7305L39.9902-73.7305Q28.5645-73.7305 22.3145-67.5293Q16.0645-61.3281 16.0645-49.9023L16.0645 21.0449Q16.0645 32.4219 22.3145 38.6475Q28.5645 44.873 39.9902 44.873ZM42.6758 24.6094Q39.5508 24.6094 37.9395 23.0957Q36.3281 21.582 36.3281 18.1641L36.3281-47.0703Q36.3281-50.4883 37.9395-52.002Q39.5508-53.5156 42.6758-53.5156L108.008-53.5156Q111.182-53.5156 112.793-52.002Q114.404-50.4883 114.404-47.0703L114.404 18.1641Q114.404 21.582 112.891 23.0957Q111.377 24.6094 108.691 24.6094ZM30.7617-83.0566L118.066-83.0566Q117.48-88.4277 114.258-91.5527Q111.035-94.6777 104.688-94.6777L44.1895-94.6777Q37.793-94.6777 34.5703-91.5527Q31.3477-88.4277 30.7617-83.0566ZM41.2598-104.443L107.617-104.443Q107.178-109.619 103.955-112.427Q100.732-115.234 95.2637-115.234L53.5645-115.234Q48.1445-115.234 44.9219-112.427Q41.6992-109.619 41.2598-104.443Z"/>
  </g>
  <g id="Heavy-L" transform="matrix(1 0 0 1 2562.49 1556)">
   <path d="M38.826 42.8566L110.446 42.8566Q120.773 42.8566 126.556 36.9766Q132.34 31.0966 132.34 20.2034L132.34-50.7782Q132.34-61.6966 126.436-67.5579Q120.531-73.4192 109.566-73.4192L38.826-73.4192Q27.8732-73.4192 21.9688-67.5636Q16.0645-61.7081 16.0645-50.7782L16.0645 20.2034Q16.0645 31.1081 21.9688 36.9823Q27.8732 42.8566 38.826 42.8566ZM40.9241 25.3357Q37.3268 25.3357 35.4561 23.5455Q33.5854 21.7552 33.5854 17.8993L33.5854-48.4993Q33.5854-52.3552 35.4561-54.1454Q37.3268-55.9357 40.9241-55.9357L107.443-55.9357Q111.055-55.9357 112.931-54.1454Q114.808-52.3552 114.808-48.4993L114.808 17.8993Q114.808 21.7552 113.046 23.5455Q111.285 25.3357 108.311 25.3357ZM30.3696-83.0452L116.568-83.0452Q115.993-88.0013 113.071-90.8611Q110.148-93.721 104.353-93.721L42.6338-93.721Q36.8019-93.721 33.8787-90.8611Q30.9555-88.0013 30.3696-83.0452ZM40.8913-103.303L106.084-103.303Q105.703-108.064 102.774-110.641Q99.8451-113.218 94.7914-113.218L52.1469-113.218Q47.1306-113.218 44.2074-110.641Q41.2842-108.064 40.8913-103.303Z"/>
  </g>
  <g id="Bold-L" transform="matrix(1 0 0 1 2267.08 1556)">
   <path d="M37.5244 40.6006L109.351 40.6006Q118.994 40.6006 124.365 35.1074Q129.736 29.6143 129.736 19.2627L129.736-51.7578Q129.736-62.1094 124.219-67.5903Q118.701-73.0713 108.252-73.0713L37.5244-73.0713Q27.0996-73.0713 21.582-67.6025Q16.0645-62.1338 16.0645-51.7578L16.0645 19.2627Q16.0645 29.6387 21.582 35.1196Q27.0996 40.6006 37.5244 40.6006ZM38.9648 26.1475Q34.8389 26.1475 32.6782 24.0479Q30.5176 21.9482 30.5176 17.6025L30.5176-50.0977Q30.5176-54.4434 32.6782-56.543Q34.8389-58.6426 38.9648-58.6426L106.812-58.6426Q110.913-58.6426 113.086-56.543Q115.259-54.4434 115.259-50.0977L115.259 17.6025Q115.259 21.9482 113.22 24.0479Q111.182 26.1475 107.886 26.1475ZM29.9316-83.0322L114.893-83.0322Q114.331-87.5244 111.743-90.0879Q109.155-92.6514 103.979-92.6514L40.8936-92.6514Q35.6934-92.6514 33.1055-90.0879Q30.5176-87.5244 29.9316-83.0322ZM40.4785-102.026L104.37-102.026Q104.053-106.323 101.453-108.643Q98.8525-110.962 94.2627-110.962L50.5615-110.962Q45.9961-110.962 43.4082-108.643Q40.8203-106.323 40.4785-102.026Z"/>
  </g>
  <g id="Semibold-L" transform="matrix(1 0 0 1 1971.26 1556)">
   <path d="M36.6272 39.0457L108.595 39.0457Q117.768 39.0457 122.855 33.8188Q127.941 28.5919 127.941 18.6142L127.941-52.433Q127.941-62.394 122.69-67.6125Q117.439-72.831 107.346-72.831L36.6272-72.831Q26.5663-72.831 21.3154-67.6289Q16.0645-62.4268 16.0645-52.433L16.0645 18.6142Q16.0645 28.6255 21.3154 33.8356Q26.5663 39.0457 36.6272 39.0457ZM37.6137 26.7075Q33.1238 26.7075 30.7632 24.3946Q28.4027 22.0818 28.4027 17.3981L28.4027-51.1993Q28.4027-55.883 30.7632-58.1959Q33.1238-60.5087 37.6137-60.5087L106.376-60.5087Q110.815-60.5087 113.193-58.1959Q115.57-55.883 115.57-51.1993L115.57 17.3981Q115.57 22.0818 113.34 24.3946Q111.111 26.7075 107.593 26.7075ZM29.6295-83.0231L113.737-83.0231Q113.184-87.1956 110.828-89.5546Q108.471-91.9136 103.722-91.9136L39.6935-91.9136Q34.9289-91.9136 32.5722-89.5546Q30.2155-87.1956 29.6295-83.0231ZM40.1939-101.147L103.188-101.147Q102.915-105.123 100.542-107.265Q98.1682-109.407 93.898-109.407L49.4682-109.407Q45.2141-109.407 42.8574-107.265Q40.5006-105.123 40.1939-101.147Z"/>
  </g>
  <g id="Medium-L" transform="matrix(1 0 0 1 1675.23 1556)">
   <path d="M35.9459 37.8662L108.022 37.8662Q116.838 37.8662 121.709 32.8419Q126.58 27.8175 126.58 18.1221L126.58-52.9457Q126.58-62.6091 121.531-67.6292Q116.483-72.6494 106.658-72.6494L35.9459-72.6494Q26.162-72.6494 21.1132-67.6495Q16.0645-62.6495 16.0645-52.9457L16.0645 18.1221Q16.0645 27.8572 21.1132 32.8617Q26.162 37.8662 35.9459 37.8662ZM36.5898 27.1317Q31.823 27.1317 29.311 24.6571Q26.799 22.1825 26.799 17.2432L26.799-52.0355Q26.799-56.9748 29.311-59.4494Q31.823-61.924 36.5898-61.924L106.046-61.924Q110.741-61.924 113.274-59.4494Q115.806-56.9748 115.806-52.0355L115.806 17.2432Q115.806 22.1825 113.431 24.6571Q111.057 27.1317 107.37 27.1317ZM29.4006-83.017L112.862-83.017Q112.315-86.9461 110.134-89.1502Q107.952-91.3544 103.526-91.3544L38.784-91.3544Q34.3498-91.3544 32.1682-89.1502Q29.9866-86.9461 29.4006-83.017ZM39.9788-100.479L102.292-100.479Q102.053-104.214 99.8512-106.221Q97.6494-108.228 93.6218-108.228L48.6397-108.228Q44.6213-108.228 42.4397-106.221Q40.258-104.214 39.9788-100.479Z"/>
  </g>
  <g id="Regular-L" transform="matrix(1 0 0 1 1379.41 1556)">
   <path d="M35.0586 36.3281L107.275 36.3281Q115.625 36.3281 120.215 31.5674Q124.805 26.8066 124.805 17.4805L124.805-53.6133Q124.805-62.8906 120.02-67.6514Q115.234-72.4121 105.762-72.4121L35.0586-72.4121Q25.6348-72.4121 20.8496-67.6758Q16.0645-62.9395 16.0645-53.6133L16.0645 17.4805Q16.0645 26.8555 20.8496 31.5918Q25.6348 36.3281 35.0586 36.3281ZM35.2539 27.6855Q30.127 27.6855 27.417 25Q24.707 22.3145 24.707 17.041L24.707-53.125Q24.707-58.3984 27.417-61.084Q30.127-63.7695 35.2539-63.7695L105.615-63.7695Q110.645-63.7695 113.379-61.084Q116.113-58.3984 116.113-53.125L116.113 17.041Q116.113 22.3145 113.55 25Q110.986 27.6855 107.08 27.6855ZM29.1016-83.0078L111.719-83.0078Q111.182-86.6211 109.229-88.623Q107.275-90.625 103.271-90.625L37.5977-90.625Q33.5938-90.625 31.6406-88.623Q29.6875-86.6211 29.1016-83.0078ZM39.6973-99.6094L101.123-99.6094Q100.928-103.027 98.9502-104.858Q96.9727-106.689 93.2617-106.689L47.5586-106.689Q43.8477-106.689 41.8945-104.858Q39.9414-103.027 39.6973-99.6094Z"/>
  </g>
  <g id="Light-L" transform="matrix(1 0 0 1 1083.9 1556)">
   <path d="M34.0294 34.1179L105.353 34.1179Q113.551 34.1179 117.974 29.5692Q122.398 25.0206 122.398 16.2544L122.398-54.3701Q122.398-63.1027 117.855-67.6514Q113.312-72.2 104.399-72.2L34.0294-72.2Q25.1503-72.2 20.6074-67.6907Q16.0645-63.1813 16.0645-54.3701L16.0645 16.2544Q16.0645 25.0999 20.6074 29.6089Q25.1503 34.1179 34.0294 34.1179ZM34.2094 27.5192Q28.5675 27.5192 25.6229 24.5838Q22.6784 21.6484 22.6784 15.921L22.6784-54.0031Q22.6784-59.7305 25.6229-62.6659Q28.5675-65.6013 34.2094-65.6013L104.253-65.6013Q109.737-65.6013 112.743-62.6659Q115.75-59.7305 115.75-54.0031L115.75 15.921Q115.75 21.6484 112.854 24.5838Q109.957 27.5192 105.157 27.5192ZM28.1631-83.3557L110.265-83.3557Q109.925-86.0916 108.396-87.7075Q106.866-89.3234 103.862-89.3234L34.6008-89.3234Q31.5956-89.3234 30.0663-87.7075Q28.537-86.0916 28.1631-83.3557ZM38.2591-98.8525L100.169-98.8525Q100.05-101.469 98.5035-102.982Q96.9574-104.494 94.1399-104.494L44.2894-104.494Q41.4711-104.494 39.9418-102.982Q38.4125-101.469 38.2591-98.8525Z"/>
  </g>
  <g id="Thin-L" transform="matrix(1 0 0 1 788.782 1556)">
   <path d="M32.6683 31.1958L102.811 31.1958Q110.809 31.1958 115.012 26.9272Q119.215 22.6585 119.215 14.6332L119.215-55.3711Q119.215-63.3827 114.993-67.6514Q110.77-71.92 102.598-71.92L32.6683-71.92Q24.5102-71.92 20.2873-67.7109Q16.0645-63.5017 16.0645-55.3711L16.0645 14.6332Q16.0645 22.7776 20.2873 26.9867Q24.5102 31.1958 32.6683 31.1958ZM32.8285 27.2987Q26.506 27.2987 23.2513 24.0334Q19.9966 20.768 19.9966 14.4394L19.9966-55.1643Q19.9966-61.4922 23.2513-64.7575Q26.506-68.0229 32.8285-68.0229L102.451-68.0229Q108.535-68.0229 111.902-64.7575Q115.269-61.4922 115.269-55.1643L115.269 14.4394Q115.269 20.768 111.933 24.0334Q108.596 27.2987 102.615 27.2987ZM26.9218-83.8165L108.344-83.8165Q108.264-85.3905 107.295-86.496Q106.326-87.6015 104.642-87.6015L30.6374-87.6015Q28.9536-87.6015 27.9846-86.496Q27.0157-85.3905 26.9218-83.8165ZM36.3579-97.8516L98.9082-97.8516Q98.8884-99.4064 97.913-100.499Q96.9376-101.592 95.3011-101.592L39.9651-101.592Q38.3286-101.592 37.3596-100.499Q36.3907-99.4064 36.3579-97.8516Z"/>
  </g>
  <g id="Ultralight-L" transform="matrix(1 0 0 1 492.887 1556)">
   <path d="M31.971 29.6982L101.508 29.6982Q109.404 29.6982 113.494 25.5733Q117.584 21.4485 117.584 13.8023L117.584-55.8838Q117.584-63.5262 113.526-67.6514Q109.467-71.7766 101.675-71.7766L31.971-71.7766Q24.1814-71.7766 20.1229-67.7212Q16.0645-63.6658 16.0645-55.8838L16.0645 13.8023Q16.0645 21.5881 20.1229 25.6432Q24.1814 29.6982 31.971 29.6982ZM32.1205 27.1858Q25.4494 27.1858 22.0356 23.7511Q18.6218 20.3163 18.6218 13.681L18.6218-55.7587Q18.6218-62.3947 22.0356-65.8295Q25.4494-69.2642 32.1205-69.2642L101.528-69.2642Q107.92-69.2642 111.472-65.8295Q115.024-62.3947 115.024-55.7587L115.024 13.681Q115.024 20.3163 111.461 23.7511Q107.899 27.1858 101.313 27.1858ZM26.2863-84.0523L107.359-84.0523Q107.413-85.0319 106.731-85.8757Q106.049-86.7195 105.042-86.7195L28.6064-86.7195Q27.5993-86.7195 26.918-85.8757Q26.2367-85.0319 26.2863-84.0523ZM35.3836-97.3389L98.262-97.3389Q98.2941-98.3498 97.6105-99.2275Q96.9269-100.105 95.8954-100.105L37.7502-100.105Q36.718-100.105 36.0367-99.2275Q35.3554-98.3498 35.3836-97.3389Z"/>
  </g>
  <g id="Black-M" transform="matrix(1 0 0 1 2874.42 1126)">
   <path d="M31.5918 27.832L86.5234 27.832Q95.5078 27.832 100.513 22.7783Q105.518 17.7246 105.518 8.69141L105.518-46.1426Q105.518-55.1758 100.488-60.2295Q95.459-65.2832 86.377-65.2832L31.5918-65.2832Q22.5586-65.2832 17.5049-60.2295Q12.4512-55.1758 12.4512-46.1426L12.4512 8.69141Q12.4512 17.7246 17.5049 22.7783Q22.5586 27.832 31.5918 27.832ZM34.2285 10.4492Q31.9824 10.4492 30.8838 9.44824Q29.7852 8.44727 29.7852 6.00586L29.7852-43.457Q29.7852-45.8984 30.8838-46.9238Q31.9824-47.9492 34.2285-47.9492L83.7402-47.9492Q85.9863-47.9492 87.085-46.9238Q88.1836-45.8984 88.1836-43.457L88.1836 6.00586Q88.1836 8.44727 87.1094 9.44824Q86.0352 10.4492 83.8867 10.4492ZM23.8281-72.4121L92.334-72.4121Q91.8945-76.6602 89.2822-79.1504Q86.6699-81.6406 81.5918-81.6406L34.5703-81.6406Q29.4922-81.6406 26.8799-79.1504Q24.2676-76.6602 23.8281-72.4121ZM31.7871-89.5996L84.375-89.5996Q83.9844-93.6523 81.3965-95.9229Q78.8086-98.1934 74.5117-98.1934L41.6504-98.1934Q37.3535-98.1934 34.7656-95.9229Q32.1777-93.6523 31.7871-89.5996Z"/>
  </g>
  <g id="Heavy-M" transform="matrix(1 0 0 1 2578.58 1126)">
   <path d="M30.6931 26.3336L85.9818 26.3336Q94.3901 26.3336 99.078 21.574Q103.766 16.8144 103.766 8.13828L103.766-46.8224Q103.766-55.5099 99.0131-60.2642Q94.2604-65.0185 85.524-65.0185L30.6931-65.0185Q21.9826-65.0185 17.2169-60.2642Q12.4512-55.5099 12.4512-46.8224L12.4512 8.13828Q12.4512 16.8259 17.2169 21.5797Q21.9826 26.3336 30.6931 26.3336ZM32.7301 11.1984Q30.1498 11.1984 28.8498 9.97276Q27.5497 8.7471 27.5497 5.98297L27.5497-44.6785Q27.5497-47.4312 28.8498-48.6755Q30.1498-49.9199 32.7301-49.9199L83.4755-49.9199Q86.0443-49.9199 87.3558-48.6755Q88.6673-47.4312 88.6673-44.6785L88.6673 5.98297Q88.6673 8.7471 87.4203 9.97276Q86.1732 11.1984 83.9325 11.1984ZM23.6549-72.3198L91.1697-72.3198Q90.7074-76.3489 88.2969-78.672Q85.8864-80.9952 81.1424-80.9952L33.683-80.9952Q28.9391-80.9952 26.5285-78.672Q24.118-76.3489 23.6549-72.3198ZM31.7413-88.6429L83.0956-88.6429Q82.74-92.4767 80.3421-94.5858Q77.9442-96.6949 73.8663-96.6949L40.9592-96.6949Q36.8813-96.6949 34.4833-94.5858Q32.0854-92.4767 31.7413-88.6429Z"/>
  </g>
  <g id="Bold-M" transform="matrix(1 0 0 1 2282.85 1126)">
   <path d="M29.6875 24.6582L85.376 24.6582Q93.1396 24.6582 97.4731 20.2271Q101.807 15.7959 101.807 7.51953L101.807-47.583Q101.807-55.8838 97.3633-60.3027Q92.9199-64.7217 84.5703-64.7217L29.6875-64.7217Q21.3379-64.7217 16.8945-60.3027Q12.4512-55.8838 12.4512-47.583L12.4512 7.51953Q12.4512 15.8203 16.8945 20.2393Q21.3379 24.6582 29.6875 24.6582ZM31.0547 12.0361Q28.1006 12.0361 26.5747 10.5591Q25.0488 9.08203 25.0488 5.95703L25.0488-46.0449Q25.0488-49.1455 26.5747-50.6348Q28.1006-52.124 31.0547-52.124L83.1787-52.124Q86.1084-52.124 87.6587-50.6348Q89.209-49.1455 89.209-46.0449L89.209 5.95703Q89.209 9.08203 87.7686 10.5591Q86.3281 12.0361 83.9844 12.0361ZM23.4619-72.2168L89.8682-72.2168Q89.3799-76.001 87.1948-78.1372Q85.0098-80.2734 80.6396-80.2734L32.6904-80.2734Q28.3203-80.2734 26.1353-78.1372Q23.9502-76.001 23.4619-72.2168ZM31.6895-87.5732L81.665-87.5732Q81.3477-91.1621 79.1626-93.0908Q76.9775-95.0195 73.1445-95.0195L40.1855-95.0195Q36.3525-95.0195 34.1675-93.0908Q31.9824-91.1621 31.6895-87.5732Z"/>
  </g>
  <g id="Semibold-M" transform="matrix(1 0 0 1 1986.81 1126)">
   <path d="M28.994 23.5031L84.9586 23.5031Q92.2775 23.5031 96.3665 19.2986Q100.455 15.094 100.455 7.09305L100.455-48.1071Q100.455-56.1417 96.2257-60.3294Q91.996-64.5172 83.9127-64.5172L28.994-64.5172Q20.8939-64.5172 16.6725-60.3294Q12.4512-56.1417 12.4512-48.1071L12.4512 7.09305Q12.4512 15.1268 16.6725 19.315Q20.8939 23.5031 28.994 23.5031ZM29.8996 12.6137Q26.6876 12.6137 25.0061 10.9634Q23.3246 9.3132 23.3246 5.93948L23.3246-46.9872Q23.3246-50.3273 25.0061-51.9855Q26.6876-53.6438 29.8996-53.6438L82.9742-53.6438Q86.1526-53.6438 87.8674-51.9855Q89.5821-50.3273 89.5821-46.9872L89.5821 5.93948Q89.5821 9.3132 88.0085 10.9634Q86.4349 12.6137 84.0202 12.6137ZM23.3284-72.1458L88.9709-72.1458Q88.4644-75.7607 86.4349-77.7683Q84.4055-79.776 80.2933-79.776L32.0061-79.776Q27.8938-79.776 25.8644-77.7683Q23.835-75.7607 23.3284-72.1458ZM31.6536-86.8355L80.6786-86.8355Q80.3879-90.2557 78.3493-92.0601Q76.3107-93.8644 72.6471-93.8644L39.6523-93.8644Q35.9879-93.8644 33.9497-92.0601Q31.9115-90.2557 31.6536-86.8355Z"/>
  </g>
  <g id="Medium-M" transform="matrix(1 0 0 1 1690.61 1126)">
   <path d="M28.4691 22.6273L84.6413 22.6273Q91.6237 22.6273 95.5276 18.5944Q99.4316 14.5615 99.4316 6.76956L99.4316-48.5046Q99.4316-56.337 95.3632-60.3497Q91.2949-64.3623 83.4137-64.3623L28.4691-64.3623Q20.5566-64.3623 16.5039-60.3497Q12.4512-56.337 12.4512-48.5046L12.4512 6.76956Q12.4512 14.6019 16.5039 18.6146Q20.5566 22.6273 28.4691 22.6273ZM29.0237 13.0516Q25.6165 13.0516 23.8171 11.2698Q22.0177 9.48792 22.0177 5.92575L22.0177-47.7013Q22.0177-51.2238 23.8171-53.0098Q25.6165-54.7958 29.0237-54.7958L82.8194-54.7958Q86.1862-54.7958 88.0257-53.0098Q89.8651-51.2238 89.8651-47.7013L89.8651 5.92575Q89.8651 9.48792 88.1905 11.2698Q86.5158 13.0516 84.0469 13.0516ZM23.2277-72.0917L88.2896-72.0917Q87.7708-75.5791 85.8589-77.4887Q83.947-79.3983 80.0301-79.3983L31.4873-79.3983Q27.5703-79.3983 25.6588-77.4887Q23.7473-75.5791 23.2277-72.0917ZM31.6269-86.2762L79.9309-86.2762Q79.66-89.5683 77.7328-91.2785Q75.8057-92.9886 72.2694-92.9886L39.2479-92.9886Q35.7117-92.9886 33.7845-91.2785Q31.8573-89.5683 31.6269-86.2762Z"/>
  </g>
  <g id="Regular-M" transform="matrix(1 0 0 1 1394.57 1126)">
   <path d="M27.7832 21.4844L84.2285 21.4844Q90.7715 21.4844 94.4336 17.6758Q98.0957 13.8672 98.0957 6.34766L98.0957-49.0234Q98.0957-56.5918 94.2383-60.376Q90.3809-64.1602 82.7637-64.1602L27.7832-64.1602Q20.1172-64.1602 16.2842-60.376Q12.4512-56.5918 12.4512-49.0234L12.4512 6.34766Q12.4512 13.916 16.2842 17.7002Q20.1172 21.4844 27.7832 21.4844ZM27.8809 13.623Q24.2188 13.623 22.2656 11.6699Q20.3125 9.7168 20.3125 5.9082L20.3125-48.6328Q20.3125-52.3926 22.2656-54.3457Q24.2188-56.2988 27.8809-56.2988L82.6172-56.2988Q86.2305-56.2988 88.2324-54.3457Q90.2344-52.3926 90.2344-48.6328L90.2344 5.9082Q90.2344 9.7168 88.4277 11.6699Q86.6211 13.623 84.082 13.623ZM23.0957-72.0215L87.4023-72.0215Q86.8652-75.3418 85.1074-77.124Q83.3496-78.9062 79.6875-78.9062L30.8105-78.9062Q27.1484-78.9062 25.3906-77.124Q23.6328-75.3418 23.0957-72.0215ZM31.5918-85.5469L78.9551-85.5469Q78.7109-88.6719 76.9287-90.2588Q75.1465-91.8457 71.7773-91.8457L38.7207-91.8457Q35.3516-91.8457 33.5693-90.2588Q31.7871-88.6719 31.5918-85.5469Z"/>
  </g>
  <g id="Light-M" transform="matrix(1 0 0 1 1098.94 1126)">
   <path d="M26.8448 19.5015L82.5027 19.5015Q88.9099 19.5015 92.4206 15.8821Q95.9312 12.2627 95.9312 5.22766L95.9312-49.7047Q95.9312-56.7734 92.2932-60.376Q88.6551-63.9786 81.5376-63.9786L26.8448-63.9786Q19.693-63.9786 16.0721-60.3912Q12.4512-56.8039 12.4512-49.7047L12.4512 5.22766Q12.4512 12.3268 16.0721 15.9142Q19.693 19.5015 26.8448 19.5015ZM26.9577 13.472Q22.8264 13.472 20.6612 11.2991Q18.4959 9.12628 18.4959 4.89426L18.4959-49.4049Q18.4959-53.6034 20.6612-55.7686Q22.8264-57.9338 26.9577-57.9338L81.3911-57.9338Q85.4279-57.9338 87.6648-55.7686Q89.9017-53.6034 89.9017-49.4049L89.9017 4.89426Q89.9017 9.12628 87.7922 11.2991Q85.6827 13.472 82.3563 13.472ZM22.2481-72.3396L86.1008-72.3396Q85.7452-74.8726 84.3658-76.3065Q82.9865-77.7405 80.217-77.7405L28.1311-77.7405Q25.3624-77.7405 23.983-76.3065Q22.6036-74.8726 22.2481-72.3396ZM30.3055-84.8656L78.0922-84.8656Q77.9236-87.2643 76.5274-88.5712Q75.1312-89.8781 72.5647-89.8781L35.7841-89.8781Q33.2176-89.8781 31.8211-88.5712Q30.4245-87.2643 30.3055-84.8656Z"/>
  </g>
  <g id="Thin-M" transform="matrix(1 0 0 1 803.662 1126)">
   <path d="M25.6035 16.8793L80.2208 16.8793Q86.4471 16.8793 89.7579 13.5101Q93.0687 10.141 93.0687 3.74603L93.0687-50.6058Q93.0687-57.0137 89.7209-60.376Q86.3731-63.7383 79.9164-63.7383L25.6035-63.7383Q19.133-63.7383 15.7921-60.4111Q12.4512-57.0839 12.4512-50.6058L12.4512 3.74603Q12.4512 10.2249 15.7921 13.5521Q19.133 16.8793 25.6035 16.8793ZM25.7362 13.2713Q20.9846 13.2713 18.5394 10.8086Q16.0942 8.34579 16.0942 3.55301L16.0942-50.4257Q16.0942-55.2048 18.5394-57.65Q20.9846-60.0952 25.7362-60.0952L79.7699-60.0952Q84.3674-60.0952 86.9141-57.65Q89.4608-55.2048 89.4608-50.4257L89.4608 3.55301Q89.4608 8.34579 86.9511 10.8086Q84.4414 13.2713 80.0743 13.2713ZM21.1273-72.76L84.3788-72.76Q84.2636-74.2523 83.3847-75.2258Q82.5058-76.1993 80.9181-76.1993L24.588-76.1993Q23.0003-76.1993 22.1214-75.2258Q21.2425-74.2523 21.1273-72.76ZM28.6034-83.9645L76.9516-83.9645Q76.8829-85.4027 75.9972-86.3392Q75.1114-87.2757 73.6053-87.2757L31.9008-87.2757Q30.3947-87.2757 29.509-86.3392Q28.6232-85.4027 28.6034-83.9645Z"/>
  </g>
  <g id="Ultralight-M" transform="matrix(1 0 0 1 507.684 1126)">
   <path d="M24.968 15.5357L79.052 15.5357Q85.186 15.5357 88.3942 12.2948Q91.6023 9.0538 91.6023 2.98767L91.6023-51.0666Q91.6023-57.1365 88.4033-60.376Q85.2043-63.6154 79.0855-63.6154L24.968-63.6154Q18.8454-63.6154 15.6483-60.4214Q12.4512-57.2273 12.4512-51.0666L12.4512 2.98767Q12.4512 9.14764 15.6483 12.3417Q18.8454 15.5357 24.968 15.5357ZM25.1106 13.1691Q20.0409 13.1691 17.4522 10.5576Q14.8636 7.94601 14.8636 2.8656L14.8636-50.9491Q14.8636-56.0257 17.4522-58.6143Q20.0409-61.203 25.1106-61.203L78.9391-61.203Q83.8234-61.203 86.5295-58.6143Q89.2357-56.0257 89.2357-50.9491L89.2357 2.8656Q89.2357 7.94601 86.5208 10.5576Q83.8058 13.1691 78.9055 13.1691ZM20.5528-72.9752L83.4969-72.9752Q83.5052-73.9342 82.8827-74.6719Q82.2601-75.4097 81.2767-75.4097L22.773-75.4097Q21.7903-75.4097 21.1678-74.6719Q20.5452-73.9342 20.5528-72.9752ZM27.7321-83.5037L76.3664-83.5037Q76.3496-84.449 75.7252-85.1955Q75.1007-85.9421 74.1386-85.9421L29.911-85.9421Q28.949-85.9421 28.3245-85.1955Q27.7-84.449 27.7321-83.5037Z"/>
  </g>
  <g id="Black-S" transform="matrix(1 0 0 1 2886.96 696)">
   <path d="M25 14.502L67.8711 14.502Q75.0488 14.502 79.0771 10.4736Q83.1055 6.44531 83.1055-0.732422L83.1055-43.6035Q83.1055-50.7812 79.0771-54.8096Q75.0488-58.8379 67.8711-58.8379L25-58.8379Q17.8223-58.8379 13.7939-54.8096Q9.76562-50.7812 9.76562-43.6035L9.76562-0.732422Q9.76562 6.44531 13.7939 10.4736Q17.8223 14.502 25 14.502ZM27.2461 0.341797Q25.5859 0.341797 24.7559-0.415039Q23.9258-1.17188 23.9258-2.97852L23.9258-41.3574Q23.9258-43.2129 24.7559-43.9453Q25.5859-44.6777 27.2461-44.6777L65.625-44.6777Q67.334-44.6777 68.1396-43.9453Q68.9453-43.2129 68.9453-41.3574L68.9453-2.97852Q68.9453-1.17188 68.1396-0.415039Q67.334 0.341797 65.625 0.341797ZM18.7012-64.4043L72.6074-64.4043Q72.3145-67.7246 70.2393-69.7266Q68.1641-71.7285 64.1113-71.7285L27.1973-71.7285Q23.1934-71.7285 21.0938-69.7266Q18.9941-67.7246 18.7012-64.4043ZM24.8535-78.0762L66.4551-78.0762Q66.1621-81.2988 64.0869-83.1055Q62.0117-84.9121 58.6426-84.9121L32.666-84.9121Q29.2969-84.9121 27.2217-83.1055Q25.1465-81.2988 24.8535-78.0762Z"/>
  </g>
  <g id="Heavy-S" transform="matrix(1 0 0 1 2590.87 696)">
   <path d="M24.3431 13.4766L67.6292 13.4766Q74.334 13.4766 78.1033 9.67293Q81.8726 5.86929 81.8726-1.06659L81.8726-44.0994Q81.8726-51.0345 78.0632-54.8325Q74.2538-58.6304 67.2951-58.6304L24.3431-58.6304Q17.3958-58.6304 13.5807-54.8325Q9.76562-51.0345 9.76562-44.0994L9.76562-1.06659Q9.76562 5.86929 13.5807 9.67293Q17.3958 13.4766 24.3431 13.4766ZM26.0818 0.998688Q24.1913 0.998688 23.2174 0.0862122Q22.2435-0.826263 22.2435-2.86331L22.2435-42.2913Q22.2435-44.3657 23.2174-45.2595Q24.1913-46.1533 26.0818-46.1533L65.5556-46.1533Q67.4835-46.1533 68.4391-45.2595Q69.3947-44.3657 69.3947-42.2913L69.3947-2.86331Q69.3947-0.826263 68.4795 0.0862122Q67.5644 0.998688 65.8897 0.998688ZM18.6554-64.2891L71.7896-64.2891Q71.4386-67.5285 69.4843-69.4267Q67.5301-71.3249 63.662-71.3249L26.7822-71.3249Q22.9515-71.3249 20.9785-69.4267Q19.0056-67.5285 18.6554-64.2891ZM24.9802-77.3499L65.464-77.3499Q65.1939-80.4688 63.2339-82.1777Q61.274-83.8867 57.9857-83.8867L32.4585-83.8867Q29.1702-83.8867 27.2102-82.1777Q25.2502-80.4688 24.9802-77.3499Z"/>
  </g>
  <g id="Bold-S" transform="matrix(1 0 0 1 2294.85 696)">
   <path d="M23.6084 12.3291L67.3584 12.3291Q73.5352 12.3291 77.0142 8.77686Q80.4932 5.22461 80.4932-1.44043L80.4932-44.6533Q80.4932-51.3184 76.9287-54.8584Q73.3643-58.3984 66.6504-58.3984L23.6084-58.3984Q16.9189-58.3984 13.3423-54.8584Q9.76562-51.3184 9.76562-44.6533L9.76562-1.44043Q9.76562 5.22461 13.3423 8.77686Q16.9189 12.3291 23.6084 12.3291ZM24.7803 1.7334Q22.6318 1.7334 21.4966 0.646973Q20.3613-0.439453 20.3613-2.73438L20.3613-43.335Q20.3613-45.6543 21.4966-46.7285Q22.6318-47.8027 24.7803-47.8027L65.4785-47.8027Q67.6514-47.8027 68.7744-46.7285Q69.8975-45.6543 69.8975-43.335L69.8975-2.73438Q69.8975-0.439453 68.8599 0.646973Q67.8223 1.7334 66.1865 1.7334ZM18.6035-64.1602L70.874-64.1602Q70.459-67.3096 68.6401-69.0918Q66.8213-70.874 63.1592-70.874L26.3184-70.874Q22.6807-70.874 20.8496-69.0918Q19.0186-67.3096 18.6035-64.1602ZM25.1221-76.5381L64.3555-76.5381Q64.1113-79.541 62.2803-81.1401Q60.4492-82.7393 57.251-82.7393L32.2266-82.7393Q29.0283-82.7393 27.1973-81.1401Q25.3662-79.541 25.1221-76.5381Z"/>
  </g>
  <g id="Semibold-S" transform="matrix(1 0 0 1 1998.61 696)">
   <path d="M23.1018 11.5379L67.1715 11.5379Q72.9843 11.5379 76.2634 8.15926Q79.5425 4.78058 79.5425-1.6983L79.5425-45.0356Q79.5425-51.5137 76.1467-54.8759Q72.7509-58.2382 66.2064-58.2382L23.1018-58.2382Q16.5901-58.2382 13.1779-54.8759Q9.76562-51.5137 9.76562-45.0356L9.76562-1.6983Q9.76562 4.78058 13.1779 8.15926Q16.5901 11.5379 23.1018 11.5379ZM23.8831 2.23999Q21.5569 2.23999 20.3102 1.0334Q19.0636-0.173187 19.0636-2.64587L19.0636-44.0552Q19.0636-46.5431 20.3102-47.7417Q21.5569-48.9403 23.8831-48.9403L65.4251-48.9403Q67.7666-48.9403 69.0052-47.7417Q70.2438-46.5431 70.2438-44.0552L70.2438-2.64587Q70.2438-0.173187 69.1219 1.0334Q68 2.23999 66.391 2.23999ZM18.5677-64.0717L70.2431-64.0717Q69.7838-67.1585 68.058-68.8606Q66.3322-70.5627 62.8128-70.5627L25.9987-70.5627Q22.4937-70.5627 20.7607-68.8606Q19.0277-67.1585 18.5677-64.0717ZM25.2197-75.9781L63.591-75.9781Q63.3652-78.9009 61.623-80.4245Q59.8808-81.9481 56.7444-81.9481L32.0663-81.9481Q28.9307-81.9481 27.1885-80.4245Q25.4463-78.9009 25.2197-75.9781Z"/>
  </g>
  <g id="Medium-S" transform="matrix(1 0 0 1 1702.26 696)">
   <path d="M22.718 10.9383L67.0303 10.9383Q72.5662 10.9383 75.6939 7.69081Q78.8216 4.44336 78.8216-1.89362L78.8216-45.3255Q78.8216-51.6624 75.5539-54.8897Q72.2862-58.1169 65.8691-58.1169L22.718-58.1169Q16.3406-58.1169 13.0531-54.8897Q9.76562-51.6624 9.76562-45.3255L9.76562-1.89362Q9.76562 4.44336 13.0531 7.69081Q16.3406 10.9383 22.718 10.9383ZM23.2018 2.62375Q20.7413 2.62375 19.4107 1.32637Q18.0801 0.0289917 18.0801-2.57797L18.0801-44.6007Q18.0801-47.2168 19.4107-48.51Q20.7413-49.8032 23.2018-49.8032L65.3847-49.8032Q67.8543-49.8032 69.1807-48.51Q70.507-47.2168 70.507-44.6007L70.507-2.57797Q70.507 0.0289917 69.3211 1.32637Q68.1351 2.62375 66.5459 2.62375ZM18.541-64.0038L69.7647-64.0038Q69.2711-67.0441 67.6167-68.6855Q65.9622-70.327 62.5496-70.327L25.7561-70.327Q22.3526-70.327 20.6932-68.6855Q19.0338-67.0441 18.541-64.0038ZM25.2937-75.5539L63.0119-75.5539Q62.7991-78.4157 61.124-79.882Q59.449-81.3484 56.3606-81.3484L31.945-81.3484Q28.8567-81.3484 27.1816-79.882Q25.5066-78.4157 25.2937-75.5539Z"/>
  </g>
  <g id="Regular-S" transform="matrix(1 0 0 1 1406.02 696)">
   <path d="M22.2168 10.1562L66.8457 10.1562Q72.0215 10.1562 74.9512 7.08008Q77.8809 4.00391 77.8809-2.14844L77.8809-45.7031Q77.8809-51.8555 74.7803-54.9072Q71.6797-57.959 65.4297-57.959L22.2168-57.959Q16.0156-57.959 12.8906-54.9072Q9.76562-51.8555 9.76562-45.7031L9.76562-2.14844Q9.76562 4.00391 12.8906 7.08008Q16.0156 10.1562 22.2168 10.1562ZM22.3145 3.125Q19.6777 3.125 18.2373 1.70898Q16.7969 0.292969 16.7969-2.49023L16.7969-45.3125Q16.7969-48.0957 18.2373-49.5117Q19.6777-50.9277 22.3145-50.9277L65.332-50.9277Q67.9688-50.9277 69.4092-49.5117Q70.8496-48.0957 70.8496-45.3125L70.8496-2.49023Q70.8496 0.292969 69.5801 1.70898Q68.3105 3.125 66.748 3.125ZM18.5059-63.916L69.1406-63.916Q68.6035-66.8945 67.041-68.457Q65.4785-70.0195 62.207-70.0195L25.4395-70.0195Q22.168-70.0195 20.6055-68.457Q19.043-66.8945 18.5059-63.916ZM25.3906-75L62.2559-75Q62.0605-77.7832 60.4736-79.1748Q58.8867-80.5664 55.8594-80.5664L31.7871-80.5664Q28.7598-80.5664 27.1729-79.1748Q25.5859-77.7832 25.3906-75Z"/>
  </g>
  <g id="Light-S" transform="matrix(1 0 0 1 1110.26 696)">
   <path d="M21.3997 8.40073L65.3168 8.40073Q70.3865 8.40073 73.18 5.49088Q75.9735 2.58102 75.9735-3.11737L75.9735-46.3089Q75.9735-52.0218 73.0621-54.9149Q70.1508-57.8079 64.3402-57.8079L21.3997-57.8079Q15.6219-57.8079 12.6938-54.9225Q9.76562-52.037 9.76562-46.3089L9.76562-3.11737Q9.76562 2.61154 12.6938 5.50613Q15.6219 8.40073 21.3997 8.40073ZM21.4973 2.98843Q18.4364 2.98843 16.8144 1.37596Q15.1924-0.236511 15.1924-3.38364L15.1924-46.0091Q15.1924-49.1707 16.8144-50.7759Q18.4364-52.3811 21.4973-52.3811L64.2426-52.3811Q67.2577-52.3811 68.9098-50.7759Q70.562-49.1707 70.562-46.0091L70.562-3.38364Q70.562-0.236511 69.0277 1.37596Q67.4934 2.98843 65.2191 2.98843ZM17.7643-64.1884L67.9749-64.1884Q67.6193-66.4703 66.3898-67.7303Q65.1604-68.9903 62.6762-68.9903L23.0782-68.9903Q20.5788-68.9903 19.3569-67.7303Q18.1351-66.4703 17.7643-64.1884ZM24.2401-74.3942L61.499-74.3942Q61.364-76.5419 60.1177-77.6764Q58.8715-78.8109 56.5559-78.8109L29.184-78.8109Q26.8677-78.8109 25.6214-77.6764Q24.3752-76.5419 24.2401-74.3942Z"/>
  </g>
  <g id="Thin-S" transform="matrix(1 0 0 1 814.814 696)">
   <path d="M20.3186 6.07834L63.295 6.07834Q68.2251 6.07834 70.8382 3.38898Q73.4512 0.699615 73.4512-4.39835L73.4512-47.1092Q73.4512-52.2423 70.7901-54.9248Q68.129-57.6073 62.8983-57.6073L20.3186-57.6073Q15.1016-57.6073 12.4336-54.9423Q9.76562-52.2774 9.76562-47.1092L9.76562-4.39835Q9.76562 0.769806 12.4336 3.42407Q15.1016 6.07834 20.3186 6.07834ZM20.4163 2.80838Q16.7953 2.80838 14.933 0.935364Q13.0707-0.937653 13.0707-4.56467L13.0707-46.9299Q13.0707-50.592 14.933-52.4475Q16.7953-54.303 20.4163-54.303L62.8006-54.303Q66.3162-54.303 68.2491-52.4475Q70.182-50.592 70.182-46.9299L70.182-4.56467Q70.182-0.937653 68.2972 0.935364Q66.4124 2.80838 63.1973 2.80838ZM16.7831-64.5485L66.4337-64.5485Q66.3185-65.9103 65.5293-66.7698Q64.74-67.6292 63.2965-67.6292L19.9554-67.6292Q18.4769-67.6292 17.7052-66.7698Q16.9334-65.9103 16.7831-64.5485ZM22.7188-73.5939L60.498-73.5939Q60.4431-74.9008 59.6474-75.6947Q58.8516-76.4885 57.4768-76.4885L25.7408-76.4885Q24.3652-76.4885 23.5695-75.6947Q22.7737-74.9008 22.7188-73.5939Z"/>
  </g>
  <g id="Ultralight-S" transform="matrix(1 0 0 1 518.749 696)">
   <path d="M19.7647 4.88892L62.2597 4.88892Q67.1173 4.88892 69.6384 2.31209Q72.1596-0.26474 72.1596-5.05447L72.1596-47.5197Q72.1596-52.3552 69.6266-54.9301Q67.0937-57.505 62.1605-57.505L19.7647-57.505Q14.8346-57.505 12.3001-54.9526Q9.76562-52.4002 9.76562-47.5197L9.76562-5.05447Q9.76562-0.17395 12.3001 2.35748Q14.8346 4.88892 19.7647 4.88892ZM19.8624 2.71606Q15.9538 2.71606 13.9687 0.709915Q11.9835-1.29623 11.9835-5.16968L11.9835-47.4014Q11.9835-51.3199 13.9687-53.3035Q15.9538-55.2872 19.8624-55.2872L62.0628-55.2872Q65.8348-55.2872 67.9108-53.3035Q69.9867-51.3199 69.9867-47.4014L69.9867-5.16968Q69.9867-1.29623 67.9226 0.709915Q65.8585 2.71606 62.162 2.71606ZM16.2811-64.7331L65.6441-64.7331Q65.6517-65.6227 65.0883-66.2773Q64.5248-66.9319 63.6147-66.9319L18.3556-66.9319Q17.3996-66.9319 16.8591-66.2773Q16.3185-65.6227 16.2811-64.7331ZM21.9398-73.1834L59.9854-73.1834Q59.9716-74.0593 59.4063-74.6792Q58.8409-75.2991 57.9483-75.2991L23.9769-75.2991Q23.0835-75.2991 22.5182-74.6792Q21.9528-74.0593 21.9398-73.1834Z"/>
  </g>
 </g>
</svg>
