<?xml version="1.0" encoding="UTF-8"?>
<!--Generator: Apple Native CoreSVG 149-->
<!DOCTYPE svg
PUBLIC "-//W3C//DTD SVG 1.1//EN"
       "http://www.w3.org/Graphics/SVG/1.1/DTD/svg11.dtd">
<svg version="1.1" xmlns="http://www.w3.org/2000/svg" xmlns:xlink="http://www.w3.org/1999/xlink" width="3300" height="2200">
 <!--glyph: "uni1002D9.medium", point size: 100.0, font version: "17.0d8e1", template writer version: "58"-->
 <style>.multicolor-0:systemRedColor {fill:#FF3B30;opacity:1.0}

.SFSymbolsPreviewFF3B30 {fill:#FF3B30;opacity:1.0}
</style>
 <g id="Notes">
  <rect height="2200" id="artboard" style="fill:white;opacity:1" width="3300" x="0" y="0"/>
  <line style="fill:none;stroke:black;opacity:1;stroke-width:0.5;" x1="263" x2="3036" y1="292" y2="292"/>
  <text style="stroke:none;fill:black;font-family:SF Pro,SF Pro Display,SF Pro Text,sans-serif;font-size:13;font-weight:bold;" transform="matrix(1 0 0 1 263 322)">Weight/Scale Variations</text>
  <text style="stroke:none;fill:black;font-family:SF Pro,SF Pro Display,SF Pro Text,sans-serif;font-size:13;text-anchor:middle;" transform="matrix(1 0 0 1 559.711 322)">Ultralight</text>
  <text style="stroke:none;fill:black;font-family:SF Pro,SF Pro Display,SF Pro Text,sans-serif;font-size:13;text-anchor:middle;" transform="matrix(1 0 0 1 856.422 322)">Thin</text>
  <text style="stroke:none;fill:black;font-family:SF Pro,SF Pro Display,SF Pro Text,sans-serif;font-size:13;text-anchor:middle;" transform="matrix(1 0 0 1 1153.13 322)">Light</text>
  <text style="stroke:none;fill:black;font-family:SF Pro,SF Pro Display,SF Pro Text,sans-serif;font-size:13;text-anchor:middle;" transform="matrix(1 0 0 1 1449.84 322)">Regular</text>
  <text style="stroke:none;fill:black;font-family:SF Pro,SF Pro Display,SF Pro Text,sans-serif;font-size:13;text-anchor:middle;" transform="matrix(1 0 0 1 1746.56 322)">Medium</text>
  <text style="stroke:none;fill:black;font-family:SF Pro,SF Pro Display,SF Pro Text,sans-serif;font-size:13;text-anchor:middle;" transform="matrix(1 0 0 1 2043.27 322)">Semibold</text>
  <text style="stroke:none;fill:black;font-family:SF Pro,SF Pro Display,SF Pro Text,sans-serif;font-size:13;text-anchor:middle;" transform="matrix(1 0 0 1 2339.98 322)">Bold</text>
  <text style="stroke:none;fill:black;font-family:SF Pro,SF Pro Display,SF Pro Text,sans-serif;font-size:13;text-anchor:middle;" transform="matrix(1 0 0 1 2636.69 322)">Heavy</text>
  <text style="stroke:none;fill:black;font-family:SF Pro,SF Pro Display,SF Pro Text,sans-serif;font-size:13;text-anchor:middle;" transform="matrix(1 0 0 1 2933.4 322)">Black</text>
  <line style="fill:none;stroke:black;opacity:1;stroke-width:0.5;" x1="263" x2="3036" y1="1903" y2="1903"/>
  <g transform="matrix(1 0 0 1 263 1933)">
   <path d="M9.24805 0.830078Q10.8691 0.830078 12.2949 0.214844Q13.7207-0.400391 14.8096-1.49414Q15.8984-2.58789 16.5186-4.01367Q17.1387-5.43945 17.1387-7.05078Q17.1387-8.66211 16.5186-10.0879Q15.8984-11.5137 14.8047-12.6074Q13.7109-13.7012 12.2852-14.3164Q10.8594-14.9316 9.23828-14.9316Q7.62695-14.9316 6.20117-14.3164Q4.77539-13.7012 3.69141-12.6074Q2.60742-11.5137 1.9873-10.0879Q1.36719-8.66211 1.36719-7.05078Q1.36719-5.43945 1.9873-4.01367Q2.60742-2.58789 3.69629-1.49414Q4.78516-0.400391 6.21094 0.214844Q7.63672 0.830078 9.24805 0.830078ZM9.24805-0.654297Q7.91992-0.654297 6.7627-1.14746Q5.60547-1.64062 4.73145-2.51953Q3.85742-3.39844 3.36426-4.56055Q2.87109-5.72266 2.87109-7.05078Q2.87109-8.37891 3.35938-9.54102Q3.84766-10.7031 4.72168-11.582Q5.5957-12.4609 6.75293-12.9541Q7.91016-13.4473 9.23828-13.4473Q10.5762-13.4473 11.7334-12.9541Q12.8906-12.4609 13.7695-11.582Q14.6484-10.7031 15.1465-9.54102Q15.6445-8.37891 15.6445-7.05078Q15.6445-5.72266 15.1514-4.56055Q14.6582-3.39844 13.7842-2.51953Q12.9102-1.64062 11.748-1.14746Q10.5859-0.654297 9.24805-0.654297ZM5.83984-7.04102Q5.83984-6.71875 6.04492-6.51855Q6.25-6.31836 6.5918-6.31836L8.50586-6.31836L8.50586-4.39453Q8.50586-4.0625 8.70605-3.85742Q8.90625-3.65234 9.22852-3.65234Q9.56055-3.65234 9.76562-3.85742Q9.9707-4.0625 9.9707-4.39453L9.9707-6.31836L11.8945-6.31836Q12.2266-6.31836 12.4316-6.51855Q12.6367-6.71875 12.6367-7.04102Q12.6367-7.37305 12.4316-7.57812Q12.2266-7.7832 11.8945-7.7832L9.9707-7.7832L9.9707-9.69727Q9.9707-10.0391 9.76562-10.2441Q9.56055-10.4492 9.22852-10.4492Q8.90625-10.4492 8.70605-10.2441Q8.50586-10.0391 8.50586-9.69727L8.50586-7.7832L6.5918-7.7832Q6.25-7.7832 6.04492-7.57812Q5.83984-7.37305 5.83984-7.04102Z"/>
  </g>
  <g transform="matrix(1 0 0 1 281.867 1933)">
   <path d="M11.709 2.91016Q13.75 2.91016 15.5518 2.12891Q17.3535 1.34766 18.7305-0.0292969Q20.1074-1.40625 20.8887-3.20801Q21.6699-5.00977 21.6699-7.05078Q21.6699-9.0918 20.8887-10.8936Q20.1074-12.6953 18.7305-14.0723Q17.3535-15.4492 15.5469-16.2305Q13.7402-17.0117 11.6992-17.0117Q9.6582-17.0117 7.85645-16.2305Q6.05469-15.4492 4.68262-14.0723Q3.31055-12.6953 2.5293-10.8936Q1.74805-9.0918 1.74805-7.05078Q1.74805-5.00977 2.5293-3.20801Q3.31055-1.40625 4.6875-0.0292969Q6.06445 1.34766 7.86621 2.12891Q9.66797 2.91016 11.709 2.91016ZM11.709 1.25Q9.98047 1.25 8.47656 0.605469Q6.97266-0.0390625 5.83496-1.17676Q4.69727-2.31445 4.05762-3.81836Q3.41797-5.32227 3.41797-7.05078Q3.41797-8.7793 4.05762-10.2832Q4.69727-11.7871 5.83008-12.9297Q6.96289-14.0723 8.4668-14.7119Q9.9707-15.3516 11.6992-15.3516Q13.4277-15.3516 14.9316-14.7119Q16.4355-14.0723 17.5781-12.9297Q18.7207-11.7871 19.3652-10.2832Q20.0098-8.7793 20.0098-7.05078Q20.0098-5.32227 19.3701-3.81836Q18.7305-2.31445 17.5928-1.17676Q16.4551-0.0390625 14.9463 0.605469Q13.4375 1.25 11.709 1.25ZM7.39258-7.04102Q7.39258-6.68945 7.62695-6.46484Q7.86133-6.24023 8.23242-6.24023L10.8789-6.24023L10.8789-3.57422Q10.8789-3.21289 11.1035-2.9834Q11.3281-2.75391 11.6797-2.75391Q12.0508-2.75391 12.2852-2.9834Q12.5195-3.21289 12.5195-3.57422L12.5195-6.24023L15.1758-6.24023Q15.5371-6.24023 15.7715-6.46484Q16.0059-6.68945 16.0059-7.04102Q16.0059-7.41211 15.7715-7.6416Q15.5371-7.87109 15.1758-7.87109L12.5195-7.87109L12.5195-10.5176Q12.5195-10.8984 12.2852-11.1279Q12.0508-11.3574 11.6797-11.3574Q11.3281-11.3574 11.1035-11.1279Q10.8789-10.8984 10.8789-10.5176L10.8789-7.87109L8.23242-7.87109Q7.85156-7.87109 7.62207-7.6416Q7.39258-7.41211 7.39258-7.04102Z"/>
  </g>
  <g transform="matrix(1 0 0 1 305.646 1933)">
   <path d="M14.9707 5.66406Q17.0605 5.66406 18.96 5.01465Q20.8594 4.36523 22.4512 3.19336Q24.043 2.02148 25.2197 0.429688Q26.3965-1.16211 27.0459-3.06641Q27.6953-4.9707 27.6953-7.05078Q27.6953-9.14062 27.0459-11.04Q26.3965-12.9395 25.2197-14.5312Q24.043-16.123 22.4512-17.2998Q20.8594-18.4766 18.9551-19.126Q17.0508-19.7754 14.9609-19.7754Q12.8711-19.7754 10.9717-19.126Q9.07227-18.4766 7.48535-17.2998Q5.89844-16.123 4.72168-14.5312Q3.54492-12.9395 2.90039-11.04Q2.25586-9.14062 2.25586-7.05078Q2.25586-4.9707 2.90527-3.06641Q3.55469-1.16211 4.72656 0.429688Q5.89844 2.02148 7.49023 3.19336Q9.08203 4.36523 10.9814 5.01465Q12.8809 5.66406 14.9707 5.66406ZM14.9707 3.84766Q13.1641 3.84766 11.5283 3.2959Q9.89258 2.74414 8.53516 1.74805Q7.17773 0.751953 6.17676-0.610352Q5.17578-1.97266 4.62891-3.6084Q4.08203-5.24414 4.08203-7.05078Q4.08203-8.86719 4.62891-10.5029Q5.17578-12.1387 6.17188-13.501Q7.16797-14.8633 8.52539-15.8594Q9.88281-16.8555 11.5186-17.4023Q13.1543-17.9492 14.9609-17.9492Q16.7773-17.9492 18.4131-17.4023Q20.0488-16.8555 21.4111-15.8594Q22.7734-14.8633 23.7695-13.501Q24.7656-12.1387 25.3174-10.5029Q25.8691-8.86719 25.8691-7.05078Q25.8789-5.24414 25.332-3.6084Q24.7852-1.97266 23.7842-0.610352Q22.7832 0.751953 21.4209 1.74805Q20.0586 2.74414 18.4229 3.2959Q16.7871 3.84766 14.9707 3.84766ZM9.45312-7.04102Q9.45312-6.66016 9.71191-6.41113Q9.9707-6.16211 10.3711-6.16211L14.0625-6.16211L14.0625-2.46094Q14.0625-2.06055 14.3115-1.80664Q14.5605-1.55273 14.9414-1.55273Q15.3516-1.55273 15.6055-1.80664Q15.8594-2.06055 15.8594-2.46094L15.8594-6.16211L19.5605-6.16211Q19.9609-6.16211 20.2148-6.41113Q20.4688-6.66016 20.4688-7.04102Q20.4688-7.45117 20.2148-7.70508Q19.9609-7.95898 19.5605-7.95898L15.8594-7.95898L15.8594-11.6504Q15.8594-12.0605 15.6055-12.3145Q15.3516-12.5684 14.9414-12.5684Q14.5605-12.5684 14.3115-12.3096Q14.0625-12.0508 14.0625-11.6504L14.0625-7.95898L10.3711-7.95898Q9.96094-7.95898 9.70703-7.70508Q9.45312-7.45117 9.45312-7.04102Z"/>
  </g>
  <text style="stroke:none;fill:black;font-family:SF Pro,SF Pro Display,SF Pro Text,sans-serif;font-size:13;font-weight:bold;" transform="matrix(1 0 0 1 263 1953)">Design Variations</text>
  <text style="stroke:none;fill:black;font-family:SF Pro,SF Pro Display,SF Pro Text,sans-serif;font-size:13;" transform="matrix(1 0 0 1 263 1971)">Symbols are supported in up to nine weights and three scales.</text>
  <text style="stroke:none;fill:black;font-family:SF Pro,SF Pro Display,SF Pro Text,sans-serif;font-size:13;" transform="matrix(1 0 0 1 263 1989)">For optimal layout with text and other symbols, vertically align</text>
  <text style="stroke:none;fill:black;font-family:SF Pro,SF Pro Display,SF Pro Text,sans-serif;font-size:13;" transform="matrix(1 0 0 1 263 2007)">symbols with the adjacent text.</text>
  <line style="fill:none;stroke:#00AEEF;stroke-width:0.5;opacity:1.0;" x1="776" x2="776" y1="1919" y2="1933"/>
  <g transform="matrix(1 0 0 1 776 1933)">
   <path d="M3.31055 0.15625Q3.70117 0.15625 3.91602-0.00976562Q4.13086-0.175781 4.26758-0.585938L5.52734-4.0332L11.2891-4.0332L12.5488-0.585938Q12.6855-0.175781 12.9004-0.00976562Q13.1152 0.15625 13.4961 0.15625Q13.8867 0.15625 14.1162-0.0585938Q14.3457-0.273438 14.3457-0.644531Q14.3457-0.869141 14.2383-1.17188L9.6582-13.3691Q9.48242-13.8184 9.17969-14.043Q8.87695-14.2676 8.4082-14.2676Q7.5-14.2676 7.17773-13.3789L2.59766-1.16211Q2.49023-0.859375 2.49023-0.634766Q2.49023-0.263672 2.70996-0.0537109Q2.92969 0.15625 3.31055 0.15625ZM6.00586-5.51758L8.37891-12.0898L8.42773-12.0898L10.8008-5.51758Z"/>
  </g>
  <line style="fill:none;stroke:#00AEEF;stroke-width:0.5;opacity:1.0;" x1="793.197" x2="793.197" y1="1919" y2="1933"/>
  <text style="stroke:none;fill:black;font-family:SF Pro,SF Pro Display,SF Pro Text,sans-serif;font-size:13;font-weight:bold;" transform="matrix(1 0 0 1 776 1953)">Margins</text>
  <text style="stroke:none;fill:black;font-family:SF Pro,SF Pro Display,SF Pro Text,sans-serif;font-size:13;" transform="matrix(1 0 0 1 776 1971)">Leading and trailing margins on the left and right side of each symbol</text>
  <text style="stroke:none;fill:black;font-family:SF Pro,SF Pro Display,SF Pro Text,sans-serif;font-size:13;" transform="matrix(1 0 0 1 776 1989)">can be adjusted by modifying the x-location of the margin guidelines.</text>
  <text style="stroke:none;fill:black;font-family:SF Pro,SF Pro Display,SF Pro Text,sans-serif;font-size:13;" transform="matrix(1 0 0 1 776 2007)">Modifications are automatically applied proportionally to all</text>
  <text style="stroke:none;fill:black;font-family:SF Pro,SF Pro Display,SF Pro Text,sans-serif;font-size:13;" transform="matrix(1 0 0 1 776 2025)">scales and weights.</text>
  <g transform="matrix(1 0 0 1 1289 1933)">
   <path d="M2.8418 1.86523L4.54102 3.57422Q5.18555 4.22852 5.90332 4.17969Q6.62109 4.13086 7.31445 3.35938L18.0078-8.42773L17.041-9.4043L6.42578 2.27539Q6.16211 2.57812 5.89355 2.61719Q5.625 2.65625 5.27344 2.30469L4.10156 1.14258Q3.75 0.791016 3.79395 0.522461Q3.83789 0.253906 4.14062-0.0195312L15.6152-10.8203L14.6387-11.7871L3.04688-0.898438Q2.30469-0.214844 2.25098 0.498047Q2.19727 1.21094 2.8418 1.86523ZM9.25781-16.3281Q8.94531-16.0254 8.90625-15.6348Q8.86719-15.2441 9.04297-14.9512Q9.21875-14.6777 9.55566-14.541Q9.89258-14.4043 10.3809-14.5215Q11.4746-14.7754 12.5977-14.7314Q13.7207-14.6875 14.7949-13.9844L14.209-12.5293Q13.9551-11.9043 14.0674-11.4404Q14.1797-10.9766 14.5801-10.5664L16.875-8.25195Q17.2363-7.88086 17.5781-7.82227Q17.9199-7.76367 18.3398-7.8418L19.4043-8.03711L20.0684-7.36328L20.0293-6.80664Q20-6.43555 20.1221-6.12305Q20.2441-5.81055 20.6055-5.44922L21.3672-4.70703Q21.7285-4.3457 22.1533-4.33105Q22.5781-4.31641 22.9297-4.66797L25.8398-7.58789Q26.1914-7.93945 26.1816-8.35449Q26.1719-8.76953 25.8105-9.13086L25.0391-9.89258Q24.6875-10.2539 24.3799-10.3857Q24.0723-10.5176 23.7109-10.4883L23.1348-10.4395L22.4902-11.0742L22.7344-12.1973Q22.832-12.6172 22.6953-12.9834Q22.5586-13.3496 22.1191-13.7891L19.9219-15.9766Q18.6719-17.2168 17.2607-17.8369Q15.8496-18.457 14.4189-18.4814Q12.9883-18.5059 11.665-17.959Q10.3418-17.4121 9.25781-16.3281ZM10.752-15.957Q11.6602-16.6211 12.7002-16.9043Q13.7402-17.1875 14.8047-17.085Q15.8691-16.9824 16.8701-16.5137Q17.8711-16.0449 18.7012-15.2051L21.1328-12.793Q21.3086-12.6172 21.3525-12.4512Q21.3965-12.2852 21.3379-12.0312L21.0156-10.5469L22.5195-9.0625L23.5059-9.12109Q23.6914-9.13086 23.7891-9.09668Q23.8867-9.0625 24.0332-8.91602L24.6094-8.33984L22.168-5.89844L21.5918-6.47461Q21.4453-6.62109 21.4062-6.71875Q21.3672-6.81641 21.377-7.01172L21.4453-7.98828L19.9512-9.47266L18.4277-9.21875Q18.1836-9.16992 18.042-9.2041Q17.9004-9.23828 17.7148-9.41406L15.7129-11.416Q15.5176-11.5918 15.4932-11.7529Q15.4688-11.9141 15.5859-12.1875L16.4648-14.2773Q15.293-15.3711 13.8281-15.791Q12.3633-16.2109 10.8398-15.7617Q10.7227-15.7324 10.6885-15.8057Q10.6543-15.8789 10.752-15.957Z"/>
  </g>
  <text style="stroke:none;fill:black;font-family:SF Pro,SF Pro Display,SF Pro Text,sans-serif;font-size:13;font-weight:bold;" transform="matrix(1 0 0 1 1289 1953)">Exporting</text>
  <text style="stroke:none;fill:black;font-family:SF Pro,SF Pro Display,SF Pro Text,sans-serif;font-size:13;" transform="matrix(1 0 0 1 1289 1971)">Symbols should be outlined when exporting to ensure the</text>
  <text style="stroke:none;fill:black;font-family:SF Pro,SF Pro Display,SF Pro Text,sans-serif;font-size:13;" transform="matrix(1 0 0 1 1289 1989)">design is preserved when submitting to Xcode.</text>
  <text id="template-version" style="stroke:none;fill:black;font-family:SF Pro,SF Pro Display,SF Pro Text,sans-serif;font-size:13;text-anchor:end;" transform="matrix(1 0 0 1 3036 1933)">Template v.3.0</text>
  <text style="stroke:none;fill:black;font-family:SF Pro,SF Pro Display,SF Pro Text,sans-serif;font-size:13;text-anchor:end;" transform="matrix(1 0 0 1 3036 1951)">Requires Xcode 13 or greater</text>
  <text id="descriptive-name" style="stroke:none;fill:black;font-family:SF Pro,SF Pro Display,SF Pro Text,sans-serif;font-size:13;text-anchor:end;" transform="matrix(1 0 0 1 3036 1969)">Generated from bell</text>
  <text style="stroke:none;fill:black;font-family:SF Pro,SF Pro Display,SF Pro Text,sans-serif;font-size:13;text-anchor:end;" transform="matrix(1 0 0 1 3036 1987)">Typeset at 100 points</text>
  <text style="stroke:none;fill:black;font-family:SF Pro,SF Pro Display,SF Pro Text,sans-serif;font-size:13;" transform="matrix(1 0 0 1 263 726)">Small</text>
  <text style="stroke:none;fill:black;font-family:SF Pro,SF Pro Display,SF Pro Text,sans-serif;font-size:13;" transform="matrix(1 0 0 1 263 1156)">Medium</text>
  <text style="stroke:none;fill:black;font-family:SF Pro,SF Pro Display,SF Pro Text,sans-serif;font-size:13;" transform="matrix(1 0 0 1 263 1586)">Large</text>
 </g>
 <g id="Guides">
  <g id="H-reference" style="fill:#27AAE1;stroke:none;" transform="matrix(1 0 0 1 339 696)">
   <path d="M0.993347 0L3.6377 0L29.3282-67.1326L30.0301-67.1326L30.0301-70.459L28.1227-70.459ZM11.6882-24.4797L46.9818-24.4797L46.2311-26.7288L12.4382-26.7288ZM55.1193 0L57.7637 0L30.6381-70.459L29.4327-70.459L29.4327-67.1326Z"/>
  </g>
  <line id="Baseline-S" style="fill:none;stroke:#27AAE1;opacity:1;stroke-width:0.5;" x1="263" x2="3036" y1="696" y2="696"/>
  <line id="Capline-S" style="fill:none;stroke:#27AAE1;opacity:1;stroke-width:0.5;" x1="263" x2="3036" y1="625.541" y2="625.541"/>
  <g id="H-reference" style="fill:#27AAE1;stroke:none;" transform="matrix(1 0 0 1 339 1126)">
   <path d="M0.993347 0L3.6377 0L29.3282-67.1326L30.0301-67.1326L30.0301-70.459L28.1227-70.459ZM11.6882-24.4797L46.9818-24.4797L46.2311-26.7288L12.4382-26.7288ZM55.1193 0L57.7637 0L30.6381-70.459L29.4327-70.459L29.4327-67.1326Z"/>
  </g>
  <line id="Baseline-M" style="fill:none;stroke:#27AAE1;opacity:1;stroke-width:0.5;" x1="263" x2="3036" y1="1126" y2="1126"/>
  <line id="Capline-M" style="fill:none;stroke:#27AAE1;opacity:1;stroke-width:0.5;" x1="263" x2="3036" y1="1055.54" y2="1055.54"/>
  <g id="H-reference" style="fill:#27AAE1;stroke:none;" transform="matrix(1 0 0 1 339 1556)">
   <path d="M0.993347 0L3.6377 0L29.3282-67.1326L30.0301-67.1326L30.0301-70.459L28.1227-70.459ZM11.6882-24.4797L46.9818-24.4797L46.2311-26.7288L12.4382-26.7288ZM55.1193 0L57.7637 0L30.6381-70.459L29.4327-70.459L29.4327-67.1326Z"/>
  </g>
  <line id="Baseline-L" style="fill:none;stroke:#27AAE1;opacity:1;stroke-width:0.5;" x1="263" x2="3036" y1="1556" y2="1556"/>
  <line id="Capline-L" style="fill:none;stroke:#27AAE1;opacity:1;stroke-width:0.5;" x1="263" x2="3036" y1="1485.54" y2="1485.54"/>
  <line id="left-margin-Regular-M" style="fill:none;stroke:#00AEEF;stroke-width:0.5;opacity:1.0;" x1="1393.42" x2="1393.42" y1="1030.79" y2="1150.12"/>
  <line id="right-margin-Regular-M" style="fill:none;stroke:#00AEEF;stroke-width:0.5;opacity:1.0;" x1="1506.27" x2="1506.27" y1="1030.79" y2="1150.12"/>
 </g>
 <g id="Symbols">
  <g id="Black-L" transform="matrix(1 0 0 1 2855.96 1556)">
   <path class="multicolor-0:systemRedColor SFSymbolsPreviewFF3B30" d="M10.4492-3.51562Q10.4492 2.49023 14.3555 6.17676Q18.2617 9.86328 24.8047 9.86328L47.9492 9.86328Q48.1445 14.3555 50.2686 18.6768Q52.3926 22.998 56.2012 26.5137Q60.0098 30.0293 65.3809 32.1045Q70.752 34.1797 77.4414 34.1797Q84.1309 34.1797 89.4775 32.1045Q94.8242 30.0293 98.6572 26.5137Q102.49 22.998 104.614 18.6768Q106.738 14.3555 106.934 9.86328L130.078 9.86328Q136.621 9.86328 140.527 6.17676Q144.434 2.49023 144.434-3.51562Q144.434-7.51953 142.822-10.9131Q141.211-14.3066 138.501-17.2119Q135.791-20.1172 132.568-22.7051Q130.566-24.2188 129.321-26.416Q128.076-28.6133 127.271-31.5918Q126.465-34.5703 125.854-38.4521Q125.244-42.334 124.609-47.2656Q123.584-57.8613 120.337-66.4795Q117.09-75.0977 111.621-81.1523Q106.152-87.207 98.3398-90.0391Q95.8008-96.6797 90.2832-100.708Q84.7656-104.736 77.4414-104.736Q70.1172-104.736 64.5752-100.708Q59.0332-96.6797 56.543-90.0391Q48.7305-87.207 43.2373-81.1523Q37.7441-75.0977 34.5215-66.4795Q31.2988-57.8613 30.2734-47.2656Q29.6387-42.334 29.0283-38.4521Q28.418-34.5703 27.6123-31.5918Q26.8066-28.6133 25.5371-26.416Q24.2676-24.2188 22.3145-22.7051Q19.0918-20.1172 16.3818-17.2119Q13.6719-14.3066 12.0605-10.9131Q10.4492-7.51953 10.4492-3.51562ZM35.5469-8.88672L35.5469-9.57031Q37.207-10.3516 38.7939-11.3281Q40.3809-12.3047 41.8213-13.5498Q43.2617-14.7949 44.4824-16.3574Q45.8008-18.0176 46.8018-20.9229Q47.8027-23.8281 48.5596-27.4902Q49.3164-31.1523 49.8535-35.2295Q50.3906-39.3066 50.7324-43.3105Q51.3672-53.125 53.6865-59.2285Q56.0059-65.332 59.4482-68.5059Q62.8906-71.6797 66.8945-72.7539Q67.9199-72.998 68.5547-73.6084Q69.1895-74.2188 69.3848-75.7812Q69.8242-80.1758 71.9238-82.5684Q74.0234-84.9609 77.4414-84.9609Q80.8105-84.9609 82.9346-82.5684Q85.0586-80.1758 85.498-75.7812Q85.6934-74.2188 86.3281-73.6084Q86.9629-72.998 87.9883-72.7539Q91.9922-71.6797 95.4346-68.5059Q98.877-65.332 101.196-59.2285Q103.516-53.125 104.15-43.3105Q104.492-39.3066 105.029-35.2295Q105.566-31.1523 106.348-27.4902Q107.129-23.8281 108.13-20.9229Q109.131-18.0176 110.4-16.3574Q111.572-14.7949 112.866-13.5498Q114.16-12.3047 115.625-11.3281Q117.09-10.3516 118.75-9.57031L118.75-8.88672ZM67.1875 9.86328L87.6465 9.86328Q87.3535 14.1602 84.4971 16.8701Q81.6406 19.5801 77.4414 19.5801Q73.2422 19.5801 70.3857 16.8701Q67.5293 14.1602 67.1875 9.86328Z"/>
  </g>
  <g id="Heavy-L" transform="matrix(1 0 0 1 2560.33 1556)">
   <path class="multicolor-0:systemRedColor SFSymbolsPreviewFF3B30" d="M11.2793-2.57034Q11.2793 2.73209 14.7762 5.98068Q18.2732 9.22928 24.1592 9.22928L48.6061 9.22928Q48.79 13.71 50.8102 17.9508Q52.8305 22.1916 56.4373 25.592Q60.0441 28.9925 65.0867 30.9868Q70.1294 32.9811 76.358 32.9811Q82.5867 32.9811 87.6106 30.9925Q92.6346 29.0039 96.2601 25.5978Q99.8856 22.1916 101.906 17.9565Q103.926 13.7215 104.11 9.22928L128.545 9.22928Q134.443 9.22928 137.94 5.98068Q141.438 2.73209 141.438-2.57034Q141.438-6.37894 139.786-9.66301Q138.134-12.9471 135.435-15.8348Q132.737-18.7225 129.641-21.357Q127.686-22.963 126.475-25.304Q125.264-27.6451 124.493-30.6988Q123.722-33.7524 123.169-37.5477Q122.617-41.3429 122.063-45.9061Q121.175-56.6856 118.118-65.3385Q115.061-73.9914 109.696-80.0114Q104.331-86.0313 96.45-88.8519Q94.1643-95.4002 88.8485-99.469Q83.5327-103.538 76.358-103.538Q69.1719-103.538 63.8432-99.469Q58.5144-95.4002 56.266-88.8519Q48.3734-86.0313 42.9955-80.0114Q37.6175-73.9914 34.5791-65.3385Q31.5407-56.6856 30.6534-45.9061Q30.0995-41.3429 29.541-37.5477Q28.9825-33.7524 28.2173-30.6988Q27.4521-27.6451 26.223-25.304Q24.9939-22.963 23.0751-21.357Q19.9791-18.7225 17.2806-15.8348Q14.5821-12.9471 12.9307-9.66301Q11.2793-6.37894 11.2793-2.57034ZM32.9079-7.01981L32.9079-7.71484Q34.2796-8.58841 35.8089-9.72633Q37.3383-10.8643 38.8596-12.2765Q40.3809-13.6887 41.7282-15.332Q43.1961-17.1074 44.2722-20.0241Q45.3484-22.9408 46.1224-26.5972Q46.8964-30.2536 47.4277-34.3769Q47.9591-38.5002 48.3009-42.6994Q48.9006-53.1364 51.2718-59.5798Q53.643-66.0233 57.2701-69.3699Q60.8971-72.7165 65.2351-73.8831Q66.3292-74.1508 66.9815-74.7726Q67.6338-75.3944 67.8062-76.8875Q68.2106-81.3972 70.4487-83.9745Q72.6868-86.5517 76.358-86.5517Q79.9927-86.5517 82.2491-83.9745Q84.5055-81.3972 84.8991-76.8875Q85.0708-75.3944 85.7288-74.7726Q86.3869-74.1508 87.4809-73.8831Q91.819-72.7165 95.4403-69.3699Q99.0616-66.0233 101.439-59.5798Q103.815-53.1364 104.415-42.6994Q104.757-38.5002 105.283-34.3769Q105.808-30.2536 106.607-26.5972Q107.406-22.9408 108.482-20.0241Q109.557-17.1074 110.988-15.332Q112.299-13.6887 113.708-12.2765Q115.117-10.8643 116.553-9.72633Q117.989-8.58841 119.361-7.71484L119.361-7.01981ZM65.2863 9.22928L87.3932 9.22928Q87.0888 14.0678 84.0073 17.0544Q80.9258 20.0409 76.358 20.0409Q71.7903 20.0409 68.7092 17.0544Q65.6281 14.0678 65.2863 9.22928Z"/>
  </g>
  <g id="Bold-L" transform="matrix(1 0 0 1 2264.83 1556)">
   <path class="multicolor-0:systemRedColor SFSymbolsPreviewFF3B30" d="M12.207-1.51367Q12.207 3.00293 15.2466 5.76172Q18.2861 8.52051 23.4375 8.52051L49.3408 8.52051Q49.5117 12.9883 51.416 17.1387Q53.3203 21.2891 56.7017 24.5605Q60.083 27.832 64.7583 29.7363Q69.4336 31.6406 75.1465 31.6406Q80.8594 31.6406 85.5225 29.7485Q90.1855 27.8564 93.5791 24.5728Q96.9727 21.2891 98.877 17.1509Q100.781 13.0127 100.952 8.52051L126.831 8.52051Q132.007 8.52051 135.046 5.76172Q138.086 3.00293 138.086-1.51367Q138.086-5.10254 136.389-8.26416Q134.692-11.4258 132.007-14.2944Q129.321-17.1631 126.367-19.8486Q124.463-21.5576 123.291-24.0601Q122.119-26.5625 121.387-29.6997Q120.654-32.8369 120.166-36.5356Q119.678-40.2344 119.214-44.3848Q118.481-55.3711 115.637-64.0625Q112.793-72.7539 107.544-78.7354Q102.295-84.7168 94.3359-87.5244Q92.334-93.9697 87.2437-98.0835Q82.1533-102.197 75.1465-102.197Q68.1152-102.197 63.0249-98.0835Q57.9346-93.9697 55.957-87.5244Q47.9736-84.7168 42.7246-78.7354Q37.4756-72.7539 34.6436-64.0625Q31.8115-55.3711 31.0791-44.3848Q30.6152-40.2344 30.1147-36.5356Q29.6143-32.8369 28.894-29.6997Q28.1738-26.5625 26.9897-24.0601Q25.8057-21.5576 23.9258-19.8486Q20.9717-17.1631 18.2861-14.2944Q15.6006-11.4258 13.9038-8.26416Q12.207-5.10254 12.207-1.51367ZM29.9561-4.93164L29.9561-5.63965Q31.0059-6.61621 32.4707-7.93457Q33.9355-9.25293 35.5469-10.8521Q37.1582-12.4512 38.6475-14.1846Q40.2832-16.0889 41.4429-19.0186Q42.6025-21.9482 43.396-25.5981Q44.1895-29.248 44.7144-33.4229Q45.2393-37.5977 45.5811-42.0166Q46.1426-53.1494 48.5718-59.9731Q51.001-66.7969 54.834-70.3369Q58.667-73.877 63.3789-75.1465Q64.5508-75.4395 65.2222-76.0742Q65.8936-76.709 66.04-78.125Q66.4062-82.7637 68.7988-85.5469Q71.1914-88.3301 75.1465-88.3301Q79.0771-88.3301 81.4819-85.5469Q83.8867-82.7637 84.2285-78.125Q84.375-76.709 85.0586-76.0742Q85.7422-75.4395 86.9141-75.1465Q91.626-73.877 95.4468-70.3369Q99.2676-66.7969 101.709-59.9731Q104.15-53.1494 104.712-42.0166Q105.054-37.5977 105.566-33.4229Q106.079-29.248 106.897-25.5981Q107.715-21.9482 108.875-19.0186Q110.034-16.0889 111.646-14.1846Q113.11-12.4512 114.648-10.8521Q116.187-9.25293 117.59-7.93457Q118.994-6.61621 120.044-5.63965L120.044-4.93164ZM63.1592 8.52051L87.1094 8.52051Q86.792 13.9648 83.4595 17.2607Q80.127 20.5566 75.1465 20.5566Q70.166 20.5566 66.8335 17.2607Q63.501 13.9648 63.1592 8.52051Z"/>
  </g>
  <g id="Semibold-L" transform="matrix(1 0 0 1 1968.96 1556)">
   <path class="multicolor-0:systemRedColor SFSymbolsPreviewFF3B30" d="M12.8471-0.785065Q12.8471 3.18985 15.5712 5.61066Q18.2953 8.03146 22.9401 8.03146L49.8474 8.03146Q50.0092 12.4908 51.8337 16.5791Q53.6583 20.6673 56.884 23.8499Q60.1097 27.0325 64.5317 28.8746Q68.9537 30.7167 74.3111 30.7167Q79.6684 30.7167 84.0828 28.891Q88.4972 27.0653 91.7305 23.8663Q94.9638 20.6673 96.7884 16.5955Q98.613 12.5237 98.7747 8.03146L125.649 8.03146Q130.327 8.03146 133.051 5.61066Q135.775 3.18985 135.775-0.785065Q135.775-4.22287 134.047-7.2998Q132.32-10.3767 129.643-13.2324Q126.966-16.0881 124.11-18.8087Q122.241-20.5887 121.096-23.2025Q119.951-25.8163 119.245-29.0112Q118.539-32.206 118.095-35.8379Q117.651-39.4699 117.25-43.3357Q116.624-54.4647 113.926-63.1828Q111.229-71.9009 106.06-77.8557Q100.891-83.8104 92.8787-86.6089Q91.0721-92.9832 86.1374-97.1283Q81.2027-101.273 74.3111-101.273Q67.3866-101.273 62.4607-97.1283Q57.5348-92.9832 55.7434-86.6089Q47.6982-83.8104 42.5381-77.8557Q37.3779-71.9009 34.6882-63.1828Q31.9984-54.4647 31.3721-43.3357Q30.9708-39.4699 30.5103-35.8379Q30.0499-32.206 29.3606-29.0112Q28.6713-25.8163 27.5185-23.2025Q26.3657-20.5887 24.5125-18.8087Q21.656-16.0881 18.9793-13.2324Q16.3025-10.3767 14.5748-7.2998Q12.8471-4.22287 12.8471-0.785065ZM27.9213-3.49197L27.9213-4.20914Q28.7483-5.25665 30.1689-6.69937Q31.5895-8.14209 33.263-9.87015Q34.9365-11.5982 36.5234-13.3934Q38.2744-15.387 39.492-18.3254Q40.7097-21.2639 41.5165-24.9092Q42.3233-28.5545 42.8436-32.7652Q43.364-36.9759 43.7057-41.5459Q44.2406-53.1586 46.7098-60.2444Q49.1791-67.3302 53.1544-71.0033Q57.1297-74.6765 62.0995-76.0178Q63.3247-76.3283 64.0091-76.9718Q64.6935-77.6154 64.8224-78.978Q65.1619-83.7059 67.6613-86.631Q70.1607-89.5561 74.3111-89.5561Q78.4462-89.5561 80.9532-86.631Q83.4602-83.7059 83.7662-78.978Q83.8951-77.6154 84.5966-76.9718Q85.2982-76.3283 86.5227-76.0178Q91.4925-74.6765 95.451-71.0033Q99.4095-67.3302 101.896-60.2444Q104.382-53.1586 104.916-41.5459Q105.258-36.9759 105.762-32.7652Q106.266-28.5545 107.097-24.9092Q107.928-21.2639 109.146-18.3254Q110.363-15.387 112.099-13.3934Q113.67-11.5982 115.297-9.87015Q116.924-8.14209 118.306-6.69937Q119.688-5.25665 120.515-4.20914L120.515-3.49197ZM61.6928 8.03146L86.9141 8.03146Q86.5875 13.8939 83.0818 17.403Q79.5761 20.9122 74.3111 20.9122Q69.046 20.9122 65.5403 17.403Q62.0346 13.8939 61.6928 8.03146Z"/>
  </g>
  <g id="Medium-L" transform="matrix(1 0 0 1 1672.88 1556)">
   <path class="multicolor-0:systemRedColor SFSymbolsPreviewFF3B30" d="M13.3324-0.232697Q13.3324 3.33099 15.8169 5.49622Q18.3014 7.66144 22.5624 7.66144L50.2312 7.66144Q50.3868 12.1132 52.1503 16.1541Q53.9139 20.195 57.0217 23.3105Q60.1295 26.4259 64.3597 28.2207Q68.5898 30.0156 73.6778 30.0156Q78.7659 30.0156 82.9914 28.2406Q87.2169 26.4656 90.329 23.3303Q93.441 20.195 95.2049 16.1743Q96.9688 12.1536 97.1237 7.66144L124.753 7.66144Q129.053 7.66144 131.538 5.49622Q134.023 3.33099 134.023-0.232697Q134.023-3.5553 132.272-6.56853Q130.521-9.58176 127.851-12.4271Q125.181-15.2725 122.398-18.0206Q120.557-19.8547 119.432-22.5525Q118.307-25.2502 117.621-28.4889Q116.936-31.7276 116.525-35.3092Q116.115-38.8908 115.761-42.5407Q115.216-53.7773 112.629-62.5156Q110.043-71.254 104.934-77.1885Q99.826-83.123 91.7732-85.9154Q90.1154-92.2356 85.2985-96.4039Q80.4817-100.572 73.6778-100.572Q66.8343-100.572 62.0327-96.4039Q57.2311-92.2356 55.5817-85.9154Q47.4892-83.123 42.3965-77.1885Q37.3039-71.254 34.7218-62.5156Q32.1396-53.7773 31.5948-42.5407Q31.2401-38.8908 30.8102-35.3092Q30.3802-31.7276 29.7146-28.4889Q29.0489-25.2502 27.9194-22.5525Q26.7899-19.8547 24.9573-18.0206Q22.1748-15.2725 19.5049-12.4271Q16.835-9.58176 15.0837-6.56853Q13.3324-3.5553 13.3324-0.232697ZM26.3779-2.40021L26.3779-3.12424Q27.037-4.22516 28.4237-5.76248Q29.8103-7.2998 31.5311-9.12552Q33.252-10.9512 34.9129-12.7937Q36.7516-14.8544 38.0131-17.7998Q39.2746-20.7451 40.0913-24.3874Q40.9081-28.0296 41.4253-32.2666Q41.9426-36.5036 42.2844-41.1888Q42.7986-53.1647 45.2984-60.4496Q47.7982-67.7345 51.881-71.5088Q55.9639-75.2831 61.129-76.6777Q62.3947-77.002 63.0894-77.6524Q63.784-78.3028 63.8992-79.6249Q64.2189-84.42 66.7988-87.4531Q69.3787-90.4861 73.6778-90.4861Q77.9678-90.4861 80.5523-87.4531Q83.1367-84.42 83.416-79.6249Q83.5312-78.3028 84.2461-77.6524Q84.9609-77.002 86.2267-76.6777Q91.3918-75.2831 95.4548-71.5088Q99.5178-67.7345 102.037-60.4496Q104.557-53.1647 105.071-41.1888Q105.413-36.5036 105.91-32.2666Q106.407-28.0296 107.249-24.3874Q108.09-20.7451 109.351-17.7998Q110.612-14.8544 112.443-12.7937Q114.095-10.9512 115.789-9.12552Q117.484-7.2998 118.848-5.76248Q120.213-4.22516 120.872-3.12424L120.872-2.40021ZM60.5812 7.66144L86.7653 7.66144Q86.4326 13.8397 82.7953 17.5106Q79.158 21.1815 73.6778 21.1815Q68.1969 21.1815 64.5599 17.5106Q60.923 13.8397 60.5812 7.66144Z"/>
  </g>
  <g id="Regular-L" transform="matrix(1 0 0 1 1376.99 1556)">
   <path class="multicolor-0:systemRedColor SFSymbolsPreviewFF3B30" d="M13.9648 0.488281Q13.9648 3.51562 16.1377 5.34668Q18.3105 7.17773 22.0703 7.17773L50.7324 7.17773Q50.8789 11.6211 52.5635 15.6006Q54.248 19.5801 57.2021 22.6074Q60.1562 25.6348 64.1357 27.3682Q68.1152 29.1016 72.8516 29.1016Q77.5879 29.1016 81.5674 27.3926Q85.5469 25.6836 88.501 22.6318Q91.4551 19.5801 93.1396 15.625Q94.8242 11.6699 94.9707 7.17773L123.584 7.17773Q127.393 7.17773 129.565 5.34668Q131.738 3.51562 131.738 0.488281Q131.738-2.68555 129.956-5.61523Q128.174-8.54492 125.513-11.377Q122.852-14.209 120.166-16.9922Q118.359-18.8965 117.261-21.7041Q116.162-24.5117 115.503-27.8076Q114.844-31.1035 114.478-34.6191Q114.111-38.1348 113.818-41.5039Q113.379-52.8809 110.938-61.6455Q108.496-70.4102 103.467-76.3184Q98.4375-82.2266 90.332-85.0098Q88.8672-91.2598 84.2041-95.459Q79.541-99.6582 72.8516-99.6582Q66.1133-99.6582 61.4746-95.459Q56.8359-91.2598 55.3711-85.0098Q47.2168-82.2266 42.2119-76.3184Q37.207-70.4102 34.7656-61.6455Q32.3242-52.8809 31.8848-41.5039Q31.5918-38.1348 31.2012-34.6191Q30.8105-31.1035 30.1758-27.8076Q29.541-24.5117 28.4424-21.7041Q27.3438-18.8965 25.5371-16.9922Q22.8516-14.209 20.1904-11.377Q17.5293-8.54492 15.7471-5.61523Q13.9648-2.68555 13.9648 0.488281ZM24.3652-0.976562L24.3652-1.70898Q24.8047-2.88086 26.1475-4.54102Q27.4902-6.20117 29.2725-8.1543Q31.0547-10.1074 32.8125-12.0117Q34.7656-14.1602 36.084-17.1143Q37.4023-20.0684 38.2324-23.7061Q39.0625-27.3438 39.5752-31.6162Q40.0879-35.8887 40.4297-40.7227Q40.918-53.1738 43.457-60.7178Q45.9961-68.2617 50.2197-72.168Q54.4434-76.0742 59.8633-77.5391Q61.1816-77.8809 61.8896-78.54Q62.5977-79.1992 62.6953-80.4688Q62.9883-85.3516 65.6738-88.5254Q68.3594-91.6992 72.8516-91.6992Q77.3438-91.6992 80.0293-88.5254Q82.7148-85.3516 82.959-80.4688Q83.0566-79.1992 83.7891-78.54Q84.5215-77.8809 85.8398-77.5391Q91.2598-76.0742 95.459-72.168Q99.6582-68.2617 102.222-60.7178Q104.785-53.1738 105.273-40.7227Q105.615-35.8887 106.104-31.6162Q106.592-27.3438 107.446-23.7061Q108.301-20.0684 109.619-17.1143Q110.938-14.1602 112.891-12.0117Q114.648-10.1074 116.431-8.1543Q118.213-6.20117 119.556-4.54102Q120.898-2.88086 121.338-1.70898L121.338-0.976562ZM59.1309 7.17773L86.5723 7.17773Q86.2305 13.7695 82.4219 17.6514Q78.6133 21.5332 72.8516 21.5332Q67.0898 21.5332 63.2812 17.6514Q59.4727 13.7695 59.1309 7.17773Z"/>
  </g>
  <g id="Light-L" transform="matrix(1 0 0 1 1080.25 1556)">
   <path class="multicolor-0:systemRedColor SFSymbolsPreviewFF3B30" d="M14.7522 1.97144Q14.7522 4.40903 16.4406 5.88417Q18.129 7.35931 20.9953 7.35931L52.4124 7.35931Q52.5291 11.6966 54.0771 15.4869Q55.6252 19.2772 58.3523 22.123Q61.0794 24.9687 64.7789 26.5736Q68.4784 28.1784 72.8821 28.1784Q77.285 28.1784 80.9769 26.5903Q84.6687 25.0023 87.4035 22.1397Q90.1382 19.2772 91.6866 15.5037Q93.235 11.7302 93.3357 7.35931L124.734 7.35931Q127.634 7.35931 129.323 5.88417Q131.012 4.40903 131.012 1.97144Q131.012-1.21765 129.29-4.12445Q127.568-7.03125 124.998-9.82552Q122.427-12.6198 119.818-15.403Q117.709-17.701 116.504-21.0686Q115.299-24.4362 114.632-28.4359Q113.966-32.4356 113.554-36.7535Q113.142-41.0713 112.668-45.3033Q111.971-55.2727 109.462-63.1516Q106.952-71.0304 102.052-76.3863Q97.1512-81.7421 89.3631-84.1469Q88.1256-90.5487 83.6819-94.6419Q79.2381-98.735 72.8821-98.735Q66.4917-98.735 62.0651-94.6419Q57.6385-90.5487 56.4003-84.1469Q48.5794-81.7421 43.6878-76.3863Q38.7962-71.0304 36.2869-63.1516Q33.7776-55.2727 33.0956-45.3033Q32.6057-41.0713 32.185-36.7535Q31.7642-32.4356 31.1142-28.4359Q30.4642-24.4362 29.2595-21.0686Q28.0548-17.701 25.9308-15.403Q23.336-12.6198 20.7657-9.82552Q18.1953-7.03125 16.4738-4.12445Q14.7522-1.21765 14.7522 1.97144ZM22.6097 1.05209L22.6097 0.364685Q22.8973-1.09482 24.2779-3.05748Q25.6584-5.02014 27.5845-7.20062Q29.5105-9.3811 31.3896-11.3914Q33.7364-13.903 35.1379-17.4778Q36.5395-21.0526 37.3165-25.3788Q38.0936-29.705 38.5986-34.568Q39.1037-39.431 39.6423-44.5518Q40.4182-55.217 42.8818-62.0876Q45.3453-68.9583 49.4099-72.781Q53.4744-76.6037 58.9699-78.0991Q60.4553-78.4866 61.2766-79.1759Q62.0979-79.8653 62.2566-81.2561Q62.7007-86.0626 65.4617-89.3047Q68.2228-92.5468 72.8821-92.5468Q77.5406-92.5468 80.294-89.3047Q83.0475-86.0626 83.474-81.2561Q83.6319-79.8653 84.4704-79.1759Q85.3088-78.4866 86.7935-78.0991Q92.289-76.6037 96.3367-72.781Q100.385-68.9583 102.857-62.0876Q105.33-55.217 106.106-44.5518Q106.66-39.431 107.14-34.568Q107.621-29.705 108.422-25.3788Q109.224-21.0526 110.618-17.4778Q112.012-13.903 114.359-11.3914Q116.253-9.3811 118.171-7.20062Q120.09-5.02014 121.478-3.05748Q122.866-1.09482 123.139 0.364685L123.139 1.05209ZM58.8737 7.35931L86.8752 7.35931Q86.5334 14.1937 82.634 18.2495Q78.7346 22.3053 72.8821 22.3053Q67.0143 22.3053 63.1226 18.2495Q59.2308 14.1937 58.8737 7.35931Z"/>
  </g>
  <g id="Thin-L" transform="matrix(1 0 0 1 783.5 1556)">
   <path class="multicolor-0:systemRedColor SFSymbolsPreviewFF3B30" d="M15.7928 3.93372Q15.7928 5.59006 16.8407 6.59485Q17.8886 7.59964 19.574 7.59964L54.6349 7.59964Q54.7112 11.7966 56.0791 15.3366Q57.4471 18.8766 59.874 21.4825Q62.3009 24.0883 65.63 25.5226Q68.959 26.9569 72.9218 26.9569Q76.8845 26.9569 80.196 25.5291Q83.5075 24.1013 85.952 21.489Q88.3965 18.8766 89.7648 15.3435Q91.1331 11.8103 91.1743 7.59964L126.256 7.59964Q127.955 7.59964 129.003 6.59485Q130.051 5.59006 130.051 3.93372Q130.051 0.724792 128.409-2.15225Q126.768-5.0293 124.318-7.77359Q121.867-10.5179 119.357-13.3011Q116.848-16.1194 115.503-20.2278Q114.159-24.3362 113.482-29.2667Q112.804-34.1972 112.333-39.576Q111.861-44.9547 111.147-50.3281Q110.11-58.4351 107.51-65.1432Q104.91-71.8513 100.18-76.4767Q95.4491-81.102 88.0821-83.0063Q87.1445-89.6072 82.991-93.5604Q78.8376-97.5136 72.9218-97.5136Q66.9922-97.5136 62.8456-93.5604Q58.699-89.6072 57.7614-83.0063Q50.3807-81.102 45.6394-76.4767Q40.8981-71.8513 38.2988-65.1432Q35.6995-58.4351 34.697-50.3281Q33.947-44.9547 33.4862-39.576Q33.0254-34.1972 32.3555-29.2667Q31.6856-24.3362 30.341-20.2278Q28.9963-16.1194 26.4511-13.3011Q23.9769-10.5179 21.5263-7.77359Q19.0758-5.0293 17.4343-2.15225Q15.7928 0.724792 15.7928 3.93372ZM20.2873 3.73383L20.2873 3.10745Q20.3751 1.26724 21.806-1.09596Q23.2368-3.45917 25.3529-5.93948Q27.4689-8.4198 29.5082-10.5705Q32.3753-13.5628 33.8871-17.9581Q35.3989-22.3534 36.1057-27.5906Q36.8126-32.8278 37.3077-38.4712Q37.8029-44.1147 38.6017-49.617Q39.7575-57.9201 42.1211-63.8996Q44.4847-69.8792 48.3391-73.592Q52.1935-77.3048 57.7888-78.8399Q59.494-79.287 60.4656-80.0163Q61.4372-80.7457 61.676-82.2968Q62.3207-87.0041 65.1817-90.3358Q68.0428-93.6676 72.9218-93.6676Q77.8008-93.6676 80.6446-90.3358Q83.4885-87.0041 84.1545-82.2968Q84.3925-80.7457 85.371-80.0163Q86.3495-79.287 88.0547-78.8399Q93.6501-77.3048 97.4979-73.592Q101.346-69.8792 103.698-63.8996Q106.051-57.9201 107.207-49.617Q108.041-44.1147 108.511-38.4712Q108.982-32.8278 109.714-27.5906Q110.445-22.3534 111.94-17.9581Q113.434-13.5628 116.301-10.5705Q118.375-8.4198 120.473-5.93948Q122.572-3.45917 124.02-1.09596Q125.468 1.26724 125.521 3.10745L125.521 3.73383ZM58.5335 7.59964L87.2757 7.59964Q86.9339 14.7537 82.9144 19.0399Q78.8948 23.3261 72.9218 23.3261Q66.9144 23.3261 62.9124 19.0399Q58.9104 14.7537 58.5335 7.59964Z"/>
  </g>
  <g id="Ultralight-L" transform="matrix(1 0 0 1 486.769 1556)">
   <path class="multicolor-0:systemRedColor SFSymbolsPreviewFF3B30" d="M16.3261 4.93851Q16.3261 6.19507 17.046 6.95877Q17.7658 7.72247 18.8461 7.72247L55.7732 7.72247Q55.8289 11.8484 57.1045 15.2603Q58.3801 18.6722 60.6533 21.1544Q62.9265 23.6366 66.0656 24.984Q69.2047 26.3313 72.9424 26.3313Q76.68 26.3313 79.7966 24.9859Q82.9132 23.6404 85.2089 21.1563Q87.5046 18.6722 88.7802 15.2618Q90.0558 11.8515 90.0665 7.72247L127.035 7.72247Q128.119 7.72247 128.839 6.95877Q129.559 6.19507 129.559 4.93851Q129.559 1.7189 127.958-1.1425Q126.357-4.00391 123.969-6.72226Q121.58-9.44061 119.122-12.2238Q116.407-15.3091 114.99-19.7968Q113.573-24.2844 112.892-29.6921Q112.21-35.0998 111.708-41.0221Q111.205-46.9444 110.368-52.9015Q109.156-60.0555 106.51-66.1636Q103.864-72.2717 99.221-76.5224Q94.5778-80.7732 87.426-82.4211Q86.6425-89.1258 82.6378-93.0069Q78.6331-96.888 72.9424-96.888Q67.2485-96.888 63.2458-93.0069Q59.243-89.1258 58.4587-82.4211Q51.3039-80.7732 46.6396-76.5224Q41.9754-72.2717 39.3295-66.1636Q36.6837-60.0555 35.5179-52.9015Q34.6344-46.9444 34.153-41.0221Q33.6716-35.0998 32.9914-29.6921Q32.3112-24.2844 30.8945-19.7968Q29.4777-15.3091 26.7181-12.2238Q24.305-9.44061 21.9162-6.72226Q19.5274-4.00391 17.9268-1.1425Q16.3261 1.7189 16.3261 4.93851ZM19.0979 5.10864L19.0979 4.51202Q19.0834 2.47726 20.5395-0.0907898Q21.9955-2.65884 24.2092-5.29327Q26.4229-7.9277 28.5439-10.1501Q31.678-13.3881 33.2458-18.2041Q34.8137-23.0202 35.4851-28.7239Q36.1565-34.4276 36.6463-40.4713Q37.1361-46.5149 38.0684-52.211Q39.4196-59.304 41.7316-64.8273Q44.0437-70.3506 47.7905-74.007Q51.5373-77.6634 57.1838-79.2191Q59.0019-79.6974 60.0506-80.4474Q61.0992-81.1974 61.3785-82.83Q62.1254-87.4855 65.0379-90.8638Q67.9504-94.2421 72.9424-94.2421Q77.9343-94.2421 80.8239-90.8638Q83.7135-87.4855 84.5032-82.83Q84.7824-81.1974 85.8326-80.4474Q86.8828-79.6974 88.7009-79.2191Q94.3474-77.6634 98.0927-74.007Q101.838-70.3506 104.129-64.8273Q106.42-59.304 107.771-52.211Q108.749-46.5149 109.214-40.4713Q109.679-34.4276 110.375-28.7239Q111.071-23.0202 112.616-18.2041Q114.162-13.3881 117.295-10.1501Q119.462-7.9277 121.653-5.29327Q123.843-2.65884 125.323-0.0907898Q126.802 2.47726 126.742 4.51202L126.742 5.10864ZM58.3588 7.72247L87.4802 7.72247Q87.1384 15.0414 83.0574 19.445Q78.9764 23.8487 72.9424 23.8487Q66.8625 23.8487 62.8044 19.445Q58.7463 15.0414 58.3588 7.72247Z"/>
  </g>
  <g id="Black-M" transform="matrix(1 0 0 1 2872.44 1126)">
   <path class="multicolor-0:systemRedColor SFSymbolsPreviewFF3B30" d="M7.66602-10.9375Q7.66602-5.9082 10.8887-2.80762Q14.1113 0.292969 19.4336 0.292969L37.207 0.292969Q37.4023 4.88281 40.2832 9.25293Q43.1641 13.623 48.4131 16.4551Q53.6621 19.2871 60.9375 19.2871Q68.2617 19.2871 73.5107 16.4551Q78.7598 13.623 81.6406 9.27734Q84.5215 4.93164 84.7168 0.292969L102.49 0.292969Q107.812 0.292969 111.035-2.80762Q114.258-5.9082 114.258-10.9375Q114.258-14.209 113.062-16.9189Q111.865-19.6289 109.79-21.8994Q107.715-24.1699 105.127-26.123Q102.881-27.7832 101.733-30.4199Q100.586-33.0566 99.9023-37.085Q99.2188-41.1133 98.3398-47.0215Q97.3633-54.5898 94.6777-60.9375Q91.9922-67.2852 87.6953-71.8018Q83.3984-76.3184 77.4902-78.418Q75.4395-83.6914 71.0449-86.7432Q66.6504-89.7949 60.9375-89.7949Q55.2734-89.7949 50.8789-86.7432Q46.4844-83.6914 44.4336-78.418Q38.5254-76.3184 34.2285-71.8018Q29.9316-67.2852 27.2461-60.9375Q24.5605-54.5898 23.584-47.0215Q22.7051-41.1133 22.0215-37.085Q21.3379-33.0566 20.1904-30.4199Q19.043-27.7832 16.7969-26.123Q14.209-24.1699 12.1338-21.8994Q10.0586-19.6289 8.8623-16.9189Q7.66602-14.209 7.66602-10.9375ZM29.248-15.7227L29.248-16.2109Q30.7129-16.8457 32.0068-17.5537Q33.3008-18.2617 34.3994-19.165Q35.498-20.0684 36.377-21.2402Q37.3535-22.6074 38.1104-25.0488Q38.8672-27.4902 39.4287-30.5664Q39.9902-33.6426 40.4053-36.9385Q40.8203-40.2344 41.1133-43.3105Q41.748-49.8047 43.4814-54.0039Q45.2148-58.2031 47.6807-60.498Q50.1465-62.793 52.9785-63.5254Q53.7598-63.7207 54.2725-64.1846Q54.7852-64.6484 54.9805-65.9668Q55.4199-69.2383 56.958-70.9717Q58.4961-72.7051 60.9375-72.7051Q63.4277-72.7051 64.9658-70.9717Q66.5039-69.2383 66.9434-65.9668Q67.1387-64.6484 67.6514-64.1846Q68.1641-63.7207 68.9453-63.5254Q71.7773-62.793 74.2432-60.498Q76.709-58.2031 78.4424-54.0039Q80.1758-49.8047 80.8105-43.3105Q81.1035-40.2344 81.543-36.9385Q81.9824-33.6426 82.5439-30.5664Q83.1055-27.4902 83.8623-25.0488Q84.6191-22.6074 85.5469-21.2402Q86.4258-20.0684 87.3779-19.165Q88.3301-18.2617 89.502-17.5537Q90.6738-16.8457 92.1387-16.2109L92.1387-15.7227ZM53.6621 0.292969L68.2617 0.292969Q68.0176 3.27148 65.9668 5.2002Q63.916 7.12891 60.9375 7.12891Q58.0078 7.12891 55.957 5.2002Q53.9062 3.27148 53.6621 0.292969Z"/>
  </g>
  <g id="Heavy-M" transform="matrix(1 0 0 1 2576.8 1126)">
   <path class="multicolor-0:systemRedColor SFSymbolsPreviewFF3B30" d="M8.30002-10.3386Q8.30002-5.86243 11.2228-3.11317Q14.1457-0.363922 19.03-0.363922L37.4718-0.363922Q37.6671 4.26025 40.427 8.54416Q43.187 12.8281 48.1422 15.5735Q53.0975 18.3189 59.8656 18.3189Q66.6832 18.3189 71.6381 15.5792Q76.593 12.8395 79.353 8.56857Q82.1129 4.29764 82.3082-0.363922L100.75-0.363922Q105.634-0.363922 108.558-3.11317Q111.481-5.86243 111.481-10.3386Q111.481-13.414 110.233-16.0259Q108.984-18.6378 106.897-20.8912Q104.81-23.1445 102.338-25.1549Q100.242-26.815 99.152-29.4632Q98.0621-32.1114 97.4361-35.9035Q96.8102-39.6957 96.0922-44.8776Q95.3117-52.9305 92.8165-59.5028Q90.3214-66.0751 86.105-70.6783Q81.8886-75.2815 75.8423-77.4384Q73.9876-82.5966 69.7487-85.7117Q65.5098-88.8268 59.8656-88.8268Q54.2709-88.8268 50.032-85.7117Q45.7932-82.5966 43.9377-77.4384Q37.8914-75.2815 33.6697-70.6783Q29.4479-66.0751 26.9581-59.5028Q24.4682-52.9305 23.6877-44.8776Q22.9698-39.6957 22.3438-35.9035Q21.7178-32.1114 20.6284-29.4632Q19.5389-26.815 17.4423-25.1549Q14.9696-23.1445 12.883-20.8912Q10.7964-18.6378 9.54819-16.0259Q8.30002-13.414 8.30002-10.3386ZM27.0241-14.3394L27.0241-14.8514Q28.2463-15.4976 29.4769-16.3094Q30.7076-17.1211 31.8523-18.1339Q32.9971-19.1467 33.9684-20.3758Q35.0258-21.7659 35.8345-24.0864Q36.6432-26.4069 37.2334-29.3331Q37.8235-32.2594 38.2328-35.4805Q38.6421-38.7016 38.9122-41.893Q39.4432-49.3668 41.2399-54.0501Q43.0367-58.7334 45.71-61.2068Q48.3833-63.6803 51.5381-64.5164Q52.3537-64.7118 52.8606-65.1871Q53.3676-65.6624 53.5286-66.8884Q53.8986-70.2873 55.5519-72.1821Q57.2052-74.0768 59.8656-74.0768Q62.5748-74.0768 64.2281-72.1821Q65.8813-70.2873 66.2521-66.8884Q66.4009-65.6624 66.9136-65.1871Q67.4263-64.7118 68.2304-64.5164Q71.3852-63.6803 74.0585-61.2068Q76.7319-58.7334 78.5343-54.0501Q80.3368-49.3668 80.8685-41.893Q81.1264-38.7016 81.5601-35.4805Q81.9939-32.2594 82.5787-29.3331Q83.1635-26.4069 83.9718-24.0864Q84.7801-21.7659 85.8002-20.3758Q86.7828-19.1467 87.8159-18.1339Q88.8489-17.1211 89.9803-16.3094Q91.1118-15.4976 92.3347-14.8514L92.3347-14.3394ZM51.841-0.363922L67.939-0.363922Q67.6834 3.08685 65.4366 5.24635Q63.1897 7.40585 59.8656 7.40585Q56.5903 7.40585 54.3377 5.24635Q52.0851 3.08685 51.841-0.363922Z"/>
  </g>
  <g id="Bold-M" transform="matrix(1 0 0 1 2281.29 1126)">
   <path class="multicolor-0:systemRedColor SFSymbolsPreviewFF3B30" d="M9.00879-9.66797Q9.00879-5.81055 11.5967-3.45459Q14.1846-1.09863 18.5791-1.09863L37.7686-1.09863Q37.9639 3.56445 40.5884 7.75146Q43.2129 11.9385 47.8394 14.5874Q52.4658 17.2363 58.667 17.2363Q64.917 17.2363 69.5435 14.5996Q74.1699 11.9629 76.7944 7.77588Q79.4189 3.58887 79.6143-1.09863L98.8037-1.09863Q103.198-1.09863 105.786-3.45459Q108.374-5.81055 108.374-9.66797Q108.374-12.5244 107.068-15.0269Q105.762-17.5293 103.662-19.7632Q101.562-21.9971 99.2188-24.0723Q97.29-25.7324 96.2646-28.3936Q95.2393-31.0547 94.6777-34.5825Q94.1162-38.1104 93.5791-42.4805Q93.0176-51.0742 90.7349-57.8979Q88.4521-64.7217 84.3262-69.4214Q80.2002-74.1211 73.999-76.3428Q72.3633-81.3721 68.2983-84.5581Q64.2334-87.7441 58.667-87.7441Q53.1494-87.7441 49.0845-84.5581Q45.0195-81.3721 43.3838-76.3428Q37.1826-74.1211 33.0444-69.4214Q28.9062-64.7217 26.6357-57.8979Q24.3652-51.0742 23.8037-42.4805Q23.2666-38.1104 22.7051-34.5825Q22.1436-31.0547 21.1182-28.3936Q20.0928-25.7324 18.1641-24.0723Q15.8203-21.9971 13.7207-19.7632Q11.6211-17.5293 10.3149-15.0269Q9.00879-12.5244 9.00879-9.66797ZM24.5361-12.793L24.5361-13.3301Q25.4883-13.9893 26.6479-14.917Q27.8076-15.8447 29.0039-16.98Q30.2002-18.1152 31.2744-19.4092Q32.4219-20.8252 33.2886-23.0103Q34.1553-25.1953 34.7778-27.9541Q35.4004-30.7129 35.8032-33.8501Q36.2061-36.9873 36.4502-40.3076Q36.8652-48.877 38.7329-54.1016Q40.6006-59.3262 43.5059-61.9995Q46.4111-64.6729 49.9268-65.625Q50.7812-65.8203 51.2817-66.3086Q51.7822-66.7969 51.9043-67.9199Q52.1973-71.46 53.9795-73.5352Q55.7617-75.6104 58.667-75.6104Q61.6211-75.6104 63.4033-73.5352Q65.1855-71.46 65.4785-67.9199Q65.5762-66.7969 66.0889-66.3086Q66.6016-65.8203 67.4316-65.625Q70.9473-64.6729 73.8525-61.9995Q76.7578-59.3262 78.6377-54.1016Q80.5176-48.877 80.9326-40.3076Q81.1523-36.9873 81.5796-33.8501Q82.0068-30.7129 82.6172-27.9541Q83.2275-25.1953 84.0942-23.0103Q84.9609-20.8252 86.084-19.4092Q87.1826-18.1152 88.3057-16.98Q89.4287-15.8447 90.5151-14.917Q91.6016-13.9893 92.5537-13.3301L92.5537-12.793ZM49.8047-1.09863L67.5781-1.09863Q67.3096 2.88086 64.8438 5.29785Q62.3779 7.71484 58.667 7.71484Q55.0049 7.71484 52.5269 5.29785Q50.0488 2.88086 49.8047-1.09863Z"/>
  </g>
  <g id="Semibold-M" transform="matrix(1 0 0 1 1985.4 1126)">
   <path class="multicolor-0:systemRedColor SFSymbolsPreviewFF3B30" d="M9.49783-9.20563Q9.49783-5.77469 11.8546-3.68996Q14.2113-1.60522 18.2678-1.60522L37.973-1.60522Q38.1683 3.08456 40.6994 7.20482Q43.2304 11.3251 47.6303 13.9076Q52.0302 16.4902 57.8407 16.4902Q63.6993 16.4902 68.0992 13.9244Q72.4991 11.3586 75.0301 7.22923Q77.5612 3.09982 77.7565-1.60522L97.4617-1.60522Q101.518-1.60522 103.875-3.68996Q106.232-5.77469 106.232-9.20563Q106.232-11.911 104.886-14.3379Q103.54-16.7648 101.432-18.9854Q99.3233-21.2059 97.068-23.3261Q95.2553-24.9863 94.2741-27.6562Q93.293-30.3261 92.7757-33.6716Q92.2585-37.0171 91.8465-40.8272Q91.436-49.7948 89.2998-56.7917Q87.1635-63.7886 83.0997-68.5551Q79.0359-73.3215 72.728-75.5875Q71.2433-80.5275 67.2985-83.7627Q63.3537-86.998 57.8407-86.998Q52.3766-86.998 48.4314-83.7627Q44.4862-80.5275 43.0016-75.5875Q36.6936-73.3215 32.6134-68.5551Q28.5332-63.7886 26.4137-56.7917Q24.2943-49.7948 23.8838-40.8272Q23.4711-37.0171 22.9538-33.6716Q22.4365-30.3261 21.4558-27.6562Q20.475-24.9863 18.6615-23.3261Q16.407-21.2059 14.2986-18.9854Q12.1902-16.7648 10.844-14.3379Q9.49783-11.911 9.49783-9.20563ZM22.821-11.7264L22.821-12.281Q23.5863-12.9494 24.6971-13.9572Q25.808-14.9651 27.0397-16.1846Q28.2715-17.4042 29.4167-18.7424Q30.6267-20.1767 31.5334-22.2683Q32.4402-24.3599 33.0849-27.0031Q33.7296-29.6463 34.1278-32.7259Q34.5261-35.8055 34.7527-39.2143Q35.0876-48.539 37.0041-54.137Q38.9206-59.7351 41.9861-62.5462Q45.0516-65.3572 48.8159-66.3895Q49.6971-66.5848 50.193-67.0818Q50.6889-67.5789 50.7843-68.631Q51.0239-72.2687 52.895-74.4682Q54.7661-76.6678 57.8407-76.6678Q60.9634-76.6678 62.8345-74.4682Q64.7057-72.2687 64.9452-68.631Q65.0078-67.5789 65.5205-67.0818Q66.0332-66.5848 66.8808-66.3895Q70.6451-65.3572 73.7103-62.5462Q76.7754-59.7351 78.7086-54.137Q80.6419-48.539 80.9769-39.2143Q81.1699-35.8055 81.5929-32.7259Q82.016-29.6463 82.6439-27.0031Q83.2718-24.3599 84.1785-22.2683Q85.0853-20.1767 86.2793-18.7424Q87.458-17.4042 88.6433-16.1846Q89.8285-14.9651 90.884-13.9572Q91.9395-12.9494 92.7048-12.281L92.7048-11.7264ZM48.4009-1.60522L67.3294-1.60522Q67.0517 2.73895 64.4348 5.33371Q61.8179 7.92847 57.8407 7.92847Q53.9116 7.92847 51.2783 5.33371Q48.645 2.73895 48.4009-1.60522Z"/>
  </g>
  <g id="Medium-M" transform="matrix(1 0 0 1 1689.32 1126)">
   <path class="multicolor-0:systemRedColor SFSymbolsPreviewFF3B30" d="M9.86786-8.85544Q9.86786-5.74799 12.0495-3.86848Q14.2311-1.98898 18.0321-1.98898L38.1279-1.98898Q38.3232 2.72064 40.7837 6.79054Q43.2442 10.8604 47.472 13.3923Q51.6998 15.9241 57.2136 15.9241Q62.7762 15.9241 67.0044 13.4121Q71.2326 10.9001 73.6931 6.81496Q76.1536 2.7298 76.3489-1.98898L96.4439-1.98898Q100.245-1.98898 102.427-3.86848Q104.608-5.74799 104.608-8.85544Q104.608-11.4464 103.232-13.8161Q101.855-16.1858 99.7402-18.396Q97.625-20.6062 95.4376-22.76Q93.7119-24.4202 92.7647-27.0969Q91.8175-29.7737 91.3342-32.9811Q90.8508-36.1885 90.5319-39.5744Q90.2359-48.8243 88.2111-55.9528Q86.1862-63.0814 82.1697-67.8982Q78.1532-72.715 71.7644-75.0145Q70.3941-79.8874 66.5401-83.1596Q62.6862-86.4319 57.2136-86.4319Q51.7899-86.4319 47.9359-83.1596Q44.0819-79.8874 42.7116-75.0145Q36.3235-72.715 32.2868-67.8982Q28.2501-63.0814 26.2451-55.9528Q24.2401-48.8243 23.9441-39.5744Q23.6259-36.1885 23.1426-32.9811Q22.6593-29.7737 21.7121-27.0969Q20.7649-24.4202 19.0392-22.76Q16.8518-20.6062 14.7366-18.396Q12.6213-16.1858 11.2446-13.8161Q9.86786-11.4464 9.86786-8.85544ZM21.5202-10.9177L21.5202-11.4861Q22.1443-12.1613 23.2182-13.2294Q24.292-14.2975 25.5508-15.5815Q26.8097-16.8655 28.009-18.2373Q29.2656-19.6846 30.2025-21.7056Q31.1394-23.7267 31.8012-26.2821Q32.4631-28.8376 32.8579-31.8733Q33.2527-34.9091 33.4656-38.3858Q33.7402-48.2834 35.6937-54.1641Q37.6472-60.0449 40.8337-62.9604Q44.0201-65.876 47.9736-66.9685Q48.8747-67.1638 49.3675-67.6678Q49.8604-68.1717 49.9352-69.1696Q50.135-72.8821 52.0733-75.1759Q54.0115-77.4696 57.2136-77.4696Q60.4645-77.4696 62.4031-75.1759Q64.3417-72.8821 64.5409-69.1696Q64.576-68.1717 65.0887-67.6678Q65.6013-67.1638 66.4627-66.9685Q70.4163-65.876 73.6027-62.9604Q76.7891-60.0449 78.7628-54.1641Q80.7365-48.2834 81.0104-38.3858Q81.1836-34.9091 81.6029-31.8733Q82.0221-28.8376 82.6637-26.2821Q83.3054-23.7267 84.2426-21.7056Q85.1799-19.6846 86.4281-18.2373Q87.6671-16.8655 88.8996-15.5815Q90.1321-14.2975 91.1636-13.2294Q92.1951-12.1613 92.8192-11.4861L92.8192-10.9177ZM47.3358-1.98898L67.141-1.98898Q66.8564 2.63062 64.1251 5.36041Q61.3937 8.09021 57.2136 8.09021Q53.083 8.09021 50.3315 5.36041Q47.58 2.63062 47.3358-1.98898Z"/>
  </g>
  <g id="Regular-M" transform="matrix(1 0 0 1 1393.42 1126)">
   <path class="multicolor-0:systemRedColor SFSymbolsPreviewFF3B30" d="M10.3516-8.39844Q10.3516-5.71289 12.3047-4.10156Q14.2578-2.49023 17.7246-2.49023L38.3301-2.49023Q38.5254 2.24609 40.8936 6.25Q43.2617 10.2539 47.2656 12.7197Q51.2695 15.1855 56.3965 15.1855Q61.5723 15.1855 65.5762 12.7441Q69.5801 10.3027 71.9482 6.27441Q74.3164 2.24609 74.5117-2.49023L95.1172-2.49023Q98.584-2.49023 100.537-4.10156Q102.49-5.71289 102.49-8.39844Q102.49-10.8398 101.074-13.1348Q99.6582-15.4297 97.5342-17.627Q95.4102-19.8242 93.3105-22.0215Q91.6992-23.6816 90.7959-26.3672Q89.8926-29.0527 89.4531-32.0801Q89.0137-35.1074 88.8184-37.9395Q88.6719-47.5586 86.792-54.8584Q84.9121-62.1582 80.957-67.041Q77.002-71.9238 70.5078-74.2676Q69.2871-79.0527 65.5518-82.373Q61.8164-85.6934 56.3965-85.6934Q51.0254-85.6934 47.29-82.373Q43.5547-79.0527 42.334-74.2676Q35.8398-71.9238 31.8604-67.041Q27.8809-62.1582 26.0254-54.8584Q24.1699-47.5586 24.0234-37.9395Q23.8281-35.1074 23.3887-32.0801Q22.9492-29.0527 22.0459-26.3672Q21.1426-23.6816 19.5312-22.0215Q17.4316-19.8242 15.3076-17.627Q13.1836-15.4297 11.7676-13.1348Q10.3516-10.8398 10.3516-8.39844ZM19.8242-9.86328L19.8242-10.4492Q20.2637-11.1328 21.2891-12.2803Q22.3145-13.4277 23.6084-14.7949Q24.9023-16.1621 26.1719-17.5781Q27.4902-19.043 28.4668-20.9717Q29.4434-22.9004 30.127-25.3418Q30.8105-27.7832 31.2012-30.7617Q31.5918-33.7402 31.7871-37.3047Q31.9824-47.9492 33.9844-54.1992Q35.9863-60.4492 39.3311-63.501Q42.6758-66.5527 46.875-67.7246Q47.8027-67.9199 48.291-68.4326Q48.7793-68.9453 48.8281-69.873Q48.9746-73.6816 51.001-76.0986Q53.0273-78.5156 56.3965-78.5156Q59.8145-78.5156 61.8408-76.0986Q63.8672-73.6816 64.0137-69.873Q64.0137-68.9453 64.5264-68.4326Q65.0391-67.9199 65.918-67.7246Q70.1172-66.5527 73.4619-63.501Q76.8066-60.4492 78.833-54.1992Q80.8594-47.9492 81.0547-37.3047Q81.2012-33.7402 81.6162-30.7617Q82.0312-27.7832 82.6904-25.3418Q83.3496-22.9004 84.3262-20.9717Q85.3027-19.043 86.6211-17.5781Q87.9395-16.1621 89.2334-14.7949Q90.5273-13.4277 91.5283-12.2803Q92.5293-11.1328 92.9688-10.4492L92.9688-9.86328ZM45.9473-2.49023L66.8945-2.49023Q66.6016 2.49023 63.7207 5.39551Q60.8398 8.30078 56.3965 8.30078Q52.002 8.30078 49.0967 5.39551Q46.1914 2.49023 45.9473-2.49023Z"/>
  </g>
  <g id="Light-M" transform="matrix(1 0 0 1 1096.68 1126)">
   <path class="multicolor-0:systemRedColor SFSymbolsPreviewFF3B30" d="M11.0626-7.06635Q11.0626-4.91028 12.5847-3.6171Q14.1068-2.32391 16.7557-2.32391L39.8438-2.32391Q39.9933 2.27661 42.1574 6.04591Q44.3214 9.81522 48.0076 12.0842Q51.6937 14.3532 56.4423 14.3532Q61.2091 14.3532 64.8952 12.101Q68.5814 9.84879 70.7451 6.0627Q72.9088 2.27661 73.0583-2.32391L96.1464-2.32391Q98.7961-2.32391 100.318-3.6171Q101.839-4.91028 101.839-7.06635Q101.839-9.52301 100.476-11.795Q99.1135-14.0671 97.0726-16.2418Q95.0317-18.4166 93.0077-20.5986Q91.0179-22.728 90.0539-26.1478Q89.09-29.5677 88.6505-33.5258Q88.2111-37.484 87.7892-41.3452Q87.4153-49.6925 85.4824-56.1977Q83.5495-62.7029 79.7005-67.1013Q75.8514-71.4996 69.6449-73.5107Q68.6211-78.4172 65.0826-81.6391Q61.544-84.861 56.4423-84.861Q51.358-84.861 47.8195-81.6391Q44.281-78.4172 43.2571-73.5107Q37.0506-71.4996 33.1848-67.1013Q29.319-62.7029 27.4029-56.1977Q25.4868-49.6925 25.1129-41.3452Q24.691-37.484 24.2516-33.5258Q23.8121-29.5677 22.8481-26.1478Q21.8842-22.728 19.8944-20.5986Q17.8703-18.4166 15.8298-16.2418Q13.7894-14.0671 12.426-11.795Q11.0626-9.52301 11.0626-7.06635ZM18.2648-8.03146L18.2648-8.58765Q18.5684-9.54361 19.6239-10.9558Q20.6795-12.368 22.1024-13.9397Q23.5252-15.5113 24.9153-17.0181Q26.5823-18.8156 27.6268-21.2971Q28.6713-23.7785 29.3095-26.8406Q29.9477-29.9026 30.3307-33.4034Q30.7137-36.9041 31.076-40.741Q31.5437-49.781 33.4774-55.4253Q35.4111-61.0695 38.6196-64.0533Q41.8282-67.0372 46.0876-68.2091Q47.1519-68.4647 47.7463-69.0002Q48.3406-69.5358 48.4344-70.5696Q48.7175-74.3172 50.8118-76.7948Q52.906-79.2725 56.4423-79.2725Q59.996-79.2725 62.0907-76.7948Q64.1853-74.3172 64.4676-70.5696Q64.5287-69.5358 65.1394-69.0002Q65.7501-68.4647 66.7809-68.2091Q71.0403-67.0372 74.2489-64.0533Q77.4574-61.0695 79.4083-55.4253Q81.3591-49.781 81.8268-40.741Q82.1548-36.9041 82.5546-33.4034Q82.9544-29.9026 83.5758-26.8406Q84.1972-23.7785 85.2421-21.2971Q86.2869-18.8156 87.9532-17.0181Q89.3776-15.5113 90.8001-13.9397Q92.2226-12.368 93.2613-10.9558Q94.3001-9.54361 94.6037-8.58765L94.6037-8.03146ZM45.7199-2.32391L67.1822-2.32391Q66.8892 2.88391 63.9252 5.94063Q60.9612 8.99734 56.4423 8.99734Q51.9417 8.99734 48.9605 5.94063Q45.9793 2.88391 45.7199-2.32391Z"/>
  </g>
  <g id="Thin-M" transform="matrix(1 0 0 1 799.931 1126)">
   <path class="multicolor-0:systemRedColor SFSymbolsPreviewFF3B30" d="M12.0041-5.30472Q12.0041-3.84979 12.9551-2.97661Q13.9061-2.10342 15.4747-2.10342L41.8457-2.10342Q41.9357 2.31628 43.829 5.77545Q45.7222 9.23462 48.988 11.2434Q52.2537 13.2523 56.5018 13.2523Q60.7285 13.2523 63.9942 11.2503Q67.26 9.24835 69.1536 5.78232Q71.0472 2.31628 71.1372-2.10342L97.5075-2.10342Q99.0761-2.10342 100.027-2.97661Q100.979-3.84979 100.979-5.30472Q100.979-7.78122 99.6857-10.0235Q98.3925-12.2658 96.4619-14.4104Q94.5312-16.555 92.6071-18.7172Q90.1169-21.4668 89.0732-25.8575Q88.0295-30.2483 87.59-35.4374Q87.1506-40.6265 86.4281-45.8496Q85.7544-52.5154 83.7513-57.9697Q81.7482-63.4239 78.0392-67.1818Q74.3301-70.9396 68.5043-72.5098Q67.7406-77.5764 64.4623-80.6683Q61.1839-83.7601 56.5018-83.7601Q51.799-83.7601 48.5207-80.6683Q45.2423-77.5764 44.4786-72.5098Q38.652-70.9396 34.9361-67.1818Q31.2202-63.4239 29.2244-57.9697Q27.2285-52.5154 26.5549-45.8496Q25.8316-40.6265 25.3922-35.4374Q24.9527-30.2483 23.909-25.8575Q22.8653-21.4668 20.3751-18.7172Q18.4509-16.555 16.5203-14.4104Q14.5897-12.2658 13.2969-10.0235Q12.0041-7.78122 12.0041-5.30472ZM16.2033-5.60989L16.2033-6.12488Q16.3261-7.44171 17.4221-9.20448Q18.5181-10.9673 20.1107-12.809Q21.7033-14.6507 23.2544-16.2773Q25.3807-18.5158 26.5156-21.7278Q27.6505-24.9397 28.2288-28.8223Q28.8071-32.7049 29.1798-36.8961Q29.5525-41.0873 30.1346-45.285Q30.9631-52.2026 32.8068-57.0465Q34.6504-61.8904 37.6789-64.7842Q40.7074-67.6781 45.047-68.8499Q46.2914-69.1856 47.0257-69.751Q47.76-70.3163 47.9141-71.4905Q48.3772-75.1579 50.5615-77.7157Q52.7458-80.2734 56.5018-80.2734Q60.2364-80.2734 62.421-77.7157Q64.6057-75.1579 65.0681-71.4905Q65.2092-70.3163 65.9504-69.751Q66.6916-69.1856 67.9214-68.8499Q72.2618-67.6781 75.2899-64.7842Q78.318-61.8904 80.1689-57.0465Q82.0198-52.2026 82.8476-45.285Q83.416-41.0873 83.7959-36.8961Q84.1759-32.7049 84.7469-28.8223Q85.318-24.9397 86.4529-21.7278Q87.5877-18.5158 89.7148-16.2773Q91.2788-14.6507 92.8719-12.809Q94.4649-10.9673 95.5536-9.20448Q96.6423-7.44171 96.7651-6.12488L96.7651-5.60989ZM45.4201-2.10342L67.5621-2.10342Q67.2691 3.40424 64.1953 6.66122Q61.1214 9.91821 56.5018 9.91821Q51.8616 9.91821 48.7804 6.66122Q45.6993 3.40424 45.4201-2.10342Z"/>
  </g>
  <g id="Ultralight-M" transform="matrix(1 0 0 1 503.199 1126)">
   <path class="multicolor-0:systemRedColor SFSymbolsPreviewFF3B30" d="M12.4855-4.40216Q12.4855-3.30582 13.1447-2.64816Q13.8039-1.99051 14.8186-1.99051L42.8711-1.99051Q42.9298 2.33688 44.685 5.63698Q46.4401 8.93707 49.4907 10.8124Q52.5414 12.6877 56.5331 12.6877Q60.4828 12.6877 63.533 10.8139Q66.5833 8.94012 68.3384 5.6385Q70.0935 2.33688 70.1523-1.99051L98.2048-1.99051Q99.2195-1.99051 99.8787-2.64816Q100.538-3.30582 100.538-4.40216Q100.538-6.88934 99.2805-9.11598Q98.0232-11.3426 96.1491-13.472Q94.2749-15.6013 92.4026-17.7528Q89.6561-20.8206 88.5708-25.7088Q87.4855-30.5969 87.0461-36.417Q86.6066-42.2371 85.7307-48.1567Q84.903-53.9612 82.864-58.8772Q80.825-63.7932 77.1881-67.2226Q73.5512-70.652 67.9192-71.9971Q67.289-77.1454 64.1441-80.1704Q60.9993-83.1955 56.5331-83.1955Q52.0241-83.1955 48.8792-80.1704Q45.7344-77.1454 45.1042-71.9971Q39.473-70.652 35.8337-67.2226Q32.1945-63.7932 30.1575-58.8772Q28.1204-53.9612 27.2926-48.1567Q26.4168-42.2371 25.9773-36.417Q25.5379-30.5969 24.4526-25.7088Q23.3673-20.8206 20.6207-17.7528Q18.7485-15.6013 16.8743-13.472Q15.0002-11.3426 13.7428-9.11598Q12.4855-6.88934 12.4855-4.40216ZM15.1466-4.36859L15.1466-4.86374Q15.1779-6.36444 16.2941-8.30688Q17.4103-10.2493 19.0903-12.2295Q20.7703-14.2097 22.403-15.8981Q24.7658-18.3617 25.9468-21.9479Q27.1278-25.5341 27.6749-29.8374Q28.2219-34.1408 28.59-38.686Q28.9581-43.2312 29.6532-47.6128Q30.6656-53.4439 32.4631-57.8773Q34.2606-62.3108 37.1967-65.1585Q40.1329-68.0061 44.5137-69.178Q45.8504-69.5549 46.6564-70.1355Q47.4625-70.7161 47.6471-71.962Q48.2025-75.589 50.4333-78.1876Q52.6642-80.7861 56.5331-80.7861Q60.3592-80.7861 62.59-78.1876Q64.8209-75.589 65.3763-71.962Q65.5579-70.7161 66.3654-70.1355Q67.173-69.5549 68.5066-69.178Q72.8874-68.0061 75.8232-65.1585Q78.759-62.3108 80.5584-57.8773Q82.3578-53.4439 83.371-47.6128Q84.0622-43.2312 84.4318-38.686Q84.8015-34.1408 85.347-29.8374Q85.8925-25.5341 87.0735-21.9479Q88.2545-18.3617 90.6174-15.8981Q92.2531-14.2097 93.9331-12.2295Q95.6131-10.2493 96.7278-8.30688Q97.8424-6.36444 97.8729-4.86374L97.8729-4.36859ZM45.266-1.99051L67.7574-1.99051Q67.4644 3.67126 64.3337 7.03049Q61.203 10.3897 56.5331 10.3897Q51.8204 10.3897 48.6881 7.03049Q45.5559 3.67126 45.266-1.99051Z"/>
  </g>
  <g id="Black-S" transform="matrix(1 0 0 1 2885.3 696)">
   <path class="multicolor-0:systemRedColor SFSymbolsPreviewFF3B30" d="M5.85938-16.3086Q5.85938-12.207 8.44727-9.69238Q11.0352-7.17773 15.2832-7.17773L29.1504-7.17773Q29.2969-3.61328 31.5918-0.170898Q33.8867 3.27148 38.0859 5.49316Q42.2852 7.71484 48.0957 7.71484Q53.9551 7.71484 58.1299 5.49316Q62.3047 3.27148 64.5996-0.170898Q66.8945-3.61328 67.041-7.17773L80.9082-7.17773Q85.1562-7.17773 87.7441-9.69238Q90.332-12.207 90.332-16.3086Q90.332-20.2637 88.3301-23.1689Q86.3281-26.0742 83.2031-28.3203Q81.3965-29.6387 80.4688-31.7383Q79.541-33.8379 78.9795-37.1338Q78.418-40.4297 77.6855-45.3125Q76.416-53.9062 72.2168-60.4248Q68.0176-66.9434 61.1816-69.3359Q59.5215-73.5352 56.0547-75.8789Q52.5879-78.2227 48.0957-78.2227Q43.6523-78.2227 40.1855-75.8789Q36.7188-73.5352 35.0098-69.3359Q28.2227-66.9434 23.999-60.4248Q19.7754-53.9062 18.5059-45.3125Q17.7734-40.4297 17.2119-37.1338Q16.6504-33.8379 15.7227-31.7383Q14.7949-29.6387 12.9883-28.3203Q9.86328-26.0742 7.86133-23.1689Q5.85938-20.2637 5.85938-16.3086ZM23.4863-20.2637L23.4863-20.6543Q25.3418-21.3867 26.7578-22.2656Q28.1738-23.1445 29.1504-24.5117Q30.2246-25.9277 30.9082-28.9062Q31.5918-31.8848 32.0557-35.4736Q32.5195-39.0625 32.8613-42.1875Q33.3984-46.875 34.7168-49.9756Q36.0352-53.0762 37.915-54.834Q39.7949-56.5918 41.8945-57.1289Q42.5293-57.2754 42.9199-57.6416Q43.3105-58.0078 43.5059-59.082Q43.8965-61.6211 45.0684-62.915Q46.2402-64.209 48.0957-64.209Q49.9512-64.209 51.1475-62.915Q52.3438-61.6211 52.6855-59.082Q52.8809-58.0078 53.2715-57.6416Q53.6621-57.2754 54.2969-57.1289Q56.4453-56.5918 58.3008-54.834Q60.1562-53.0762 61.4746-49.9756Q62.793-46.875 63.3301-42.1875Q63.7207-39.0625 64.1846-35.4736Q64.6484-31.8848 65.3564-28.9062Q66.0645-25.9277 67.041-24.5117Q68.0176-23.1445 69.2139-22.2656Q70.4102-21.3867 72.2168-20.6543L72.2168-20.2637ZM42.5781-7.17773L53.6133-7.17773Q53.418-4.98047 51.8799-3.54004Q50.3418-2.09961 48.0957-2.09961Q45.8496-2.09961 44.3115-3.54004Q42.7734-4.98047 42.5781-7.17773Z"/>
  </g>
  <g id="Heavy-S" transform="matrix(1 0 0 1 2589.52 696)">
   <path class="multicolor-0:systemRedColor SFSymbolsPreviewFF3B30" d="M6.30875-15.963Q6.30875-12.2765 8.69484-10.0151Q11.0809-7.75375 15.0642-7.75375L29.1847-7.75375Q29.3312-4.15497 31.5456-0.753021Q33.7601 2.64893 37.746 4.81873Q41.732 6.98853 47.1741 6.98853Q52.6527 6.98853 56.62 4.81873Q60.5873 2.64893 62.796-0.747299Q65.0047-4.14352 65.1627-7.75375L79.2831-7.75375Q83.255-7.75375 85.6468-10.0151Q88.0386-12.2765 88.0386-15.963Q88.0386-19.6526 85.9386-22.5002Q83.8387-25.3479 80.8517-27.6634Q79.2183-28.936 78.3482-30.949Q77.478-32.962 76.9684-35.9352Q76.4587-38.9084 75.8881-43.042Q74.9062-52.4887 70.9316-59.2724Q66.9571-66.0561 59.8793-68.5982Q58.3572-72.6707 54.9999-75.0835Q51.6426-77.4963 47.1741-77.4963Q42.7422-77.4963 39.3848-75.0835Q36.0275-72.6707 34.4681-68.5982Q27.4277-66.0561 23.4287-59.2724Q19.4298-52.4887 18.4479-43.042Q17.8886-38.9084 17.379-35.9352Q16.8694-32.962 15.9992-30.949Q15.1291-28.936 13.4956-27.6634Q10.5087-25.3479 8.40874-22.5002Q6.30875-19.6526 6.30875-15.963ZM21.7918-19.3069L21.7918-19.7205Q23.3597-20.43 24.77-21.4241Q26.1803-22.4182 27.2606-23.8434Q28.3463-25.2365 29.0874-27.9327Q29.8286-30.629 30.3097-33.9699Q30.7907-37.3108 31.0638-40.5396Q31.4735-46.2761 32.8613-49.8661Q34.2491-53.4561 36.3247-55.3753Q38.4003-57.2945 40.7654-57.9124Q41.4001-58.0589 41.7789-58.4251Q42.1577-58.7914 42.3073-59.7733Q42.617-62.4275 43.8812-63.8542Q45.1454-65.2809 47.1741-65.2809Q49.202-65.2809 50.4848-63.8542Q51.7677-62.4275 52.0287-59.7733Q52.1782-58.7914 52.557-58.4251Q52.9358-58.0589 53.5706-57.9124Q55.9845-57.2945 58.0357-55.3753Q60.0868-53.4561 61.4746-49.8661Q62.8624-46.2761 63.2843-40.5396Q63.5941-37.3108 64.0751-33.9699Q64.5561-30.629 65.3103-27.9327Q66.0645-25.2365 67.0868-23.8434Q68.1671-22.4182 69.4096-21.4241Q70.652-20.43 72.1825-19.7205L72.1825-19.3069ZM41.0454-7.75375L53.302-7.75375Q53.0952-5.18799 51.3958-3.56903Q49.6964-1.95007 47.1741-1.95007Q44.651-1.95007 42.9516-3.56903Q41.2521-5.18799 41.0454-7.75375Z"/>
  </g>
  <g id="Bold-S" transform="matrix(1 0 0 1 2293.84 696)">
   <path class="multicolor-0:systemRedColor SFSymbolsPreviewFF3B30" d="M6.81152-15.5762Q6.81152-12.3535 8.97217-10.376Q11.1328-8.39844 14.8193-8.39844L29.2236-8.39844Q29.3701-4.76074 31.4941-1.40381Q33.6182 1.95312 37.3657 4.06494Q41.1133 6.17676 46.1426 6.17676Q51.1963 6.17676 54.9316 4.06494Q58.667 1.95312 60.7788-1.3916Q62.8906-4.73633 63.0615-8.39844L77.4658-8.39844Q81.1279-8.39844 83.3008-10.376Q85.4736-12.3535 85.4736-15.5762Q85.4736-18.9697 83.2642-21.7529Q81.0547-24.5361 78.2227-26.9287Q76.7822-28.1494 75.9766-30.0659Q75.1709-31.9824 74.7192-34.5947Q74.2676-37.207 73.877-40.5029Q73.2178-50.9033 69.4946-57.9834Q65.7715-65.0635 58.4229-67.7734Q57.0557-71.7041 53.8208-74.1943Q50.5859-76.6846 46.1426-76.6846Q41.7236-76.6846 38.4888-74.1943Q35.2539-71.7041 33.8623-67.7734Q26.5381-65.0635 22.7905-57.9834Q19.043-50.9033 18.3838-40.5029Q18.0176-37.207 17.5659-34.5947Q17.1143-31.9824 16.3086-30.0659Q15.5029-28.1494 14.0625-26.9287Q11.2305-24.5361 9.021-21.7529Q6.81152-18.9697 6.81152-15.5762ZM19.8975-18.2373L19.8975-18.6768Q21.1426-19.3604 22.5464-20.4834Q23.9502-21.6064 25.1465-23.0957Q26.2451-24.4629 27.0508-26.8433Q27.8564-29.2236 28.3569-32.2876Q28.8574-35.3516 29.0527-38.6963Q29.3213-45.6055 30.7861-49.7437Q32.251-53.8818 34.5459-55.9814Q36.8408-58.0811 39.502-58.7891Q40.1367-58.9355 40.5029-59.3018Q40.8691-59.668 40.9668-60.5469Q41.1865-63.3301 42.5537-64.9048Q43.9209-66.4795 46.1426-66.4795Q48.3643-66.4795 49.7437-64.9048Q51.123-63.3301 51.2939-60.5469Q51.3916-59.668 51.7578-59.3018Q52.124-58.9355 52.7588-58.7891Q55.4688-58.0811 57.7393-55.9814Q60.0098-53.8818 61.4746-49.7437Q62.9395-45.6055 63.2324-38.6963Q63.4521-35.3516 63.9526-32.2876Q64.4531-29.2236 65.2588-26.8433Q66.0645-24.4629 67.1387-23.0957Q68.335-21.6064 69.6289-20.4834Q70.9229-19.3604 72.1436-18.6768L72.1436-18.2373ZM39.3311-8.39844L52.9541-8.39844Q52.7344-5.41992 50.8545-3.60107Q48.9746-1.78223 46.1426-1.78223Q43.3105-1.78223 41.4307-3.60107Q39.5508-5.41992 39.3311-8.39844Z"/>
  </g>
  <g id="Semibold-S" transform="matrix(1 0 0 1 1997.84 696)">
   <path class="multicolor-0:systemRedColor SFSymbolsPreviewFF3B30" d="M7.1579-15.3099Q7.1579-12.4069 9.16328-10.6247Q11.1687-8.84247 14.6507-8.84247L29.2503-8.84247Q29.3968-5.17807 31.4587-1.85242Q33.5205 1.47324 37.1037 3.545Q40.6868 5.61676 45.4315 5.61676Q50.1923 5.61676 53.7674 3.545Q57.3425 1.47324 59.388-1.83601Q61.4334-5.14526 61.6127-8.84247L76.2131-8.84247Q79.6616-8.84247 81.6833-10.6247Q83.7051-12.4069 83.7051-15.3099Q83.7051-18.499 81.4201-21.2376Q79.1351-23.9761 76.4099-26.4221Q75.1022-27.607 74.3412-29.4571Q73.5802-31.3072 73.1686-33.6704Q72.757-36.0336 72.4907-38.752Q72.0535-49.81 68.5036-57.0946Q64.9536-64.3791 57.4188-67.205Q56.1584-71.0373 53.0079-73.5809Q49.8573-76.1246 45.4315-76.1246Q41.0217-76.1246 37.8712-73.5809Q34.7206-71.0373 33.445-67.205Q25.9247-64.3791 22.3507-57.0946Q18.7767-49.81 18.3395-38.752Q18.1061-36.0336 17.6945-33.6704Q17.2829-31.3072 16.5218-29.4571Q15.7608-27.607 14.4539-26.4221Q11.7279-23.9761 9.4429-21.2376Q7.1579-18.499 7.1579-15.3099ZM18.5913-17.4995L18.5913-17.9565Q19.6136-18.6226 21.0133-19.8345Q22.4129-21.0464 23.6893-22.58Q24.7963-23.9296 25.6466-26.0921Q26.4969-28.2547 27.0107-31.1275Q27.5246-34.0004 27.6665-37.4252Q27.8374-45.1431 29.3552-49.659Q30.8731-54.1748 33.3195-56.3992Q35.7658-58.6235 38.6307-59.3933Q39.2654-59.5398 39.6229-59.906Q39.9803-60.2722 40.0429-61.0802Q40.2-63.9519 41.6382-65.6288Q43.0763-67.3058 45.4315-67.3058Q47.7867-67.3058 49.2329-65.6288Q50.679-63.9519 50.7874-61.0802Q50.8492-60.2722 51.2066-59.906Q51.564-59.5398 52.1988-59.3933Q55.1132-58.6235 57.5348-56.3992Q59.9564-54.1748 61.4746-49.659Q62.9929-45.1431 63.1966-37.4252Q63.3545-34.0004 63.8683-31.1275Q64.3822-28.2547 65.2233-26.0921Q66.0645-23.9296 67.1745-22.58Q68.4502-21.0464 69.78-19.8345Q71.1098-18.6226 72.1169-17.9565L72.1169-17.4995ZM38.1493-8.84247L52.7138-8.84247Q52.4857-5.58014 50.4814-3.62358Q48.4772-1.66702 45.4315-1.66702Q42.3866-1.66702 40.382-3.62358Q38.3774-5.58014 38.1493-8.84247Z"/>
  </g>
  <g id="Medium-S" transform="matrix(1 0 0 1 1701.66 696)">
   <path class="multicolor-0:systemRedColor SFSymbolsPreviewFF3B30" d="M7.42111-15.1077Q7.42111-12.4474 9.30824-10.8135Q11.1954-9.17969 14.5226-9.17969L29.2702-9.17969Q29.4167-5.49545 31.4316-2.19307Q33.4465 1.10931 36.9049 3.15094Q40.3633 5.19257 44.8929 5.19257Q49.4308 5.19257 52.8847 3.15094Q56.3385 1.10931 58.3332-2.17285Q60.3279-5.45502 60.5148-9.17969L75.2625-9.17969Q78.55-9.17969 80.4569-10.8135Q82.3639-12.4474 82.3639-15.1077Q82.3639-18.1419 80.0217-20.8469Q77.6794-23.5519 75.0351-26.0384Q73.8289-27.1965 73.1014-28.9955Q72.374-30.7945 71.9925-32.9697Q71.611-35.1448 71.4394-37.4245Q71.1708-48.9815 67.7525-56.4209Q64.3341-63.8603 56.6574-66.7732Q55.4771-70.5322 52.3911-73.1163Q49.305-75.7004 44.8929-75.7004Q40.4892-75.7004 37.4027-73.1163Q34.3163-70.5322 33.1276-66.7732Q25.4601-63.8603 22.0173-56.4209Q18.5745-48.9815 18.306-37.4245Q18.174-35.1448 17.7925-32.9697Q17.411-30.7945 16.6836-28.9955Q15.9561-27.1965 14.7499-26.0384Q12.1056-23.5519 9.76334-20.8469Q7.42111-18.1419 7.42111-15.1077ZM17.6003-16.9403L17.6003-17.411Q18.4547-18.0634 19.8509-19.3428Q21.2471-20.6223 22.5838-22.1893Q23.6984-23.5252 24.5819-25.523Q25.4654-27.5208 25.9895-30.2486Q26.5137-32.9765 26.6151-36.4616Q26.712-44.7929 28.2707-49.5953Q29.8294-54.3976 32.3898-56.7158Q34.9503-59.034 37.9707-59.8518Q38.6055-59.9983 38.9561-60.3645Q39.3066-60.7307 39.3417-61.4845Q39.4524-64.4241 40.9443-66.1785Q42.4362-67.9329 44.8929-67.9329Q47.3488-67.9329 48.8453-66.1785Q50.3418-64.4241 50.4036-61.4845Q50.4387-60.7307 50.7893-60.3645Q51.1398-59.9983 51.7746-59.8518Q54.8439-59.034 57.3799-56.7158Q59.9159-54.3976 61.4746-49.5953Q63.0333-44.7929 63.1699-36.4616Q63.2805-32.9765 63.8042-30.2486Q64.328-27.5208 65.1962-25.523Q66.0645-23.5252 67.2012-22.1893Q68.5379-20.6223 69.8944-19.3428Q71.2509-18.0634 72.097-17.411L72.097-16.9403ZM37.2528-9.17969L52.5322-9.17969Q52.2972-5.70145 50.1984-3.64037Q48.0995-1.57928 44.8929-1.57928Q41.6855-1.57928 39.587-3.64037Q37.4886-5.70145 37.2528-9.17969Z"/>
  </g>
  <g id="Regular-S" transform="matrix(1 0 0 1 1405.65 696)">
   <path class="multicolor-0:systemRedColor SFSymbolsPreviewFF3B30" d="M7.76367-14.8438Q7.76367-12.5 9.49707-11.0596Q11.2305-9.61914 14.3555-9.61914L29.2969-9.61914Q29.4434-5.9082 31.3965-2.63672Q33.3496 0.634766 36.6455 2.63672Q39.9414 4.63867 44.1895 4.63867Q48.4375 4.63867 51.7334 2.63672Q55.0293 0.634766 56.958-2.6123Q58.8867-5.85938 59.082-9.61914L74.0234-9.61914Q77.0996-9.61914 78.8574-11.0596Q80.6152-12.5 80.6152-14.8438Q80.6152-17.6758 78.1982-20.3369Q75.7812-22.998 73.2422-25.5371Q72.168-26.6602 71.4844-28.3936Q70.8008-30.127 70.459-32.0557Q70.1172-33.9844 70.0684-35.6934Q70.0195-47.9004 66.7725-55.542Q63.5254-63.1836 55.6641-66.2109Q54.5898-69.873 51.5869-72.5098Q48.584-75.1465 44.1895-75.1465Q39.7949-75.1465 36.792-72.5098Q33.7891-69.873 32.7148-66.2109Q24.8535-63.1836 21.582-55.542Q18.3105-47.9004 18.2617-35.6934Q18.2617-33.9844 17.9199-32.0557Q17.5781-30.127 16.8945-28.3936Q16.2109-26.6602 15.1367-25.5371Q12.5977-22.998 10.1807-20.3369Q7.76367-17.6758 7.76367-14.8438ZM16.3086-16.2109L16.3086-16.6992Q16.9434-17.334 18.335-18.7012Q19.7266-20.0684 21.1426-21.6797Q22.2656-22.998 23.1934-24.7803Q24.1211-26.5625 24.6582-29.1016Q25.1953-31.6406 25.2441-35.2051Q25.2441-44.3359 26.8555-49.5117Q28.4668-54.6875 31.1768-57.1289Q33.8867-59.5703 37.1094-60.4492Q37.7441-60.5957 38.0859-60.9619Q38.4277-61.3281 38.4277-62.0117Q38.4766-65.0391 40.0391-66.8945Q41.6016-68.75 44.1895-68.75Q46.7773-68.75 48.3398-66.8945Q49.9023-65.0391 49.9023-62.0117Q49.9023-61.3281 50.2441-60.9619Q50.5859-60.5957 51.2207-60.4492Q54.4922-59.5703 57.1777-57.1289Q59.8633-54.6875 61.4746-49.5117Q63.0859-44.3359 63.1348-35.2051Q63.1836-31.6406 63.7207-29.1016Q64.2578-26.5625 65.1611-24.7803Q66.0645-22.998 67.2363-21.6797Q68.6523-20.0684 70.0439-18.7012Q71.4355-17.334 72.0703-16.6992L72.0703-16.2109ZM36.084-9.61914L52.2949-9.61914Q52.0508-5.85938 49.8291-3.66211Q47.6074-1.46484 44.1895-1.46484Q40.7715-1.46484 38.5498-3.66211Q36.3281-5.85938 36.084-9.61914Z"/>
  </g>
  <g id="Light-S" transform="matrix(1 0 0 1 1108.91 696)">
   <path class="multicolor-0:systemRedColor SFSymbolsPreviewFF3B30" d="M8.3992-13.6627Q8.3992-11.7889 9.75418-10.6358Q11.1092-9.48257 13.5078-9.48257L30.6442-9.48257Q30.7602-5.87769 32.5317-2.8183Q34.3033 0.241089 37.3192 2.07672Q40.3351 3.91235 44.22 3.91235Q48.1194 3.91235 51.1276 2.07672Q54.1359 0.241089 55.8907-2.80151Q57.6454-5.84412 57.7957-9.48257L74.9313-9.48257Q77.3117-9.48257 78.6758-10.6358Q80.04-11.7889 80.04-13.6627Q80.04-16.5253 77.729-19.1334Q75.4181-21.7415 72.9851-24.2805Q71.5775-25.8125 70.8408-28.1967Q70.1042-30.5809 69.7624-33.3347Q69.4206-36.0886 69.175-38.7054Q68.824-49.2477 65.5994-56.102Q62.3749-62.9562 54.9072-65.5296Q54.0146-69.313 51.1784-71.8666Q48.3421-74.4202 44.22-74.4202Q40.1131-74.4202 37.2765-71.8666Q34.4398-69.313 33.532-65.5296Q26.0643-62.9562 22.8233-56.102Q19.5824-49.2477 19.2307-38.7054Q19.0338-36.0886 18.6844-33.3347Q18.335-30.5809 17.606-28.1967Q16.877-25.8125 15.4694-24.2805Q13.0219-21.7415 10.7105-19.1334Q8.3992-16.5253 8.3992-13.6627ZM14.9315-14.6065L14.9315-15.0642Q15.3694-16.0477 16.9121-17.7551Q18.4547-19.4626 20.0226-21.18Q21.5691-22.892 22.4895-25.3933Q23.41-27.8946 23.8865-31.1298Q24.3629-34.3651 24.6239-38.2324Q24.8657-45.9557 26.4164-50.5939Q27.9671-55.2322 30.5485-57.6134Q33.1299-59.9945 36.4128-60.8879Q37.1841-61.0802 37.6167-61.4689Q38.0493-61.8576 38.0951-62.632Q38.2645-65.5991 39.88-67.5152Q41.4955-69.4313 44.22-69.4313Q46.9437-69.4313 48.5592-67.5152Q50.1747-65.5991 50.3265-62.632Q50.3716-61.8576 50.7965-61.4689Q51.2215-61.0802 51.9928-60.8879Q55.3093-59.9945 57.8739-57.6134Q60.4385-55.2322 61.9892-50.5939Q63.5399-45.9557 63.8161-38.2324Q64.077-34.3651 64.5535-31.1298Q65.0299-27.8946 65.9332-25.3933Q66.8365-22.892 68.4174-21.18Q69.9844-19.4626 71.5275-17.7551Q73.0705-16.0477 73.5085-15.0642L73.5085-14.6065ZM35.9024-9.48257L52.5368-9.48257Q52.3079-5.52673 50.0107-3.18565Q47.7135-0.844574 44.22-0.844574Q40.7257-0.844574 38.4285-3.18565Q36.1313-5.52673 35.9024-9.48257Z"/>
  </g>
  <g id="Thin-S" transform="matrix(1 0 0 1 812.162 696)">
   <path class="multicolor-0:systemRedColor SFSymbolsPreviewFF3B30" d="M9.23996-12.1017Q9.23996-10.8475 10.0945-10.075Q10.9489-9.30252 12.3871-9.30252L32.4257-9.30252Q32.502-5.83801 34.0332-3.05862Q35.5644-0.279236 38.2099 1.33591Q40.8554 2.95105 44.2596 2.95105Q47.699 2.95105 50.3269 1.33591Q52.9549-0.279236 54.4796-3.05176Q56.0043-5.82428 56.0936-9.30252L76.133-9.30252Q77.5917-9.30252 78.4355-10.075Q79.2793-10.8475 79.2793-12.1017Q79.2793-15.004 77.1084-17.5423Q74.9374-20.0806 72.6448-22.6196Q70.797-24.6918 69.9902-27.9366Q69.1833-31.1813 68.8416-35.0262Q68.4998-38.871 67.9939-42.6895Q67.2424-51.0292 64.048-56.8428Q60.8536-62.6564 53.9062-64.6286Q53.2539-68.5722 50.6378-71.0155Q48.0217-73.4589 44.2596-73.4589Q40.5334-73.4589 37.9169-71.0155Q35.3004-68.5722 34.613-64.6286Q27.6657-62.6564 24.4648-56.8428Q21.2639-51.0292 20.5116-42.6895Q20.0546-38.871 19.6953-35.0262Q19.3359-31.1813 18.5467-27.9366Q17.7574-24.6918 15.9103-22.6196Q13.5818-20.0806 11.4109-17.5423Q9.23996-15.004 9.23996-12.1017ZM13.1096-12.4847L13.1096-12.9028Q13.2874-14.3456 15.0303-16.5039Q16.7732-18.6623 18.541-20.5193Q20.6482-22.7516 21.5584-26.2039Q22.4686-29.6562 22.8653-33.8123Q23.262-37.9684 23.8029-42.2363Q24.3652-48.0972 25.8358-52.0252Q27.3064-55.9532 29.7176-58.2539Q32.1289-60.5545 35.4919-61.4685Q36.4433-61.721 36.9961-62.1399Q37.5488-62.5587 37.6541-63.4529Q37.9845-66.3399 39.6698-68.3361Q41.3551-70.3323 44.2596-70.3323Q47.1642-70.3323 48.8495-68.3361Q50.5348-66.3399 50.8865-63.4529Q50.9918-62.5587 51.527-62.1399Q52.0622-61.721 53.0136-61.4685Q56.3904-60.5545 58.7948-58.2539Q61.1992-55.9532 62.6698-52.0252Q64.1403-48.0972 64.7171-42.2363Q65.258-37.9684 65.6544-33.8123Q66.0507-29.6562 66.954-26.2039Q67.8574-22.7516 69.9783-20.5193Q71.7461-18.6623 73.489-16.5039Q75.2319-14.3456 75.4097-12.9028L75.4097-12.4847ZM35.6621-9.30252L52.8572-9.30252Q52.6482-5.08575 50.251-2.5547Q47.8539-0.0236511 44.2596-0.0236511Q40.6662-0.0236511 38.2687-2.5547Q35.8711-5.08575 35.6621-9.30252Z"/>
  </g>
  <g id="Ultralight-S" transform="matrix(1 0 0 1 515.431 696)">
   <path class="multicolor-0:systemRedColor SFSymbolsPreviewFF3B30" d="M9.67102-11.3014Q9.67102-10.3661 10.2692-9.78813Q10.8673-9.21021 11.8126-9.21021L33.3382-9.21021Q33.3939-5.81741 34.8022-3.18184Q36.2106-0.546265 38.6665 0.956345Q41.1224 2.45895 44.2802 2.45895Q47.4838 2.45895 49.9168 0.956345Q52.3499-0.546265 53.7563-3.17993Q55.1628-5.8136 55.2223-9.21021L76.7479-9.21021Q77.7351-9.21021 78.3123-9.78813Q78.8895-10.3661 78.8895-11.3014Q78.8895-14.225 76.7906-16.7271Q74.6918-19.2291 72.4701-21.7682Q70.3972-24.1173 69.5545-27.8034Q68.7119-31.4896 68.3701-35.8929Q68.0283-40.2962 67.3889-44.7296Q66.4322-51.9417 63.2534-57.222Q60.0746-62.5023 53.3936-64.1678Q52.8641-68.1931 50.3609-70.5799Q47.8577-72.9668 44.2802-72.9668Q40.7486-72.9668 38.245-70.5799Q35.7414-68.1931 35.1669-64.1678Q28.4866-62.5023 25.3059-57.222Q22.1252-51.9417 21.1678-44.7296Q20.5772-40.2962 20.2129-35.8929Q19.8486-31.4896 19.0289-27.8034Q18.2091-24.1173 16.1354-21.7682Q13.8695-19.2291 11.7702-16.7271Q9.67102-14.225 9.67102-11.3014ZM12.1765-11.3976L12.1765-11.795Q12.2208-13.4743 14.0663-15.863Q15.9119-18.2518 17.7826-20.1813Q20.1767-22.6799 21.0819-26.6193Q21.9872-30.5588 22.3423-35.1868Q22.6974-39.8148 23.3826-44.2871Q24.1089-49.1951 25.5386-52.7588Q26.9684-56.3225 29.2923-58.5823Q31.6162-60.8421 35.0204-61.7661Q36.0641-62.0491 36.6783-62.4832Q37.2925-62.9173 37.429-63.8733Q37.841-66.7191 39.5622-68.7561Q41.2834-70.7932 44.2802-70.7932Q47.2771-70.7932 48.9983-68.7561Q50.7195-66.7191 51.1742-63.8733Q51.31-62.9173 51.9016-62.4832Q52.4933-62.0491 53.537-61.7661Q56.9443-60.8421 59.2667-58.5823Q61.5891-56.3225 63.0188-52.7588Q64.4485-49.1951 65.1779-44.2871Q65.863-39.8148 66.2186-35.1868Q66.5741-30.5588 67.4774-26.6193Q68.3807-22.6799 70.7787-20.1813Q72.6486-18.2518 74.4942-15.863Q76.3397-13.4743 76.384-11.795L76.384-11.3976ZM35.5392-9.21021L53.0212-9.21021Q52.8229-4.86069 50.3742-2.23198Q47.9256 0.396729 44.2802 0.396729Q40.6349 0.396729 38.1863-2.23198Q35.7376-4.86069 35.5392-9.21021Z"/>
  </g>
 </g>
</svg>
