<?xml version="1.0" encoding="UTF-8"?>
<!--Generator: Apple Native CoreSVG 149-->
<!DOCTYPE svg
PUBLIC "-//W3C//DTD SVG 1.1//EN"
       "http://www.w3.org/Graphics/SVG/1.1/DTD/svg11.dtd">
<svg version="1.1" xmlns="http://www.w3.org/2000/svg" xmlns:xlink="http://www.w3.org/1999/xlink" width="3300" height="2200">
 <!--glyph: "uni10039E.medium", point size: 100.0, font version: "17.0d8e1", template writer version: "58"-->
 <g id="Notes">
  <rect height="2200" id="artboard" style="fill:white;opacity:1" width="3300" x="0" y="0"/>
  <line style="fill:none;stroke:black;opacity:1;stroke-width:0.5;" x1="263" x2="3036" y1="292" y2="292"/>
  <text style="stroke:none;fill:black;font-family:SF Pro,SF Pro Display,SF Pro Text,sans-serif;font-size:13;font-weight:bold;" transform="matrix(1 0 0 1 263 322)">Weight/Scale Variations</text>
  <text style="stroke:none;fill:black;font-family:SF Pro,SF Pro Display,SF Pro Text,sans-serif;font-size:13;text-anchor:middle;" transform="matrix(1 0 0 1 559.711 322)">Ultralight</text>
  <text style="stroke:none;fill:black;font-family:SF Pro,SF Pro Display,SF Pro Text,sans-serif;font-size:13;text-anchor:middle;" transform="matrix(1 0 0 1 856.422 322)">Thin</text>
  <text style="stroke:none;fill:black;font-family:SF Pro,SF Pro Display,SF Pro Text,sans-serif;font-size:13;text-anchor:middle;" transform="matrix(1 0 0 1 1153.13 322)">Light</text>
  <text style="stroke:none;fill:black;font-family:SF Pro,SF Pro Display,SF Pro Text,sans-serif;font-size:13;text-anchor:middle;" transform="matrix(1 0 0 1 1449.84 322)">Regular</text>
  <text style="stroke:none;fill:black;font-family:SF Pro,SF Pro Display,SF Pro Text,sans-serif;font-size:13;text-anchor:middle;" transform="matrix(1 0 0 1 1746.56 322)">Medium</text>
  <text style="stroke:none;fill:black;font-family:SF Pro,SF Pro Display,SF Pro Text,sans-serif;font-size:13;text-anchor:middle;" transform="matrix(1 0 0 1 2043.27 322)">Semibold</text>
  <text style="stroke:none;fill:black;font-family:SF Pro,SF Pro Display,SF Pro Text,sans-serif;font-size:13;text-anchor:middle;" transform="matrix(1 0 0 1 2339.98 322)">Bold</text>
  <text style="stroke:none;fill:black;font-family:SF Pro,SF Pro Display,SF Pro Text,sans-serif;font-size:13;text-anchor:middle;" transform="matrix(1 0 0 1 2636.69 322)">Heavy</text>
  <text style="stroke:none;fill:black;font-family:SF Pro,SF Pro Display,SF Pro Text,sans-serif;font-size:13;text-anchor:middle;" transform="matrix(1 0 0 1 2933.4 322)">Black</text>
  <line style="fill:none;stroke:black;opacity:1;stroke-width:0.5;" x1="263" x2="3036" y1="1903" y2="1903"/>
  <g transform="matrix(1 0 0 1 263 1933)">
   <path d="M9.24805 0.830078Q10.8691 0.830078 12.2949 0.214844Q13.7207-0.400391 14.8096-1.49414Q15.8984-2.58789 16.5186-4.01367Q17.1387-5.43945 17.1387-7.05078Q17.1387-8.66211 16.5186-10.0879Q15.8984-11.5137 14.8047-12.6074Q13.7109-13.7012 12.2852-14.3164Q10.8594-14.9316 9.23828-14.9316Q7.62695-14.9316 6.20117-14.3164Q4.77539-13.7012 3.69141-12.6074Q2.60742-11.5137 1.9873-10.0879Q1.36719-8.66211 1.36719-7.05078Q1.36719-5.43945 1.9873-4.01367Q2.60742-2.58789 3.69629-1.49414Q4.78516-0.400391 6.21094 0.214844Q7.63672 0.830078 9.24805 0.830078ZM9.24805-0.654297Q7.91992-0.654297 6.7627-1.14746Q5.60547-1.64062 4.73145-2.51953Q3.85742-3.39844 3.36426-4.56055Q2.87109-5.72266 2.87109-7.05078Q2.87109-8.37891 3.35938-9.54102Q3.84766-10.7031 4.72168-11.582Q5.5957-12.4609 6.75293-12.9541Q7.91016-13.4473 9.23828-13.4473Q10.5762-13.4473 11.7334-12.9541Q12.8906-12.4609 13.7695-11.582Q14.6484-10.7031 15.1465-9.54102Q15.6445-8.37891 15.6445-7.05078Q15.6445-5.72266 15.1514-4.56055Q14.6582-3.39844 13.7842-2.51953Q12.9102-1.64062 11.748-1.14746Q10.5859-0.654297 9.24805-0.654297ZM5.83984-7.04102Q5.83984-6.71875 6.04492-6.51855Q6.25-6.31836 6.5918-6.31836L8.50586-6.31836L8.50586-4.39453Q8.50586-4.0625 8.70605-3.85742Q8.90625-3.65234 9.22852-3.65234Q9.56055-3.65234 9.76562-3.85742Q9.9707-4.0625 9.9707-4.39453L9.9707-6.31836L11.8945-6.31836Q12.2266-6.31836 12.4316-6.51855Q12.6367-6.71875 12.6367-7.04102Q12.6367-7.37305 12.4316-7.57812Q12.2266-7.7832 11.8945-7.7832L9.9707-7.7832L9.9707-9.69727Q9.9707-10.0391 9.76562-10.2441Q9.56055-10.4492 9.22852-10.4492Q8.90625-10.4492 8.70605-10.2441Q8.50586-10.0391 8.50586-9.69727L8.50586-7.7832L6.5918-7.7832Q6.25-7.7832 6.04492-7.57812Q5.83984-7.37305 5.83984-7.04102Z"/>
  </g>
  <g transform="matrix(1 0 0 1 281.867 1933)">
   <path d="M11.709 2.91016Q13.75 2.91016 15.5518 2.12891Q17.3535 1.34766 18.7305-0.0292969Q20.1074-1.40625 20.8887-3.20801Q21.6699-5.00977 21.6699-7.05078Q21.6699-9.0918 20.8887-10.8936Q20.1074-12.6953 18.7305-14.0723Q17.3535-15.4492 15.5469-16.2305Q13.7402-17.0117 11.6992-17.0117Q9.6582-17.0117 7.85645-16.2305Q6.05469-15.4492 4.68262-14.0723Q3.31055-12.6953 2.5293-10.8936Q1.74805-9.0918 1.74805-7.05078Q1.74805-5.00977 2.5293-3.20801Q3.31055-1.40625 4.6875-0.0292969Q6.06445 1.34766 7.86621 2.12891Q9.66797 2.91016 11.709 2.91016ZM11.709 1.25Q9.98047 1.25 8.47656 0.605469Q6.97266-0.0390625 5.83496-1.17676Q4.69727-2.31445 4.05762-3.81836Q3.41797-5.32227 3.41797-7.05078Q3.41797-8.7793 4.05762-10.2832Q4.69727-11.7871 5.83008-12.9297Q6.96289-14.0723 8.4668-14.7119Q9.9707-15.3516 11.6992-15.3516Q13.4277-15.3516 14.9316-14.7119Q16.4355-14.0723 17.5781-12.9297Q18.7207-11.7871 19.3652-10.2832Q20.0098-8.7793 20.0098-7.05078Q20.0098-5.32227 19.3701-3.81836Q18.7305-2.31445 17.5928-1.17676Q16.4551-0.0390625 14.9463 0.605469Q13.4375 1.25 11.709 1.25ZM7.39258-7.04102Q7.39258-6.68945 7.62695-6.46484Q7.86133-6.24023 8.23242-6.24023L10.8789-6.24023L10.8789-3.57422Q10.8789-3.21289 11.1035-2.9834Q11.3281-2.75391 11.6797-2.75391Q12.0508-2.75391 12.2852-2.9834Q12.5195-3.21289 12.5195-3.57422L12.5195-6.24023L15.1758-6.24023Q15.5371-6.24023 15.7715-6.46484Q16.0059-6.68945 16.0059-7.04102Q16.0059-7.41211 15.7715-7.6416Q15.5371-7.87109 15.1758-7.87109L12.5195-7.87109L12.5195-10.5176Q12.5195-10.8984 12.2852-11.1279Q12.0508-11.3574 11.6797-11.3574Q11.3281-11.3574 11.1035-11.1279Q10.8789-10.8984 10.8789-10.5176L10.8789-7.87109L8.23242-7.87109Q7.85156-7.87109 7.62207-7.6416Q7.39258-7.41211 7.39258-7.04102Z"/>
  </g>
  <g transform="matrix(1 0 0 1 305.646 1933)">
   <path d="M14.9707 5.66406Q17.0605 5.66406 18.96 5.01465Q20.8594 4.36523 22.4512 3.19336Q24.043 2.02148 25.2197 0.429688Q26.3965-1.16211 27.0459-3.06641Q27.6953-4.9707 27.6953-7.05078Q27.6953-9.14062 27.0459-11.04Q26.3965-12.9395 25.2197-14.5312Q24.043-16.123 22.4512-17.2998Q20.8594-18.4766 18.9551-19.126Q17.0508-19.7754 14.9609-19.7754Q12.8711-19.7754 10.9717-19.126Q9.07227-18.4766 7.48535-17.2998Q5.89844-16.123 4.72168-14.5312Q3.54492-12.9395 2.90039-11.04Q2.25586-9.14062 2.25586-7.05078Q2.25586-4.9707 2.90527-3.06641Q3.55469-1.16211 4.72656 0.429688Q5.89844 2.02148 7.49023 3.19336Q9.08203 4.36523 10.9814 5.01465Q12.8809 5.66406 14.9707 5.66406ZM14.9707 3.84766Q13.1641 3.84766 11.5283 3.2959Q9.89258 2.74414 8.53516 1.74805Q7.17773 0.751953 6.17676-0.610352Q5.17578-1.97266 4.62891-3.6084Q4.08203-5.24414 4.08203-7.05078Q4.08203-8.86719 4.62891-10.5029Q5.17578-12.1387 6.17188-13.501Q7.16797-14.8633 8.52539-15.8594Q9.88281-16.8555 11.5186-17.4023Q13.1543-17.9492 14.9609-17.9492Q16.7773-17.9492 18.4131-17.4023Q20.0488-16.8555 21.4111-15.8594Q22.7734-14.8633 23.7695-13.501Q24.7656-12.1387 25.3174-10.5029Q25.8691-8.86719 25.8691-7.05078Q25.8789-5.24414 25.332-3.6084Q24.7852-1.97266 23.7842-0.610352Q22.7832 0.751953 21.4209 1.74805Q20.0586 2.74414 18.4229 3.2959Q16.7871 3.84766 14.9707 3.84766ZM9.45312-7.04102Q9.45312-6.66016 9.71191-6.41113Q9.9707-6.16211 10.3711-6.16211L14.0625-6.16211L14.0625-2.46094Q14.0625-2.06055 14.3115-1.80664Q14.5605-1.55273 14.9414-1.55273Q15.3516-1.55273 15.6055-1.80664Q15.8594-2.06055 15.8594-2.46094L15.8594-6.16211L19.5605-6.16211Q19.9609-6.16211 20.2148-6.41113Q20.4688-6.66016 20.4688-7.04102Q20.4688-7.45117 20.2148-7.70508Q19.9609-7.95898 19.5605-7.95898L15.8594-7.95898L15.8594-11.6504Q15.8594-12.0605 15.6055-12.3145Q15.3516-12.5684 14.9414-12.5684Q14.5605-12.5684 14.3115-12.3096Q14.0625-12.0508 14.0625-11.6504L14.0625-7.95898L10.3711-7.95898Q9.96094-7.95898 9.70703-7.70508Q9.45312-7.45117 9.45312-7.04102Z"/>
  </g>
  <text style="stroke:none;fill:black;font-family:SF Pro,SF Pro Display,SF Pro Text,sans-serif;font-size:13;font-weight:bold;" transform="matrix(1 0 0 1 263 1953)">Design Variations</text>
  <text style="stroke:none;fill:black;font-family:SF Pro,SF Pro Display,SF Pro Text,sans-serif;font-size:13;" transform="matrix(1 0 0 1 263 1971)">Symbols are supported in up to nine weights and three scales.</text>
  <text style="stroke:none;fill:black;font-family:SF Pro,SF Pro Display,SF Pro Text,sans-serif;font-size:13;" transform="matrix(1 0 0 1 263 1989)">For optimal layout with text and other symbols, vertically align</text>
  <text style="stroke:none;fill:black;font-family:SF Pro,SF Pro Display,SF Pro Text,sans-serif;font-size:13;" transform="matrix(1 0 0 1 263 2007)">symbols with the adjacent text.</text>
  <line style="fill:none;stroke:#00AEEF;stroke-width:0.5;opacity:1.0;" x1="776" x2="776" y1="1919" y2="1933"/>
  <g transform="matrix(1 0 0 1 776 1933)">
   <path d="M3.31055 0.15625Q3.70117 0.15625 3.91602-0.00976562Q4.13086-0.175781 4.26758-0.585938L5.52734-4.0332L11.2891-4.0332L12.5488-0.585938Q12.6855-0.175781 12.9004-0.00976562Q13.1152 0.15625 13.4961 0.15625Q13.8867 0.15625 14.1162-0.0585938Q14.3457-0.273438 14.3457-0.644531Q14.3457-0.869141 14.2383-1.17188L9.6582-13.3691Q9.48242-13.8184 9.17969-14.043Q8.87695-14.2676 8.4082-14.2676Q7.5-14.2676 7.17773-13.3789L2.59766-1.16211Q2.49023-0.859375 2.49023-0.634766Q2.49023-0.263672 2.70996-0.0537109Q2.92969 0.15625 3.31055 0.15625ZM6.00586-5.51758L8.37891-12.0898L8.42773-12.0898L10.8008-5.51758Z"/>
  </g>
  <line style="fill:none;stroke:#00AEEF;stroke-width:0.5;opacity:1.0;" x1="793.197" x2="793.197" y1="1919" y2="1933"/>
  <text style="stroke:none;fill:black;font-family:SF Pro,SF Pro Display,SF Pro Text,sans-serif;font-size:13;font-weight:bold;" transform="matrix(1 0 0 1 776 1953)">Margins</text>
  <text style="stroke:none;fill:black;font-family:SF Pro,SF Pro Display,SF Pro Text,sans-serif;font-size:13;" transform="matrix(1 0 0 1 776 1971)">Leading and trailing margins on the left and right side of each symbol</text>
  <text style="stroke:none;fill:black;font-family:SF Pro,SF Pro Display,SF Pro Text,sans-serif;font-size:13;" transform="matrix(1 0 0 1 776 1989)">can be adjusted by modifying the x-location of the margin guidelines.</text>
  <text style="stroke:none;fill:black;font-family:SF Pro,SF Pro Display,SF Pro Text,sans-serif;font-size:13;" transform="matrix(1 0 0 1 776 2007)">Modifications are automatically applied proportionally to all</text>
  <text style="stroke:none;fill:black;font-family:SF Pro,SF Pro Display,SF Pro Text,sans-serif;font-size:13;" transform="matrix(1 0 0 1 776 2025)">scales and weights.</text>
  <g transform="matrix(1 0 0 1 1289 1933)">
   <path d="M2.8418 1.86523L4.54102 3.57422Q5.18555 4.22852 5.90332 4.17969Q6.62109 4.13086 7.31445 3.35938L18.0078-8.42773L17.041-9.4043L6.42578 2.27539Q6.16211 2.57812 5.89355 2.61719Q5.625 2.65625 5.27344 2.30469L4.10156 1.14258Q3.75 0.791016 3.79395 0.522461Q3.83789 0.253906 4.14062-0.0195312L15.6152-10.8203L14.6387-11.7871L3.04688-0.898438Q2.30469-0.214844 2.25098 0.498047Q2.19727 1.21094 2.8418 1.86523ZM9.25781-16.3281Q8.94531-16.0254 8.90625-15.6348Q8.86719-15.2441 9.04297-14.9512Q9.21875-14.6777 9.55566-14.541Q9.89258-14.4043 10.3809-14.5215Q11.4746-14.7754 12.5977-14.7314Q13.7207-14.6875 14.7949-13.9844L14.209-12.5293Q13.9551-11.9043 14.0674-11.4404Q14.1797-10.9766 14.5801-10.5664L16.875-8.25195Q17.2363-7.88086 17.5781-7.82227Q17.9199-7.76367 18.3398-7.8418L19.4043-8.03711L20.0684-7.36328L20.0293-6.80664Q20-6.43555 20.1221-6.12305Q20.2441-5.81055 20.6055-5.44922L21.3672-4.70703Q21.7285-4.3457 22.1533-4.33105Q22.5781-4.31641 22.9297-4.66797L25.8398-7.58789Q26.1914-7.93945 26.1816-8.35449Q26.1719-8.76953 25.8105-9.13086L25.0391-9.89258Q24.6875-10.2539 24.3799-10.3857Q24.0723-10.5176 23.7109-10.4883L23.1348-10.4395L22.4902-11.0742L22.7344-12.1973Q22.832-12.6172 22.6953-12.9834Q22.5586-13.3496 22.1191-13.7891L19.9219-15.9766Q18.6719-17.2168 17.2607-17.8369Q15.8496-18.457 14.4189-18.4814Q12.9883-18.5059 11.665-17.959Q10.3418-17.4121 9.25781-16.3281ZM10.752-15.957Q11.6602-16.6211 12.7002-16.9043Q13.7402-17.1875 14.8047-17.085Q15.8691-16.9824 16.8701-16.5137Q17.8711-16.0449 18.7012-15.2051L21.1328-12.793Q21.3086-12.6172 21.3525-12.4512Q21.3965-12.2852 21.3379-12.0312L21.0156-10.5469L22.5195-9.0625L23.5059-9.12109Q23.6914-9.13086 23.7891-9.09668Q23.8867-9.0625 24.0332-8.91602L24.6094-8.33984L22.168-5.89844L21.5918-6.47461Q21.4453-6.62109 21.4062-6.71875Q21.3672-6.81641 21.377-7.01172L21.4453-7.98828L19.9512-9.47266L18.4277-9.21875Q18.1836-9.16992 18.042-9.2041Q17.9004-9.23828 17.7148-9.41406L15.7129-11.416Q15.5176-11.5918 15.4932-11.7529Q15.4688-11.9141 15.5859-12.1875L16.4648-14.2773Q15.293-15.3711 13.8281-15.791Q12.3633-16.2109 10.8398-15.7617Q10.7227-15.7324 10.6885-15.8057Q10.6543-15.8789 10.752-15.957Z"/>
  </g>
  <text style="stroke:none;fill:black;font-family:SF Pro,SF Pro Display,SF Pro Text,sans-serif;font-size:13;font-weight:bold;" transform="matrix(1 0 0 1 1289 1953)">Exporting</text>
  <text style="stroke:none;fill:black;font-family:SF Pro,SF Pro Display,SF Pro Text,sans-serif;font-size:13;" transform="matrix(1 0 0 1 1289 1971)">Symbols should be outlined when exporting to ensure the</text>
  <text style="stroke:none;fill:black;font-family:SF Pro,SF Pro Display,SF Pro Text,sans-serif;font-size:13;" transform="matrix(1 0 0 1 1289 1989)">design is preserved when submitting to Xcode.</text>
  <text id="template-version" style="stroke:none;fill:black;font-family:SF Pro,SF Pro Display,SF Pro Text,sans-serif;font-size:13;text-anchor:end;" transform="matrix(1 0 0 1 3036 1933)">Template v.3.0</text>
  <text style="stroke:none;fill:black;font-family:SF Pro,SF Pro Display,SF Pro Text,sans-serif;font-size:13;text-anchor:end;" transform="matrix(1 0 0 1 3036 1951)">Requires Xcode 13 or greater</text>
  <text id="descriptive-name" style="stroke:none;fill:black;font-family:SF Pro,SF Pro Display,SF Pro Text,sans-serif;font-size:13;text-anchor:end;" transform="matrix(1 0 0 1 3036 1969)">Generated from house</text>
  <text style="stroke:none;fill:black;font-family:SF Pro,SF Pro Display,SF Pro Text,sans-serif;font-size:13;text-anchor:end;" transform="matrix(1 0 0 1 3036 1987)">Typeset at 100 points</text>
  <text style="stroke:none;fill:black;font-family:SF Pro,SF Pro Display,SF Pro Text,sans-serif;font-size:13;" transform="matrix(1 0 0 1 263 726)">Small</text>
  <text style="stroke:none;fill:black;font-family:SF Pro,SF Pro Display,SF Pro Text,sans-serif;font-size:13;" transform="matrix(1 0 0 1 263 1156)">Medium</text>
  <text style="stroke:none;fill:black;font-family:SF Pro,SF Pro Display,SF Pro Text,sans-serif;font-size:13;" transform="matrix(1 0 0 1 263 1586)">Large</text>
 </g>
 <g id="Guides">
  <g id="H-reference" style="fill:#27AAE1;stroke:none;" transform="matrix(1 0 0 1 339 696)">
   <path d="M0.993347 0L3.6377 0L29.3282-67.1326L30.0301-67.1326L30.0301-70.459L28.1227-70.459ZM11.6882-24.4797L46.9818-24.4797L46.2311-26.7288L12.4382-26.7288ZM55.1193 0L57.7637 0L30.6381-70.459L29.4327-70.459L29.4327-67.1326Z"/>
  </g>
  <line id="Baseline-S" style="fill:none;stroke:#27AAE1;opacity:1;stroke-width:0.5;" x1="263" x2="3036" y1="696" y2="696"/>
  <line id="Capline-S" style="fill:none;stroke:#27AAE1;opacity:1;stroke-width:0.5;" x1="263" x2="3036" y1="625.541" y2="625.541"/>
  <g id="H-reference" style="fill:#27AAE1;stroke:none;" transform="matrix(1 0 0 1 339 1126)">
   <path d="M0.993347 0L3.6377 0L29.3282-67.1326L30.0301-67.1326L30.0301-70.459L28.1227-70.459ZM11.6882-24.4797L46.9818-24.4797L46.2311-26.7288L12.4382-26.7288ZM55.1193 0L57.7637 0L30.6381-70.459L29.4327-70.459L29.4327-67.1326Z"/>
  </g>
  <line id="Baseline-M" style="fill:none;stroke:#27AAE1;opacity:1;stroke-width:0.5;" x1="263" x2="3036" y1="1126" y2="1126"/>
  <line id="Capline-M" style="fill:none;stroke:#27AAE1;opacity:1;stroke-width:0.5;" x1="263" x2="3036" y1="1055.54" y2="1055.54"/>
  <g id="H-reference" style="fill:#27AAE1;stroke:none;" transform="matrix(1 0 0 1 339 1556)">
   <path d="M0.993347 0L3.6377 0L29.3282-67.1326L30.0301-67.1326L30.0301-70.459L28.1227-70.459ZM11.6882-24.4797L46.9818-24.4797L46.2311-26.7288L12.4382-26.7288ZM55.1193 0L57.7637 0L30.6381-70.459L29.4327-70.459L29.4327-67.1326Z"/>
  </g>
  <line id="Baseline-L" style="fill:none;stroke:#27AAE1;opacity:1;stroke-width:0.5;" x1="263" x2="3036" y1="1556" y2="1556"/>
  <line id="Capline-L" style="fill:none;stroke:#27AAE1;opacity:1;stroke-width:0.5;" x1="263" x2="3036" y1="1485.54" y2="1485.54"/>
  <line id="left-margin-Regular-M" style="fill:none;stroke:#00AEEF;stroke-width:0.5;opacity:1.0;" x1="1379.12" x2="1379.12" y1="1030.79" y2="1150.12"/>
  <line id="right-margin-Regular-M" style="fill:none;stroke:#00AEEF;stroke-width:0.5;opacity:1.0;" x1="1520.57" x2="1520.57" y1="1030.79" y2="1150.12"/>
 </g>
 <g id="Symbols">
  <g id="Black-L" transform="matrix(1 0 0 1 2834.28 1556)">
   <path d="M81.1035 23.0957L117.139 23.0957L117.139-21.0449Q117.139-23.3887 115.747-24.7803Q114.355-26.1719 112.012-26.1719L86.3281-26.1719Q83.9844-26.1719 82.5439-24.7803Q81.1035-23.3887 81.1035-21.0449ZM56.3965 37.4023L141.699 37.4023Q150.439 37.4023 155.396 32.5684Q160.352 27.7344 160.352 19.4824L160.352-51.0254L140.088-64.8926L140.088 11.5723Q140.088 14.209 138.647 15.6738Q137.207 17.1387 134.57 17.1387L63.5254 17.1387Q60.8887 17.1387 59.4482 15.6738Q58.0078 14.209 58.0078 11.5723L58.0078-64.8926L37.7441-51.0254L37.7441 19.4824Q37.7441 27.7344 42.7002 32.5684Q47.6562 37.4023 56.3965 37.4023ZM16.0645-37.207Q16.0645-32.959 18.8232-30.2734Q21.582-27.5879 26.2207-27.5879Q28.2227-27.5879 30.249-28.4668Q32.2754-29.3457 34.0332-30.8594L95.0195-81.9824Q97.0215-83.6914 99.1699-83.6914Q101.318-83.6914 103.369-81.9824L164.258-30.8594Q166.016-29.3457 168.042-28.4668Q170.068-27.5879 172.07-27.5879Q176.562-27.5879 179.37-30.2002Q182.178-32.8125 182.178-37.1582Q182.178-41.9434 178.125-45.3613L112.402-100.586Q106.445-105.566 99.1943-105.566Q91.9434-105.566 86.0352-100.586L20.166-45.3125Q16.0645-41.7969 16.0645-37.207ZM135.352-75.3906L160.352-54.5898L160.352-89.4531Q160.352-91.8457 158.936-93.2373Q157.52-94.6289 155.176-94.6289L140.625-94.6289Q138.232-94.6289 136.792-93.2373Q135.352-91.8457 135.352-89.4531Z"/>
  </g>
  <g id="Heavy-L" transform="matrix(1 0 0 1 2539.8 1556)">
   <path d="M78.8795 23.568L114.88 23.568L114.88-21.1029Q114.88-23.3772 113.528-24.7284Q112.177-26.0796 109.903-26.0796L83.9424-26.0796Q81.6681-26.0796 80.2738-24.7284Q78.8795-23.3772 78.8795-21.1029ZM54.184 35.7773L139.417 35.7773Q147.616 35.7773 152.232 31.266Q156.848 26.7548 156.848 18.9522L156.848-51.3138L139.327-63.3141L139.327 12.4138Q139.327 15.2115 137.829 16.7339Q136.331 18.2564 133.533 18.2564L60.0563 18.2564Q57.2701 18.2564 55.772 16.7339Q54.274 15.2115 54.274 12.4138L54.274-63.3018L36.7531-51.3138L36.7531 18.9522Q36.7531 26.7662 41.3692 31.2717Q45.9854 35.7773 54.184 35.7773ZM16.0645-37.7487Q16.0645-34.1118 18.4601-31.7486Q20.8557-29.3854 24.9184-29.3854Q26.7128-29.3854 28.474-30.1838Q30.2353-30.9822 31.7741-32.2998L93.2098-83.8036Q95.005-85.3394 96.9402-85.3451Q98.8754-85.3508 100.719-83.8036L162.045-32.2998Q163.584-30.9822 165.351-30.1838Q167.118-29.3854 168.913-29.3854Q172.794-29.3854 175.25-31.6463Q177.706-33.9073 177.706-37.677Q177.706-41.8625 174.207-44.8196L108.726-99.8482Q103.403-104.322 96.97-104.322Q90.5373-104.322 85.2402-99.8482L19.6129-44.7823Q16.0645-41.7511 16.0645-37.7487ZM134.361-73.1201L156.848-54.3709L156.848-87.8624Q156.848-90.1169 155.507-91.4394Q154.166-92.762 151.937-92.762L139.357-92.762Q137.103-92.762 135.732-91.4394Q134.361-90.1169 134.361-87.8624Z"/>
  </g>
  <g id="Bold-L" transform="matrix(1 0 0 1 2245.59 1556)">
   <path d="M76.3916 24.0967L112.354 24.0967L112.354-21.167Q112.354-23.3643 111.047-24.6704Q109.741-25.9766 107.544-25.9766L81.2744-25.9766Q79.0771-25.9766 77.7344-24.6704Q76.3916-23.3643 76.3916-21.167ZM51.709 33.96L136.865 33.96Q144.458 33.96 148.694 29.8096Q152.93 25.6592 152.93 18.3594L152.93-51.6357L138.477-61.5479L138.477 13.3545Q138.477 16.333 136.914 17.9199Q135.352 19.5068 132.373 19.5068L56.1768 19.5068Q53.2227 19.5068 51.6602 17.9199Q50.0977 16.333 50.0977 13.3545L50.0977-61.5234L35.6445-51.6357L35.6445 18.3594Q35.6445 25.6836 39.8804 29.8218Q44.1162 33.96 51.709 33.96ZM16.0645-38.3545Q16.0645-35.4004 18.0542-33.3984Q20.0439-31.3965 23.4619-31.3965Q25.0244-31.3965 26.4893-32.1045Q27.9541-32.8125 29.248-33.9111L91.1865-85.8398Q92.749-87.1826 94.4458-87.1948Q96.1426-87.207 97.7539-85.8398L159.57-33.9111Q160.864-32.8125 162.341-32.1045Q163.818-31.3965 165.381-31.3965Q168.579-31.3965 170.642-33.2642Q172.705-35.1318 172.705-38.2568Q172.705-41.7725 169.824-44.2139L104.614-99.0234Q100-102.93 94.4824-102.93Q88.9648-102.93 84.3506-99.0234L18.9941-44.1895Q16.0645-41.6992 16.0645-38.3545ZM133.252-70.5811L152.93-54.126L152.93-86.084Q152.93-88.1836 151.672-89.4287Q150.415-90.6738 148.315-90.6738L137.939-90.6738Q135.84-90.6738 134.546-89.4287Q133.252-88.1836 133.252-86.084Z"/>
  </g>
  <g id="Semibold-L" transform="matrix(1 0 0 1 1950.61 1556)">
   <path d="M74.6765 24.4614L110.612 24.4614L110.612-21.2112Q110.612-23.3551 109.336-24.6304Q108.061-25.9056 105.917-25.9056L79.435-25.9056Q77.2911-25.9056 75.9838-24.6304Q74.6765-23.3551 74.6765-21.2112ZM50.0031 32.7072L135.106 32.7072Q142.281 32.7072 146.254 28.8055Q150.228 24.9039 150.228 17.9504L150.228-51.8578L137.89-60.3302L137.89 14.003Q137.89 17.1059 136.283 18.7374Q134.676 20.369 131.573 20.369L53.5019 20.369Q50.4318 20.369 48.8251 18.7374Q47.2183 17.1059 47.2183 14.003L47.2183-60.2974L34.8801-51.8578L34.8801 17.9504Q34.8801 24.9374 38.8538 28.8223Q42.8276 32.7072 50.0031 32.7072ZM16.0645-38.7718Q16.0645-36.2892 17.7742-34.536Q19.4839-32.7827 22.4579-32.7827Q23.8602-32.7827 25.1205-33.4286Q26.3809-34.0744 27.5063-35.022L89.7911-87.2437Q91.1942-88.4537 92.7265-88.4701Q94.2589-88.4865 95.71-87.2437L157.864-35.022Q158.989-34.0744 160.266-33.4286Q161.543-32.7827 162.946-32.7827Q165.673-32.7827 167.465-34.3796Q169.257-35.9764 169.257-38.6566Q169.257-41.7099 166.803-43.7965L101.779-98.455Q97.654-101.97 92.7673-101.97Q87.8807-101.97 83.7372-98.455L18.5677-43.7805Q16.0645-41.6634 16.0645-38.7718ZM132.487-68.8301L150.228-53.9574L150.228-84.8579Q150.228-86.8507 149.028-88.0424Q147.829-89.2342 145.818-89.2342L136.962-89.2342Q134.969-89.2342 133.728-88.0424Q132.487-86.8507 132.487-84.8579Z"/>
  </g>
  <g id="Medium-L" transform="matrix(1 0 0 1 1655.2 1556)">
   <path d="M73.3757 24.7375L109.291 24.7375L109.291-21.2448Q109.291-23.349 108.039-24.6002Q106.788-25.8514 104.684-25.8514L78.0403-25.8514Q75.9361-25.8514 74.6559-24.6002Q73.3757-23.349 73.3757-21.2448ZM48.7091 31.7566L133.772 31.7566Q140.63 31.7566 144.405 28.0437Q148.18 24.3309 148.18 17.6407L148.18-52.0264L137.445-59.407L137.445 14.4951Q137.445 17.6926 135.804 19.3577Q134.164 21.0228 130.967 21.0228L51.4732 21.0228Q48.3162 21.0228 46.6755 19.3577Q45.0348 17.6926 45.0348 14.4951L45.0348-59.3674L34.301-52.0264L34.301 17.6407Q34.301 24.3713 38.0756 28.064Q41.8503 31.7566 48.7091 31.7566ZM16.0645-39.0892Q16.0645-36.9629 17.5621-35.3985Q19.0598-33.8341 21.6965-33.8341Q22.9774-33.8341 24.0829-34.4326Q25.1884-35.0311 26.1856-35.8643L88.7337-88.3087Q90.0146-89.4173 91.4223-89.4371Q92.8299-89.4569 94.1597-88.3087L156.57-35.8643Q157.568-35.0311 158.693-34.4326Q159.818-33.8341 161.099-33.8341Q163.47-33.8341 165.056-35.2253Q166.643-36.6165 166.643-38.9603Q166.643-41.6634 164.512-43.4792L99.63-98.0232Q95.8748-101.242 91.4665-101.242Q87.0583-101.242 83.2726-98.0232L18.2442-43.4708Q16.0645-41.6367 16.0645-39.0892ZM131.908-67.5026L148.18-53.8292L148.18-83.9279Q148.18-85.8398 147.024-86.9911Q145.868-88.1424 143.925-88.1424L136.221-88.1424Q134.309-88.1424 133.109-86.9911Q131.908-85.8398 131.908-83.9279Z"/>
  </g>
  <g id="Regular-L" transform="matrix(1 0 0 1 1360.2 1556)">
   <path d="M71.6797 25.0977L107.568 25.0977L107.568-21.2891Q107.568-23.3398 106.348-24.5605Q105.127-25.7812 103.076-25.7812L76.2207-25.7812Q74.1699-25.7812 72.9248-24.5605Q71.6797-23.3398 71.6797-21.2891ZM47.0215 30.5176L132.031 30.5176Q138.477 30.5176 141.992 27.0508Q145.508 23.584 145.508 17.2363L145.508-52.2461L136.865-58.2031L136.865 15.1367Q136.865 18.457 135.181 20.166Q133.496 21.875 130.176 21.875L48.8281 21.875Q45.5566 21.875 43.8721 20.166Q42.1875 18.457 42.1875 15.1367L42.1875-58.1543L33.5449-52.2461L33.5449 17.2363Q33.5449 23.6328 37.0605 27.0752Q40.5762 30.5176 47.0215 30.5176ZM16.0645-39.502Q16.0645-37.8418 17.2852-36.5234Q18.5059-35.2051 20.7031-35.2051Q21.8262-35.2051 22.7295-35.7422Q23.6328-36.2793 24.4629-36.9629L87.3535-89.6973Q88.4766-90.6738 89.7217-90.6982Q90.9668-90.7227 92.1387-89.6973L154.883-36.9629Q155.713-36.2793 156.641-35.7422Q157.568-35.2051 158.691-35.2051Q160.596-35.2051 161.914-36.3281Q163.232-37.4512 163.232-39.3555Q163.232-41.6016 161.523-43.0664L96.8262-97.4609Q93.5547-100.293 89.7705-100.293Q85.9863-100.293 82.666-97.4609L17.8223-43.0664Q16.0645-41.6016 16.0645-39.502ZM131.152-65.7715L145.508-53.6621L145.508-82.7148Q145.508-84.5215 144.409-85.6201Q143.311-86.7188 141.455-86.7188L135.254-86.7188Q133.447-86.7188 132.3-85.6201Q131.152-84.5215 131.152-82.7148Z"/>
  </g>
  <g id="Light-L" transform="matrix(1 0 0 1 1065.68 1556)">
   <path d="M69.8029 25.4303L105.07 25.4303L105.07-21.6827Q105.07-23.5519 103.956-24.6666Q102.841-25.7812 100.972-25.7812L73.9349-25.7812Q72.0657-25.7812 70.9343-24.6666Q69.8029-23.5519 69.8029-21.6827ZM45.0989 29.4281L129.776 29.4281Q135.812 29.4281 139.04 26.226Q142.268 23.024 142.268 17.0547L142.268-52.2461L135.654-56.9618L135.654 15.4999Q135.654 19.1986 133.864 21.006Q132.073 22.8134 128.374 22.8134L46.4668 22.8134Q42.8017 22.8134 41.011 21.006Q39.2204 19.1986 39.2204 15.4999L39.2204-56.868L32.6065-52.2461L32.6065 17.0547Q32.6065 23.0728 35.8345 26.2505Q39.0625 29.4281 45.0989 29.4281ZM16.0645-40.4709Q16.0645-39.2044 16.9899-38.2263Q17.9153-37.2482 19.5679-37.2482Q20.4338-37.2482 21.0873-37.6266Q21.7407-38.0051 22.374-38.5223L84.9617-91.0294Q86.1908-92.0967 87.5042-92.1513Q88.8176-92.2058 90.1863-91.0294L152.567-38.5223Q153.201-38.0051 153.871-37.6266Q154.541-37.2482 155.392-37.2482Q156.857-37.2482 157.85-38.1065Q158.842-38.9648 158.842-40.3847Q158.842-42.1013 157.436-43.3083L93.9651-96.7346Q90.9813-99.3088 87.606-99.3088Q84.2308-99.3088 81.1829-96.7346L17.4896-43.3083Q16.0645-42.1013 16.0645-40.4709ZM129.972-63.8344L142.268-53.4653L142.268-82.3517Q142.268-83.8707 141.344-84.7878Q140.42-85.7048 138.897-85.7048L133.392-85.7048Q131.889-85.7048 130.93-84.7878Q129.972-83.8707 129.972-82.3517Z"/>
  </g>
  <g id="Thin-L" transform="matrix(1 0 0 1 771.871 1556)">
   <path d="M67.3203 25.8713L101.768 25.8713L101.768-22.2031Q101.768-23.8319 100.793-24.8066Q99.8184-25.7812 98.1895-25.7812L70.9122-25.7812Q69.2833-25.7812 68.3018-24.8066Q67.3203-23.8319 67.3203-22.2031ZM42.5568 27.9861L126.793 27.9861Q132.289 27.9861 135.137 25.1347Q137.984 22.2832 137.984 16.8144L137.984-52.2461L134.053-55.3207L134.053 15.9805Q134.053 20.1797 132.122 22.1172Q130.192 24.0547 125.993 24.0547L43.3441 24.0547Q39.1586 24.0547 37.228 22.1172Q35.2974 20.1797 35.2974 15.9805L35.2974-55.1659L31.3652-52.2461L31.3652 16.8144Q31.3652 22.332 34.2129 25.1591Q37.0605 27.9861 42.5568 27.9861ZM16.0645-41.7519Q16.0645-41.0057 16.5997-40.4785Q17.1349-39.9513 18.0664-39.9513Q18.5921-39.9513 18.9152-40.1192Q19.2383-40.287 19.6114-40.5838L81.7993-92.791Q83.168-93.9781 84.5715-94.0731Q85.9749-94.1681 87.6038-92.791L149.504-40.5838Q149.877-40.287 150.207-40.1192Q150.537-39.9513 151.028-39.9513Q151.913-39.9513 152.475-40.4591Q153.037-40.9668 153.037-41.7458Q153.037-42.762 152.032-43.6287L90.1817-95.7733Q87.5786-98.008 84.7435-98.008Q81.9084-98.008 79.2206-95.7733L17.0486-43.6287Q16.0645-42.762 16.0645-41.7519ZM128.41-61.2717L137.984-53.2051L137.984-81.871Q137.984-83.0101 137.29-83.6868Q136.596-84.3636 135.514-84.3636L130.93-84.3636Q129.826-84.3636 129.118-83.6868Q128.41-83.0101 128.41-81.871Z"/>
  </g>
  <g id="Ultralight-L" transform="matrix(1 0 0 1 476.647 1556)">
   <path d="M66.0492 26.0963L100.076 26.0963L100.076-22.4701Q100.076-23.9754 99.173-24.8783Q98.2704-25.7812 96.7644-25.7812L69.3642-25.7812Q67.8581-25.7812 66.9537-24.8783Q66.0492-23.9754 66.0492-22.4701ZM41.2544 27.2484L125.266 27.2484Q130.485 27.2484 133.138 24.5762Q135.79 21.904 135.79 16.6916L135.79-52.2461L133.232-54.4792L133.232 16.2262Q133.232 20.6818 131.23 22.686Q129.227 24.6902 124.772 24.6902L41.7442 24.6902Q37.2917 24.6902 35.2894 22.686Q33.287 20.6818 33.287 16.2262L33.287-54.2946L30.7297-52.2461L30.7297 16.6916Q30.7297 21.9528 33.3824 24.6006Q36.0352 27.2484 41.2544 27.2484ZM16.0645-42.408Q16.0645-41.9289 16.3998-41.6321Q16.7351-41.3353 17.2974-41.3353Q17.6483-41.3353 17.8024-41.3956Q17.9565-41.4558 18.1961-41.6405L80.1788-93.6935Q81.62-94.9425 83.0692-95.0577Q84.5184-95.1729 86.2808-93.6935L147.935-41.6405Q148.175-41.4558 148.331-41.3956Q148.486-41.3353 148.792-41.3353Q149.38-41.3353 149.722-41.6637Q150.063-41.9922 150.063-42.4431Q150.063-43.1 149.263-43.7927L88.2439-95.2812Q85.8353-97.3412 83.2771-97.3412Q80.719-97.3412 78.2158-95.2812L16.8236-43.7927Q16.0645-43.1 16.0645-42.408ZM127.61-59.9594L135.79-53.0716L135.79-81.6254Q135.79-82.5691 135.214-83.1226Q134.637-83.6761 133.781-83.6761L129.668-83.6761Q128.77-83.6761 128.19-83.1226Q127.61-82.5691 127.61-81.6254Z"/>
  </g>
  <g id="Black-M" transform="matrix(1 0 0 1 2855.4 1126)">
   <path d="M64.1113 9.66797L91.8457 9.66797L91.8457-24.3164Q91.8457-26.123 90.7715-27.2217Q89.6973-28.3203 87.8906-28.3203L68.1641-28.3203Q66.3574-28.3203 65.2344-27.2217Q64.1113-26.123 64.1113-24.3164ZM44.9219 22.0703L111.035 22.0703Q118.115 22.0703 122.144 18.1396Q126.172 14.209 126.172 7.56836L126.172-47.2168L108.838-59.1309L108.838 0.488281Q108.838 2.49023 107.715 3.61328Q106.592 4.73633 104.59 4.73633L51.3672 4.73633Q49.3652 4.73633 48.2422 3.61328Q47.1191 2.49023 47.1191 0.488281L47.1191-59.1309L29.7852-47.2168L29.7852 7.56836Q29.7852 14.209 33.8135 18.1396Q37.8418 22.0703 44.9219 22.0703ZM12.4512-36.6211Q12.4512-32.959 14.7949-30.7129Q17.1387-28.4668 21.0449-28.4668Q22.7051-28.4668 24.4141-29.1748Q26.123-29.8828 27.5879-31.1523L74.3652-70.3613Q76.1719-71.875 78.0518-71.875Q79.9316-71.875 81.7383-70.3613L128.369-31.1523Q129.883-29.8828 131.592-29.1748Q133.301-28.4668 134.961-28.4668Q138.818-28.4668 141.187-30.6885Q143.555-32.9102 143.555-36.6211Q143.555-40.6738 140.039-43.6035L89.2578-86.2793Q84.2285-90.4785 78.0518-90.4785Q71.875-90.4785 66.8457-86.2793L15.9668-43.5547Q12.4512-40.5273 12.4512-36.6211ZM105.371-67.6758L126.172-50.3418L126.172-78.5156Q126.172-80.3223 125.073-81.4209Q123.975-82.5195 122.168-82.5195L109.424-82.5195Q107.568-82.5195 106.47-81.4209Q105.371-80.3223 105.371-78.5156Z"/>
  </g>
  <g id="Heavy-M" transform="matrix(1 0 0 1 2560.4 1126)">
   <path d="M62.3482 10.0601L90.1863 10.0601L90.1863-24.2935Q90.1863-26.0651 89.1235-27.1465Q88.0608-28.228 86.2885-28.228L66.3315-28.228Q64.5477-28.228 63.448-27.1465Q62.3482-26.0651 62.3482-24.2935ZM43.1816 20.7222L109.283 20.7222Q115.926 20.7222 119.683 17.0506Q123.441 13.3789 123.441 7.0961L123.441-47.4937L108.342-57.8629L108.342 1.2146Q108.342 3.30811 107.196 4.46587Q106.05 5.62363 103.967 5.62363L48.4978 5.62363Q46.4149 5.62363 45.2629 4.46587Q44.1109 3.30811 44.1109 1.2146L44.1109-57.8514L29.0131-47.4937L29.0131 7.0961Q29.0131 13.3789 32.7763 17.0506Q36.5395 20.7222 43.1816 20.7222ZM12.4512-36.9438Q12.4512-33.7891 14.5069-31.7905Q16.5627-29.792 20.0081-29.792Q21.5179-29.792 23.0251-30.4482Q24.5323-31.1043 25.8362-32.2128L73.1094-71.8483Q74.6849-73.1773 76.3344-73.1773Q77.9839-73.1773 79.5601-71.8483L126.721-32.2128Q128.05-31.1043 129.558-30.4482Q131.065-29.792 132.575-29.792Q135.926-29.792 138.023-31.7257Q140.121-33.6594 140.121-36.9095Q140.121-40.4892 137.077-43.0275L86.2846-85.7147Q81.797-89.4646 76.3348-89.4646Q70.8725-89.4646 66.3849-85.7147L15.506-42.9901Q12.4512-40.3778 12.4512-36.9438ZM104.656-65.8661L123.441-50.1686L123.441-77.0287Q123.441-78.7895 122.377-79.8534Q121.313-80.9174 119.552-80.9174L108.582-80.9174Q106.796-80.9174 105.726-79.8534Q104.656-78.7895 104.656-77.0287Z"/>
  </g>
  <g id="Bold-M" transform="matrix(1 0 0 1 2265.61 1126)">
   <path d="M60.376 10.498L88.3301 10.498L88.3301-24.2676Q88.3301-26.001 87.2803-27.063Q86.2305-28.125 84.4971-28.125L64.2822-28.125Q62.5244-28.125 61.4502-27.063Q60.376-26.001 60.376-24.2676ZM41.2354 19.2139L107.324 19.2139Q113.477 19.2139 116.931 15.8325Q120.386 12.4512 120.386 6.56738L120.386-47.8027L107.788-56.4453L107.788 2.02637Q107.788 4.22363 106.616 5.41992Q105.444 6.61621 103.271 6.61621L45.2881 6.61621Q43.1152 6.61621 41.9312 5.41992Q40.7471 4.22363 40.7471 2.02637L40.7471-56.4209L28.1494-47.8027L28.1494 6.56738Q28.1494 12.4512 31.6162 15.8325Q35.083 19.2139 41.2354 19.2139ZM12.4512-37.3047Q12.4512-34.7168 14.1846-32.9956Q15.918-31.2744 18.8477-31.2744Q20.1904-31.2744 21.4722-31.8726Q22.7539-32.4707 23.877-33.3984L71.7041-73.5107Q73.0225-74.6338 74.4141-74.6338Q75.8057-74.6338 77.124-73.5107L124.878-33.3984Q126.001-32.4707 127.283-31.8726Q128.564-31.2744 129.907-31.2744Q132.69-31.2744 134.485-32.8857Q136.279-34.4971 136.279-37.2314Q136.279-40.2832 133.765-42.3828L82.959-85.083Q79.0771-88.3301 74.4141-88.3301Q69.751-88.3301 65.8691-85.083L14.9902-42.3584Q12.4512-40.21 12.4512-37.3047ZM103.857-63.8428L120.386-49.9756L120.386-75.3662Q120.386-77.0752 119.36-78.1006Q118.335-79.126 116.626-79.126L107.642-79.126Q105.933-79.126 104.895-78.1006Q103.857-77.0752 103.857-75.3662Z"/>
  </g>
  <g id="Semibold-M" transform="matrix(1 0 0 1 1970.23 1126)">
   <path d="M59.0164 10.8002L87.0506 10.8002L87.0506-24.25Q87.0506-25.9567 86.0096-27.0054Q84.9686-28.054 83.2619-28.054L62.8693-28.054Q61.129-28.054 60.0727-27.0054Q59.0164-25.9567 59.0164-24.25ZM39.8933 18.174L105.973 18.174Q111.788 18.174 115.034 14.9925Q118.279 11.8111 118.279 6.2027L118.279-48.0164L107.406-55.468L107.406 2.58636Q107.406 4.85458 106.216 6.07758Q105.027 7.30057 102.792 7.30057L43.0756 7.30057Q40.8401 7.30057 39.6339 6.07758Q38.4277 4.85458 38.4277 2.58636L38.4277-55.4344L27.5543-48.0164L27.5543 6.2027Q27.5543 11.8111 30.8167 14.9925Q34.079 18.174 39.8933 18.174ZM12.4512-37.5534Q12.4512-35.3569 13.9626-33.8268Q15.4739-32.2968 18.0481-32.2968Q19.2749-32.2968 20.4014-32.8548Q21.5279-33.4129 22.5258-34.2163L70.7352-74.6574Q71.8758-75.6378 73.0896-75.6378Q74.3034-75.6378 75.444-74.6574L123.607-34.2163Q124.588-33.4129 125.714-32.8548Q126.84-32.2968 128.068-32.2968Q130.46-32.2968 132.045-33.6857Q133.631-35.0746 133.631-37.4535Q133.631-40.1413 131.48-41.9388L80.6664-84.6474Q77.2018-87.5481 73.09-87.5481Q68.9781-87.5481 65.5136-84.6474L14.6347-41.9228Q12.4512-40.0948 12.4512-37.5534ZM103.307-62.4474L118.279-49.8421L118.279-74.2195Q118.279-75.8934 117.281-76.8921Q116.282-77.8908 114.609-77.8908L106.993-77.8908Q105.338-77.8908 104.322-76.8921Q103.307-75.8934 103.307-74.2195Z"/>
  </g>
  <g id="Medium-M" transform="matrix(1 0 0 1 1674.52 1126)">
   <path d="M57.9849 11.0291L86.0802 11.0291L86.0802-24.2363Q86.0802-25.9232 85.046-26.9615Q84.0118-27.9999 82.325-27.9999L61.7981-27.9999Q60.0716-27.9999 59.0282-26.9615Q57.9849-25.9232 57.9849-24.2363ZM38.8756 17.3859L104.949 17.3859Q110.508 17.3859 113.595 14.3559Q116.682 11.3258 116.682 5.92651L116.682-48.1781L107.116-54.7264L107.116 3.01056Q107.116 5.33295 105.913 6.57616Q104.71 7.81937 102.428 7.81937L41.3971 7.81937Q39.1151 7.81937 37.8922 6.57616Q36.6692 5.33295 36.6692 3.01056L36.6692-54.6867L27.1027-48.1781L27.1027 5.92651Q27.1027 11.3258 30.2101 14.3559Q33.3176 17.3859 38.8756 17.3859ZM12.4512-37.7419Q12.4512-35.8421 13.7939-34.4566Q15.1367-33.0711 17.4416-33.0711Q18.5814-33.0711 19.5896-33.5991Q20.5978-34.127 21.5019-34.8358L70.0012-75.5264Q71.0068-76.3992 72.086-76.3992Q73.1651-76.3992 74.1707-75.5264L122.643-34.8358Q123.517-34.127 124.525-33.5991Q125.533-33.0711 126.673-33.0711Q128.768-33.0711 130.196-34.2918Q131.623-35.5125 131.623-37.6221Q131.623-40.033 129.749-41.6016L78.9276-84.317Q75.7805-86.9553 72.086-86.9553Q68.3914-86.9553 65.2443-84.317L14.3654-41.5924Q12.4512-40.007 12.4512-37.7419ZM102.888-61.3899L116.682-49.7414L116.682-73.3505Q116.682-74.9969 115.704-75.9754Q114.725-76.9539 113.079-76.9539L106.501-76.9539Q104.886-76.9539 103.887-75.9754Q102.888-74.9969 102.888-73.3505Z"/>
  </g>
  <g id="Regular-M" transform="matrix(1 0 0 1 1379.12 1126)">
   <path d="M56.6406 11.3281L84.8145 11.3281L84.8145-24.2188Q84.8145-25.8789 83.7891-26.9043Q82.7637-27.9297 81.1035-27.9297L60.4004-27.9297Q58.6914-27.9297 57.666-26.9043Q56.6406-25.8789 56.6406-24.2188ZM37.5488 16.3574L103.613 16.3574Q108.838 16.3574 111.719 13.5254Q114.6 10.6934 114.6 5.56641L114.6-48.3887L106.738-53.7598L106.738 3.56445Q106.738 5.95703 105.518 7.22656Q104.297 8.49609 101.953 8.49609L39.209 8.49609Q36.8652 8.49609 35.6201 7.22656Q34.375 5.95703 34.375 3.56445L34.375-53.7109L26.5137-48.3887L26.5137 5.56641Q26.5137 10.6934 29.4189 13.5254Q32.3242 16.3574 37.5488 16.3574ZM12.4512-37.9883Q12.4512-36.4746 13.5742-35.2783Q14.6973-34.082 16.6504-34.082Q17.6758-34.082 18.5303-34.5703Q19.3848-35.0586 20.166-35.6445L69.043-76.6602Q69.873-77.3926 70.7764-77.3926Q71.6797-77.3926 72.5098-76.6602L121.387-35.6445Q122.119-35.0586 122.974-34.5703Q123.828-34.082 124.854-34.082Q126.562-34.082 127.783-35.083Q129.004-36.084 129.004-37.8418Q129.004-39.8926 127.49-41.1621L76.6602-83.8867Q73.9258-86.1816 70.7764-86.1816Q67.627-86.1816 64.8926-83.8867L14.0137-41.1621Q12.4512-39.8926 12.4512-37.9883ZM102.344-60.0098L114.6-49.6094L114.6-72.2168Q114.6-73.8281 113.647-74.7803Q112.695-75.7324 111.084-75.7324L105.859-75.7324Q104.297-75.7324 103.32-74.7803Q102.344-73.8281 102.344-72.2168Z"/>
  </g>
  <g id="Light-M" transform="matrix(1 0 0 1 1084.37 1126)">
   <path d="M54.9454 11.631L82.5745 11.631L82.5745-24.5667Q82.5745-26.0757 81.6475-27.0027Q80.7205-27.9297 79.2114-27.9297L58.342-27.9297Q56.7993-27.9297 55.8723-27.0027Q54.9454-26.0757 54.9454-24.5667ZM35.8231 15.3732L101.585 15.3732Q106.446 15.3732 109.07 12.7758Q111.694 10.1784 111.694 5.40009L111.694-48.3887L105.663-52.6398L105.663 3.89709Q105.663 6.62308 104.337 7.9834Q103.011 9.34372 100.318 9.34372L37.0895 9.34372Q34.3979 9.34372 33.0544 7.9834Q31.7108 6.62308 31.7108 3.89709L31.7108-52.5604L25.6813-48.3887L25.6813 5.40009Q25.6813 10.1936 28.3215 12.7834Q30.9616 15.3732 35.8231 15.3732ZM12.4512-38.8664Q12.4512-37.7007 13.3095-36.7996Q14.1678-35.8986 15.6517-35.8986Q16.4345-35.8986 17.062-36.2507Q17.6895-36.6028 18.2892-37.0522L66.909-77.8557Q67.8146-78.6644 68.7935-78.6945Q69.7723-78.7247 70.7542-77.8557L119.298-37.0522Q119.864-36.6028 120.491-36.2507Q121.119-35.8986 121.902-35.8986Q123.217-35.8986 124.143-36.6726Q125.069-37.4466 125.069-38.765Q125.069-40.3313 123.827-41.3742L74.0868-83.2207Q71.64-85.3188 68.8465-85.3188Q66.053-85.3188 63.5757-83.2207L13.7108-41.3742Q12.4512-40.3313 12.4512-38.8664ZM101.284-58.2687L111.694-49.4278L111.694-71.8987Q111.694-73.2376 110.9-74.0234Q110.107-74.8093 108.783-74.8093L104.195-74.8093Q102.905-74.8093 102.094-74.0234Q101.284-73.2376 101.284-71.8987Z"/>
  </g>
  <g id="Thin-M" transform="matrix(1 0 0 1 790.265 1126)">
   <path d="M52.7031 12.0316L79.6112 12.0316L79.6112-25.0275Q79.6112-26.3359 78.8143-27.1328Q78.0174-27.9297 76.709-27.9297L55.619-27.9297Q54.2969-27.9297 53.5-27.1328Q52.7031-26.3359 52.7031-25.0275ZM33.5411 14.0724L98.9029 14.0724Q103.284 14.0724 105.567 11.7851Q107.85 9.49783 107.85 5.1796L107.85-48.3887L104.242-51.1581L104.242 4.33807Q104.242 7.50351 102.775 8.98399Q101.308 10.4645 98.1567 10.4645L34.2873 10.4645Q31.1348 10.4645 29.6612 8.98399Q28.1876 7.50351 28.1876 4.33807L28.1876-51.0391L24.5804-48.3887L24.5804 5.1796Q24.5804 9.53293 26.8703 11.8027Q29.1603 14.0724 33.5411 14.0724ZM12.4512-40.0276Q12.4512-39.3219 12.9589-38.8111Q13.4666-38.3003 14.3303-38.3003Q14.7934-38.3003 15.1203-38.4724Q15.4472-38.6444 15.8066-38.9137L64.0862-79.4373Q65.0917-80.3459 66.1709-80.4161Q67.2501-80.4863 68.4319-79.4373L116.535-38.9137Q116.881-38.6444 117.208-38.4724Q117.535-38.3003 117.999-38.3003Q118.793-38.3003 119.329-38.7741Q119.864-39.2479 119.864-39.9864Q119.864-40.9119 118.983-41.6542L70.6841-82.3402Q68.6172-84.1782 66.2941-84.1782Q63.9709-84.1782 61.834-82.3402L13.3102-41.6542Q12.4512-40.9119 12.4512-40.0276ZM99.8833-55.9669L107.85-49.1875L107.85-71.4783Q107.85-72.4571 107.267-73.0225Q106.684-73.5878 105.74-73.5878L101.992-73.5878Q101.063-73.5878 100.473-73.0225Q99.8833-72.4571 99.8833-71.4783Z"/>
  </g>
  <g id="Ultralight-M" transform="matrix(1 0 0 1 494.887 1126)">
   <path d="M51.5549 12.236L78.0937 12.236L78.0937-25.2632Q78.0937-26.4694 77.3636-27.1996Q76.6335-27.9297 75.4272-27.9297L54.2244-27.9297Q53.0151-27.9297 52.285-27.1996Q51.5549-26.4694 51.5549-25.2632ZM32.3723 13.4056L97.5281 13.4056Q101.663 13.4056 103.772 11.2774Q105.881 9.14917 105.881 5.06668L105.881-48.3887L103.514-50.3998L103.514 4.56314Q103.514 7.95517 101.976 9.49707Q100.437 11.039 97.049 11.039L32.8514 11.039Q29.4632 11.039 27.9232 9.49707Q26.3832 7.95517 26.3832 4.56314L26.3832-50.2602L24.0158-48.3887L24.0158 5.06668Q24.0158 9.19495 26.1265 11.3003Q28.2372 13.4056 32.3723 13.4056ZM12.4512-40.6219Q12.4512-40.1527 12.7796-39.8418Q13.1081-39.5309 13.6536-39.5309Q13.9519-39.5309 14.1254-39.6107Q14.299-39.6904 14.5355-39.8674L62.6404-80.2475Q63.6971-81.2073 64.8277-81.2981Q65.9584-81.3889 67.2424-80.2475L115.12-39.8674Q115.353-39.6904 115.527-39.6107Q115.7-39.5309 115.999-39.5309Q116.527-39.5309 116.862-39.851Q117.197-40.1711 117.197-40.612Q117.197-41.2094 116.501-41.7976L68.9407-81.8886Q67.0692-83.593 64.9868-83.593Q62.9044-83.593 60.9421-81.8886L13.1058-41.7976Q12.4512-41.2094 12.4512-40.6219ZM99.1653-54.7874L105.881-49.0646L105.881-71.2631Q105.881-72.0573 105.405-72.5098Q104.93-72.9622 104.182-72.9622L100.864-72.9622Q100.119-72.9622 99.6422-72.5098Q99.1653-72.0573 99.1653-71.2631Z"/>
  </g>
  <g id="Black-S" transform="matrix(1 0 0 1 2871.88 696)">
   <path d="M50.6836-0.146484L72.3633-0.146484L72.3633-26.709Q72.3633-29.834 69.2383-29.834L53.8574-29.834Q52.4414-29.834 51.5625-28.9795Q50.6836-28.125 50.6836-26.709ZM35.6445 10.0098L87.4023 10.0098Q93.0664 10.0098 96.2891 6.86035Q99.5117 3.71094 99.5117-1.5625L99.5117-44.5312L85.3516-54.2969L85.3516-7.4707Q85.3516-4.15039 82.0312-4.15039L41.0156-4.15039Q37.6953-4.15039 37.6953-7.4707L37.6953-54.2969L23.5352-44.5312L23.5352-1.5625Q23.5352 3.71094 26.7578 6.86035Q29.9805 10.0098 35.6445 10.0098ZM9.76562-36.2793Q9.76562-33.3008 11.6943-31.4697Q13.623-29.6387 16.748-29.6387Q18.0664-29.6387 19.458-30.2002Q20.8496-30.7617 22.0703-31.7871L58.5449-62.3535Q61.5234-64.8926 64.5996-62.3535L100.977-31.7871Q102.197-30.7617 103.589-30.2002Q104.98-29.6387 106.299-29.6387Q109.473-29.6387 111.377-31.4697Q113.281-33.3008 113.281-36.2793Q113.281-39.5996 110.4-41.9922L70.7031-75.3418Q66.6016-78.8086 61.5723-78.8086Q56.543-78.8086 52.4414-75.3418L12.6465-41.9434Q9.76562-39.4531 9.76562-36.2793ZM82.7148-61.084L99.5117-47.1191L99.5117-69.5801Q99.5117-72.7051 96.3867-72.7051L85.8887-72.7051Q84.4727-72.7051 83.5938-71.8506Q82.7148-70.9961 82.7148-69.5801Z"/>
  </g>
  <g id="Heavy-S" transform="matrix(1 0 0 1 2576.38 696)">
   <path d="M49.3927 0.153351L71.2227 0.153351L71.2227-26.6396Q71.2227-29.7531 68.1091-29.7531L52.5436-29.7531Q51.1391-29.7531 50.2659-28.9043Q49.3927-28.0556 49.3927-26.6396ZM34.3765 8.98438L86.1694 8.98438Q91.4993 8.98438 94.5259 6.02493Q97.5525 3.06549 97.5525-1.95465L97.5525-44.7731L85.0746-53.3401L85.0746-6.88324Q85.0746-3.4935 81.7085-3.4935L38.826-3.4935Q35.4713-3.4935 35.4713-6.88324L35.4713-53.3401L22.982-44.7731L22.982-1.95465Q22.982 3.06549 26.0086 6.02493Q29.0352 8.98438 34.3765 8.98438ZM9.76562-36.4403Q9.76562-33.8425 11.4754-32.1899Q13.1851-30.5374 15.9988-30.5374Q17.2249-30.5374 18.4669-31.0703Q19.709-31.6032 20.8023-32.5134L57.7385-63.4827Q60.3134-65.6876 62.9631-63.4827L99.8238-32.5134Q100.918-31.6032 102.166-31.0703Q103.413-30.5374 104.639-30.5374Q107.421-30.5374 109.135-32.1495Q110.85-33.7616 110.85-36.4059Q110.85-39.3806 108.337-41.4734L68.4906-74.9496Q64.8155-78.0479 60.3508-78.0479Q55.8861-78.0479 52.2224-74.9496L12.2894-41.436Q9.76562-39.2685 9.76562-36.4403ZM82.2426-59.7588L97.5525-46.9925L97.5525-68.3472Q97.5525-71.4493 94.4504-71.4493L85.3928-71.4493Q83.9767-71.4493 83.1097-70.6005Q82.2426-69.7517 82.2426-68.3472Z"/>
  </g>
  <g id="Bold-S" transform="matrix(1 0 0 1 2281.03 696)">
   <path d="M47.9492 0.488281L69.9463 0.488281L69.9463-26.5625Q69.9463-29.6631 66.8457-29.6631L51.0742-29.6631Q49.6826-29.6631 48.8159-28.8208Q47.9492-27.9785 47.9492-26.5625ZM32.959 7.83691L84.79 7.83691Q89.7461 7.83691 92.5537 5.09033Q95.3613 2.34375 95.3613-2.39258L95.3613-45.0439L84.7656-52.2705L84.7656-6.22559Q84.7656-2.75879 81.3477-2.75879L36.377-2.75879Q32.9834-2.75879 32.9834-6.22559L32.9834-52.2705L22.3633-45.0439L22.3633-2.39258Q22.3633 2.34375 25.1709 5.09033Q27.9785 7.83691 32.959 7.83691ZM9.76562-36.6211Q9.76562-34.4482 11.2305-32.9956Q12.6953-31.543 15.1611-31.543Q16.2842-31.543 17.3584-32.0435Q18.4326-32.5439 19.3848-33.3252L56.8359-64.7461Q58.96-66.5771 61.1328-64.7461L98.5352-33.3252Q99.4873-32.5439 100.574-32.0435Q101.66-31.543 102.783-31.543Q105.127-31.543 106.628-32.9102Q108.13-34.2773 108.13-36.5479Q108.13-39.1357 106.03-40.8936L66.0156-74.5117Q62.8174-77.1973 58.9844-77.1973Q55.1514-77.1973 51.9775-74.5117L11.8896-40.8691Q9.76562-39.0625 9.76562-36.6211ZM81.7139-58.2764L95.3613-46.8506L95.3613-66.9678Q95.3613-70.0439 92.2852-70.0439L84.8389-70.0439Q83.4229-70.0439 82.5684-69.2017Q81.7139-68.3594 81.7139-66.9678Z"/>
  </g>
  <g id="Semibold-S" transform="matrix(1 0 0 1 1985.26 696)">
   <path d="M46.9536 0.719452L69.0666 0.719452L69.0666-26.5091Q69.0666-29.6005 65.9744-29.6005L50.061-29.6005Q48.6786-29.6005 47.8161-28.7628Q46.9536-27.9251 46.9536-26.5091ZM31.9817 7.04575L83.8394 7.04575Q88.5376 7.04575 91.1942 4.44603Q93.8507 1.84631 93.8507-2.6947L93.8507-45.2309L84.552-51.5327L84.552-5.7724Q84.552-2.2522 81.0989-2.2522L34.6886-2.2522Q31.2683-2.2522 31.2683-5.7724L31.2683-51.5327L21.9368-45.2309L21.9368-2.6947Q21.9368 1.84631 24.5934 4.44603Q27.2499 7.04575 31.9817 7.04575ZM9.76562-36.7455Q9.76562-34.8656 11.0615-33.551Q12.3573-32.2365 14.5836-32.2365Q15.6357-32.2365 16.5943-32.7145Q17.5529-33.1924 18.4074-33.8852L56.2141-65.6174Q58.0269-67.1906 59.8709-65.6174L97.6463-33.8852Q98.5008-33.1924 99.4762-32.7145Q100.452-32.2365 101.504-32.2365Q103.545-32.2365 104.9-33.4347Q106.255-34.6329 106.255-36.6455Q106.255-38.9671 104.44-40.4938L64.3097-74.2096Q61.4395-76.6106 58.0421-76.6106Q54.6448-76.6106 51.8089-74.2096L11.6142-40.4778Q9.76562-38.9206 9.76562-36.7455ZM81.3492-57.254L93.8507-46.7529L93.8507-66.0172Q93.8507-69.075 90.7921-69.075L84.4566-69.075Q83.0406-69.075 82.1949-68.2373Q81.3492-67.3996 81.3492-66.0172Z"/>
  </g>
  <g id="Medium-S" transform="matrix(1 0 0 1 1689.26 696)">
   <path d="M46.199 0.894165L68.399 0.894165L68.399-26.4687Q68.399-29.554 65.3145-29.554L49.2928-29.554Q47.9172-29.554 47.0581-28.7193Q46.199-27.8847 46.199-26.4687ZM31.2401 6.44608L83.1184 6.44608Q87.6213 6.44608 90.163 3.95737Q92.7048 1.46866 92.7048-2.92358L92.7048-45.372L84.3903-50.9735L84.3903-5.42831Q84.3903-1.86844 80.9105-1.86844L33.4084-1.86844Q29.9675-1.86844 29.9675-5.42831L29.9675-50.9735L21.6133-45.372L21.6133-2.92358Q21.6133 1.46866 24.1554 3.95737Q26.6975 6.44608 31.2401 6.44608ZM9.76562-36.8401Q9.76562-35.183 10.9337-33.9722Q12.1017-32.7614 14.1457-32.7614Q15.1436-32.7614 16.0145-33.223Q16.8854-33.6845 17.6659-34.3094L55.7419-66.2773Q57.3196-67.6552 58.9142-66.2773L96.9727-34.3094Q97.7531-33.6845 98.6443-33.223Q99.5354-32.7614 100.533-32.7614Q102.345-32.7614 103.589-33.8318Q104.833-34.9022 104.833-36.7195Q104.833-38.839 103.233-40.1901L63.0157-73.9807Q60.3958-76.1658 57.3284-76.1658Q54.261-76.1658 51.6808-73.9807L11.4052-40.1817Q9.76562-38.8123 9.76562-36.8401ZM81.073-56.4796L92.7048-46.6789L92.7048-65.2962Q92.7048-68.3411 89.6599-68.3411L84.1667-68.3411Q82.7507-68.3411 81.9118-67.5064Q81.073-66.6718 81.073-65.2962Z"/>
  </g>
  <g id="Regular-S" transform="matrix(1 0 0 1 1393.47 696)">
   <path d="M45.2148 1.12305L67.5293 1.12305L67.5293-26.416Q67.5293-29.4922 64.4531-29.4922L48.291-29.4922Q46.9238-29.4922 46.0693-28.6621Q45.2148-27.832 45.2148-26.416ZM30.2734 5.66406L82.1777 5.66406Q86.4258 5.66406 88.8184 3.32031Q91.2109 0.976562 91.2109-3.22266L91.2109-45.5566L84.1797-50.2441L84.1797-4.98047Q84.1797-1.36719 80.6641-1.36719L31.7383-1.36719Q28.2715-1.36719 28.2715-4.98047L28.2715-50.2441L21.1914-45.5566L21.1914-3.22266Q21.1914 0.976562 23.584 3.32031Q25.9766 5.66406 30.2734 5.66406ZM9.76562-36.9629Q9.76562-35.5957 10.7666-34.5215Q11.7676-33.4473 13.5742-33.4473Q14.502-33.4473 15.2588-33.8867Q16.0156-34.3262 16.6992-34.8633L55.127-67.1387Q56.3965-68.2617 57.666-67.1387L96.0938-34.8633Q96.7773-34.3262 97.5586-33.8867Q98.3398-33.4473 99.2676-33.4473Q100.781-33.4473 101.88-34.3506Q102.979-35.2539 102.979-36.8164Q102.979-38.6719 101.66-39.7949L61.3281-73.6816Q59.0332-75.5859 56.3965-75.5859Q53.7598-75.5859 51.5137-73.6816L11.1328-39.7949Q9.76562-38.6719 9.76562-36.9629ZM80.7129-55.4688L91.2109-46.582L91.2109-64.3555Q91.2109-67.3828 88.1836-67.3828L83.7891-67.3828Q82.373-67.3828 81.543-66.5527Q80.7129-65.7227 80.7129-64.3555Z"/>
  </g>
  <g id="Light-S" transform="matrix(1 0 0 1 1098.5 696)">
   <path d="M43.7164 1.38016L65.5464 1.38016L65.5464-26.7189Q65.5464-29.4922 62.7884-29.4922L46.4745-29.4922Q45.2438-29.4922 44.4801-28.7453Q43.7164-27.9984 43.7164-26.7189ZM28.7445 4.80118L80.3764 4.80118Q84.3216 4.80118 86.4796 2.6619Q88.6375 0.522614 88.6375-3.35922L88.6375-45.5566L83.226-49.2752L83.226-4.69284Q83.226-0.62561 79.2259-0.62561L29.8615-0.62561Q25.9102-0.62561 25.9102-4.69284L25.9102-49.2455L20.4498-45.5566L20.4498-3.35922Q20.4498 0.537872 22.6154 2.66953Q24.781 4.80118 28.7445 4.80118ZM9.76562-37.735Q9.76562-36.6852 10.532-35.8685Q11.2984-35.0517 12.6808-35.0517Q13.3972-35.0517 13.9572-35.3775Q14.5172-35.7033 15.049-36.1198L53.2349-68.1984Q54.6707-69.4572 56.1218-68.1984L94.2474-36.1198Q94.7792-35.7033 95.356-35.3775Q95.9328-35.0517 96.6492-35.0517Q97.8294-35.0517 98.6633-35.7506Q99.4972-36.4494 99.4972-37.6335Q99.4972-39.0656 98.4207-39.9765L59.0576-73.0911Q57.0045-74.8138 54.686-74.8138Q52.3674-74.8138 50.3326-73.0911L10.8757-39.9765Q9.76562-39.0656 9.76562-37.735ZM79.7745-53.9398L88.6375-46.431L88.6375-64.0831Q88.6375-66.5802 86.1404-66.5802L82.3059-66.5802Q81.147-66.5802 80.4607-65.8939Q79.7745-65.2077 79.7745-64.0831Z"/>
  </g>
  <g id="Thin-S" transform="matrix(1 0 0 1 804.093 696)">
   <path d="M41.7343 1.72043L62.9242 1.72043L62.9242-27.1194Q62.9242-29.4922 60.5858-29.4922L44.0727-29.4922Q43.0214-29.4922 42.3779-28.8555Q41.7343-28.2188 41.7343-27.1194ZM26.7227 3.66058L77.9945 3.66058Q81.5392 3.66058 83.387 1.79138Q85.2348-0.0778198 85.2348-3.53928L85.2348-45.5566L81.9649-47.9942L81.9649-4.3129Q81.9649 0.35553 77.3247 0.35553L27.3788 0.35553Q22.7875 0.35553 22.7875-4.3129L22.7875-47.924L19.4687-45.5566L19.4687-3.53928Q19.4687-0.0427246 21.3341 1.80893Q23.1995 3.66058 26.7227 3.66058ZM9.76562-38.7558Q9.76562-38.1271 10.2219-37.6503Q10.6781-37.1735 11.4998-37.1735Q11.9354-37.1735 12.2353-37.3493Q12.5351-37.5252 12.867-37.7808L50.7324-69.5992Q52.3888-71.0388 54.0802-69.5992L91.8045-37.7808Q92.1371-37.5252 92.4438-37.3493Q92.7505-37.1735 93.1854-37.1735Q93.9262-37.1735 94.4096-37.6022Q94.8929-38.031 94.8929-38.7146Q94.8929-39.5859 94.1368-40.2168L56.0547-72.3106Q54.3228-73.793 52.4242-73.793Q50.5257-73.793 48.7717-72.3106L10.5354-40.2168Q9.76562-39.5859 9.76562-38.7558ZM78.5332-51.918L85.2348-46.2303L85.2348-63.723Q85.2348-65.5197 83.4373-65.5197L80.3436-65.5197Q79.5258-65.5197 79.0295-65.0234Q78.5332-64.5271 78.5332-63.723Z"/>
  </g>
  <g id="Ultralight-S" transform="matrix(1 0 0 1 508.561 696)">
   <path d="M40.7196 1.89514L61.5807 1.89514L61.5807-27.3239Q61.5807-29.4922 59.4582-29.4922L42.8421-29.4922Q41.8831-29.4922 41.3013-28.912Q40.7196-28.3318 40.7196-27.3239ZM25.6874 3.07541L76.7738 3.07541Q80.114 3.07541 81.8027 1.34468Q83.4915-0.386047 83.4915-3.63159L83.4915-45.5566L81.3187-47.3381L81.3187-4.11758Q81.3187 0.857544 76.3504 0.857544L26.1078 0.857544Q21.1876 0.857544 21.1876-4.11758L21.1876-47.2473L18.9667-45.5566L18.9667-3.63159Q18.9667-0.340271 20.6779 1.36757Q22.3892 3.07541 25.6874 3.07541ZM9.76562-39.2784Q9.76562-38.8649 10.0628-38.5628Q10.36-38.2607 10.8948-38.2607Q11.187-38.2607 11.3537-38.3595Q11.5204-38.4583 11.7493-38.6322L49.4507-70.3171Q51.2199-71.8491 53.0342-70.3171L90.554-38.6322Q90.7829-38.4583 90.9512-38.3595Q91.1194-38.2607 91.4116-38.2607Q91.9266-38.2607 92.2306-38.5509Q92.5346-38.8412 92.5346-39.2685Q92.5346-39.8529 91.9426-40.3397L54.5166-71.9109Q52.948-73.2704 51.265-73.2704Q49.5819-73.2704 47.9713-71.9109L10.3607-40.3397Q9.76562-39.8529 9.76562-39.2784ZM77.8976-50.8827L83.4915-46.1281L83.4915-63.5384Q83.4915-64.9757 82.0534-64.9757L79.3388-64.9757Q78.6949-64.9757 78.2963-64.5771Q77.8976-64.1785 77.8976-63.5384Z"/>
  </g>
 </g>
</svg>
