<?xml version="1.0" encoding="UTF-8"?>
<!--Generator: Apple Native CoreSVG 149-->
<!DOCTYPE svg
PUBLIC "-//W3C//DTD SVG 1.1//EN"
       "http://www.w3.org/Graphics/SVG/1.1/DTD/svg11.dtd">
<svg version="1.1" xmlns="http://www.w3.org/2000/svg" xmlns:xlink="http://www.w3.org/1999/xlink" width="3300" height="2200">
 <!--glyph: "uni1000DC.medium", point size: 100.0, font version: "17.0d8e1", template writer version: "58"-->
 <style>.multicolor-0:systemGreenColor {fill:#28CD41;opacity:1.0}

.hierarchical-0:secondary {fill:#4D4D4D}
.hierarchical-1:primary {fill:#212121}

.SFSymbolsPreview28CD41 {fill:#28CD41;opacity:1.0}
</style>
 <g id="Notes">
  <rect height="2200" id="artboard" style="fill:white;opacity:1" width="3300" x="0" y="0"/>
  <line style="fill:none;stroke:black;opacity:1;stroke-width:0.5;" x1="263" x2="3036" y1="292" y2="292"/>
  <text style="stroke:none;fill:black;font-family:SF Pro,SF Pro Display,SF Pro Text,sans-serif;font-size:13;font-weight:bold;" transform="matrix(1 0 0 1 263 322)">Weight/Scale Variations</text>
  <text style="stroke:none;fill:black;font-family:SF Pro,SF Pro Display,SF Pro Text,sans-serif;font-size:13;text-anchor:middle;" transform="matrix(1 0 0 1 559.711 322)">Ultralight</text>
  <text style="stroke:none;fill:black;font-family:SF Pro,SF Pro Display,SF Pro Text,sans-serif;font-size:13;text-anchor:middle;" transform="matrix(1 0 0 1 856.422 322)">Thin</text>
  <text style="stroke:none;fill:black;font-family:SF Pro,SF Pro Display,SF Pro Text,sans-serif;font-size:13;text-anchor:middle;" transform="matrix(1 0 0 1 1153.13 322)">Light</text>
  <text style="stroke:none;fill:black;font-family:SF Pro,SF Pro Display,SF Pro Text,sans-serif;font-size:13;text-anchor:middle;" transform="matrix(1 0 0 1 1449.84 322)">Regular</text>
  <text style="stroke:none;fill:black;font-family:SF Pro,SF Pro Display,SF Pro Text,sans-serif;font-size:13;text-anchor:middle;" transform="matrix(1 0 0 1 1746.56 322)">Medium</text>
  <text style="stroke:none;fill:black;font-family:SF Pro,SF Pro Display,SF Pro Text,sans-serif;font-size:13;text-anchor:middle;" transform="matrix(1 0 0 1 2043.27 322)">Semibold</text>
  <text style="stroke:none;fill:black;font-family:SF Pro,SF Pro Display,SF Pro Text,sans-serif;font-size:13;text-anchor:middle;" transform="matrix(1 0 0 1 2339.98 322)">Bold</text>
  <text style="stroke:none;fill:black;font-family:SF Pro,SF Pro Display,SF Pro Text,sans-serif;font-size:13;text-anchor:middle;" transform="matrix(1 0 0 1 2636.69 322)">Heavy</text>
  <text style="stroke:none;fill:black;font-family:SF Pro,SF Pro Display,SF Pro Text,sans-serif;font-size:13;text-anchor:middle;" transform="matrix(1 0 0 1 2933.4 322)">Black</text>
  <line style="fill:none;stroke:black;opacity:1;stroke-width:0.5;" x1="263" x2="3036" y1="1903" y2="1903"/>
  <g transform="matrix(1 0 0 1 263 1933)">
   <path d="M9.24805 0.830078Q10.8691 0.830078 12.2949 0.214844Q13.7207-0.400391 14.8096-1.49414Q15.8984-2.58789 16.5186-4.01367Q17.1387-5.43945 17.1387-7.05078Q17.1387-8.66211 16.5186-10.0879Q15.8984-11.5137 14.8047-12.6074Q13.7109-13.7012 12.2852-14.3164Q10.8594-14.9316 9.23828-14.9316Q7.62695-14.9316 6.20117-14.3164Q4.77539-13.7012 3.69141-12.6074Q2.60742-11.5137 1.9873-10.0879Q1.36719-8.66211 1.36719-7.05078Q1.36719-5.43945 1.9873-4.01367Q2.60742-2.58789 3.69629-1.49414Q4.78516-0.400391 6.21094 0.214844Q7.63672 0.830078 9.24805 0.830078ZM9.24805-0.654297Q7.91992-0.654297 6.7627-1.14746Q5.60547-1.64062 4.73145-2.51953Q3.85742-3.39844 3.36426-4.56055Q2.87109-5.72266 2.87109-7.05078Q2.87109-8.37891 3.35938-9.54102Q3.84766-10.7031 4.72168-11.582Q5.5957-12.4609 6.75293-12.9541Q7.91016-13.4473 9.23828-13.4473Q10.5762-13.4473 11.7334-12.9541Q12.8906-12.4609 13.7695-11.582Q14.6484-10.7031 15.1465-9.54102Q15.6445-8.37891 15.6445-7.05078Q15.6445-5.72266 15.1514-4.56055Q14.6582-3.39844 13.7842-2.51953Q12.9102-1.64062 11.748-1.14746Q10.5859-0.654297 9.24805-0.654297ZM5.83984-7.04102Q5.83984-6.71875 6.04492-6.51855Q6.25-6.31836 6.5918-6.31836L8.50586-6.31836L8.50586-4.39453Q8.50586-4.0625 8.70605-3.85742Q8.90625-3.65234 9.22852-3.65234Q9.56055-3.65234 9.76562-3.85742Q9.9707-4.0625 9.9707-4.39453L9.9707-6.31836L11.8945-6.31836Q12.2266-6.31836 12.4316-6.51855Q12.6367-6.71875 12.6367-7.04102Q12.6367-7.37305 12.4316-7.57812Q12.2266-7.7832 11.8945-7.7832L9.9707-7.7832L9.9707-9.69727Q9.9707-10.0391 9.76562-10.2441Q9.56055-10.4492 9.22852-10.4492Q8.90625-10.4492 8.70605-10.2441Q8.50586-10.0391 8.50586-9.69727L8.50586-7.7832L6.5918-7.7832Q6.25-7.7832 6.04492-7.57812Q5.83984-7.37305 5.83984-7.04102Z"/>
  </g>
  <g transform="matrix(1 0 0 1 281.867 1933)">
   <path d="M11.709 2.91016Q13.75 2.91016 15.5518 2.12891Q17.3535 1.34766 18.7305-0.0292969Q20.1074-1.40625 20.8887-3.20801Q21.6699-5.00977 21.6699-7.05078Q21.6699-9.0918 20.8887-10.8936Q20.1074-12.6953 18.7305-14.0723Q17.3535-15.4492 15.5469-16.2305Q13.7402-17.0117 11.6992-17.0117Q9.6582-17.0117 7.85645-16.2305Q6.05469-15.4492 4.68262-14.0723Q3.31055-12.6953 2.5293-10.8936Q1.74805-9.0918 1.74805-7.05078Q1.74805-5.00977 2.5293-3.20801Q3.31055-1.40625 4.6875-0.0292969Q6.06445 1.34766 7.86621 2.12891Q9.66797 2.91016 11.709 2.91016ZM11.709 1.25Q9.98047 1.25 8.47656 0.605469Q6.97266-0.0390625 5.83496-1.17676Q4.69727-2.31445 4.05762-3.81836Q3.41797-5.32227 3.41797-7.05078Q3.41797-8.7793 4.05762-10.2832Q4.69727-11.7871 5.83008-12.9297Q6.96289-14.0723 8.4668-14.7119Q9.9707-15.3516 11.6992-15.3516Q13.4277-15.3516 14.9316-14.7119Q16.4355-14.0723 17.5781-12.9297Q18.7207-11.7871 19.3652-10.2832Q20.0098-8.7793 20.0098-7.05078Q20.0098-5.32227 19.3701-3.81836Q18.7305-2.31445 17.5928-1.17676Q16.4551-0.0390625 14.9463 0.605469Q13.4375 1.25 11.709 1.25ZM7.39258-7.04102Q7.39258-6.68945 7.62695-6.46484Q7.86133-6.24023 8.23242-6.24023L10.8789-6.24023L10.8789-3.57422Q10.8789-3.21289 11.1035-2.9834Q11.3281-2.75391 11.6797-2.75391Q12.0508-2.75391 12.2852-2.9834Q12.5195-3.21289 12.5195-3.57422L12.5195-6.24023L15.1758-6.24023Q15.5371-6.24023 15.7715-6.46484Q16.0059-6.68945 16.0059-7.04102Q16.0059-7.41211 15.7715-7.6416Q15.5371-7.87109 15.1758-7.87109L12.5195-7.87109L12.5195-10.5176Q12.5195-10.8984 12.2852-11.1279Q12.0508-11.3574 11.6797-11.3574Q11.3281-11.3574 11.1035-11.1279Q10.8789-10.8984 10.8789-10.5176L10.8789-7.87109L8.23242-7.87109Q7.85156-7.87109 7.62207-7.6416Q7.39258-7.41211 7.39258-7.04102Z"/>
  </g>
  <g transform="matrix(1 0 0 1 305.646 1933)">
   <path d="M14.9707 5.66406Q17.0605 5.66406 18.96 5.01465Q20.8594 4.36523 22.4512 3.19336Q24.043 2.02148 25.2197 0.429688Q26.3965-1.16211 27.0459-3.06641Q27.6953-4.9707 27.6953-7.05078Q27.6953-9.14062 27.0459-11.04Q26.3965-12.9395 25.2197-14.5312Q24.043-16.123 22.4512-17.2998Q20.8594-18.4766 18.9551-19.126Q17.0508-19.7754 14.9609-19.7754Q12.8711-19.7754 10.9717-19.126Q9.07227-18.4766 7.48535-17.2998Q5.89844-16.123 4.72168-14.5312Q3.54492-12.9395 2.90039-11.04Q2.25586-9.14062 2.25586-7.05078Q2.25586-4.9707 2.90527-3.06641Q3.55469-1.16211 4.72656 0.429688Q5.89844 2.02148 7.49023 3.19336Q9.08203 4.36523 10.9814 5.01465Q12.8809 5.66406 14.9707 5.66406ZM14.9707 3.84766Q13.1641 3.84766 11.5283 3.2959Q9.89258 2.74414 8.53516 1.74805Q7.17773 0.751953 6.17676-0.610352Q5.17578-1.97266 4.62891-3.6084Q4.08203-5.24414 4.08203-7.05078Q4.08203-8.86719 4.62891-10.5029Q5.17578-12.1387 6.17188-13.501Q7.16797-14.8633 8.52539-15.8594Q9.88281-16.8555 11.5186-17.4023Q13.1543-17.9492 14.9609-17.9492Q16.7773-17.9492 18.4131-17.4023Q20.0488-16.8555 21.4111-15.8594Q22.7734-14.8633 23.7695-13.501Q24.7656-12.1387 25.3174-10.5029Q25.8691-8.86719 25.8691-7.05078Q25.8789-5.24414 25.332-3.6084Q24.7852-1.97266 23.7842-0.610352Q22.7832 0.751953 21.4209 1.74805Q20.0586 2.74414 18.4229 3.2959Q16.7871 3.84766 14.9707 3.84766ZM9.45312-7.04102Q9.45312-6.66016 9.71191-6.41113Q9.9707-6.16211 10.3711-6.16211L14.0625-6.16211L14.0625-2.46094Q14.0625-2.06055 14.3115-1.80664Q14.5605-1.55273 14.9414-1.55273Q15.3516-1.55273 15.6055-1.80664Q15.8594-2.06055 15.8594-2.46094L15.8594-6.16211L19.5605-6.16211Q19.9609-6.16211 20.2148-6.41113Q20.4688-6.66016 20.4688-7.04102Q20.4688-7.45117 20.2148-7.70508Q19.9609-7.95898 19.5605-7.95898L15.8594-7.95898L15.8594-11.6504Q15.8594-12.0605 15.6055-12.3145Q15.3516-12.5684 14.9414-12.5684Q14.5605-12.5684 14.3115-12.3096Q14.0625-12.0508 14.0625-11.6504L14.0625-7.95898L10.3711-7.95898Q9.96094-7.95898 9.70703-7.70508Q9.45312-7.45117 9.45312-7.04102Z"/>
  </g>
  <text style="stroke:none;fill:black;font-family:SF Pro,SF Pro Display,SF Pro Text,sans-serif;font-size:13;font-weight:bold;" transform="matrix(1 0 0 1 263 1953)">Design Variations</text>
  <text style="stroke:none;fill:black;font-family:SF Pro,SF Pro Display,SF Pro Text,sans-serif;font-size:13;" transform="matrix(1 0 0 1 263 1971)">Symbols are supported in up to nine weights and three scales.</text>
  <text style="stroke:none;fill:black;font-family:SF Pro,SF Pro Display,SF Pro Text,sans-serif;font-size:13;" transform="matrix(1 0 0 1 263 1989)">For optimal layout with text and other symbols, vertically align</text>
  <text style="stroke:none;fill:black;font-family:SF Pro,SF Pro Display,SF Pro Text,sans-serif;font-size:13;" transform="matrix(1 0 0 1 263 2007)">symbols with the adjacent text.</text>
  <line style="fill:none;stroke:#00AEEF;stroke-width:0.5;opacity:1.0;" x1="776" x2="776" y1="1919" y2="1933"/>
  <g transform="matrix(1 0 0 1 776 1933)">
   <path d="M3.31055 0.15625Q3.70117 0.15625 3.91602-0.00976562Q4.13086-0.175781 4.26758-0.585938L5.52734-4.0332L11.2891-4.0332L12.5488-0.585938Q12.6855-0.175781 12.9004-0.00976562Q13.1152 0.15625 13.4961 0.15625Q13.8867 0.15625 14.1162-0.0585938Q14.3457-0.273438 14.3457-0.644531Q14.3457-0.869141 14.2383-1.17188L9.6582-13.3691Q9.48242-13.8184 9.17969-14.043Q8.87695-14.2676 8.4082-14.2676Q7.5-14.2676 7.17773-13.3789L2.59766-1.16211Q2.49023-0.859375 2.49023-0.634766Q2.49023-0.263672 2.70996-0.0537109Q2.92969 0.15625 3.31055 0.15625ZM6.00586-5.51758L8.37891-12.0898L8.42773-12.0898L10.8008-5.51758Z"/>
  </g>
  <line style="fill:none;stroke:#00AEEF;stroke-width:0.5;opacity:1.0;" x1="793.197" x2="793.197" y1="1919" y2="1933"/>
  <text style="stroke:none;fill:black;font-family:SF Pro,SF Pro Display,SF Pro Text,sans-serif;font-size:13;font-weight:bold;" transform="matrix(1 0 0 1 776 1953)">Margins</text>
  <text style="stroke:none;fill:black;font-family:SF Pro,SF Pro Display,SF Pro Text,sans-serif;font-size:13;" transform="matrix(1 0 0 1 776 1971)">Leading and trailing margins on the left and right side of each symbol</text>
  <text style="stroke:none;fill:black;font-family:SF Pro,SF Pro Display,SF Pro Text,sans-serif;font-size:13;" transform="matrix(1 0 0 1 776 1989)">can be adjusted by modifying the x-location of the margin guidelines.</text>
  <text style="stroke:none;fill:black;font-family:SF Pro,SF Pro Display,SF Pro Text,sans-serif;font-size:13;" transform="matrix(1 0 0 1 776 2007)">Modifications are automatically applied proportionally to all</text>
  <text style="stroke:none;fill:black;font-family:SF Pro,SF Pro Display,SF Pro Text,sans-serif;font-size:13;" transform="matrix(1 0 0 1 776 2025)">scales and weights.</text>
  <g transform="matrix(1 0 0 1 1289 1933)">
   <path d="M2.8418 1.86523L4.54102 3.57422Q5.18555 4.22852 5.90332 4.17969Q6.62109 4.13086 7.31445 3.35938L18.0078-8.42773L17.041-9.4043L6.42578 2.27539Q6.16211 2.57812 5.89355 2.61719Q5.625 2.65625 5.27344 2.30469L4.10156 1.14258Q3.75 0.791016 3.79395 0.522461Q3.83789 0.253906 4.14062-0.0195312L15.6152-10.8203L14.6387-11.7871L3.04688-0.898438Q2.30469-0.214844 2.25098 0.498047Q2.19727 1.21094 2.8418 1.86523ZM9.25781-16.3281Q8.94531-16.0254 8.90625-15.6348Q8.86719-15.2441 9.04297-14.9512Q9.21875-14.6777 9.55566-14.541Q9.89258-14.4043 10.3809-14.5215Q11.4746-14.7754 12.5977-14.7314Q13.7207-14.6875 14.7949-13.9844L14.209-12.5293Q13.9551-11.9043 14.0674-11.4404Q14.1797-10.9766 14.5801-10.5664L16.875-8.25195Q17.2363-7.88086 17.5781-7.82227Q17.9199-7.76367 18.3398-7.8418L19.4043-8.03711L20.0684-7.36328L20.0293-6.80664Q20-6.43555 20.1221-6.12305Q20.2441-5.81055 20.6055-5.44922L21.3672-4.70703Q21.7285-4.3457 22.1533-4.33105Q22.5781-4.31641 22.9297-4.66797L25.8398-7.58789Q26.1914-7.93945 26.1816-8.35449Q26.1719-8.76953 25.8105-9.13086L25.0391-9.89258Q24.6875-10.2539 24.3799-10.3857Q24.0723-10.5176 23.7109-10.4883L23.1348-10.4395L22.4902-11.0742L22.7344-12.1973Q22.832-12.6172 22.6953-12.9834Q22.5586-13.3496 22.1191-13.7891L19.9219-15.9766Q18.6719-17.2168 17.2607-17.8369Q15.8496-18.457 14.4189-18.4814Q12.9883-18.5059 11.665-17.959Q10.3418-17.4121 9.25781-16.3281ZM10.752-15.957Q11.6602-16.6211 12.7002-16.9043Q13.7402-17.1875 14.8047-17.085Q15.8691-16.9824 16.8701-16.5137Q17.8711-16.0449 18.7012-15.2051L21.1328-12.793Q21.3086-12.6172 21.3525-12.4512Q21.3965-12.2852 21.3379-12.0312L21.0156-10.5469L22.5195-9.0625L23.5059-9.12109Q23.6914-9.13086 23.7891-9.09668Q23.8867-9.0625 24.0332-8.91602L24.6094-8.33984L22.168-5.89844L21.5918-6.47461Q21.4453-6.62109 21.4062-6.71875Q21.3672-6.81641 21.377-7.01172L21.4453-7.98828L19.9512-9.47266L18.4277-9.21875Q18.1836-9.16992 18.042-9.2041Q17.9004-9.23828 17.7148-9.41406L15.7129-11.416Q15.5176-11.5918 15.4932-11.7529Q15.4688-11.9141 15.5859-12.1875L16.4648-14.2773Q15.293-15.3711 13.8281-15.791Q12.3633-16.2109 10.8398-15.7617Q10.7227-15.7324 10.6885-15.8057Q10.6543-15.8789 10.752-15.957Z"/>
  </g>
  <text style="stroke:none;fill:black;font-family:SF Pro,SF Pro Display,SF Pro Text,sans-serif;font-size:13;font-weight:bold;" transform="matrix(1 0 0 1 1289 1953)">Exporting</text>
  <text style="stroke:none;fill:black;font-family:SF Pro,SF Pro Display,SF Pro Text,sans-serif;font-size:13;" transform="matrix(1 0 0 1 1289 1971)">Symbols should be outlined when exporting to ensure the</text>
  <text style="stroke:none;fill:black;font-family:SF Pro,SF Pro Display,SF Pro Text,sans-serif;font-size:13;" transform="matrix(1 0 0 1 1289 1989)">design is preserved when submitting to Xcode.</text>
  <text id="template-version" style="stroke:none;fill:black;font-family:SF Pro,SF Pro Display,SF Pro Text,sans-serif;font-size:13;text-anchor:end;" transform="matrix(1 0 0 1 3036 1933)">Template v.3.0</text>
  <text style="stroke:none;fill:black;font-family:SF Pro,SF Pro Display,SF Pro Text,sans-serif;font-size:13;text-anchor:end;" transform="matrix(1 0 0 1 3036 1951)">Requires Xcode 13 or greater</text>
  <text id="descriptive-name" style="stroke:none;fill:black;font-family:SF Pro,SF Pro Display,SF Pro Text,sans-serif;font-size:13;text-anchor:end;" transform="matrix(1 0 0 1 3036 1969)">Generated from plus.square</text>
  <text style="stroke:none;fill:black;font-family:SF Pro,SF Pro Display,SF Pro Text,sans-serif;font-size:13;text-anchor:end;" transform="matrix(1 0 0 1 3036 1987)">Typeset at 100 points</text>
  <text style="stroke:none;fill:black;font-family:SF Pro,SF Pro Display,SF Pro Text,sans-serif;font-size:13;" transform="matrix(1 0 0 1 263 726)">Small</text>
  <text style="stroke:none;fill:black;font-family:SF Pro,SF Pro Display,SF Pro Text,sans-serif;font-size:13;" transform="matrix(1 0 0 1 263 1156)">Medium</text>
  <text style="stroke:none;fill:black;font-family:SF Pro,SF Pro Display,SF Pro Text,sans-serif;font-size:13;" transform="matrix(1 0 0 1 263 1586)">Large</text>
 </g>
 <g id="Guides">
  <g id="H-reference" style="fill:#27AAE1;stroke:none;" transform="matrix(1 0 0 1 339 696)">
   <path d="M0.993347 0L3.6377 0L29.3282-67.1326L30.0301-67.1326L30.0301-70.459L28.1227-70.459ZM11.6882-24.4797L46.9818-24.4797L46.2311-26.7288L12.4382-26.7288ZM55.1193 0L57.7637 0L30.6381-70.459L29.4327-70.459L29.4327-67.1326Z"/>
  </g>
  <line id="Baseline-S" style="fill:none;stroke:#27AAE1;opacity:1;stroke-width:0.5;" x1="263" x2="3036" y1="696" y2="696"/>
  <line id="Capline-S" style="fill:none;stroke:#27AAE1;opacity:1;stroke-width:0.5;" x1="263" x2="3036" y1="625.541" y2="625.541"/>
  <g id="H-reference" style="fill:#27AAE1;stroke:none;" transform="matrix(1 0 0 1 339 1126)">
   <path d="M0.993347 0L3.6377 0L29.3282-67.1326L30.0301-67.1326L30.0301-70.459L28.1227-70.459ZM11.6882-24.4797L46.9818-24.4797L46.2311-26.7288L12.4382-26.7288ZM55.1193 0L57.7637 0L30.6381-70.459L29.4327-70.459L29.4327-67.1326Z"/>
  </g>
  <line id="Baseline-M" style="fill:none;stroke:#27AAE1;opacity:1;stroke-width:0.5;" x1="263" x2="3036" y1="1126" y2="1126"/>
  <line id="Capline-M" style="fill:none;stroke:#27AAE1;opacity:1;stroke-width:0.5;" x1="263" x2="3036" y1="1055.54" y2="1055.54"/>
  <g id="H-reference" style="fill:#27AAE1;stroke:none;" transform="matrix(1 0 0 1 339 1556)">
   <path d="M0.993347 0L3.6377 0L29.3282-67.1326L30.0301-67.1326L30.0301-70.459L28.1227-70.459ZM11.6882-24.4797L46.9818-24.4797L46.2311-26.7288L12.4382-26.7288ZM55.1193 0L57.7637 0L30.6381-70.459L29.4327-70.459L29.4327-67.1326Z"/>
  </g>
  <line id="Baseline-L" style="fill:none;stroke:#27AAE1;opacity:1;stroke-width:0.5;" x1="263" x2="3036" y1="1556" y2="1556"/>
  <line id="Capline-L" style="fill:none;stroke:#27AAE1;opacity:1;stroke-width:0.5;" x1="263" x2="3036" y1="1485.54" y2="1485.54"/>
  <line id="left-margin-Regular-M" style="fill:none;stroke:#00AEEF;stroke-width:0.5;opacity:1.0;" x1="1392.45" x2="1392.45" y1="1030.79" y2="1150.12"/>
  <line id="right-margin-Regular-M" style="fill:none;stroke:#00AEEF;stroke-width:0.5;opacity:1.0;" x1="1507.24" x2="1507.24" y1="1030.79" y2="1150.12"/>
 </g>
 <g id="Symbols">
  <g id="Black-L" transform="matrix(1 0 0 1 2855.62 1556)">
   <path class="multicolor-0:systemGreenColor hierarchical-0:secondary SFSymbolsPreview28CD41" d="M39.9902 26.5137L115.576 26.5137Q127.002 26.5137 133.252 20.3125Q139.502 14.1113 139.502 2.68555L139.502-73.0957Q139.502-84.4727 133.252-90.6738Q127.002-96.875 115.576-96.875L39.9902-96.875Q28.5645-96.875 22.3145-90.6738Q16.0645-84.4727 16.0645-73.0957L16.0645 2.68555Q16.0645 14.1113 22.3145 20.3125Q28.5645 26.5137 39.9902 26.5137ZM42.6758 6.29883Q39.5508 6.29883 37.9395 4.78516Q36.3281 3.27148 36.3281-0.146484L36.3281-70.2148Q36.3281-73.6328 37.9395-75.1465Q39.5508-76.6602 42.6758-76.6602L112.842-76.6602Q116.016-76.6602 117.627-75.1465Q119.238-73.6328 119.238-70.2148L119.238-0.146484Q119.238 3.27148 117.627 4.78516Q116.016 6.29883 112.842 6.29883Z"/>
   <path class="multicolor-0:systemGreenColor hierarchical-1:primary SFSymbolsPreview28CD41" d="M51.0742-35.2539Q51.0742-31.7383 53.3447-29.4189Q55.6152-27.0996 59.082-27.0996L69.5801-27.0996L69.5801-16.5527Q69.5801-13.0859 71.9238-10.8154Q74.2676-8.54492 77.7832-8.54492Q81.2988-8.54492 83.6426-10.8154Q85.9863-13.0859 85.9863-16.5527L85.9863-27.0996L96.5332-27.0996Q100-27.0996 102.271-29.4189Q104.541-31.7383 104.541-35.2539Q104.541-38.8184 102.271-41.1621Q100-43.5059 96.5332-43.5059L85.9863-43.5059L85.9863-54.0039Q85.9863-57.4707 83.6426-59.7412Q81.2988-62.0117 77.7832-62.0117Q74.2676-62.0117 71.9238-59.7412Q69.5801-57.4707 69.5801-54.0039L69.5801-43.5059L59.082-43.5059Q55.6152-43.5059 53.3447-41.1621Q51.0742-38.8184 51.0742-35.2539Z"/>
  </g>
  <g id="Heavy-L" transform="matrix(1 0 0 1 2559.93 1556)">
   <path class="multicolor-0:systemGreenColor hierarchical-0:secondary SFSymbolsPreview28CD41" d="M38.8184 25.4883L114.697 25.4883Q125.684 25.4883 131.567 19.6289Q137.451 13.7695 137.451 2.88086L137.451-73.2422Q137.451-84.1309 131.567-89.9902Q125.684-95.8496 114.697-95.8496L38.8184-95.8496Q27.8809-95.8496 21.9727-89.9902Q16.0645-84.1309 16.0645-73.2422L16.0645 2.88086Q16.0645 13.8184 21.9727 19.6533Q27.8809 25.4883 38.8184 25.4883ZM40.918 8.00781Q37.3047 8.00781 35.4492 6.22559Q33.5938 4.44336 33.5938 0.585938L33.5938-70.9473Q33.5938-74.8047 35.4492-76.5869Q37.3047-78.3691 40.918-78.3691L112.549-78.3691Q116.162-78.3691 118.042-76.5869Q119.922-74.8047 119.922-70.9473L119.922 0.585938Q119.922 4.44336 118.042 6.22559Q116.162 8.00781 112.549 8.00781Z"/>
   <path class="multicolor-0:systemGreenColor hierarchical-1:primary SFSymbolsPreview28CD41" d="M49.8535-35.2539Q49.8535-32.1289 51.9043-30.0537Q53.9551-27.9785 57.0312-27.9785L69.4336-27.9785L69.4336-15.5762Q69.4336-12.4512 71.5088-10.4004Q73.584-8.34961 76.7578-8.34961Q79.8828-8.34961 81.9824-10.4004Q84.082-12.4512 84.082-15.5762L84.082-27.9785L96.5332-27.9785Q99.6094-27.9785 101.66-30.0537Q103.711-32.1289 103.711-35.2539Q103.711-38.4766 101.66-40.5518Q99.6094-42.627 96.5332-42.627L84.082-42.627L84.082-55.0293Q84.082-58.1543 81.9824-60.1807Q79.8828-62.207 76.7578-62.207Q73.584-62.207 71.5088-60.1807Q69.4336-58.1543 69.4336-55.0293L69.4336-42.627L57.0312-42.627Q53.9062-42.627 51.8799-40.5518Q49.8535-38.4766 49.8535-35.2539Z"/>
  </g>
  <g id="Bold-L" transform="matrix(1 0 0 1 2264.36 1556)">
   <path class="multicolor-0:systemGreenColor hierarchical-0:secondary SFSymbolsPreview28CD41" d="M37.5488 24.3652L113.721 24.3652Q124.17 24.3652 129.688 18.8965Q135.205 13.4277 135.205 3.07617L135.205-73.4375Q135.205-83.7891 129.688-89.2578Q124.17-94.7266 113.721-94.7266L37.5488-94.7266Q27.0996-94.7266 21.582-89.2578Q16.0645-83.7891 16.0645-73.4375L16.0645 3.07617Q16.0645 13.4766 21.582 18.9209Q27.0996 24.3652 37.5488 24.3652ZM38.9648 9.96094Q34.8633 9.96094 32.6904 7.86133Q30.5176 5.76172 30.5176 1.41602L30.5176-71.7773Q30.5176-76.0742 32.6904-78.1738Q34.8633-80.2734 38.9648-80.2734L112.256-80.2734Q116.357-80.2734 118.555-78.1738Q120.752-76.0742 120.752-71.7773L120.752 1.41602Q120.752 5.76172 118.555 7.86133Q116.357 9.96094 112.256 9.96094Z"/>
   <path class="multicolor-0:systemGreenColor hierarchical-1:primary SFSymbolsPreview28CD41" d="M48.5352-35.2051Q48.5352-32.5195 50.3174-30.7373Q52.0996-28.9551 54.834-28.9551L69.3359-28.9551L69.3359-14.4043Q69.3359-11.6699 71.1182-9.91211Q72.9004-8.1543 75.6348-8.1543Q78.418-8.1543 80.2246-9.91211Q82.0312-11.6699 82.0312-14.4043L82.0312-28.9551L96.5332-28.9551Q99.2676-28.9551 101.05-30.7373Q102.832-32.5195 102.832-35.2051Q102.832-38.0371 101.05-39.8438Q99.2676-41.6504 96.5332-41.6504L82.0312-41.6504L82.0312-56.1035Q82.0312-58.8867 80.2246-60.6445Q78.418-62.4023 75.6348-62.4023Q72.9004-62.4023 71.1182-60.6201Q69.3359-58.8379 69.3359-56.1035L69.3359-41.6504L54.834-41.6504Q52.0996-41.6504 50.3174-39.8438Q48.5352-38.0371 48.5352-35.2051Z"/>
  </g>
  <g id="Semibold-L" transform="matrix(1 0 0 1 1968.43 1556)">
   <path class="multicolor-0:systemGreenColor hierarchical-0:secondary SFSymbolsPreview28CD41" d="M36.6211 23.584L112.988 23.584Q123.145 23.584 128.369 18.3838Q133.594 13.1836 133.594 3.17383L133.594-73.5352Q133.594-83.4961 128.369-88.6963Q123.145-93.8965 112.988-93.8965L36.6211-93.8965Q26.5625-93.8965 21.3135-88.7207Q16.0645-83.5449 16.0645-73.5352L16.0645 3.17383Q16.0645 13.2324 21.3135 18.4082Q26.5625 23.584 36.6211 23.584ZM37.5977 11.2793Q33.1055 11.2793 30.7617 8.95996Q28.418 6.64062 28.418 2.00195L28.418-72.3145Q28.418-76.9531 30.7617-79.2725Q33.1055-81.5918 37.5977-81.5918L112.061-81.5918Q116.504-81.5918 118.896-79.2725Q121.289-76.9531 121.289-72.3145L121.289 2.00195Q121.289 6.64062 118.896 8.95996Q116.504 11.2793 112.061 11.2793Z"/>
   <path class="multicolor-0:systemGreenColor hierarchical-1:primary SFSymbolsPreview28CD41" d="M47.5586-35.2051Q47.5586-32.8125 49.1699-31.2256Q50.7812-29.6387 53.2227-29.6387L69.1406-29.6387L69.1406-13.623Q69.1406-11.1816 70.752-9.59473Q72.3633-8.00781 74.7559-8.00781Q77.2949-8.00781 78.9062-9.59473Q80.5176-11.1816 80.5176-13.623L80.5176-29.6387L96.4844-29.6387Q98.9258-29.6387 100.537-31.2256Q102.148-32.8125 102.148-35.2051Q102.148-37.7441 100.537-39.3555Q98.9258-40.9668 96.4844-40.9668L80.5176-40.9668L80.5176-56.8848Q80.5176-59.375 78.9062-60.9619Q77.2949-62.5488 74.7559-62.5488Q72.3633-62.5488 70.752-60.9619Q69.1406-59.375 69.1406-56.8848L69.1406-40.9668L53.2227-40.9668Q50.7324-40.9668 49.1455-39.3555Q47.5586-37.7441 47.5586-35.2051Z"/>
  </g>
  <g id="Medium-L" transform="matrix(1 0 0 1 1672.32 1556)">
   <path class="multicolor-0:systemGreenColor hierarchical-0:secondary SFSymbolsPreview28CD41" d="M35.9375 22.998L112.5 22.998Q122.363 22.998 127.393 17.9932Q132.422 12.9883 132.422 3.27148L132.422-73.6328Q132.422-83.3008 127.393-88.3057Q122.363-93.3105 112.5-93.3105L35.9375-93.3105Q26.1719-93.3105 21.1182-88.3301Q16.0645-83.3496 16.0645-73.6328L16.0645 3.27148Q16.0645 13.0371 21.1182 18.0176Q26.1719 22.998 35.9375 22.998ZM36.5723 12.2559Q31.8359 12.2559 29.3213 9.79004Q26.8066 7.32422 26.8066 2.39258L26.8066-72.7539Q26.8066-77.6367 29.3213-80.1025Q31.8359-82.5684 36.5723-82.5684L111.865-82.5684Q116.553-82.5684 119.116-80.1025Q121.68-77.6367 121.68-72.7539L121.68 2.39258Q121.68 7.32422 119.116 9.79004Q116.553 12.2559 111.865 12.2559Z"/>
   <path class="multicolor-0:systemGreenColor hierarchical-1:primary SFSymbolsPreview28CD41" d="M46.875-35.2051Q46.875-33.0078 48.3398-31.5674Q49.8047-30.127 52.0996-30.127L69.0918-30.127L69.0918-13.0371Q69.0918-10.791 70.5322-9.35059Q71.9727-7.91016 74.1699-7.91016Q76.5137-7.91016 77.9785-9.35059Q79.4434-10.791 79.4434-13.0371L79.4434-30.127L96.4844-30.127Q98.7793-30.127 100.22-31.5674Q101.66-33.0078 101.66-35.2051Q101.66-37.5488 100.22-38.9893Q98.7793-40.4297 96.4844-40.4297L79.4434-40.4297L79.4434-57.4707Q79.4434-59.7656 77.9785-61.2305Q76.5137-62.6953 74.1699-62.6953Q71.9727-62.6953 70.5322-61.2305Q69.0918-59.7656 69.0918-57.4707L69.0918-40.4297L52.0996-40.4297Q49.7559-40.4297 48.3154-38.9893Q46.875-37.5488 46.875-35.2051Z"/>
  </g>
  <g id="Regular-L" transform="matrix(1 0 0 1 1376.38 1556)">
   <path class="multicolor-0:systemGreenColor hierarchical-0:secondary SFSymbolsPreview28CD41" d="M35.0586 22.2168L111.816 22.2168Q121.338 22.2168 126.099 17.4805Q130.859 12.7441 130.859 3.41797L130.859-73.7305Q130.859-83.0566 126.099-87.793Q121.338-92.5293 111.816-92.5293L35.0586-92.5293Q25.6348-92.5293 20.8496-87.8174Q16.0645-83.1055 16.0645-73.7305L16.0645 3.41797Q16.0645 12.793 20.8496 17.5049Q25.6348 22.2168 35.0586 22.2168ZM35.2539 13.5742Q30.127 13.5742 27.417 10.8887Q24.707 8.20312 24.707 2.97852L24.707-73.291Q24.707-78.5156 27.417-81.2012Q30.127-83.8867 35.2539-83.8867L111.67-83.8867Q116.699-83.8867 119.458-81.2012Q122.217-78.5156 122.217-73.291L122.217 2.97852Q122.217 8.20312 119.458 10.8887Q116.699 13.5742 111.67 13.5742Z"/>
   <path class="multicolor-0:systemGreenColor hierarchical-1:primary SFSymbolsPreview28CD41" d="M45.9473-35.2051Q45.9473-33.3008 47.2412-32.0557Q48.5352-30.8105 50.5371-30.8105L68.9941-30.8105L68.9941-12.3047Q68.9941-10.3027 70.2393-9.0332Q71.4844-7.76367 73.3887-7.76367Q75.4395-7.76367 76.709-9.0332Q77.9785-10.3027 77.9785-12.3047L77.9785-30.8105L96.4844-30.8105Q98.4863-30.8105 99.7559-32.0557Q101.025-33.3008 101.025-35.2051Q101.025-37.2559 99.7559-38.5254Q98.4863-39.7949 96.4844-39.7949L77.9785-39.7949L77.9785-58.252Q77.9785-60.3027 76.709-61.5723Q75.4395-62.8418 73.3887-62.8418Q71.4844-62.8418 70.2393-61.5479Q68.9941-60.2539 68.9941-58.252L68.9941-39.7949L50.5371-39.7949Q48.4863-39.7949 47.2168-38.5254Q45.9473-37.2559 45.9473-35.2051Z"/>
  </g>
  <g id="Light-L" transform="matrix(1 0 0 1 1080.5 1556)">
   <path class="multicolor-0:systemGreenColor hierarchical-0:secondary SFSymbolsPreview28CD41" d="M34.0332 21.4355L111.182 21.4355Q120.117 21.4355 124.658 16.8945Q129.199 12.3535 129.199 3.56445L129.199-73.8281Q129.199-82.6172 124.658-87.1582Q120.117-91.6992 111.182-91.6992L34.0332-91.6992Q25.1465-91.6992 20.6055-87.207Q16.0645-82.7148 16.0645-73.8281L16.0645 3.56445Q16.0645 12.4023 20.6055 16.9189Q25.1465 21.4355 34.0332 21.4355ZM34.2285 14.7949Q28.5645 14.7949 25.6104 11.8652Q22.6562 8.93555 22.6562 3.22266L22.6562-73.4863Q22.6562-79.1992 25.6104-82.1289Q28.5645-85.0586 34.2285-85.0586L111.035-85.0586Q116.553-85.0586 119.556-82.1289Q122.559-79.1992 122.559-73.4863L122.559 3.22266Q122.559 8.93555 119.556 11.8652Q116.553 14.7949 111.035 14.7949Z"/>
   <path class="multicolor-0:systemGreenColor hierarchical-1:primary SFSymbolsPreview28CD41" d="M45.4102-35.2051Q45.4102-33.7891 46.4111-32.8125Q47.4121-31.8359 48.9258-31.8359L69.1895-31.8359L69.1895-11.5723Q69.1895-10.0586 70.166-9.08203Q71.1426-8.10547 72.5586-8.10547Q74.1211-8.10547 75.0977-9.05762Q76.0742-10.0098 76.0742-11.5723L76.0742-31.8359L96.3867-31.8359Q97.9004-31.8359 98.877-32.8125Q99.8535-33.7891 99.8535-35.2051Q99.8535-36.7676 98.877-37.7686Q97.9004-38.7695 96.3867-38.7695L76.0742-38.7695L76.0742-59.0332Q76.0742-60.5957 75.0977-61.5479Q74.1211-62.5 72.5586-62.5Q71.1426-62.5 70.166-61.5234Q69.1895-60.5469 69.1895-59.0332L69.1895-38.7695L48.9258-38.7695Q47.3633-38.7695 46.3867-37.7686Q45.4102-36.7676 45.4102-35.2051Z"/>
  </g>
  <g id="Thin-L" transform="matrix(1 0 0 1 784.894 1556)">
   <path class="multicolor-0:systemGreenColor hierarchical-0:secondary SFSymbolsPreview28CD41" d="M32.666 20.3613L110.352 20.3613Q118.506 20.3613 122.754 16.0889Q127.002 11.8164 127.002 3.75977L127.002-73.9746Q127.002-82.0312 122.754-86.3037Q118.506-90.5762 110.352-90.5762L32.666-90.5762Q24.5117-90.5762 20.2881-86.377Q16.0645-82.1777 16.0645-73.9746L16.0645 3.75977Q16.0645 11.9141 20.2881 16.1377Q24.5117 20.3613 32.666 20.3613ZM32.8125 16.4062Q26.5137 16.4062 23.2666 13.1592Q20.0195 9.91211 20.0195 3.56445L20.0195-73.7793Q20.0195-80.127 23.2666-83.374Q26.5137-86.6211 32.8125-86.6211L110.205-86.6211Q116.309-86.6211 119.678-83.374Q123.047-80.127 123.047-73.7793L123.047 3.56445Q123.047 9.91211 119.678 13.1592Q116.309 16.4062 110.205 16.4062Z"/>
   <path class="multicolor-0:systemGreenColor hierarchical-1:primary SFSymbolsPreview28CD41" d="M44.7754-35.2539Q44.7754-34.5215 45.3857-33.9111Q45.9961-33.3008 46.8262-33.3008L69.5312-33.3008L69.5312-10.5957Q69.5312-9.76562 70.1416-9.15527Q70.752-8.54492 71.5332-8.54492Q72.4121-8.54492 73.0225-9.13086Q73.6328-9.7168 73.6328-10.5957L73.6328-33.3008L96.3379-33.3008Q97.168-33.3008 97.7783-33.9111Q98.3887-34.5215 98.3887-35.2539Q98.3887-36.1816 97.8027-36.792Q97.2168-37.4023 96.3379-37.4023L73.6328-37.4023L73.6328-60.1074Q73.6328-60.9863 73.0225-61.5723Q72.4121-62.1582 71.5332-62.1582Q70.752-62.1582 70.1416-61.5479Q69.5312-60.9375 69.5312-60.1074L69.5312-37.4023L46.8262-37.4023Q45.9473-37.4023 45.3613-36.792Q44.7754-36.1816 44.7754-35.2539Z"/>
  </g>
  <g id="Ultralight-L" transform="matrix(1 0 0 1 488.747 1556)">
   <path class="multicolor-0:systemGreenColor hierarchical-0:secondary SFSymbolsPreview28CD41" d="M31.9824 19.8242L109.961 19.8242Q117.725 19.8242 121.802 15.6738Q125.879 11.5234 125.879 3.85742L125.879-74.0723Q125.879-81.7383 121.802-85.8643Q117.725-89.9902 109.961-89.9902L31.9824-89.9902Q24.1699-89.9902 20.1172-85.9375Q16.0645-81.8848 16.0645-74.0723L16.0645 3.85742Q16.0645 11.6699 20.1172 15.7471Q24.1699 19.8242 31.9824 19.8242ZM32.1289 17.2363Q25.4395 17.2363 22.0215 13.8184Q18.6035 10.4004 18.6035 3.75977L18.6035-73.9258Q18.6035-80.6152 22.0215-84.0332Q25.4395-87.4512 32.1289-87.4512L109.814-87.4512Q116.211-87.4512 119.751-84.0332Q123.291-80.6152 123.291-73.9258L123.291 3.75977Q123.291 10.4004 119.751 13.8184Q116.211 17.2363 109.814 17.2363Z"/>
   <path class="multicolor-0:systemGreenColor hierarchical-1:primary SFSymbolsPreview28CD41" d="M44.3848-35.2539Q44.3848-34.8633 44.7998-34.4238Q45.2148-33.9844 45.7031-33.9844L69.6777-33.9844L69.6777-10.1074Q69.6777-9.57031 70.0684-9.17969Q70.459-8.78906 70.8984-8.78906Q71.4844-8.78906 71.8994-9.15527Q72.3145-9.52148 72.3145-10.1074L72.3145-33.9844L96.2402-33.9844Q96.7285-33.9844 97.1436-34.4238Q97.5586-34.8633 97.5586-35.2539Q97.5586-35.8398 97.168-36.2793Q96.7773-36.7188 96.2402-36.7188L72.3145-36.7188L72.3145-60.5957Q72.3145-61.1816 71.8994-61.5479Q71.4844-61.9141 70.8984-61.9141Q70.459-61.9141 70.0684-61.5234Q69.6777-61.1328 69.6777-60.5957L69.6777-36.7188L45.7031-36.7188Q45.166-36.7188 44.7754-36.2793Q44.3848-35.8398 44.3848-35.2539Z"/>
  </g>
  <g id="Black-M" transform="matrix(1 0 0 1 2872.54 1126)">
   <path class="multicolor-0:systemGreenColor hierarchical-0:secondary SFSymbolsPreview28CD41" d="M31.5918 13.2324L90.1367 13.2324Q99.1699 13.2324 104.224 8.17871Q109.277 3.125 109.277-5.9082L109.277-64.4531Q109.277-73.5352 104.224-78.5645Q99.1699-83.5938 90.1367-83.5938L31.5918-83.5938Q22.5586-83.5938 17.5049-78.5645Q12.4512-73.5352 12.4512-64.4531L12.4512-5.9082Q12.4512 3.125 17.5049 8.17871Q22.5586 13.2324 31.5918 13.2324ZM34.2285-4.10156Q31.9824-4.10156 30.8838-5.12695Q29.7852-6.15234 29.7852-8.59375L29.7852-61.8164Q29.7852-64.2578 30.8838-65.2588Q31.9824-66.2598 34.2285-66.2598L87.5-66.2598Q89.7461-66.2598 90.8447-65.2588Q91.9434-64.2578 91.9434-61.8164L91.9434-8.59375Q91.9434-6.15234 90.8447-5.12695Q89.7461-4.10156 87.5-4.10156Z"/>
   <path class="multicolor-0:systemGreenColor hierarchical-1:primary SFSymbolsPreview28CD41" d="M40.4785-35.2539Q40.4785-32.373 42.334-30.4443Q44.1895-28.5156 47.0215-28.5156L54.1504-28.5156L54.1504-21.3379Q54.1504-18.5547 56.1035-16.6992Q58.0566-14.8438 60.8887-14.8438Q63.7695-14.8438 65.7227-16.6992Q67.6758-18.5547 67.6758-21.3379L67.6758-28.5156L74.8535-28.5156Q77.6367-28.5156 79.4922-30.4443Q81.3477-32.373 81.3477-35.2539Q81.3477-38.1348 79.4922-40.0635Q77.6367-41.9922 74.8535-41.9922L67.6758-41.9922L67.6758-49.1699Q67.6758-52.002 65.7227-53.8574Q63.7695-55.7129 60.8887-55.7129Q58.0566-55.7129 56.1035-53.8574Q54.1504-52.002 54.1504-49.1699L54.1504-41.9922L47.0215-41.9922Q44.1895-41.9922 42.334-40.0635Q40.4785-38.1348 40.4785-35.2539Z"/>
  </g>
  <g id="Heavy-M" transform="matrix(1 0 0 1 2576.64 1126)">
   <path class="multicolor-0:systemGreenColor hierarchical-0:secondary SFSymbolsPreview28CD41" d="M30.7129 12.4023L89.4043 12.4023Q98.0957 12.4023 102.856 7.66602Q107.617 2.92969 107.617-5.76172L107.617-64.5996Q107.617-73.291 102.856-78.0273Q98.0957-82.7637 89.4043-82.7637L30.7129-82.7637Q21.9727-82.7637 17.2119-78.0273Q12.4512-73.291 12.4512-64.5996L12.4512-5.76172Q12.4512 2.92969 17.2119 7.66602Q21.9727 12.4023 30.7129 12.4023ZM32.7148-2.68555Q30.127-2.68555 28.833-3.93066Q27.5391-5.17578 27.5391-7.91016L27.5391-62.4512Q27.5391-65.2344 28.833-66.4551Q30.127-67.6758 32.7148-67.6758L87.3535-67.6758Q89.9414-67.6758 91.2354-66.4551Q92.5293-65.2344 92.5293-62.4512L92.5293-7.91016Q92.5293-5.17578 91.2354-3.93066Q89.9414-2.68555 87.3535-2.68555Z"/>
   <path class="multicolor-0:systemGreenColor hierarchical-1:primary SFSymbolsPreview28CD41" d="M39.4043-35.2539Q39.4043-32.6172 41.0889-30.8838Q42.7734-29.1504 45.4102-29.1504L53.9551-29.1504L53.9551-20.5078Q53.9551-17.9688 55.7129-16.2842Q57.4707-14.5996 60.0586-14.5996Q62.6953-14.5996 64.4531-16.2842Q66.2109-17.9688 66.2109-20.5078L66.2109-29.1504L74.8535-29.1504Q77.3926-29.1504 79.1016-30.8838Q80.8105-32.6172 80.8105-35.2539Q80.8105-37.8906 79.1016-39.624Q77.3926-41.3574 74.8535-41.3574L66.2109-41.3574L66.2109-50Q66.2109-52.5879 64.4531-54.2725Q62.6953-55.957 60.0586-55.957Q57.4707-55.957 55.7129-54.2725Q53.9551-52.5879 53.9551-50L53.9551-41.3574L45.4102-41.3574Q42.7734-41.3574 41.0889-39.624Q39.4043-37.8906 39.4043-35.2539Z"/>
  </g>
  <g id="Bold-M" transform="matrix(1 0 0 1 2280.85 1126)">
   <path class="multicolor-0:systemGreenColor hierarchical-0:secondary SFSymbolsPreview28CD41" d="M29.6875 11.5234L88.5742 11.5234Q96.9238 11.5234 101.367 7.10449Q105.811 2.68555 105.811-5.66406L105.811-64.7461Q105.811-73.0469 101.367-77.4658Q96.9238-81.8848 88.5742-81.8848L29.6875-81.8848Q21.3379-81.8848 16.8945-77.4658Q12.4512-73.0469 12.4512-64.7461L12.4512-5.66406Q12.4512 2.68555 16.8945 7.10449Q21.3379 11.5234 29.6875 11.5234ZM31.0547-1.12305Q28.125-1.12305 26.5869-2.58789Q25.0488-4.05273 25.0488-7.17773L25.0488-63.2324Q25.0488-66.3574 26.5869-67.8223Q28.125-69.2871 31.0547-69.2871L87.207-69.2871Q90.1367-69.2871 91.6748-67.8223Q93.2129-66.3574 93.2129-63.2324L93.2129-7.17773Q93.2129-4.05273 91.6748-2.58789Q90.1367-1.12305 87.207-1.12305Z"/>
   <path class="multicolor-0:systemGreenColor hierarchical-1:primary SFSymbolsPreview28CD41" d="M38.1836-35.2051Q38.1836-32.9102 39.6973-31.3721Q41.2109-29.834 43.5547-29.834L53.7598-29.834L53.7598-19.5801Q53.7598-17.2852 55.2979-15.7959Q56.8359-14.3066 59.1309-14.3066Q61.4746-14.3066 63.0371-15.7959Q64.5996-17.2852 64.5996-19.5801L64.5996-29.834L74.8535-29.834Q77.1484-29.834 78.6621-31.3721Q80.1758-32.9102 80.1758-35.2051Q80.1758-37.5977 78.6621-39.1357Q77.1484-40.6738 74.8535-40.6738L64.5996-40.6738L64.5996-50.8789Q64.5996-53.2227 63.0371-54.7363Q61.4746-56.25 59.1309-56.25Q56.8359-56.25 55.2979-54.7363Q53.7598-53.2227 53.7598-50.8789L53.7598-40.6738L43.5547-40.6738Q41.2109-40.6738 39.6973-39.1357Q38.1836-37.5977 38.1836-35.2051Z"/>
  </g>
  <g id="Semibold-M" transform="matrix(1 0 0 1 1984.77 1126)">
   <path class="multicolor-0:systemGreenColor hierarchical-0:secondary SFSymbolsPreview28CD41" d="M29.0039 10.8887L87.9883 10.8887Q96.0938 10.8887 100.317 6.68945Q104.541 2.49023 104.541-5.51758L104.541-64.8438Q104.541-72.8516 100.317-77.0508Q96.0938-81.25 87.9883-81.25L29.0039-81.25Q20.8984-81.25 16.6748-77.0508Q12.4512-72.8516 12.4512-64.8438L12.4512-5.51758Q12.4512 2.49023 16.6748 6.68945Q20.8984 10.8887 29.0039 10.8887ZM29.8828 0Q26.709 0 25.0244-1.63574Q23.3398-3.27148 23.3398-6.64062L23.3398-63.7207Q23.3398-67.0898 25.0244-68.7256Q26.709-70.3613 29.8828-70.3613L87.1094-70.3613Q90.2832-70.3613 91.9678-68.7256Q93.6523-67.0898 93.6523-63.7207L93.6523-6.64062Q93.6523-3.27148 91.9678-1.63574Q90.2832 0 87.1094 0Z"/>
   <path class="multicolor-0:systemGreenColor hierarchical-1:primary SFSymbolsPreview28CD41" d="M37.3535-35.2051Q37.3535-33.1055 38.7451-31.7139Q40.1367-30.3223 42.2852-30.3223L53.6133-30.3223L53.6133-18.9453Q53.6133-16.8457 54.9805-15.4785Q56.3477-14.1113 58.4473-14.1113Q60.6445-14.1113 62.0605-15.4785Q63.4766-16.8457 63.4766-18.9453L63.4766-30.3223L74.8047-30.3223Q76.9531-30.3223 78.3447-31.7139Q79.7363-33.1055 79.7363-35.2051Q79.7363-37.4023 78.3447-38.7939Q76.9531-40.1855 74.8047-40.1855L63.4766-40.1855L63.4766-51.4648Q63.4766-53.6621 62.0605-55.0537Q60.6445-56.4453 58.4473-56.4453Q56.3477-56.4453 54.9805-55.0537Q53.6133-53.6621 53.6133-51.4648L53.6133-40.1855L42.2852-40.1855Q40.0879-40.1855 38.7207-38.7939Q37.3535-37.4023 37.3535-35.2051Z"/>
  </g>
  <g id="Medium-M" transform="matrix(1 0 0 1 1688.53 1126)">
   <path class="multicolor-0:systemGreenColor hierarchical-0:secondary SFSymbolsPreview28CD41" d="M28.4668 10.4004L87.5977 10.4004Q95.5078 10.4004 99.5605 6.37207Q103.613 2.34375 103.613-5.46875L103.613-64.8926Q103.613-72.7539 99.5605-76.7578Q95.5078-80.7617 87.5977-80.7617L28.4668-80.7617Q20.5566-80.7617 16.5039-76.7578Q12.4512-72.7539 12.4512-64.8926L12.4512-5.46875Q12.4512 2.34375 16.5039 6.37207Q20.5566 10.4004 28.4668 10.4004ZM29.0039 0.830078Q25.6348 0.830078 23.8281-0.927734Q22.0215-2.68555 22.0215-6.25L22.0215-64.1113Q22.0215-67.6758 23.8281-69.4336Q25.6348-71.1914 29.0039-71.1914L87.0117-71.1914Q90.3809-71.1914 92.2119-69.4336Q94.043-67.6758 94.043-64.1113L94.043-6.25Q94.043-2.68555 92.2119-0.927734Q90.3809 0.830078 87.0117 0.830078Z"/>
   <path class="multicolor-0:systemGreenColor hierarchical-1:primary SFSymbolsPreview28CD41" d="M36.7188-35.2051Q36.7188-33.252 38.0127-31.9824Q39.3066-30.7129 41.3574-30.7129L53.4668-30.7129L53.4668-18.5059Q53.4668-16.5039 54.7363-15.2344Q56.0059-13.9648 57.959-13.9648Q60.0098-13.9648 61.3281-15.2344Q62.6465-16.5039 62.6465-18.5059L62.6465-30.7129L74.8047-30.7129Q76.8066-30.7129 78.1006-31.9824Q79.3945-33.252 79.3945-35.2051Q79.3945-37.2559 78.1006-38.5498Q76.8066-39.8438 74.8047-39.8438L62.6465-39.8438L62.6465-51.9531Q62.6465-54.0527 61.3281-55.3223Q60.0098-56.5918 57.959-56.5918Q56.0059-56.5918 54.7363-55.3223Q53.4668-54.0527 53.4668-51.9531L53.4668-39.8438L41.3574-39.8438Q39.2578-39.8438 37.9883-38.5498Q36.7188-37.2559 36.7188-35.2051Z"/>
  </g>
  <g id="Regular-M" transform="matrix(1 0 0 1 1392.45 1126)">
   <path class="multicolor-0:systemGreenColor hierarchical-0:secondary SFSymbolsPreview28CD41" d="M27.7832 9.76562L87.0117 9.76562Q94.6777 9.76562 98.5107 5.98145Q102.344 2.19727 102.344-5.37109L102.344-64.9902Q102.344-72.5586 98.5107-76.3428Q94.6777-80.127 87.0117-80.127L27.7832-80.127Q20.1172-80.127 16.2842-76.3428Q12.4512-72.5586 12.4512-64.9902L12.4512-5.37109Q12.4512 2.19727 16.2842 5.98145Q20.1172 9.76562 27.7832 9.76562ZM27.8809 1.9043Q24.2188 1.9043 22.2656-0.0244141Q20.3125-1.95312 20.3125-5.76172L20.3125-64.5996Q20.3125-68.4082 22.2656-70.3369Q24.2188-72.2656 27.8809-72.2656L86.9141-72.2656Q90.5273-72.2656 92.5049-70.3369Q94.4824-68.4082 94.4824-64.5996L94.4824-5.76172Q94.4824-1.95312 92.5049-0.0244141Q90.5273 1.9043 86.9141 1.9043Z"/>
   <path class="multicolor-0:systemGreenColor hierarchical-1:primary SFSymbolsPreview28CD41" d="M35.8887-35.2051Q35.8887-33.4473 37.0605-32.3242Q38.2324-31.2012 40.0879-31.2012L53.3203-31.2012L53.3203-17.8711Q53.3203-16.0645 54.4434-14.917Q55.5664-13.7695 57.3242-13.7695Q59.1797-13.7695 60.3516-14.917Q61.5234-16.0645 61.5234-17.8711L61.5234-31.2012L74.8047-31.2012Q76.6113-31.2012 77.7832-32.3242Q78.9551-33.4473 78.9551-35.2051Q78.9551-37.0605 77.7832-38.208Q76.6113-39.3555 74.8047-39.3555L61.5234-39.3555L61.5234-52.5879Q61.5234-54.4922 60.3516-55.6396Q59.1797-56.7871 57.3242-56.7871Q55.5664-56.7871 54.4434-55.6396Q53.3203-54.4922 53.3203-52.5879L53.3203-39.3555L40.0879-39.3555Q38.1836-39.3555 37.0361-38.208Q35.8887-37.0605 35.8887-35.2051Z"/>
  </g>
  <g id="Light-M" transform="matrix(1 0 0 1 1096.48 1126)">
   <path class="multicolor-0:systemGreenColor hierarchical-0:secondary SFSymbolsPreview28CD41" d="M26.8555 9.0332L86.4746 9.0332Q93.6035 9.0332 97.2412 5.44434Q100.879 1.85547 100.879-5.22461L100.879-65.0879Q100.879-72.168 97.2412-75.7812Q93.6035-79.3945 86.4746-79.3945L26.8555-79.3945Q19.6777-79.3945 16.0645-75.8057Q12.4512-72.2168 12.4512-65.0879L12.4512-5.22461Q12.4512 1.85547 16.0645 5.44434Q19.6777 9.0332 26.8555 9.0332ZM26.9531 2.97852Q22.8027 2.97852 20.6543 0.830078Q18.5059-1.31836 18.5059-5.51758L18.5059-64.7949Q18.5059-69.043 20.6543-71.1914Q22.8027-73.3398 26.9531-73.3398L86.377-73.3398Q90.3809-73.3398 92.6025-71.1914Q94.8242-69.043 94.8242-64.7949L94.8242-5.51758Q94.8242-1.31836 92.6025 0.830078Q90.3809 2.97852 86.377 2.97852Z"/>
   <path class="multicolor-0:systemGreenColor hierarchical-1:primary SFSymbolsPreview28CD41" d="M35.4492-35.2051Q35.4492-33.8867 36.3525-33.0078Q37.2559-32.1289 38.6719-32.1289L53.5645-32.1289L53.5645-17.1875Q53.5645-15.8203 54.4189-14.9414Q55.2734-14.0625 56.5918-14.0625Q58.0078-14.0625 58.9355-14.9414Q59.8633-15.8203 59.8633-17.1875L59.8633-32.1289L74.7559-32.1289Q76.123-32.1289 77.0264-33.0078Q77.9297-33.8867 77.9297-35.2051Q77.9297-36.6211 77.0264-37.5244Q76.123-38.4277 74.7559-38.4277L59.8633-38.4277L59.8633-53.2715Q59.8633-54.7363 58.9355-55.6152Q58.0078-56.4941 56.5918-56.4941Q55.2734-56.4941 54.4189-55.6152Q53.5645-54.7363 53.5645-53.2715L53.5645-38.4277L38.6719-38.4277Q37.207-38.4277 36.3281-37.5244Q35.4492-36.6211 35.4492-35.2051Z"/>
  </g>
  <g id="Thin-M" transform="matrix(1 0 0 1 800.747 1126)">
   <path class="multicolor-0:systemGreenColor hierarchical-0:secondary SFSymbolsPreview28CD41" d="M25.5859 8.05664L85.6934 8.05664Q92.2363 8.05664 95.5566 4.71191Q98.877 1.36719 98.877-5.07812L98.877-65.2344Q98.877-71.6309 95.5566-75Q92.2363-78.3691 85.6934-78.3691L25.5859-78.3691Q19.1406-78.3691 15.7959-75.0488Q12.4512-71.7285 12.4512-65.2344L12.4512-5.07812Q12.4512 1.41602 15.7959 4.73633Q19.1406 8.05664 25.5859 8.05664ZM25.7324 4.44336Q20.9961 4.44336 18.5547 2.00195Q16.1133-0.439453 16.1133-5.22461L16.1133-65.0391Q16.1133-69.873 18.5547-72.29Q20.9961-74.707 25.7324-74.707L85.5957-74.707Q90.2344-74.707 92.749-72.29Q95.2637-69.873 95.2637-65.0391L95.2637-5.22461Q95.2637-0.439453 92.749 2.00195Q90.2344 4.44336 85.5957 4.44336Z"/>
   <path class="multicolor-0:systemGreenColor hierarchical-1:primary SFSymbolsPreview28CD41" d="M34.8145-35.2539Q34.8145-34.5215 35.376-33.9844Q35.9375-33.4473 36.7188-33.4473L53.8086-33.4473L53.8086-16.3574Q53.8086-15.5762 54.3457-15.0146Q54.8828-14.4531 55.6152-14.4531Q56.4453-14.4531 57.0312-14.9902Q57.6172-15.5273 57.6172-16.3574L57.6172-33.4473L74.6582-33.4473Q75.4395-33.4473 76.001-33.9844Q76.5625-34.5215 76.5625-35.2539Q76.5625-36.084 76.0254-36.6455Q75.4883-37.207 74.6582-37.207L57.6172-37.207L57.6172-54.248Q57.6172-55.127 57.0312-55.6641Q56.4453-56.2012 55.6152-56.2012Q54.8828-56.2012 54.3457-55.6396Q53.8086-55.0781 53.8086-54.248L53.8086-37.207L36.7188-37.207Q35.8887-37.207 35.3516-36.6455Q34.8145-36.084 34.8145-35.2539Z"/>
  </g>
  <g id="Ultralight-M" transform="matrix(1 0 0 1 504.539 1126)">
   <path class="multicolor-0:systemGreenColor hierarchical-0:secondary SFSymbolsPreview28CD41" d="M24.9512 7.56836L85.3516 7.56836Q91.5039 7.56836 94.7021 4.3457Q97.9004 1.12305 97.9004-4.98047L97.9004-65.332Q97.9004-71.3867 94.7021-74.6338Q91.5039-77.8809 85.3516-77.8809L24.9512-77.8809Q18.8477-77.8809 15.6494-74.6826Q12.4512-71.4844 12.4512-65.332L12.4512-4.98047Q12.4512 1.2207 15.6494 4.39453Q18.8477 7.56836 24.9512 7.56836ZM25.0977 5.17578Q20.0195 5.17578 17.4316 2.58789Q14.8438 0 14.8438-5.07812L14.8438-65.1855Q14.8438-70.2637 17.4316-72.8516Q20.0195-75.4395 25.0977-75.4395L85.2539-75.4395Q90.1367-75.4395 92.7979-72.8516Q95.459-70.2637 95.459-65.1855L95.459-5.07812Q95.459 0 92.7979 2.58789Q90.1367 5.17578 85.2539 5.17578Z"/>
   <path class="multicolor-0:systemGreenColor hierarchical-1:primary SFSymbolsPreview28CD41" d="M34.5215-35.2539Q34.5215-34.8145 34.8877-34.4482Q35.2539-34.082 35.791-34.082L53.9551-34.082L53.9551-15.918Q53.9551-15.4297 54.3213-15.0391Q54.6875-14.6484 55.127-14.6484Q55.6641-14.6484 56.0791-15.0146Q56.4941-15.3809 56.4941-15.918L56.4941-34.082L74.6094-34.082Q75.0977-34.082 75.4883-34.4482Q75.8789-34.8145 75.8789-35.2539Q75.8789-35.791 75.5127-36.1816Q75.1465-36.5723 74.6094-36.5723L56.4941-36.5723L56.4941-54.7363Q56.4941-55.2734 56.0791-55.6396Q55.6641-56.0059 55.127-56.0059Q54.6875-56.0059 54.3213-55.6152Q53.9551-55.2246 53.9551-54.7363L53.9551-36.5723L35.791-36.5723Q35.2051-36.5723 34.8633-36.1816Q34.5215-35.791 34.5215-35.2539Z"/>
  </g>
  <g id="Black-S" transform="matrix(1 0 0 1 2885.5 696)">
   <path class="multicolor-0:systemGreenColor hierarchical-0:secondary SFSymbolsPreview28CD41" d="M25 2.92969L70.8008 2.92969Q77.9785 2.92969 82.0068-1.09863Q86.0352-5.12695 86.0352-12.3047L86.0352-58.1055Q86.0352-65.2832 82.0068-69.3115Q77.9785-73.3398 70.8008-73.3398L25-73.3398Q17.8223-73.3398 13.7939-69.3115Q9.76562-65.2832 9.76562-58.1055L9.76562-12.3047Q9.76562-5.12695 13.7939-1.09863Q17.8223 2.92969 25 2.92969ZM27.2461-11.2305Q25.5859-11.2305 24.7559-11.9873Q23.9258-12.7441 23.9258-14.5508L23.9258-55.8594Q23.9258-57.7148 24.7559-58.4473Q25.5859-59.1797 27.2461-59.1797L68.5547-59.1797Q70.2637-59.1797 71.0693-58.4473Q71.875-57.7148 71.875-55.8594L71.875-14.5508Q71.875-12.7441 71.0693-11.9873Q70.2637-11.2305 68.5547-11.2305Z"/>
   <path class="multicolor-0:systemGreenColor hierarchical-1:primary SFSymbolsPreview28CD41" d="M31.9824-35.2539Q31.9824-32.959 33.4717-31.3965Q34.9609-29.834 37.207-29.834L42.4805-29.834L42.4805-24.5605Q42.4805-22.3145 44.043-20.8252Q45.6055-19.3359 47.9004-19.3359Q50.1953-19.3359 51.7578-20.8252Q53.3203-22.3145 53.3203-24.5605L53.3203-29.834L58.5938-29.834Q60.8398-29.834 62.3291-31.3965Q63.8184-32.959 63.8184-35.2539Q63.8184-37.5488 62.3291-39.1113Q60.8398-40.6738 58.5938-40.6738L53.3203-40.6738L53.3203-45.9473Q53.3203-48.1934 51.7578-49.6826Q50.1953-51.1719 47.9004-51.1719Q45.6055-51.1719 44.043-49.6826Q42.4805-48.1934 42.4805-45.9473L42.4805-40.6738L37.207-40.6738Q34.9609-40.6738 33.4717-39.1113Q31.9824-37.5488 31.9824-35.2539Z"/>
  </g>
  <g id="Heavy-S" transform="matrix(1 0 0 1 2589.39 696)">
   <path class="multicolor-0:systemGreenColor hierarchical-0:secondary SFSymbolsPreview28CD41" d="M24.3652 2.34375L70.2637 2.34375Q77.1973 2.34375 81.0059-1.46484Q84.8145-5.27344 84.8145-12.207L84.8145-58.2031Q84.8145-65.1367 81.0059-68.9453Q77.1973-72.7539 70.2637-72.7539L24.3652-72.7539Q17.3828-72.7539 13.5742-68.9453Q9.76562-65.1367 9.76562-58.2031L9.76562-12.207Q9.76562-5.27344 13.5742-1.46484Q17.3828 2.34375 24.3652 2.34375ZM26.0742-10.1562Q24.1699-10.1562 23.2178-11.0596Q22.2656-11.9629 22.2656-14.0137L22.2656-56.3965Q22.2656-58.4473 23.2178-59.3506Q24.1699-60.2539 26.0742-60.2539L68.5059-60.2539Q70.459-60.2539 71.4111-59.3506Q72.3633-58.4473 72.3633-56.3965L72.3633-14.0137Q72.3633-11.9629 71.4111-11.0596Q70.459-10.1562 68.5059-10.1562Z"/>
   <path class="multicolor-0:systemGreenColor hierarchical-1:primary SFSymbolsPreview28CD41" d="M31.1523-35.2539Q31.1523-33.1055 32.5439-31.6895Q33.9355-30.2734 36.0352-30.2734L42.334-30.2734L42.334-23.9746Q42.334-21.875 43.75-20.4834Q45.166-19.0918 47.3145-19.0918Q49.4629-19.0918 50.9033-20.4834Q52.3438-21.875 52.3438-23.9746L52.3438-30.2734L58.6426-30.2734Q60.7422-30.2734 62.1094-31.6895Q63.4766-33.1055 63.4766-35.2539Q63.4766-37.4023 62.1094-38.8428Q60.7422-40.2832 58.6426-40.2832L52.3438-40.2832L52.3438-46.582Q52.3438-48.6816 50.9033-50.0488Q49.4629-51.416 47.3145-51.416Q45.166-51.416 43.75-50.0488Q42.334-48.6816 42.334-46.582L42.334-40.2832L36.0352-40.2832Q33.9355-40.2832 32.5439-38.8428Q31.1523-37.4023 31.1523-35.2539Z"/>
  </g>
  <g id="Bold-S" transform="matrix(1 0 0 1 2293.36 696)">
   <path class="multicolor-0:systemGreenColor hierarchical-0:secondary SFSymbolsPreview28CD41" d="M23.6328 1.66016L69.6289 1.66016Q76.3672 1.66016 79.9316-1.9043Q83.4961-5.46875 83.4961-12.1094L83.4961-58.3008Q83.4961-64.9902 79.9316-68.5303Q76.3672-72.0703 69.6289-72.0703L23.6328-72.0703Q16.9434-72.0703 13.3545-68.5303Q9.76562-64.9902 9.76562-58.3008L9.76562-12.1094Q9.76562-5.46875 13.3545-1.9043Q16.9434 1.66016 23.6328 1.66016ZM24.8047-8.98438Q22.6562-8.98438 21.5088-10.0586Q20.3613-11.1328 20.3613-13.4277L20.3613-57.0312Q20.3613-59.3262 21.5088-60.4004Q22.6562-61.4746 24.8047-61.4746L68.457-61.4746Q70.6543-61.4746 71.7773-60.4004Q72.9004-59.3262 72.9004-57.0312L72.9004-13.4277Q72.9004-11.1328 71.7773-10.0586Q70.6543-8.98438 68.457-8.98438Z"/>
   <path class="multicolor-0:systemGreenColor hierarchical-1:primary SFSymbolsPreview28CD41" d="M30.1758-35.2051Q30.1758-33.252 31.4453-31.9824Q32.7148-30.7129 34.668-30.7129L42.0898-30.7129L42.0898-23.2422Q42.0898-21.2891 43.3838-20.0439Q44.6777-18.7988 46.6309-18.7988Q48.584-18.7988 49.8779-20.0439Q51.1719-21.2891 51.1719-23.2422L51.1719-30.7129L58.6426-30.7129Q60.5957-30.7129 61.8408-31.9824Q63.0859-33.252 63.0859-35.2051Q63.0859-37.207 61.8408-38.501Q60.5957-39.7949 58.6426-39.7949L51.1719-39.7949L51.1719-47.2168Q51.1719-49.1699 49.8779-50.4395Q48.584-51.709 46.6309-51.709Q44.6777-51.709 43.3838-50.4395Q42.0898-49.1699 42.0898-47.2168L42.0898-39.7949L34.668-39.7949Q32.7148-39.7949 31.4453-38.501Q30.1758-37.207 30.1758-35.2051Z"/>
  </g>
  <g id="Semibold-S" transform="matrix(1 0 0 1 1997.11 696)">
   <path class="multicolor-0:systemGreenColor hierarchical-0:secondary SFSymbolsPreview28CD41" d="M23.0957 1.2207L69.1895 1.2207Q75.7324 1.2207 79.126-2.17285Q82.5195-5.56641 82.5195-12.0605L82.5195-58.3496Q82.5195-64.8438 79.126-68.2373Q75.7324-71.6309 69.1895-71.6309L23.0957-71.6309Q16.6016-71.6309 13.1836-68.2373Q9.76562-64.8438 9.76562-58.3496L9.76562-12.0605Q9.76562-5.56641 13.1836-2.17285Q16.6016 1.2207 23.0957 1.2207ZM23.877-8.1543Q21.5332-8.1543 20.2881-9.32617Q19.043-10.498 19.043-12.9883L19.043-57.4219Q19.043-59.8633 20.2881-61.0596Q21.5332-62.2559 23.877-62.2559L68.4082-62.2559Q70.752-62.2559 71.9971-61.0596Q73.2422-59.8633 73.2422-57.4219L73.2422-12.9883Q73.2422-10.498 71.9971-9.32617Q70.752-8.1543 68.4082-8.1543Z"/>
   <path class="multicolor-0:systemGreenColor hierarchical-1:primary SFSymbolsPreview28CD41" d="M29.541-35.2051Q29.541-33.3984 30.7129-32.2021Q31.8848-31.0059 33.7891-31.0059L41.9922-31.0059L41.9922-22.8027Q41.9922-20.9473 43.1641-19.7754Q44.3359-18.6035 46.1426-18.6035Q47.998-18.6035 49.1943-19.7754Q50.3906-20.9473 50.3906-22.8027L50.3906-31.0059L58.6426-31.0059Q60.498-31.0059 61.6699-32.2021Q62.8418-33.3984 62.8418-35.2051Q62.8418-37.0605 61.6699-38.2568Q60.498-39.4531 58.6426-39.4531L50.3906-39.4531L50.3906-47.6562Q50.3906-49.5605 49.1943-50.7324Q47.998-51.9043 46.1426-51.9043Q44.3359-51.9043 43.1641-50.7324Q41.9922-49.5605 41.9922-47.6562L41.9922-39.4531L33.7891-39.4531Q31.8848-39.4531 30.7129-38.2568Q29.541-37.0605 29.541-35.2051Z"/>
  </g>
  <g id="Medium-S" transform="matrix(1 0 0 1 1700.76 696)">
   <path class="multicolor-0:systemGreenColor hierarchical-0:secondary SFSymbolsPreview28CD41" d="M22.7051 0.830078L68.8965 0.830078Q75.293 0.830078 78.5645-2.41699Q81.8359-5.66406 81.8359-11.9629L81.8359-58.4473Q81.8359-64.7461 78.5645-67.9932Q75.293-71.2402 68.8965-71.2402L22.7051-71.2402Q16.3574-71.2402 13.0615-67.9932Q9.76562-64.7461 9.76562-58.4473L9.76562-11.9629Q9.76562-5.66406 13.0615-2.41699Q16.3574 0.830078 22.7051 0.830078ZM23.1934-7.51953Q20.752-7.51953 19.4092-8.78906Q18.0664-10.0586 18.0664-12.6465L18.0664-57.7637Q18.0664-60.3027 19.4092-61.5967Q20.752-62.8906 23.1934-62.8906L68.4082-62.8906Q70.8496-62.8906 72.1924-61.5967Q73.5352-60.3027 73.5352-57.7637L73.5352-12.6465Q73.5352-10.0586 72.1924-8.78906Q70.8496-7.51953 68.4082-7.51953Z"/>
   <path class="multicolor-0:systemGreenColor hierarchical-1:primary SFSymbolsPreview28CD41" d="M29.0039-35.2051Q29.0039-33.4473 30.1025-32.3486Q31.2012-31.25 33.0078-31.25L41.8457-31.25L41.8457-22.4121Q41.8457-20.6543 42.9443-19.5557Q44.043-18.457 45.752-18.457Q47.5586-18.457 48.6816-19.5557Q49.8047-20.6543 49.8047-22.4121L49.8047-31.25L58.6426-31.25Q60.4004-31.25 61.499-32.3486Q62.5977-33.4473 62.5977-35.2051Q62.5977-36.9629 61.499-38.0859Q60.4004-39.209 58.6426-39.209L49.8047-39.209L49.8047-47.998Q49.8047-49.8047 48.6816-50.9277Q47.5586-52.0508 45.752-52.0508Q44.043-52.0508 42.9443-50.9277Q41.8457-49.8047 41.8457-47.998L41.8457-39.209L33.0078-39.209Q31.2012-39.209 30.1025-38.0859Q29.0039-36.9629 29.0039-35.2051Z"/>
  </g>
  <g id="Regular-S" transform="matrix(1 0 0 1 1404.51 696)">
   <path class="multicolor-0:systemGreenColor hierarchical-0:secondary SFSymbolsPreview28CD41" d="M22.2168 0.390625L68.457 0.390625Q74.707 0.390625 77.8076-2.68555Q80.9082-5.76172 80.9082-11.9141L80.9082-58.4961Q80.9082-64.6484 77.8076-67.7246Q74.707-70.8008 68.457-70.8008L22.2168-70.8008Q16.0156-70.8008 12.8906-67.7246Q9.76562-64.6484 9.76562-58.4961L9.76562-11.9141Q9.76562-5.76172 12.8906-2.68555Q16.0156 0.390625 22.2168 0.390625ZM22.3145-6.68945Q19.6777-6.68945 18.2373-8.08105Q16.7969-9.47266 16.7969-12.2559L16.7969-58.1543Q16.7969-60.8887 18.2373-62.3047Q19.6777-63.7207 22.3145-63.7207L68.3594-63.7207Q70.9961-63.7207 72.4365-62.3047Q73.877-60.8887 73.877-58.1543L73.877-12.2559Q73.877-9.47266 72.4365-8.08105Q70.9961-6.68945 68.3594-6.68945Z"/>
   <path class="multicolor-0:systemGreenColor hierarchical-1:primary SFSymbolsPreview28CD41" d="M28.3691-35.2051Q28.3691-33.5938 29.3945-32.5928Q30.4199-31.5918 32.1289-31.5918L41.6992-31.5918L41.6992-21.9727Q41.6992-20.3125 42.7002-19.2871Q43.7012-18.2617 45.3125-18.2617Q46.9727-18.2617 47.998-19.2871Q49.0234-20.3125 49.0234-21.9727L49.0234-31.5918L58.6426-31.5918Q60.3027-31.5918 61.3281-32.5928Q62.3535-33.5938 62.3535-35.2051Q62.3535-36.8652 61.3281-37.8906Q60.3027-38.916 58.6426-38.916L49.0234-38.916L49.0234-48.4863Q49.0234-50.1953 47.998-51.2207Q46.9727-52.2461 45.3125-52.2461Q43.7012-52.2461 42.7002-51.2207Q41.6992-50.1953 41.6992-48.4863L41.6992-38.916L32.1289-38.916Q30.4199-38.916 29.3945-37.8906Q28.3691-36.8652 28.3691-35.2051Z"/>
  </g>
  <g id="Light-S" transform="matrix(1 0 0 1 1108.45 696)">
   <path class="multicolor-0:systemGreenColor hierarchical-0:secondary SFSymbolsPreview28CD41" d="M21.3867-0.244141L67.9688-0.244141Q73.7793-0.244141 76.6846-3.17383Q79.5898-6.10352 79.5898-11.8164L79.5898-58.5938Q79.5898-64.3066 76.6846-67.2119Q73.7793-70.1172 67.9688-70.1172L21.3867-70.1172Q15.625-70.1172 12.6953-67.2119Q9.76562-64.3066 9.76562-58.5938L9.76562-11.8164Q9.76562-6.05469 12.6953-3.14941Q15.625-0.244141 21.3867-0.244141ZM21.4844-5.71289Q18.457-5.71289 16.8213-7.2998Q15.1855-8.88672 15.1855-12.0605L15.1855-58.3008Q15.1855-61.4258 16.8213-63.0371Q18.457-64.6484 21.4844-64.6484L67.8711-64.6484Q70.8984-64.6484 72.5342-63.0371Q74.1699-61.4258 74.1699-58.3008L74.1699-12.0605Q74.1699-8.88672 72.5342-7.2998Q70.8984-5.71289 67.8711-5.71289Z"/>
   <path class="multicolor-0:systemGreenColor hierarchical-1:primary SFSymbolsPreview28CD41" d="M27.9297-35.2051Q27.9297-33.9844 28.7354-33.2031Q29.541-32.4219 30.8105-32.4219L41.8457-32.4219L41.8457-21.3867Q41.8457-20.1172 42.627-19.3115Q43.4082-18.5059 44.6289-18.5059Q45.8984-18.5059 46.7041-19.3115Q47.5098-20.1172 47.5098-21.3867L47.5098-32.4219L58.5449-32.4219Q59.8145-32.4219 60.6201-33.2031Q61.4258-33.9844 61.4258-35.2051Q61.4258-36.4746 60.6201-37.2803Q59.8145-38.0859 58.5449-38.0859L47.5098-38.0859L47.5098-49.1211Q47.5098-50.3906 46.7041-51.1963Q45.8984-52.002 44.6289-52.002Q43.4082-52.002 42.627-51.1963Q41.8457-50.3906 41.8457-49.1211L41.8457-38.0859L30.8105-38.0859Q29.4922-38.0859 28.7109-37.2803Q27.9297-36.4746 27.9297-35.2051Z"/>
  </g>
  <g id="Thin-S" transform="matrix(1 0 0 1 812.615 696)">
   <path class="multicolor-0:systemGreenColor hierarchical-0:secondary SFSymbolsPreview28CD41" d="M20.3125-1.12305L67.2852-1.12305Q72.5098-1.12305 75.1709-3.80859Q77.832-6.49414 77.832-11.6211L77.832-58.6914Q77.832-63.8184 75.1709-66.5283Q72.5098-69.2383 67.2852-69.2383L20.3125-69.2383Q15.0879-69.2383 12.4268-66.5771Q9.76562-63.916 9.76562-58.6914L9.76562-11.6211Q9.76562-6.44531 12.4268-3.78418Q15.0879-1.12305 20.3125-1.12305ZM20.4102-4.44336Q16.7969-4.44336 14.9414-6.29883Q13.0859-8.1543 13.0859-11.8164L13.0859-58.5449Q13.0859-62.207 14.9414-64.0625Q16.7969-65.918 20.4102-65.918L67.1875-65.918Q70.7031-65.918 72.6318-64.0625Q74.5605-62.207 74.5605-58.5449L74.5605-11.8164Q74.5605-8.1543 72.6318-6.29883Q70.7031-4.44336 67.1875-4.44336Z"/>
   <path class="multicolor-0:systemGreenColor hierarchical-1:primary SFSymbolsPreview28CD41" d="M27.3926-35.2539Q27.3926-34.5703 27.8809-34.082Q28.3691-33.5938 29.1504-33.5938L42.0898-33.5938L42.0898-20.6055Q42.0898-19.873 42.5781-19.3848Q43.0664-18.8965 43.75-18.8965Q44.5312-18.8965 45.0195-19.3848Q45.5078-19.873 45.5078-20.6055L45.5078-33.5938L58.4961-33.5938Q59.2285-33.5938 59.7168-34.082Q60.2051-34.5703 60.2051-35.2539Q60.2051-35.9863 59.7412-36.499Q59.2773-37.0117 58.4961-37.0117L45.5078-37.0117L45.5078-50Q45.5078-50.7324 45.0195-51.2207Q44.5312-51.709 43.75-51.709Q43.0664-51.709 42.5781-51.2207Q42.0898-50.7324 42.0898-50L42.0898-37.0117L29.1504-37.0117Q28.3691-37.0117 27.8809-36.499Q27.3926-35.9863 27.3926-35.2539Z"/>
  </g>
  <g id="Ultralight-S" transform="matrix(1 0 0 1 516.35 696)">
   <path class="multicolor-0:systemGreenColor hierarchical-0:secondary SFSymbolsPreview28CD41" d="M19.7754-1.5625L66.9434-1.5625Q71.875-1.5625 74.4141-4.15039Q76.9531-6.73828 76.9531-11.5723L76.9531-58.7891Q76.9531-63.623 74.4141-66.1865Q71.875-68.75 66.9434-68.75L19.7754-68.75Q14.8438-68.75 12.3047-66.2109Q9.76562-63.6719 9.76562-58.7891L9.76562-11.5723Q9.76562-6.64062 12.3047-4.10156Q14.8438-1.5625 19.7754-1.5625ZM19.873-3.75977Q15.9668-3.75977 13.9648-5.76172Q11.9629-7.76367 11.9629-11.6699L11.9629-58.6426Q11.9629-62.5488 13.9648-64.5508Q15.9668-66.5527 19.873-66.5527L66.8457-66.5527Q70.6543-66.5527 72.7051-64.5508Q74.7559-62.5488 74.7559-58.6426L74.7559-11.6699Q74.7559-7.76367 72.7051-5.76172Q70.6543-3.75977 66.8457-3.75977Z"/>
   <path class="multicolor-0:systemGreenColor hierarchical-1:primary SFSymbolsPreview28CD41" d="M27.0996-35.2539Q27.0996-34.8145 27.4414-34.4727Q27.7832-34.1309 28.2715-34.1309L42.1875-34.1309L42.1875-20.2148Q42.1875-19.7266 42.5293-19.3848Q42.8711-19.043 43.3105-19.043Q43.7988-19.043 44.1406-19.3848Q44.4824-19.7266 44.4824-20.2148L44.4824-34.1309L58.4473-34.1309Q58.8867-34.1309 59.2285-34.4727Q59.5703-34.8145 59.5703-35.2539Q59.5703-35.7422 59.2529-36.1084Q58.9355-36.4746 58.4473-36.4746L44.4824-36.4746L44.4824-50.3906Q44.4824-50.8789 44.1406-51.2207Q43.7988-51.5625 43.3105-51.5625Q42.8711-51.5625 42.5293-51.2207Q42.1875-50.8789 42.1875-50.3906L42.1875-36.4746L28.2715-36.4746Q27.7344-36.4746 27.417-36.1084Q27.0996-35.7422 27.0996-35.2539Z"/>
  </g>
 </g>
</svg>
