<?xml version="1.0" encoding="UTF-8"?>
<!--Generator: Apple Native CoreSVG 149-->
<!DOCTYPE svg
PUBLIC "-//W3C//DTD SVG 1.1//EN"
       "http://www.w3.org/Graphics/SVG/1.1/DTD/svg11.dtd">
<svg version="1.1" xmlns="http://www.w3.org/2000/svg" xmlns:xlink="http://www.w3.org/1999/xlink" width="3300" height="2200">
 <!--glyph: "uni1006E6.medium", point size: 100.0, font version: "17.0d8e1", template writer version: "58"-->
 <g id="Notes">
  <rect height="2200" id="artboard" style="fill:white;opacity:1" width="3300" x="0" y="0"/>
  <line style="fill:none;stroke:black;opacity:1;stroke-width:0.5;" x1="263" x2="3036" y1="292" y2="292"/>
  <text style="stroke:none;fill:black;font-family:SF Pro,SF Pro Display,SF Pro Text,sans-serif;font-size:13;font-weight:bold;" transform="matrix(1 0 0 1 263 322)">Weight/Scale Variations</text>
  <text style="stroke:none;fill:black;font-family:SF Pro,SF Pro Display,SF Pro Text,sans-serif;font-size:13;text-anchor:middle;" transform="matrix(1 0 0 1 559.711 322)">Ultralight</text>
  <text style="stroke:none;fill:black;font-family:SF Pro,SF Pro Display,SF Pro Text,sans-serif;font-size:13;text-anchor:middle;" transform="matrix(1 0 0 1 856.422 322)">Thin</text>
  <text style="stroke:none;fill:black;font-family:SF Pro,SF Pro Display,SF Pro Text,sans-serif;font-size:13;text-anchor:middle;" transform="matrix(1 0 0 1 1153.13 322)">Light</text>
  <text style="stroke:none;fill:black;font-family:SF Pro,SF Pro Display,SF Pro Text,sans-serif;font-size:13;text-anchor:middle;" transform="matrix(1 0 0 1 1449.84 322)">Regular</text>
  <text style="stroke:none;fill:black;font-family:SF Pro,SF Pro Display,SF Pro Text,sans-serif;font-size:13;text-anchor:middle;" transform="matrix(1 0 0 1 1746.56 322)">Medium</text>
  <text style="stroke:none;fill:black;font-family:SF Pro,SF Pro Display,SF Pro Text,sans-serif;font-size:13;text-anchor:middle;" transform="matrix(1 0 0 1 2043.27 322)">Semibold</text>
  <text style="stroke:none;fill:black;font-family:SF Pro,SF Pro Display,SF Pro Text,sans-serif;font-size:13;text-anchor:middle;" transform="matrix(1 0 0 1 2339.98 322)">Bold</text>
  <text style="stroke:none;fill:black;font-family:SF Pro,SF Pro Display,SF Pro Text,sans-serif;font-size:13;text-anchor:middle;" transform="matrix(1 0 0 1 2636.69 322)">Heavy</text>
  <text style="stroke:none;fill:black;font-family:SF Pro,SF Pro Display,SF Pro Text,sans-serif;font-size:13;text-anchor:middle;" transform="matrix(1 0 0 1 2933.4 322)">Black</text>
  <line style="fill:none;stroke:black;opacity:1;stroke-width:0.5;" x1="263" x2="3036" y1="1903" y2="1903"/>
  <g transform="matrix(1 0 0 1 263 1933)">
   <path d="M9.24805 0.830078Q10.8691 0.830078 12.2949 0.214844Q13.7207-0.400391 14.8096-1.49414Q15.8984-2.58789 16.5186-4.01367Q17.1387-5.43945 17.1387-7.05078Q17.1387-8.66211 16.5186-10.0879Q15.8984-11.5137 14.8047-12.6074Q13.7109-13.7012 12.2852-14.3164Q10.8594-14.9316 9.23828-14.9316Q7.62695-14.9316 6.20117-14.3164Q4.77539-13.7012 3.69141-12.6074Q2.60742-11.5137 1.9873-10.0879Q1.36719-8.66211 1.36719-7.05078Q1.36719-5.43945 1.9873-4.01367Q2.60742-2.58789 3.69629-1.49414Q4.78516-0.400391 6.21094 0.214844Q7.63672 0.830078 9.24805 0.830078ZM9.24805-0.654297Q7.91992-0.654297 6.7627-1.14746Q5.60547-1.64062 4.73145-2.51953Q3.85742-3.39844 3.36426-4.56055Q2.87109-5.72266 2.87109-7.05078Q2.87109-8.37891 3.35938-9.54102Q3.84766-10.7031 4.72168-11.582Q5.5957-12.4609 6.75293-12.9541Q7.91016-13.4473 9.23828-13.4473Q10.5762-13.4473 11.7334-12.9541Q12.8906-12.4609 13.7695-11.582Q14.6484-10.7031 15.1465-9.54102Q15.6445-8.37891 15.6445-7.05078Q15.6445-5.72266 15.1514-4.56055Q14.6582-3.39844 13.7842-2.51953Q12.9102-1.64062 11.748-1.14746Q10.5859-0.654297 9.24805-0.654297ZM5.83984-7.04102Q5.83984-6.71875 6.04492-6.51855Q6.25-6.31836 6.5918-6.31836L8.50586-6.31836L8.50586-4.39453Q8.50586-4.0625 8.70605-3.85742Q8.90625-3.65234 9.22852-3.65234Q9.56055-3.65234 9.76562-3.85742Q9.9707-4.0625 9.9707-4.39453L9.9707-6.31836L11.8945-6.31836Q12.2266-6.31836 12.4316-6.51855Q12.6367-6.71875 12.6367-7.04102Q12.6367-7.37305 12.4316-7.57812Q12.2266-7.7832 11.8945-7.7832L9.9707-7.7832L9.9707-9.69727Q9.9707-10.0391 9.76562-10.2441Q9.56055-10.4492 9.22852-10.4492Q8.90625-10.4492 8.70605-10.2441Q8.50586-10.0391 8.50586-9.69727L8.50586-7.7832L6.5918-7.7832Q6.25-7.7832 6.04492-7.57812Q5.83984-7.37305 5.83984-7.04102Z"/>
  </g>
  <g transform="matrix(1 0 0 1 281.867 1933)">
   <path d="M11.709 2.91016Q13.75 2.91016 15.5518 2.12891Q17.3535 1.34766 18.7305-0.0292969Q20.1074-1.40625 20.8887-3.20801Q21.6699-5.00977 21.6699-7.05078Q21.6699-9.0918 20.8887-10.8936Q20.1074-12.6953 18.7305-14.0723Q17.3535-15.4492 15.5469-16.2305Q13.7402-17.0117 11.6992-17.0117Q9.6582-17.0117 7.85645-16.2305Q6.05469-15.4492 4.68262-14.0723Q3.31055-12.6953 2.5293-10.8936Q1.74805-9.0918 1.74805-7.05078Q1.74805-5.00977 2.5293-3.20801Q3.31055-1.40625 4.6875-0.0292969Q6.06445 1.34766 7.86621 2.12891Q9.66797 2.91016 11.709 2.91016ZM11.709 1.25Q9.98047 1.25 8.47656 0.605469Q6.97266-0.0390625 5.83496-1.17676Q4.69727-2.31445 4.05762-3.81836Q3.41797-5.32227 3.41797-7.05078Q3.41797-8.7793 4.05762-10.2832Q4.69727-11.7871 5.83008-12.9297Q6.96289-14.0723 8.4668-14.7119Q9.9707-15.3516 11.6992-15.3516Q13.4277-15.3516 14.9316-14.7119Q16.4355-14.0723 17.5781-12.9297Q18.7207-11.7871 19.3652-10.2832Q20.0098-8.7793 20.0098-7.05078Q20.0098-5.32227 19.3701-3.81836Q18.7305-2.31445 17.5928-1.17676Q16.4551-0.0390625 14.9463 0.605469Q13.4375 1.25 11.709 1.25ZM7.39258-7.04102Q7.39258-6.68945 7.62695-6.46484Q7.86133-6.24023 8.23242-6.24023L10.8789-6.24023L10.8789-3.57422Q10.8789-3.21289 11.1035-2.9834Q11.3281-2.75391 11.6797-2.75391Q12.0508-2.75391 12.2852-2.9834Q12.5195-3.21289 12.5195-3.57422L12.5195-6.24023L15.1758-6.24023Q15.5371-6.24023 15.7715-6.46484Q16.0059-6.68945 16.0059-7.04102Q16.0059-7.41211 15.7715-7.6416Q15.5371-7.87109 15.1758-7.87109L12.5195-7.87109L12.5195-10.5176Q12.5195-10.8984 12.2852-11.1279Q12.0508-11.3574 11.6797-11.3574Q11.3281-11.3574 11.1035-11.1279Q10.8789-10.8984 10.8789-10.5176L10.8789-7.87109L8.23242-7.87109Q7.85156-7.87109 7.62207-7.6416Q7.39258-7.41211 7.39258-7.04102Z"/>
  </g>
  <g transform="matrix(1 0 0 1 305.646 1933)">
   <path d="M14.9707 5.66406Q17.0605 5.66406 18.96 5.01465Q20.8594 4.36523 22.4512 3.19336Q24.043 2.02148 25.2197 0.429688Q26.3965-1.16211 27.0459-3.06641Q27.6953-4.9707 27.6953-7.05078Q27.6953-9.14062 27.0459-11.04Q26.3965-12.9395 25.2197-14.5312Q24.043-16.123 22.4512-17.2998Q20.8594-18.4766 18.9551-19.126Q17.0508-19.7754 14.9609-19.7754Q12.8711-19.7754 10.9717-19.126Q9.07227-18.4766 7.48535-17.2998Q5.89844-16.123 4.72168-14.5312Q3.54492-12.9395 2.90039-11.04Q2.25586-9.14062 2.25586-7.05078Q2.25586-4.9707 2.90527-3.06641Q3.55469-1.16211 4.72656 0.429688Q5.89844 2.02148 7.49023 3.19336Q9.08203 4.36523 10.9814 5.01465Q12.8809 5.66406 14.9707 5.66406ZM14.9707 3.84766Q13.1641 3.84766 11.5283 3.2959Q9.89258 2.74414 8.53516 1.74805Q7.17773 0.751953 6.17676-0.610352Q5.17578-1.97266 4.62891-3.6084Q4.08203-5.24414 4.08203-7.05078Q4.08203-8.86719 4.62891-10.5029Q5.17578-12.1387 6.17188-13.501Q7.16797-14.8633 8.52539-15.8594Q9.88281-16.8555 11.5186-17.4023Q13.1543-17.9492 14.9609-17.9492Q16.7773-17.9492 18.4131-17.4023Q20.0488-16.8555 21.4111-15.8594Q22.7734-14.8633 23.7695-13.501Q24.7656-12.1387 25.3174-10.5029Q25.8691-8.86719 25.8691-7.05078Q25.8789-5.24414 25.332-3.6084Q24.7852-1.97266 23.7842-0.610352Q22.7832 0.751953 21.4209 1.74805Q20.0586 2.74414 18.4229 3.2959Q16.7871 3.84766 14.9707 3.84766ZM9.45312-7.04102Q9.45312-6.66016 9.71191-6.41113Q9.9707-6.16211 10.3711-6.16211L14.0625-6.16211L14.0625-2.46094Q14.0625-2.06055 14.3115-1.80664Q14.5605-1.55273 14.9414-1.55273Q15.3516-1.55273 15.6055-1.80664Q15.8594-2.06055 15.8594-2.46094L15.8594-6.16211L19.5605-6.16211Q19.9609-6.16211 20.2148-6.41113Q20.4688-6.66016 20.4688-7.04102Q20.4688-7.45117 20.2148-7.70508Q19.9609-7.95898 19.5605-7.95898L15.8594-7.95898L15.8594-11.6504Q15.8594-12.0605 15.6055-12.3145Q15.3516-12.5684 14.9414-12.5684Q14.5605-12.5684 14.3115-12.3096Q14.0625-12.0508 14.0625-11.6504L14.0625-7.95898L10.3711-7.95898Q9.96094-7.95898 9.70703-7.70508Q9.45312-7.45117 9.45312-7.04102Z"/>
  </g>
  <text style="stroke:none;fill:black;font-family:SF Pro,SF Pro Display,SF Pro Text,sans-serif;font-size:13;font-weight:bold;" transform="matrix(1 0 0 1 263 1953)">Design Variations</text>
  <text style="stroke:none;fill:black;font-family:SF Pro,SF Pro Display,SF Pro Text,sans-serif;font-size:13;" transform="matrix(1 0 0 1 263 1971)">Symbols are supported in up to nine weights and three scales.</text>
  <text style="stroke:none;fill:black;font-family:SF Pro,SF Pro Display,SF Pro Text,sans-serif;font-size:13;" transform="matrix(1 0 0 1 263 1989)">For optimal layout with text and other symbols, vertically align</text>
  <text style="stroke:none;fill:black;font-family:SF Pro,SF Pro Display,SF Pro Text,sans-serif;font-size:13;" transform="matrix(1 0 0 1 263 2007)">symbols with the adjacent text.</text>
  <line style="fill:none;stroke:#00AEEF;stroke-width:0.5;opacity:1.0;" x1="776" x2="776" y1="1919" y2="1933"/>
  <g transform="matrix(1 0 0 1 776 1933)">
   <path d="M3.31055 0.15625Q3.70117 0.15625 3.91602-0.00976562Q4.13086-0.175781 4.26758-0.585938L5.52734-4.0332L11.2891-4.0332L12.5488-0.585938Q12.6855-0.175781 12.9004-0.00976562Q13.1152 0.15625 13.4961 0.15625Q13.8867 0.15625 14.1162-0.0585938Q14.3457-0.273438 14.3457-0.644531Q14.3457-0.869141 14.2383-1.17188L9.6582-13.3691Q9.48242-13.8184 9.17969-14.043Q8.87695-14.2676 8.4082-14.2676Q7.5-14.2676 7.17773-13.3789L2.59766-1.16211Q2.49023-0.859375 2.49023-0.634766Q2.49023-0.263672 2.70996-0.0537109Q2.92969 0.15625 3.31055 0.15625ZM6.00586-5.51758L8.37891-12.0898L8.42773-12.0898L10.8008-5.51758Z"/>
  </g>
  <line style="fill:none;stroke:#00AEEF;stroke-width:0.5;opacity:1.0;" x1="793.197" x2="793.197" y1="1919" y2="1933"/>
  <text style="stroke:none;fill:black;font-family:SF Pro,SF Pro Display,SF Pro Text,sans-serif;font-size:13;font-weight:bold;" transform="matrix(1 0 0 1 776 1953)">Margins</text>
  <text style="stroke:none;fill:black;font-family:SF Pro,SF Pro Display,SF Pro Text,sans-serif;font-size:13;" transform="matrix(1 0 0 1 776 1971)">Leading and trailing margins on the left and right side of each symbol</text>
  <text style="stroke:none;fill:black;font-family:SF Pro,SF Pro Display,SF Pro Text,sans-serif;font-size:13;" transform="matrix(1 0 0 1 776 1989)">can be adjusted by modifying the x-location of the margin guidelines.</text>
  <text style="stroke:none;fill:black;font-family:SF Pro,SF Pro Display,SF Pro Text,sans-serif;font-size:13;" transform="matrix(1 0 0 1 776 2007)">Modifications are automatically applied proportionally to all</text>
  <text style="stroke:none;fill:black;font-family:SF Pro,SF Pro Display,SF Pro Text,sans-serif;font-size:13;" transform="matrix(1 0 0 1 776 2025)">scales and weights.</text>
  <g transform="matrix(1 0 0 1 1289 1933)">
   <path d="M2.8418 1.86523L4.54102 3.57422Q5.18555 4.22852 5.90332 4.17969Q6.62109 4.13086 7.31445 3.35938L18.0078-8.42773L17.041-9.4043L6.42578 2.27539Q6.16211 2.57812 5.89355 2.61719Q5.625 2.65625 5.27344 2.30469L4.10156 1.14258Q3.75 0.791016 3.79395 0.522461Q3.83789 0.253906 4.14062-0.0195312L15.6152-10.8203L14.6387-11.7871L3.04688-0.898438Q2.30469-0.214844 2.25098 0.498047Q2.19727 1.21094 2.8418 1.86523ZM9.25781-16.3281Q8.94531-16.0254 8.90625-15.6348Q8.86719-15.2441 9.04297-14.9512Q9.21875-14.6777 9.55566-14.541Q9.89258-14.4043 10.3809-14.5215Q11.4746-14.7754 12.5977-14.7314Q13.7207-14.6875 14.7949-13.9844L14.209-12.5293Q13.9551-11.9043 14.0674-11.4404Q14.1797-10.9766 14.5801-10.5664L16.875-8.25195Q17.2363-7.88086 17.5781-7.82227Q17.9199-7.76367 18.3398-7.8418L19.4043-8.03711L20.0684-7.36328L20.0293-6.80664Q20-6.43555 20.1221-6.12305Q20.2441-5.81055 20.6055-5.44922L21.3672-4.70703Q21.7285-4.3457 22.1533-4.33105Q22.5781-4.31641 22.9297-4.66797L25.8398-7.58789Q26.1914-7.93945 26.1816-8.35449Q26.1719-8.76953 25.8105-9.13086L25.0391-9.89258Q24.6875-10.2539 24.3799-10.3857Q24.0723-10.5176 23.7109-10.4883L23.1348-10.4395L22.4902-11.0742L22.7344-12.1973Q22.832-12.6172 22.6953-12.9834Q22.5586-13.3496 22.1191-13.7891L19.9219-15.9766Q18.6719-17.2168 17.2607-17.8369Q15.8496-18.457 14.4189-18.4814Q12.9883-18.5059 11.665-17.959Q10.3418-17.4121 9.25781-16.3281ZM10.752-15.957Q11.6602-16.6211 12.7002-16.9043Q13.7402-17.1875 14.8047-17.085Q15.8691-16.9824 16.8701-16.5137Q17.8711-16.0449 18.7012-15.2051L21.1328-12.793Q21.3086-12.6172 21.3525-12.4512Q21.3965-12.2852 21.3379-12.0312L21.0156-10.5469L22.5195-9.0625L23.5059-9.12109Q23.6914-9.13086 23.7891-9.09668Q23.8867-9.0625 24.0332-8.91602L24.6094-8.33984L22.168-5.89844L21.5918-6.47461Q21.4453-6.62109 21.4062-6.71875Q21.3672-6.81641 21.377-7.01172L21.4453-7.98828L19.9512-9.47266L18.4277-9.21875Q18.1836-9.16992 18.042-9.2041Q17.9004-9.23828 17.7148-9.41406L15.7129-11.416Q15.5176-11.5918 15.4932-11.7529Q15.4688-11.9141 15.5859-12.1875L16.4648-14.2773Q15.293-15.3711 13.8281-15.791Q12.3633-16.2109 10.8398-15.7617Q10.7227-15.7324 10.6885-15.8057Q10.6543-15.8789 10.752-15.957Z"/>
  </g>
  <text style="stroke:none;fill:black;font-family:SF Pro,SF Pro Display,SF Pro Text,sans-serif;font-size:13;font-weight:bold;" transform="matrix(1 0 0 1 1289 1953)">Exporting</text>
  <text style="stroke:none;fill:black;font-family:SF Pro,SF Pro Display,SF Pro Text,sans-serif;font-size:13;" transform="matrix(1 0 0 1 1289 1971)">Symbols should be outlined when exporting to ensure the</text>
  <text style="stroke:none;fill:black;font-family:SF Pro,SF Pro Display,SF Pro Text,sans-serif;font-size:13;" transform="matrix(1 0 0 1 1289 1989)">design is preserved when submitting to Xcode.</text>
  <text id="template-version" style="stroke:none;fill:black;font-family:SF Pro,SF Pro Display,SF Pro Text,sans-serif;font-size:13;text-anchor:end;" transform="matrix(1 0 0 1 3036 1933)">Template v.3.0</text>
  <text style="stroke:none;fill:black;font-family:SF Pro,SF Pro Display,SF Pro Text,sans-serif;font-size:13;text-anchor:end;" transform="matrix(1 0 0 1 3036 1951)">Requires Xcode 13 or greater</text>
  <text id="descriptive-name" style="stroke:none;fill:black;font-family:SF Pro,SF Pro Display,SF Pro Text,sans-serif;font-size:13;text-anchor:end;" transform="matrix(1 0 0 1 3036 1969)">Generated from rectangle.grid.2x2</text>
  <text style="stroke:none;fill:black;font-family:SF Pro,SF Pro Display,SF Pro Text,sans-serif;font-size:13;text-anchor:end;" transform="matrix(1 0 0 1 3036 1987)">Typeset at 100 points</text>
  <text style="stroke:none;fill:black;font-family:SF Pro,SF Pro Display,SF Pro Text,sans-serif;font-size:13;" transform="matrix(1 0 0 1 263 726)">Small</text>
  <text style="stroke:none;fill:black;font-family:SF Pro,SF Pro Display,SF Pro Text,sans-serif;font-size:13;" transform="matrix(1 0 0 1 263 1156)">Medium</text>
  <text style="stroke:none;fill:black;font-family:SF Pro,SF Pro Display,SF Pro Text,sans-serif;font-size:13;" transform="matrix(1 0 0 1 263 1586)">Large</text>
 </g>
 <g id="Guides">
  <g id="H-reference" style="fill:#27AAE1;stroke:none;" transform="matrix(1 0 0 1 339 696)">
   <path d="M0.993347 0L3.6377 0L29.3282-67.1326L30.0301-67.1326L30.0301-70.459L28.1227-70.459ZM11.6882-24.4797L46.9818-24.4797L46.2311-26.7288L12.4382-26.7288ZM55.1193 0L57.7637 0L30.6381-70.459L29.4327-70.459L29.4327-67.1326Z"/>
  </g>
  <line id="Baseline-S" style="fill:none;stroke:#27AAE1;opacity:1;stroke-width:0.5;" x1="263" x2="3036" y1="696" y2="696"/>
  <line id="Capline-S" style="fill:none;stroke:#27AAE1;opacity:1;stroke-width:0.5;" x1="263" x2="3036" y1="625.541" y2="625.541"/>
  <g id="H-reference" style="fill:#27AAE1;stroke:none;" transform="matrix(1 0 0 1 339 1126)">
   <path d="M0.993347 0L3.6377 0L29.3282-67.1326L30.0301-67.1326L30.0301-70.459L28.1227-70.459ZM11.6882-24.4797L46.9818-24.4797L46.2311-26.7288L12.4382-26.7288ZM55.1193 0L57.7637 0L30.6381-70.459L29.4327-70.459L29.4327-67.1326Z"/>
  </g>
  <line id="Baseline-M" style="fill:none;stroke:#27AAE1;opacity:1;stroke-width:0.5;" x1="263" x2="3036" y1="1126" y2="1126"/>
  <line id="Capline-M" style="fill:none;stroke:#27AAE1;opacity:1;stroke-width:0.5;" x1="263" x2="3036" y1="1055.54" y2="1055.54"/>
  <g id="H-reference" style="fill:#27AAE1;stroke:none;" transform="matrix(1 0 0 1 339 1556)">
   <path d="M0.993347 0L3.6377 0L29.3282-67.1326L30.0301-67.1326L30.0301-70.459L28.1227-70.459ZM11.6882-24.4797L46.9818-24.4797L46.2311-26.7288L12.4382-26.7288ZM55.1193 0L57.7637 0L30.6381-70.459L29.4327-70.459L29.4327-67.1326Z"/>
  </g>
  <line id="Baseline-L" style="fill:none;stroke:#27AAE1;opacity:1;stroke-width:0.5;" x1="263" x2="3036" y1="1556" y2="1556"/>
  <line id="Capline-L" style="fill:none;stroke:#27AAE1;opacity:1;stroke-width:0.5;" x1="263" x2="3036" y1="1485.54" y2="1485.54"/>
  <line id="left-margin-Regular-M" style="fill:none;stroke:#00AEEF;stroke-width:0.5;opacity:1.0;" x1="1383.1" x2="1383.1" y1="1030.79" y2="1150.12"/>
  <line id="right-margin-Regular-M" style="fill:none;stroke:#00AEEF;stroke-width:0.5;opacity:1.0;" x1="1516.59" x2="1516.59" y1="1030.79" y2="1150.12"/>
 </g>
 <g id="Symbols">
  <g id="Black-L" transform="matrix(1 0 0 1 2843.56 1556)">
   <path d="M34.9609-39.1113L67.041-39.1113Q76.709-39.1113 81.3232-43.7256Q85.9375-48.3398 85.9375-58.0566L85.9375-77.9297Q85.9375-87.6465 81.3232-92.2607Q76.709-96.875 67.041-96.875L34.9609-96.875Q25.293-96.875 20.6787-92.2607Q16.0645-87.6465 16.0645-77.9297L16.0645-58.0566Q16.0645-48.3398 20.6787-43.7256Q25.293-39.1113 34.9609-39.1113ZM34.8633-54.7852Q33.252-54.7852 32.5195-55.5664Q31.7871-56.3477 31.7871-57.959L31.7871-78.0762Q31.7871-79.6387 32.5195-80.4199Q33.252-81.2012 34.8633-81.2012L67.1387-81.2012Q68.7012-81.2012 69.458-80.4199Q70.2148-79.6387 70.2148-78.0762L70.2148-57.959Q70.2148-56.3477 69.458-55.5664Q68.7012-54.7852 67.1387-54.7852ZM112.646-39.1113L144.727-39.1113Q154.395-39.1113 159.009-43.7256Q163.623-48.3398 163.623-58.0566L163.623-77.9297Q163.623-87.6465 159.009-92.2607Q154.395-96.875 144.727-96.875L112.646-96.875Q102.93-96.875 98.3398-92.2607Q93.75-87.6465 93.75-77.9297L93.75-58.0566Q93.75-48.3398 98.3398-43.7256Q102.93-39.1113 112.646-39.1113ZM112.549-54.7852Q110.938-54.7852 110.181-55.5664Q109.424-56.3477 109.424-57.959L109.424-78.0762Q109.424-79.6387 110.181-80.4199Q110.938-81.2012 112.549-81.2012L144.824-81.2012Q146.387-81.2012 147.144-80.4199Q147.9-79.6387 147.9-78.0762L147.9-57.959Q147.9-56.3477 147.144-55.5664Q146.387-54.7852 144.824-54.7852ZM34.9609 26.5137L67.041 26.5137Q76.709 26.5137 81.3232 21.8994Q85.9375 17.2852 85.9375 7.51953L85.9375-12.3047Q85.9375-22.0703 81.3232-26.6846Q76.709-31.2988 67.041-31.2988L34.9609-31.2988Q25.293-31.2988 20.6787-26.6846Q16.0645-22.0703 16.0645-12.3047L16.0645 7.51953Q16.0645 17.2852 20.6787 21.8994Q25.293 26.5137 34.9609 26.5137ZM34.8633 10.791Q33.252 10.791 32.5195 10.0342Q31.7871 9.27734 31.7871 7.66602L31.7871-12.4512Q31.7871-14.0625 32.5195-14.8193Q33.252-15.5762 34.8633-15.5762L67.1387-15.5762Q68.7012-15.5762 69.458-14.8193Q70.2148-14.0625 70.2148-12.4512L70.2148 7.66602Q70.2148 9.27734 69.458 10.0342Q68.7012 10.791 67.1387 10.791ZM112.646 26.5137L144.727 26.5137Q154.395 26.5137 159.009 21.8994Q163.623 17.2852 163.623 7.51953L163.623-12.3047Q163.623-22.0703 159.009-26.6846Q154.395-31.2988 144.727-31.2988L112.646-31.2988Q102.93-31.2988 98.3398-26.6846Q93.75-22.0703 93.75-12.3047L93.75 7.51953Q93.75 17.2852 98.3398 21.8994Q102.93 26.5137 112.646 26.5137ZM112.549 10.791Q110.938 10.791 110.181 10.0342Q109.424 9.27734 109.424 7.66602L109.424-12.4512Q109.424-14.0625 110.181-14.8193Q110.938-15.5762 112.549-15.5762L144.824-15.5762Q146.387-15.5762 147.144-14.8193Q147.9-14.0625 147.9-12.4512L147.9 7.66602Q147.9 9.27734 147.144 10.0342Q146.387 10.791 144.824 10.791Z"/>
  </g>
  <g id="Heavy-L" transform="matrix(1 0 0 1 2547.87 1556)">
   <path d="M33.1512-39.4455L67.4904-39.4455Q76.1902-39.4455 80.3841-43.6275Q84.5779-47.8096 84.5779-56.6048L84.5779-78.6903Q84.5779-87.4855 80.3841-91.6676Q76.1902-95.8496 67.4904-95.8496L33.1512-95.8496Q24.4514-95.8496 20.2579-91.6676Q16.0645-87.4855 16.0645-78.6903L16.0645-56.6048Q16.0645-47.8096 20.2579-43.6275Q24.4514-39.4455 33.1512-39.4455ZM33.1001-53.2181Q31.4194-53.2181 30.6526-54.0337Q29.8859-54.8492 29.8859-56.5529L29.8859-78.791Q29.8859-80.4451 30.6526-81.2553Q31.4194-82.0656 33.1001-82.0656L67.5308-82.0656Q69.1734-82.0656 69.965-81.2553Q70.7565-80.4451 70.7565-78.791L70.7565-56.5529Q70.7565-54.8492 69.965-54.0337Q69.1734-53.2181 67.5308-53.2181ZM110.157-39.4455L144.496-39.4455Q153.196-39.4455 157.389-43.6275Q161.583-47.8096 161.583-56.6048L161.583-78.6903Q161.583-87.4855 157.389-91.6676Q153.196-95.8496 144.496-95.8496L110.157-95.8496Q101.408-95.8496 97.2393-91.6676Q93.0702-87.4855 93.0702-78.6903L93.0702-56.6048Q93.0702-47.8096 97.2393-43.6275Q101.408-39.4455 110.157-39.4455ZM110.117-53.2181Q108.437-53.2181 107.645-54.0337Q106.853-54.8492 106.853-56.5529L106.853-78.791Q106.853-80.4451 107.645-81.2553Q108.437-82.0656 110.117-82.0656L144.547-82.0656Q146.179-82.0656 146.971-81.2553Q147.762-80.4451 147.762-78.791L147.762-56.5529Q147.762-54.8492 146.971-54.0337Q146.179-53.2181 144.547-53.2181ZM33.1512 25.4997L67.4904 25.4997Q76.1902 25.4997 80.3841 21.3177Q84.5779 17.1356 84.5779 8.30307L84.5779-13.7451Q84.5779-22.5777 80.3841-26.7654Q76.1902-30.9532 67.4904-30.9532L33.1512-30.9532Q24.4514-30.9532 20.2579-26.7654Q16.0645-22.5777 16.0645-13.7451L16.0645 8.30307Q16.0645 17.1356 20.2579 21.3177Q24.4514 25.4997 33.1512 25.4997ZM33.1001 11.6783Q31.4194 11.6783 30.6526 10.8868Q29.8859 10.0952 29.8859 8.40378L29.8859-13.8458Q29.8859-15.538 30.6526-16.3349Q31.4194-17.1318 33.1001-17.1318L67.5308-17.1318Q69.1734-17.1318 69.965-16.3349Q70.7565-15.538 70.7565-13.8458L70.7565 8.40378Q70.7565 10.0952 69.965 10.8868Q69.1734 11.6783 67.5308 11.6783ZM110.157 25.4997L144.496 25.4997Q153.196 25.4997 157.389 21.3177Q161.583 17.1356 161.583 8.30307L161.583-13.7451Q161.583-22.5777 157.389-26.7654Q153.196-30.9532 144.496-30.9532L110.157-30.9532Q101.408-30.9532 97.2393-26.7654Q93.0702-22.5777 93.0702-13.7451L93.0702 8.30307Q93.0702 17.1356 97.2393 21.3177Q101.408 25.4997 110.157 25.4997ZM110.117 11.6783Q108.437 11.6783 107.645 10.8868Q106.853 10.0952 106.853 8.40378L106.853-13.8458Q106.853-15.538 107.645-16.3349Q108.437-17.1318 110.117-17.1318L144.547-17.1318Q146.179-17.1318 146.971-16.3349Q147.762-15.538 147.762-13.8458L147.762 8.40378Q147.762 10.0952 146.971 10.8868Q146.179 11.6783 144.547 11.6783Z"/>
  </g>
  <g id="Bold-L" transform="matrix(1 0 0 1 2252.29 1556)">
   <path d="M31.1279-39.8193L67.9932-39.8193Q75.6104-39.8193 79.3335-43.5181Q83.0566-47.2168 83.0566-54.9805L83.0566-79.541Q83.0566-87.3047 79.3335-91.0034Q75.6104-94.7021 67.9932-94.7021L31.1279-94.7021Q23.5107-94.7021 19.7876-91.0034Q16.0645-87.3047 16.0645-79.541L16.0645-54.9805Q16.0645-47.2168 19.7876-43.5181Q23.5107-39.8193 31.1279-39.8193ZM31.1279-51.4648Q29.3701-51.4648 28.5645-52.3193Q27.7588-53.1738 27.7588-54.9805L27.7588-79.5898Q27.7588-81.3477 28.5645-82.1899Q29.3701-83.0322 31.1279-83.0322L67.9688-83.0322Q69.7021-83.0322 70.5322-82.1899Q71.3623-81.3477 71.3623-79.5898L71.3623-54.9805Q71.3623-53.1738 70.5322-52.3193Q69.7021-51.4648 67.9688-51.4648ZM107.373-39.8193L144.238-39.8193Q151.855-39.8193 155.579-43.5181Q159.302-47.2168 159.302-54.9805L159.302-79.541Q159.302-87.3047 155.579-91.0034Q151.855-94.7021 144.238-94.7021L107.373-94.7021Q99.707-94.7021 96.0083-91.0034Q92.3096-87.3047 92.3096-79.541L92.3096-54.9805Q92.3096-47.2168 96.0083-43.5181Q99.707-39.8193 107.373-39.8193ZM107.397-51.4648Q105.64-51.4648 104.81-52.3193Q103.979-53.1738 103.979-54.9805L103.979-79.5898Q103.979-81.3477 104.81-82.1899Q105.64-83.0322 107.397-83.0322L144.238-83.0322Q145.947-83.0322 146.777-82.1899Q147.607-81.3477 147.607-79.5898L147.607-54.9805Q147.607-53.1738 146.777-52.3193Q145.947-51.4648 144.238-51.4648ZM31.1279 24.3652L67.9932 24.3652Q75.6104 24.3652 79.3335 20.6665Q83.0566 16.9678 83.0566 9.17969L83.0566-15.3564Q83.0566-23.1445 79.3335-26.8555Q75.6104-30.5664 67.9932-30.5664L31.1279-30.5664Q23.5107-30.5664 19.7876-26.8555Q16.0645-23.1445 16.0645-15.3564L16.0645 9.17969Q16.0645 16.9678 19.7876 20.6665Q23.5107 24.3652 31.1279 24.3652ZM31.1279 12.6709Q29.3701 12.6709 28.5645 11.8408Q27.7588 11.0107 27.7588 9.22852L27.7588-15.4053Q27.7588-17.1875 28.5645-18.0298Q29.3701-18.8721 31.1279-18.8721L67.9688-18.8721Q69.7021-18.8721 70.5322-18.0298Q71.3623-17.1875 71.3623-15.4053L71.3623 9.22852Q71.3623 11.0107 70.5322 11.8408Q69.7021 12.6709 67.9688 12.6709ZM107.373 24.3652L144.238 24.3652Q151.855 24.3652 155.579 20.6665Q159.302 16.9678 159.302 9.17969L159.302-15.3564Q159.302-23.1445 155.579-26.8555Q151.855-30.5664 144.238-30.5664L107.373-30.5664Q99.707-30.5664 96.0083-26.8555Q92.3096-23.1445 92.3096-15.3564L92.3096 9.17969Q92.3096 16.9678 96.0083 20.6665Q99.707 24.3652 107.373 24.3652ZM107.397 12.6709Q105.64 12.6709 104.81 11.8408Q103.979 11.0107 103.979 9.22852L103.979-15.4053Q103.979-17.1875 104.81-18.0298Q105.64-18.8721 107.397-18.8721L144.238-18.8721Q145.947-18.8721 146.777-18.0298Q147.607-17.1875 147.607-15.4053L147.607 9.22852Q147.607 11.0107 146.777 11.8408Q145.947 12.6709 144.238 12.6709Z"/>
  </g>
  <g id="Semibold-L" transform="matrix(1 0 0 1 1956.37 1556)">
   <path d="M29.7325-40.0772L68.3395-40.0772Q75.2106-40.0772 78.6091-43.4425Q82.0076-46.8079 82.0076-53.8605L82.0076-80.1277Q82.0076-87.1803 78.6091-90.5457Q75.2106-93.911 68.3395-93.911L29.7325-93.911Q22.8622-93.911 19.4633-90.5457Q16.0645-87.1803 16.0645-80.1277L16.0645-53.8605Q16.0645-46.8079 19.4633-43.4425Q22.8622-40.0772 29.7325-40.0772ZM29.7684-50.2563Q27.9572-50.2563 27.1248-51.1375Q26.2924-52.0187 26.2924-53.8963L26.2924-80.1407Q26.2924-81.9695 27.1248-82.8342Q27.9572-83.699 29.7684-83.699L68.2709-83.699Q70.0668-83.699 70.9232-82.8342Q71.7796-81.9695 71.7796-80.1407L71.7796-53.8963Q71.7796-52.0187 70.9232-51.1375Q70.0668-50.2563 68.2709-50.2563ZM105.453-40.0772L144.061-40.0772Q150.932-40.0772 154.33-43.4425Q157.729-46.8079 157.729-53.8605L157.729-80.1277Q157.729-87.1803 154.33-90.5457Q150.932-93.911 144.061-93.911L105.453-93.911Q98.5336-93.911 95.1595-90.5457Q91.7854-87.1803 91.7854-80.1277L91.7854-53.8605Q91.7854-46.8079 95.1595-43.4425Q98.5336-40.0772 105.453-40.0772ZM105.522-50.2563Q103.711-50.2563 102.854-51.1375Q101.997-52.0187 101.997-53.8963L101.997-80.1407Q101.997-81.9695 102.854-82.8342Q103.711-83.699 105.522-83.699L144.025-83.699Q145.787-83.699 146.644-82.8342Q147.501-81.9695 147.501-80.1407L147.501-53.8963Q147.501-52.0187 146.644-51.1375Q145.787-50.2563 144.025-50.2563ZM29.7325 23.5832L68.3395 23.5832Q75.2106 23.5832 78.6091 20.2179Q82.0076 16.8526 82.0076 9.78394L82.0076-16.4673Q82.0076-23.5359 78.6091-26.918Q75.2106-30.3001 68.3395-30.3001L29.7325-30.3001Q22.8622-30.3001 19.4633-26.918Q16.0645-23.5359 16.0645-16.4673L16.0645 9.78394Q16.0645 16.8526 19.4633 20.2179Q22.8622 23.5832 29.7325 23.5832ZM29.7684 13.3553Q27.9572 13.3553 27.1248 12.4985Q26.2924 11.6417 26.2924 9.79767L26.2924-16.4803Q26.2924-18.325 27.1248-19.1986Q27.9572-20.0722 29.7684-20.0722L68.2709-20.0722Q70.0668-20.0722 70.9232-19.1986Q71.7796-18.325 71.7796-16.4803L71.7796 9.79767Q71.7796 11.6417 70.9232 12.4985Q70.0668 13.3553 68.2709 13.3553ZM105.453 23.5832L144.061 23.5832Q150.932 23.5832 154.33 20.2179Q157.729 16.8526 157.729 9.78394L157.729-16.4673Q157.729-23.5359 154.33-26.918Q150.932-30.3001 144.061-30.3001L105.453-30.3001Q98.5336-30.3001 95.1595-26.918Q91.7854-23.5359 91.7854-16.4673L91.7854 9.78394Q91.7854 16.8526 95.1595 20.2179Q98.5336 23.5832 105.453 23.5832ZM105.522 13.3553Q103.711 13.3553 102.854 12.4985Q101.997 11.6417 101.997 9.79767L101.997-16.4803Q101.997-18.325 102.854-19.1986Q103.711-20.0722 105.522-20.0722L144.025-20.0722Q145.787-20.0722 146.644-19.1986Q147.501-18.325 147.501-16.4803L147.501 9.79767Q147.501 11.6417 146.644 12.4985Q145.787 13.3553 144.025 13.3553Z"/>
  </g>
  <g id="Medium-L" transform="matrix(1 0 0 1 1660.26 1556)">
   <path d="M28.6751-40.2725L68.6028-40.2725Q74.9069-40.2725 78.0598-43.3853Q81.2126-46.4981 81.2126-53.0113L81.2126-80.5725Q81.2126-87.0857 78.0598-90.1985Q74.9069-93.3113 68.6028-93.3113L28.6751-93.3113Q22.3701-93.3113 19.2173-90.1985Q16.0645-87.0857 16.0645-80.5725L16.0645-53.0113Q16.0645-46.4981 19.2173-43.3853Q22.3701-40.2725 28.6751-40.2725ZM28.7369-49.3401Q26.886-49.3401 26.0334-50.2415Q25.1808-51.1429 25.1808-53.0739L25.1808-80.5588Q25.1808-82.4417 26.0334-83.3229Q26.886-84.2041 28.7369-84.2041L68.4998-84.2041Q70.343-84.2041 71.22-83.3229Q72.097-82.4417 72.097-80.5588L72.097-53.0739Q72.097-51.1429 71.22-50.2415Q70.343-49.3401 68.4998-49.3401ZM103.998-40.2725L143.925-40.2725Q150.23-40.2725 153.383-43.3853Q156.536-46.4981 156.536-53.0113L156.536-80.5725Q156.536-87.0857 153.383-90.1985Q150.23-93.3113 143.925-93.3113L103.998-93.3113Q97.6448-93.3113 94.5164-90.1985Q91.3879-87.0857 91.3879-80.5725L91.3879-53.0113Q91.3879-46.4981 94.5164-43.3853Q97.6448-40.2725 103.998-40.2725ZM104.101-49.3401Q102.249-49.3401 101.372-50.2415Q100.495-51.1429 100.495-53.0739L100.495-80.5588Q100.495-82.4417 101.372-83.3229Q102.249-84.2041 104.101-84.2041L143.863-84.2041Q145.666-84.2041 146.543-83.3229Q147.42-82.4417 147.42-80.5588L147.42-53.0739Q147.42-51.1429 146.543-50.2415Q145.666-49.3401 143.863-49.3401ZM28.6751 22.9904L68.6028 22.9904Q74.9069 22.9904 78.0598 19.8776Q81.2126 16.7648 81.2126 10.2425L81.2126-17.3096Q81.2126-23.8319 78.0598-26.965Q74.9069-30.098 68.6028-30.098L28.6751-30.098Q22.3701-30.098 19.2173-26.965Q16.0645-23.8319 16.0645-17.3096L16.0645 10.2425Q16.0645 16.7648 19.2173 19.8776Q22.3701 22.9904 28.6751 22.9904ZM28.7369 13.8741Q26.886 13.8741 26.0334 12.9971Q25.1808 12.1201 25.1808 10.2287L25.1808-17.2958Q25.1808-19.1879 26.0334-20.0848Q26.886-20.9816 28.7369-20.9816L68.4998-20.9816Q70.343-20.9816 71.22-20.0848Q72.097-19.1879 72.097-17.2958L72.097 10.2287Q72.097 12.1201 71.22 12.9971Q70.343 13.8741 68.4998 13.8741ZM103.998 22.9904L143.925 22.9904Q150.23 22.9904 153.383 19.8776Q156.536 16.7648 156.536 10.2425L156.536-17.3096Q156.536-23.8319 153.383-26.965Q150.23-30.098 143.925-30.098L103.998-30.098Q97.6448-30.098 94.5164-26.965Q91.3879-23.8319 91.3879-17.3096L91.3879 10.2425Q91.3879 16.7648 94.5164 19.8776Q97.6448 22.9904 103.998 22.9904ZM104.101 13.8741Q102.249 13.8741 101.372 12.9971Q100.495 12.1201 100.495 10.2287L100.495-17.2958Q100.495-19.1879 101.372-20.0848Q102.249-20.9816 104.101-20.9816L143.863-20.9816Q145.666-20.9816 146.543-20.0848Q147.42-19.1879 147.42-17.2958L147.42 10.2287Q147.42 12.1201 146.543 12.9971Q145.666 13.8741 143.863 13.8741Z"/>
  </g>
  <g id="Regular-L" transform="matrix(1 0 0 1 1364.32 1556)">
   <path d="M27.2949-40.5273L68.9453-40.5273Q74.5117-40.5273 77.3438-43.3105Q80.1758-46.0938 80.1758-51.9043L80.1758-81.1523Q80.1758-86.9629 77.3438-89.7461Q74.5117-92.5293 68.9453-92.5293L27.2949-92.5293Q21.7285-92.5293 18.8965-89.7461Q16.0645-86.9629 16.0645-81.1523L16.0645-51.9043Q16.0645-46.0938 18.8965-43.3105Q21.7285-40.5273 27.2949-40.5273ZM27.3926-48.1445Q25.4883-48.1445 24.6094-49.0723Q23.7305-50 23.7305-52.002L23.7305-81.1035Q23.7305-83.0566 24.6094-83.96Q25.4883-84.8633 27.3926-84.8633L68.7988-84.8633Q70.7031-84.8633 71.6064-83.96Q72.5098-83.0566 72.5098-81.1035L72.5098-52.002Q72.5098-50 71.6064-49.0723Q70.7031-48.1445 68.7988-48.1445ZM102.1-40.5273L143.75-40.5273Q149.316-40.5273 152.148-43.3105Q154.98-46.0938 154.98-51.9043L154.98-81.1523Q154.98-86.9629 152.148-89.7461Q149.316-92.5293 143.75-92.5293L102.1-92.5293Q96.4844-92.5293 93.6768-89.7461Q90.8691-86.9629 90.8691-81.1523L90.8691-51.9043Q90.8691-46.0938 93.6768-43.3105Q96.4844-40.5273 102.1-40.5273ZM102.246-48.1445Q100.342-48.1445 99.4385-49.0723Q98.5352-50 98.5352-52.002L98.5352-81.1035Q98.5352-83.0566 99.4385-83.96Q100.342-84.8633 102.246-84.8633L143.652-84.8633Q145.508-84.8633 146.411-83.96Q147.314-83.0566 147.314-81.1035L147.314-52.002Q147.314-50 146.411-49.0723Q145.508-48.1445 143.652-48.1445ZM27.2949 22.2168L68.9453 22.2168Q74.5117 22.2168 77.3438 19.4336Q80.1758 16.6504 80.1758 10.8398L80.1758-18.4082Q80.1758-24.2188 77.3438-27.0264Q74.5117-29.834 68.9453-29.834L27.2949-29.834Q21.7285-29.834 18.8965-27.0264Q16.0645-24.2188 16.0645-18.4082L16.0645 10.8398Q16.0645 16.6504 18.8965 19.4336Q21.7285 22.2168 27.2949 22.2168ZM27.3926 14.5508Q25.4883 14.5508 24.6094 13.6475Q23.7305 12.7441 23.7305 10.791L23.7305-18.3594Q23.7305-20.3125 24.6094-21.2402Q25.4883-22.168 27.3926-22.168L68.7988-22.168Q70.7031-22.168 71.6064-21.2402Q72.5098-20.3125 72.5098-18.3594L72.5098 10.791Q72.5098 12.7441 71.6064 13.6475Q70.7031 14.5508 68.7988 14.5508ZM102.1 22.2168L143.75 22.2168Q149.316 22.2168 152.148 19.4336Q154.98 16.6504 154.98 10.8398L154.98-18.4082Q154.98-24.2188 152.148-27.0264Q149.316-29.834 143.75-29.834L102.1-29.834Q96.4844-29.834 93.6768-27.0264Q90.8691-24.2188 90.8691-18.4082L90.8691 10.8398Q90.8691 16.6504 93.6768 19.4336Q96.4844 22.2168 102.1 22.2168ZM102.246 14.5508Q100.342 14.5508 99.4385 13.6475Q98.5352 12.7441 98.5352 10.791L98.5352-18.3594Q98.5352-20.3125 99.4385-21.2402Q100.342-22.168 102.246-22.168L143.652-22.168Q145.508-22.168 146.411-21.2402Q147.314-20.3125 147.314-18.3594L147.314 10.791Q147.314 12.7441 146.411 13.6475Q145.508 14.5508 143.652 14.5508Z"/>
  </g>
  <g id="Light-L" transform="matrix(1 0 0 1 1068.44 1556)">
   <path d="M26.1597-40.6639L69.0819-40.6639Q74.0578-40.6639 76.6174-43.129Q79.1771-45.594 79.1771-50.8598L79.1771-81.5002Q79.1771-86.7661 76.6174-89.2239Q74.0578-91.6817 69.0819-91.6817L26.1597-91.6817Q21.1838-91.6817 18.6241-89.2239Q16.0645-86.7661 16.0645-81.5002L16.0645-50.8598Q16.0645-45.594 18.6241-43.129Q21.1838-40.6639 26.1597-40.6639ZM26.2878-46.6309Q24.0501-46.6309 23.0579-47.657Q22.0657-48.6832 22.0657-50.9727L22.0657-81.4064Q22.0657-83.6624 23.0579-84.6714Q24.0501-85.6804 26.2878-85.6804L68.9201-85.6804Q71.1571-85.6804 72.1664-84.6714Q73.1758-83.6624 73.1758-81.4064L73.1758-50.9727Q73.1758-48.6832 72.1664-47.657Q71.1571-46.6309 68.9201-46.6309ZM100.298-40.6639L143.221-40.6639Q148.181-40.6639 150.748-43.129Q153.316-45.594 153.316-50.8598L153.316-81.5002Q153.316-86.7661 150.748-89.2239Q148.181-91.6817 143.221-91.6817L100.298-91.6817Q95.2888-91.6817 92.746-89.2239Q90.2031-86.7661 90.2031-81.5002L90.2031-50.8598Q90.2031-45.594 92.746-43.129Q95.2888-40.6639 100.298-40.6639ZM100.445-46.6309Q98.2224-46.6309 97.2134-47.657Q96.2044-48.6832 96.2044-50.9727L96.2044-81.4064Q96.2044-83.6624 97.2134-84.6714Q98.2224-85.6804 100.445-85.6804L143.092-85.6804Q145.296-85.6804 146.305-84.6714Q147.314-83.6624 147.314-81.4064L147.314-50.9727Q147.314-48.6832 146.305-47.657Q145.296-46.6309 143.092-46.6309ZM26.1597 21.4142L69.0819 21.4142Q74.0578 21.4142 76.6174 18.9491Q79.1771 16.4841 79.1771 11.2183L79.1771-19.4221Q79.1771-24.688 76.6174-27.1626Q74.0578-29.6371 69.0819-29.6371L26.1597-29.6371Q21.1838-29.6371 18.6241-27.1626Q16.0645-24.688 16.0645-19.4221L16.0645 11.2183Q16.0645 16.4841 18.6241 18.9491Q21.1838 21.4142 26.1597 21.4142ZM26.2878 15.4137Q24.0501 15.4137 23.0579 14.4043Q22.0657 13.3949 22.0657 11.1237L22.0657-19.3283Q22.0657-21.5988 23.0579-22.6173Q24.0501-23.6359 26.2878-23.6359L68.9201-23.6359Q71.1571-23.6359 72.1664-22.6173Q73.1758-21.5988 73.1758-19.3283L73.1758 11.1237Q73.1758 13.3949 72.1664 14.4043Q71.1571 15.4137 68.9201 15.4137ZM100.298 21.4142L143.221 21.4142Q148.181 21.4142 150.748 18.9491Q153.316 16.4841 153.316 11.2183L153.316-19.4221Q153.316-24.688 150.748-27.1626Q148.181-29.6371 143.221-29.6371L100.298-29.6371Q95.2888-29.6371 92.746-27.1626Q90.2031-24.688 90.2031-19.4221L90.2031 11.2183Q90.2031 16.4841 92.746 18.9491Q95.2888 21.4142 100.298 21.4142ZM100.445 15.4137Q98.2224 15.4137 97.2134 14.4043Q96.2044 13.3949 96.2044 11.1237L96.2044-19.3283Q96.2044-21.5988 97.2134-22.6173Q98.2224-23.6359 100.445-23.6359L143.092-23.6359Q145.296-23.6359 146.305-22.6173Q147.314-21.5988 147.314-19.3283L147.314 11.1237Q147.314 13.3949 146.305 14.4043Q145.296 15.4137 143.092 15.4137Z"/>
  </g>
  <g id="Thin-L" transform="matrix(1 0 0 1 772.833 1556)">
   <path d="M24.6582-40.844L69.2619-40.844Q73.4573-40.844 75.6565-42.8886Q77.8557-44.9333 77.8557-49.4789L77.8557-81.9611Q77.8557-86.5059 75.6565-88.5334Q73.4573-90.5609 69.2619-90.5609L24.6582-90.5609Q20.4628-90.5609 18.2636-88.5334Q16.0645-86.5059 16.0645-81.9611L16.0645-49.4789Q16.0645-44.9333 18.2636-42.8886Q20.4628-40.844 24.6582-40.844ZM24.826-44.6289Q22.1489-44.6289 21.006-45.7851Q19.8631-46.9414 19.8631-49.6117L19.8631-81.8069Q19.8631-84.4627 21.006-85.6121Q22.1489-86.7615 24.826-86.7615L69.0804-86.7615Q71.7575-86.7615 72.9069-85.6121Q74.0562-84.4627 74.0562-81.8069L74.0562-49.6117Q74.0562-46.9414 72.9069-45.7851Q71.7575-44.6289 69.0804-44.6289ZM97.9164-40.844L142.519-40.844Q146.68-40.844 148.896-42.8886Q151.113-44.9333 151.113-49.4789L151.113-81.9611Q151.113-86.5059 148.896-88.5334Q146.68-90.5609 142.519-90.5609L97.9164-90.5609Q93.7073-90.5609 91.515-88.5334Q89.3227-86.5059 89.3227-81.9611L89.3227-49.4789Q89.3227-44.9333 91.515-42.8886Q93.7073-40.844 97.9164-40.844ZM98.0629-44.6289Q95.4201-44.6289 94.2707-45.7851Q93.1213-46.9414 93.1213-49.6117L93.1213-81.8069Q93.1213-84.4627 94.2707-85.6121Q95.4201-86.7615 98.0629-86.7615L142.352-86.7615Q145.016-86.7615 146.165-85.6121Q147.314-84.4627 147.314-81.8069L147.314-49.6117Q147.314-46.9414 146.165-45.7851Q145.016-44.6289 142.352-44.6289ZM24.6582 20.3537L69.2619 20.3537Q73.4573 20.3537 75.6565 18.3086Q77.8557 16.2636 77.8557 11.7188L77.8557-20.7634Q77.8557-25.3082 75.6565-27.3426Q73.4573-29.377 69.2619-29.377L24.6582-29.377Q20.4628-29.377 18.2636-27.3426Q16.0645-25.3082 16.0645-20.7634L16.0645 11.7188Q16.0645 16.2636 18.2636 18.3086Q20.4628 20.3537 24.6582 20.3537ZM24.826 16.5543Q22.1489 16.5543 21.006 15.4049Q19.8631 14.2555 19.8631 11.5646L19.8631-20.6093Q19.8631-23.3009 21.006-24.4396Q22.1489-25.5783 24.826-25.5783L69.0804-25.5783Q71.7575-25.5783 72.9069-24.4396Q74.0562-23.3009 74.0562-20.6093L74.0562 11.5646Q74.0562 14.2555 72.9069 15.4049Q71.7575 16.5543 69.0804 16.5543ZM97.9164 20.3537L142.519 20.3537Q146.68 20.3537 148.896 18.3086Q151.113 16.2636 151.113 11.7188L151.113-20.7634Q151.113-25.3082 148.896-27.3426Q146.68-29.377 142.519-29.377L97.9164-29.377Q93.7073-29.377 91.515-27.3426Q89.3227-25.3082 89.3227-20.7634L89.3227 11.7188Q89.3227 16.2636 91.515 18.3086Q93.7073 20.3537 97.9164 20.3537ZM98.0629 16.5543Q95.4201 16.5543 94.2707 15.4049Q93.1213 14.2555 93.1213 11.5646L93.1213-20.6093Q93.1213-23.3009 94.2707-24.4396Q95.4201-25.5783 98.0629-25.5783L142.352-25.5783Q145.016-25.5783 146.165-24.4396Q147.314-23.3009 147.314-20.6093L147.314 11.5646Q147.314 14.2555 146.165 15.4049Q145.016 16.5543 142.352 16.5543Z"/>
  </g>
  <g id="Ultralight-L" transform="matrix(1 0 0 1 476.686 1556)">
   <path d="M23.8892-40.9363L69.3542-40.9363Q73.1491-40.9363 75.164-42.7658Q77.179-44.5953 77.179-48.7709L77.179-82.1968Q77.179-86.3724 75.164-88.1794Q73.1491-89.9864 69.3542-89.9864L23.8892-89.9864Q20.0935-89.9864 18.079-88.1794Q16.0645-86.3724 16.0645-82.1968L16.0645-48.7709Q16.0645-44.5953 18.079-42.7658Q20.0935-40.9363 23.8892-40.9363ZM24.0776-43.6035Q21.1746-43.6035 19.9551-44.8265Q18.7355-46.0495 18.7355-48.9143L18.7355-82.0114Q18.7355-84.8732 19.9551-86.0943Q21.1746-87.3154 24.0776-87.3154L69.162-87.3154Q72.0657-87.3154 73.2868-86.0943Q74.5079-84.8732 74.5079-82.0114L74.5079-48.9143Q74.5079-46.0495 73.2868-44.8265Q72.0657-43.6035 69.162-43.6035ZM96.6957-40.9363L142.161-40.9363Q145.911-40.9363 147.948-42.7658Q149.986-44.5953 149.986-48.7709L149.986-82.1968Q149.986-86.3724 147.948-88.1794Q145.911-89.9864 142.161-89.9864L96.6957-89.9864Q92.897-89.9864 90.884-88.1794Q88.871-86.3724 88.871-82.1968L88.871-48.7709Q88.871-44.5953 90.884-42.7658Q92.897-40.9363 96.6957-40.9363ZM96.8422-43.6035Q93.9842-43.6035 92.7631-44.8265Q91.5421-46.0495 91.5421-48.9143L91.5421-82.0114Q91.5421-84.8732 92.7631-86.0943Q93.9842-87.3154 96.8422-87.3154L141.972-87.3154Q144.872-87.3154 146.093-86.0943Q147.314-84.8732 147.314-82.0114L147.314-48.9143Q147.314-46.0495 146.093-44.8265Q144.872-43.6035 141.972-43.6035ZM23.8892 19.8097L69.3542 19.8097Q73.1491 19.8097 75.164 17.9802Q77.179 16.1507 77.179 11.9751L77.179-21.4508Q77.179-25.6264 75.164-27.4349Q73.1491-29.2435 69.3542-29.2435L23.8892-29.2435Q20.0935-29.2435 18.079-27.4349Q16.0645-25.6264 16.0645-21.4508L16.0645 11.9751Q16.0645 16.1507 18.079 17.9802Q20.0935 19.8097 23.8892 19.8097ZM24.0776 17.1394Q21.1746 17.1394 19.9551 15.918Q18.7355 14.6965 18.7355 11.7897L18.7355-21.2654Q18.7355-24.1722 19.9551-25.3723Q21.1746-26.5724 24.0776-26.5724L69.162-26.5724Q72.0657-26.5724 73.2868-25.3723Q74.5079-24.1722 74.5079-21.2654L74.5079 11.7897Q74.5079 14.6965 73.2868 15.918Q72.0657 17.1394 69.162 17.1394ZM96.6957 19.8097L142.161 19.8097Q145.911 19.8097 147.948 17.9802Q149.986 16.1507 149.986 11.9751L149.986-21.4508Q149.986-25.6264 147.948-27.4349Q145.911-29.2435 142.161-29.2435L96.6957-29.2435Q92.897-29.2435 90.884-27.4349Q88.871-25.6264 88.871-21.4508L88.871 11.9751Q88.871 16.1507 90.884 17.9802Q92.897 19.8097 96.6957 19.8097ZM96.8422 17.1394Q93.9842 17.1394 92.7631 15.918Q91.5421 14.6965 91.5421 11.7897L91.5421-21.2654Q91.5421-24.1722 92.7631-25.3723Q93.9842-26.5724 96.8422-26.5724L141.972-26.5724Q144.872-26.5724 146.093-25.3723Q147.314-24.1722 147.314-21.2654L147.314 11.7897Q147.314 14.6965 146.093 15.918Q144.872 17.1394 141.972 17.1394Z"/>
  </g>
  <g id="Black-M" transform="matrix(1 0 0 1 2863.19 1126)">
   <path d="M28.2715-37.9883L51.6113-37.9883Q59.7656-37.9883 63.5986-41.8213Q67.4316-45.6543 67.4316-53.8086L67.4316-67.7734Q67.4316-75.9277 63.5986-79.7607Q59.7656-83.5938 51.6113-83.5938L28.2715-83.5938Q20.1172-83.5938 16.2842-79.7607Q12.4512-75.9277 12.4512-67.7734L12.4512-53.8086Q12.4512-45.6543 16.2842-41.8213Q20.1172-37.9883 28.2715-37.9883ZM28.1738-51.2207Q26.8555-51.2207 26.2695-51.8066Q25.6836-52.3926 25.6836-53.7109L25.6836-67.9199Q25.6836-69.1895 26.2695-69.7754Q26.8555-70.3613 28.1738-70.3613L51.709-70.3613Q53.0273-70.3613 53.6133-69.7754Q54.1992-69.1895 54.1992-67.9199L54.1992-53.7109Q54.1992-52.3926 53.6133-51.8066Q53.0273-51.2207 51.709-51.2207ZM88.8184-37.9883L112.158-37.9883Q120.312-37.9883 124.146-41.8213Q127.979-45.6543 127.979-53.8086L127.979-67.7734Q127.979-75.9277 124.146-79.7607Q120.312-83.5938 112.158-83.5938L88.8184-83.5938Q80.6641-83.5938 76.8311-79.7607Q72.998-75.9277 72.998-67.7734L72.998-53.8086Q72.998-45.6543 76.8311-41.8213Q80.6641-37.9883 88.8184-37.9883ZM88.7207-51.2207Q87.4023-51.2207 86.8164-51.8066Q86.2305-52.3926 86.2305-53.7109L86.2305-67.9199Q86.2305-69.1895 86.8164-69.7754Q87.4023-70.3613 88.7207-70.3613L112.256-70.3613Q113.574-70.3613 114.16-69.7754Q114.746-69.1895 114.746-67.9199L114.746-53.7109Q114.746-52.3926 114.16-51.8066Q113.574-51.2207 112.256-51.2207ZM28.2715 13.2324L51.6113 13.2324Q59.7656 13.2324 63.5986 9.375Q67.4316 5.51758 67.4316-2.63672L67.4316-16.6016Q67.4316-24.707 63.5986-28.5645Q59.7656-32.4219 51.6113-32.4219L28.2715-32.4219Q20.1172-32.4219 16.2842-28.5645Q12.4512-24.707 12.4512-16.6016L12.4512-2.63672Q12.4512 5.51758 16.2842 9.375Q20.1172 13.2324 28.2715 13.2324ZM28.1738 0Q26.8555 0 26.2695-0.610352Q25.6836-1.2207 25.6836-2.49023L25.6836-16.6992Q25.6836-17.9688 26.2695-18.5791Q26.8555-19.1895 28.1738-19.1895L51.709-19.1895Q53.0273-19.1895 53.6133-18.5791Q54.1992-17.9688 54.1992-16.6992L54.1992-2.49023Q54.1992-1.2207 53.6133-0.610352Q53.0273 0 51.709 0ZM88.8184 13.2324L112.158 13.2324Q120.312 13.2324 124.146 9.375Q127.979 5.51758 127.979-2.63672L127.979-16.6016Q127.979-24.707 124.146-28.5645Q120.312-32.4219 112.158-32.4219L88.8184-32.4219Q80.6641-32.4219 76.8311-28.5645Q72.998-24.707 72.998-16.6016L72.998-2.63672Q72.998 5.51758 76.8311 9.375Q80.6641 13.2324 88.8184 13.2324ZM88.7207 0Q87.4023 0 86.8164-0.610352Q86.2305-1.2207 86.2305-2.49023L86.2305-16.6992Q86.2305-17.9688 86.8164-18.5791Q87.4023-19.1895 88.7207-19.1895L112.256-19.1895Q113.574-19.1895 114.16-18.5791Q114.746-17.9688 114.746-16.6992L114.746-2.49023Q114.746-1.2207 114.16-0.610352Q113.574 0 112.256 0Z"/>
  </g>
  <g id="Heavy-M" transform="matrix(1 0 0 1 2567.29 1126)">
   <path d="M26.7387-38.2767L52.0264-38.2767Q59.3506-38.2767 62.8323-41.7637Q66.3139-45.2507 66.3139-52.6215L66.3139-68.4418Q66.3139-75.8125 62.8323-79.2942Q59.3506-82.7759 52.0264-82.7759L26.7387-82.7759Q19.4145-82.7759 15.9328-79.2942Q12.4512-75.8125 12.4512-68.4418L12.4512-52.6215Q12.4512-45.2507 15.9328-41.7637Q19.4145-38.2767 26.7387-38.2767ZM26.6869-50.0107Q25.3807-50.0107 24.7829-50.6195Q24.1852-51.2283 24.1852-52.5467L24.1852-68.5539Q24.1852-69.8349 24.7829-70.438Q25.3807-71.0411 26.6869-71.0411L52.066-71.0411Q53.373-71.0411 53.9761-70.438Q54.5792-69.8349 54.5792-68.5539L54.5792-52.5467Q54.5792-51.2283 53.9761-50.6195Q53.373-50.0107 52.066-50.0107ZM86.7668-38.2767L112.054-38.2767Q119.379-38.2767 122.86-41.7637Q126.342-45.2507 126.342-52.6215L126.342-68.4418Q126.342-75.8125 122.86-79.2942Q119.379-82.7759 112.054-82.7759L86.7668-82.7759Q79.4426-82.7759 75.9609-79.2942Q72.4792-75.8125 72.4792-68.4418L72.4792-52.6215Q72.4792-45.2507 75.9609-41.7637Q79.4426-38.2767 86.7668-38.2767ZM86.7271-50.0107Q85.4088-50.0107 84.8114-50.6195Q84.214-51.2283 84.214-52.5467L84.214-68.5539Q84.214-69.8349 84.8114-70.438Q85.4088-71.0411 86.7271-71.0411L112.106-71.0411Q113.413-71.0411 114.011-70.438Q114.608-69.8349 114.608-68.5539L114.608-52.5467Q114.608-51.2283 114.011-50.6195Q113.413-50.0107 112.106-50.0107ZM26.7387 12.4146L52.0264 12.4146Q59.3506 12.4146 62.8323 8.91418Q66.3139 5.41382 66.3139-1.95694L66.3139-17.7887Q66.3139-25.1106 62.8323-28.6163Q59.3506-32.122 52.0264-32.122L26.7387-32.122Q19.4145-32.122 15.9328-28.6163Q12.4512-25.1106 12.4512-17.7887L12.4512-1.95694Q12.4512 5.41382 15.9328 8.91418Q19.4145 12.4146 26.7387 12.4146ZM26.6869 0.679779Q25.3807 0.679779 24.7829 0.0579834Q24.1852-0.563812 24.1852-1.84479L24.1852-17.852Q24.1852-19.1444 24.7829-19.7662Q25.3807-20.388 26.6869-20.388L52.066-20.388Q53.373-20.388 53.9761-19.7662Q54.5792-19.1444 54.5792-17.852L54.5792-1.84479Q54.5792-0.563812 53.9761 0.0579834Q53.373 0.679779 52.066 0.679779ZM86.7668 12.4146L112.054 12.4146Q119.379 12.4146 122.86 8.91418Q126.342 5.41382 126.342-1.95694L126.342-17.7887Q126.342-25.1106 122.86-28.6163Q119.379-32.122 112.054-32.122L86.7668-32.122Q79.4426-32.122 75.9609-28.6163Q72.4792-25.1106 72.4792-17.7887L72.4792-1.95694Q72.4792 5.41382 75.9609 8.91418Q79.4426 12.4146 86.7668 12.4146ZM86.7271 0.679779Q85.4088 0.679779 84.8114 0.0579834Q84.214-0.563812 84.214-1.84479L84.214-17.852Q84.214-19.1444 84.8114-19.7662Q85.4088-20.388 86.7271-20.388L112.106-20.388Q113.413-20.388 114.011-19.7662Q114.608-19.1444 114.608-17.852L114.608-1.84479Q114.608-0.563812 114.011 0.0579834Q113.413 0.679779 112.106 0.679779Z"/>
  </g>
  <g id="Bold-M" transform="matrix(1 0 0 1 2271.5 1126)">
   <path d="M25.0244-38.5986L52.4902-38.5986Q58.8867-38.5986 61.9751-41.6992Q65.0635-44.7998 65.0635-51.2939L65.0635-69.1895Q65.0635-75.6836 61.9751-78.772Q58.8867-81.8604 52.4902-81.8604L25.0244-81.8604Q18.6279-81.8604 15.5396-78.772Q12.4512-75.6836 12.4512-69.1895L12.4512-51.2939Q12.4512-44.7998 15.5396-41.6992Q18.6279-38.5986 25.0244-38.5986ZM25.0244-48.6572Q23.7305-48.6572 23.1201-49.292Q22.5098-49.9268 22.5098-51.2451L22.5098-69.2627Q22.5098-70.5566 23.1201-71.1792Q23.7305-71.8018 25.0244-71.8018L52.4658-71.8018Q53.7598-71.8018 54.3823-71.1792Q55.0049-70.5566 55.0049-69.2627L55.0049-51.2451Q55.0049-49.9268 54.3823-49.292Q53.7598-48.6572 52.4658-48.6572ZM84.4727-38.5986L111.938-38.5986Q118.335-38.5986 121.423-41.6992Q124.512-44.7998 124.512-51.2939L124.512-69.1895Q124.512-75.6836 121.423-78.772Q118.335-81.8604 111.938-81.8604L84.4727-81.8604Q78.0762-81.8604 74.9878-78.772Q71.8994-75.6836 71.8994-69.1895L71.8994-51.2939Q71.8994-44.7998 74.9878-41.6992Q78.0762-38.5986 84.4727-38.5986ZM84.4971-48.6572Q83.1787-48.6572 82.5684-49.292Q81.958-49.9268 81.958-51.2451L81.958-69.2627Q81.958-70.5566 82.5684-71.1792Q83.1787-71.8018 84.4971-71.8018L111.938-71.8018Q113.232-71.8018 113.843-71.1792Q114.453-70.5566 114.453-69.2627L114.453-51.2451Q114.453-49.9268 113.843-49.292Q113.232-48.6572 111.938-48.6572ZM25.0244 11.499L52.4902 11.499Q58.8867 11.499 61.9751 8.39844Q65.0635 5.29785 65.0635-1.19629L65.0635-19.1162Q65.0635-25.5615 61.9751-28.6743Q58.8867-31.7871 52.4902-31.7871L25.0244-31.7871Q18.6279-31.7871 15.5396-28.6743Q12.4512-25.5615 12.4512-19.1162L12.4512-1.19629Q12.4512 5.29785 15.5396 8.39844Q18.6279 11.499 25.0244 11.499ZM25.0244 1.44043Q23.7305 1.44043 23.1201 0.805664Q22.5098 0.170898 22.5098-1.12305L22.5098-19.1406Q22.5098-20.459 23.1201-21.0938Q23.7305-21.7285 25.0244-21.7285L52.4658-21.7285Q53.7598-21.7285 54.3823-21.0938Q55.0049-20.459 55.0049-19.1406L55.0049-1.12305Q55.0049 0.170898 54.3823 0.805664Q53.7598 1.44043 52.4658 1.44043ZM84.4727 11.499L111.938 11.499Q118.335 11.499 121.423 8.39844Q124.512 5.29785 124.512-1.19629L124.512-19.1162Q124.512-25.5615 121.423-28.6743Q118.335-31.7871 111.938-31.7871L84.4727-31.7871Q78.0762-31.7871 74.9878-28.6743Q71.8994-25.5615 71.8994-19.1162L71.8994-1.19629Q71.8994 5.29785 74.9878 8.39844Q78.0762 11.499 84.4727 11.499ZM84.4971 1.44043Q83.1787 1.44043 82.5684 0.805664Q81.958 0.170898 81.958-1.12305L81.958-19.1406Q81.958-20.459 82.5684-21.0938Q83.1787-21.7285 84.4971-21.7285L111.938-21.7285Q113.232-21.7285 113.843-21.0938Q114.453-20.459 114.453-19.1406L114.453-1.12305Q114.453 0.170898 113.843 0.805664Q113.232 1.44043 111.938 1.44043Z"/>
  </g>
  <g id="Semibold-M" transform="matrix(1 0 0 1 1975.42 1126)">
   <path d="M23.8426-38.8206L52.8099-38.8206Q58.567-38.8206 61.3842-41.6546Q64.2014-44.4885 64.2014-50.3784L64.2014-69.7052Q64.2014-75.5951 61.3842-78.4122Q58.567-81.2294 52.8099-81.2294L23.8426-81.2294Q18.0855-81.2294 15.2683-78.4122Q12.4512-75.5951 12.4512-69.7052L12.4512-50.3784Q12.4512-44.4885 15.2683-41.6546Q18.0855-38.8206 23.8426-38.8206ZM23.8777-47.7242Q22.5929-47.7242 21.9738-48.3768Q21.3547-49.0295 21.3547-50.3479L21.3547-69.7517Q21.3547-71.0541 21.9738-71.69Q22.5929-72.3259 23.8777-72.3259L52.7412-72.3259Q54.026-72.3259 54.6619-71.69Q55.2979-71.0541 55.2979-69.7517L55.2979-50.3479Q55.2979-49.0295 54.6619-48.3768Q54.026-47.7242 52.7412-47.7242ZM82.8911-38.8206L111.858-38.8206Q117.615-38.8206 120.432-41.6546Q123.25-44.4885 123.25-50.3784L123.25-69.7052Q123.25-75.5951 120.432-78.4122Q117.615-81.2294 111.858-81.2294L82.8911-81.2294Q77.1339-81.2294 74.3168-78.4122Q71.4996-75.5951 71.4996-69.7052L71.4996-50.3784Q71.4996-44.4885 74.3168-41.6546Q77.1339-38.8206 82.8911-38.8206ZM82.9597-47.7242Q81.6414-47.7242 81.0223-48.3768Q80.4031-49.0295 80.4031-50.3479L80.4031-69.7517Q80.4031-71.0541 81.0223-71.69Q81.6414-72.3259 82.9597-72.3259L111.823-72.3259Q113.108-72.3259 113.727-71.69Q114.346-71.0541 114.346-69.7517L114.346-50.3479Q114.346-49.0295 113.727-48.3768Q113.108-47.7242 111.823-47.7242ZM23.8426 10.8681L52.8099 10.8681Q58.567 10.8681 61.3842 8.04291Q64.2014 5.21774 64.2014-0.67215L64.2014-20.0317Q64.2014-25.8728 61.3842-28.7144Q58.567-31.5559 52.8099-31.5559L23.8426-31.5559Q18.0855-31.5559 15.2683-28.7144Q12.4512-25.8728 12.4512-20.0317L12.4512-0.67215Q12.4512 5.21774 15.2683 8.04291Q18.0855 10.8681 23.8426 10.8681ZM23.8777 1.96457Q22.5929 1.96457 21.9738 1.32103Q21.3547 0.67749 21.3547-0.62561L21.3547-20.0294Q21.3547-21.3654 21.9738-22.0089Q22.5929-22.6524 23.8777-22.6524L52.7412-22.6524Q54.026-22.6524 54.6619-22.0089Q55.2979-21.3654 55.2979-20.0294L55.2979-0.62561Q55.2979 0.67749 54.6619 1.32103Q54.026 1.96457 52.7412 1.96457ZM82.8911 10.8681L111.858 10.8681Q117.615 10.8681 120.432 8.04291Q123.25 5.21774 123.25-0.67215L123.25-20.0317Q123.25-25.8728 120.432-28.7144Q117.615-31.5559 111.858-31.5559L82.8911-31.5559Q77.1339-31.5559 74.3168-28.7144Q71.4996-25.8728 71.4996-20.0317L71.4996-0.67215Q71.4996 5.21774 74.3168 8.04291Q77.1339 10.8681 82.8911 10.8681ZM82.9597 1.96457Q81.6414 1.96457 81.0223 1.32103Q80.4031 0.67749 80.4031-0.62561L80.4031-20.0294Q80.4031-21.3654 81.0223-22.0089Q81.6414-22.6524 82.9597-22.6524L111.823-22.6524Q113.108-22.6524 113.727-22.0089Q114.346-21.3654 114.346-20.0294L114.346-0.62561Q114.346 0.67749 113.727 1.32103Q113.108 1.96457 111.823 1.96457Z"/>
  </g>
  <g id="Medium-M" transform="matrix(1 0 0 1 1679.18 1126)">
   <path d="M22.9462-38.9893L53.0525-38.9893Q58.3244-38.9893 60.936-41.621Q63.5475-44.2528 63.5475-49.6849L63.5475-70.0958Q63.5475-75.5272 60.936-78.1391Q58.3244-80.751 53.0525-80.751L22.9462-80.751Q17.675-80.751 15.0631-78.1391Q12.4512-75.5272 12.4512-70.0958L12.4512-49.6849Q12.4512-44.2528 15.0631-41.621Q17.675-38.9893 22.9462-38.9893ZM23.0087-47.0169Q21.7308-47.0169 21.1048-47.6826Q20.4788-48.3482 20.4788-49.6666L20.4788-70.1218Q20.4788-71.4317 21.1048-72.0776Q21.7308-72.7234 23.0087-72.7234L52.9503-72.7234Q54.2282-72.7234 54.8744-72.0776Q55.5206-71.4317 55.5206-70.1218L55.5206-49.6666Q55.5206-48.3482 54.8744-47.6826Q54.2282-47.0169 52.9503-47.0169ZM81.691-38.9893L111.798-38.9893Q117.069-38.9893 119.681-41.621Q122.293-44.2528 122.293-49.6849L122.293-70.0958Q122.293-75.5272 119.681-78.1391Q117.069-80.751 111.798-80.751L81.691-80.751Q76.4198-80.751 73.8079-78.1391Q71.196-75.5272 71.196-70.0958L71.196-49.6849Q71.196-44.2528 73.8079-41.621Q76.4198-38.9893 81.691-38.9893ZM81.794-47.0169Q80.4756-47.0169 79.8496-47.6826Q79.2236-48.3482 79.2236-49.6666L79.2236-70.1218Q79.2236-71.4317 79.8496-72.0776Q80.4756-72.7234 81.794-72.7234L111.736-72.7234Q113.013-72.7234 113.639-72.0776Q114.265-71.4317 114.265-70.1218L114.265-49.6666Q114.265-48.3482 113.639-47.6826Q113.013-47.0169 111.736-47.0169ZM22.9462 10.3897L53.0525 10.3897Q58.3244 10.3897 60.936 7.77359Q63.5475 5.15747 63.5475-0.274658L63.5475-20.7253Q63.5475-26.1086 60.936-28.7449Q58.3244-31.3812 53.0525-31.3812L22.9462-31.3812Q17.675-31.3812 15.0631-28.7449Q12.4512-26.1086 12.4512-20.7253L12.4512-0.274658Q12.4512 5.15747 15.0631 7.77359Q17.675 10.3897 22.9462 10.3897ZM23.0087 2.36206Q21.7308 2.36206 21.1048 1.71165Q20.4788 1.06125 20.4788-0.247955L20.4788-20.7031Q20.4788-22.0528 21.1048-22.7032Q21.7308-23.3536 23.0087-23.3536L52.9503-23.3536Q54.2282-23.3536 54.8744-22.7032Q55.5206-22.0528 55.5206-20.7031L55.5206-0.247955Q55.5206 1.06125 54.8744 1.71165Q54.2282 2.36206 52.9503 2.36206ZM81.691 10.3897L111.798 10.3897Q117.069 10.3897 119.681 7.77359Q122.293 5.15747 122.293-0.274658L122.293-20.7253Q122.293-26.1086 119.681-28.7449Q117.069-31.3812 111.798-31.3812L81.691-31.3812Q76.4198-31.3812 73.8079-28.7449Q71.196-26.1086 71.196-20.7253L71.196-0.274658Q71.196 5.15747 73.8079 7.77359Q76.4198 10.3897 81.691 10.3897ZM81.794 2.36206Q80.4756 2.36206 79.8496 1.71165Q79.2236 1.06125 79.2236-0.247955L79.2236-20.7031Q79.2236-22.0528 79.8496-22.7032Q80.4756-23.3536 81.794-23.3536L111.736-23.3536Q113.013-23.3536 113.639-22.7032Q114.265-22.0528 114.265-20.7031L114.265-0.247955Q114.265 1.06125 113.639 1.71165Q113.013 2.36206 111.736 2.36206Z"/>
  </g>
  <g id="Regular-M" transform="matrix(1 0 0 1 1383.1 1126)">
   <path d="M21.7773-39.209L53.3691-39.209Q58.0078-39.209 60.3516-41.5771Q62.6953-43.9453 62.6953-48.7793L62.6953-70.6055Q62.6953-75.4395 60.3516-77.7832Q58.0078-80.127 53.3691-80.127L21.7773-80.127Q17.1387-80.127 14.7949-77.7832Q12.4512-75.4395 12.4512-70.6055L12.4512-48.7793Q12.4512-43.9453 14.7949-41.5771Q17.1387-39.209 21.7773-39.209ZM21.875-46.0938Q20.6055-46.0938 19.9707-46.7773Q19.3359-47.4609 19.3359-48.7793L19.3359-70.6055Q19.3359-71.9238 19.9707-72.583Q20.6055-73.2422 21.875-73.2422L53.2227-73.2422Q54.4922-73.2422 55.1514-72.583Q55.8105-71.9238 55.8105-70.6055L55.8105-48.7793Q55.8105-47.4609 55.1514-46.7773Q54.4922-46.0938 53.2227-46.0938ZM80.127-39.209L111.719-39.209Q116.357-39.209 118.701-41.5771Q121.045-43.9453 121.045-48.7793L121.045-70.6055Q121.045-75.4395 118.701-77.7832Q116.357-80.127 111.719-80.127L80.127-80.127Q75.4883-80.127 73.1445-77.7832Q70.8008-75.4395 70.8008-70.6055L70.8008-48.7793Q70.8008-43.9453 73.1445-41.5771Q75.4883-39.209 80.127-39.209ZM80.2734-46.0938Q78.9551-46.0938 78.3203-46.7773Q77.6855-47.4609 77.6855-48.7793L77.6855-70.6055Q77.6855-71.9238 78.3203-72.583Q78.9551-73.2422 80.2734-73.2422L111.621-73.2422Q112.891-73.2422 113.525-72.583Q114.16-71.9238 114.16-70.6055L114.16-48.7793Q114.16-47.4609 113.525-46.7773Q112.891-46.0938 111.621-46.0938ZM21.7773 9.76562L53.3691 9.76562Q58.0078 9.76562 60.3516 7.42188Q62.6953 5.07812 62.6953 0.244141L62.6953-21.6309Q62.6953-26.416 60.3516-28.7842Q58.0078-31.1523 53.3691-31.1523L21.7773-31.1523Q17.1387-31.1523 14.7949-28.7842Q12.4512-26.416 12.4512-21.6309L12.4512 0.244141Q12.4512 5.07812 14.7949 7.42188Q17.1387 9.76562 21.7773 9.76562ZM21.875 2.88086Q20.6055 2.88086 19.9707 2.22168Q19.3359 1.5625 19.3359 0.244141L19.3359-21.582Q19.3359-22.9492 19.9707-23.6084Q20.6055-24.2676 21.875-24.2676L53.2227-24.2676Q54.4922-24.2676 55.1514-23.6084Q55.8105-22.9492 55.8105-21.582L55.8105 0.244141Q55.8105 1.5625 55.1514 2.22168Q54.4922 2.88086 53.2227 2.88086ZM80.127 9.76562L111.719 9.76562Q116.357 9.76562 118.701 7.42188Q121.045 5.07812 121.045 0.244141L121.045-21.6309Q121.045-26.416 118.701-28.7842Q116.357-31.1523 111.719-31.1523L80.127-31.1523Q75.4883-31.1523 73.1445-28.7842Q70.8008-26.416 70.8008-21.6309L70.8008 0.244141Q70.8008 5.07812 73.1445 7.42188Q75.4883 9.76562 80.127 9.76562ZM80.2734 2.88086Q78.9551 2.88086 78.3203 2.22168Q77.6855 1.5625 77.6855 0.244141L77.6855-21.582Q77.6855-22.9492 78.3203-23.6084Q78.9551-24.2676 80.2734-24.2676L111.621-24.2676Q112.891-24.2676 113.525-23.6084Q114.16-22.9492 114.16-21.582L114.16 0.244141Q114.16 1.5625 113.525 2.22168Q112.891 2.88086 111.621 2.88086Z"/>
  </g>
  <g id="Light-M" transform="matrix(1 0 0 1 1087.13 1126)">
   <path d="M20.7634-39.3456L53.4904-39.3456Q57.5989-39.3456 59.7004-41.4185Q61.8019-43.4914 61.8019-47.8256L61.8019-70.9236Q61.8019-75.2579 59.7004-77.314Q57.5989-79.3701 53.4904-79.3701L20.7634-79.3701Q16.6542-79.3701 14.5527-77.314Q12.4512-75.2579 12.4512-70.9236L12.4512-47.8256Q12.4512-43.4914 14.5527-41.4185Q16.6542-39.3456 20.7634-39.3456ZM20.8763-44.7464Q19.3039-44.7464 18.5707-45.5059Q17.8375-46.2654 17.8375-47.8714L17.8375-70.8778Q17.8375-72.4838 18.5707-73.2262Q19.3039-73.9685 20.8763-73.9685L53.344-73.9685Q54.9164-73.9685 55.6664-73.2262Q56.4163-72.4838 56.4163-70.8778L56.4163-47.8714Q56.4163-46.2654 55.6664-45.5059Q54.9164-44.7464 53.344-44.7464ZM78.5225-39.3456L111.234-39.3456Q115.343-39.3456 117.453-41.4185Q119.562-43.4914 119.562-47.8256L119.562-70.9236Q119.562-75.2579 117.453-77.314Q115.343-79.3701 111.234-79.3701L78.5225-79.3701Q74.4133-79.3701 72.3118-77.314Q70.2103-75.2579 70.2103-70.9236L70.2103-47.8256Q70.2103-43.4914 72.3118-41.4185Q74.4133-39.3456 78.5225-39.3456ZM78.6537-44.7464Q77.063-44.7464 76.3298-45.5059Q75.5966-46.2654 75.5966-47.8714L75.5966-70.8778Q75.5966-72.4838 76.3298-73.2262Q77.063-73.9685 78.6537-73.9685L111.137-73.9685Q112.694-73.9685 113.427-73.2262Q114.16-72.4838 114.16-70.8778L114.16-47.8714Q114.16-46.2654 113.427-45.5059Q112.694-44.7464 111.137-44.7464ZM20.7634 9.03931L53.4904 9.03931Q57.5989 9.03931 59.7004 6.98318Q61.8019 4.92706 61.8019 0.592041L61.8019-22.5388Q61.8019-26.8402 59.7004-28.9131Q57.5989-30.986 53.4904-30.986L20.7634-30.986Q16.6542-30.986 14.5527-28.9131Q12.4512-26.8402 12.4512-22.5388L12.4512 0.592041Q12.4512 4.92706 14.5527 6.98318Q16.6542 9.03931 20.7634 9.03931ZM20.8763 3.6377Q19.3039 3.6377 18.5707 2.89536Q17.8375 2.15302 17.8375 0.547028L17.8375-22.4602Q17.8375-24.0997 18.5707-24.8421Q19.3039-25.5844 20.8763-25.5844L53.344-25.5844Q54.9164-25.5844 55.6664-24.8421Q56.4163-24.0997 56.4163-22.4602L56.4163 0.547028Q56.4163 2.15302 55.6664 2.89536Q54.9164 3.6377 53.344 3.6377ZM78.5225 9.03931L111.234 9.03931Q115.343 9.03931 117.453 6.98318Q119.562 4.92706 119.562 0.592041L119.562-22.5388Q119.562-26.8402 117.453-28.9131Q115.343-30.986 111.234-30.986L78.5225-30.986Q74.4133-30.986 72.3118-28.9131Q70.2103-26.8402 70.2103-22.5388L70.2103 0.592041Q70.2103 4.92706 72.3118 6.98318Q74.4133 9.03931 78.5225 9.03931ZM78.6537 3.6377Q77.063 3.6377 76.3298 2.89536Q75.5966 2.15302 75.5966 0.547028L75.5966-22.4602Q75.5966-24.0997 76.3298-24.8421Q77.063-25.5844 78.6537-25.5844L111.137-25.5844Q112.694-25.5844 113.427-24.8421Q114.16-24.0997 114.16-22.4602L114.16 0.547028Q114.16 2.15302 113.427 2.89536Q112.694 3.6377 111.137 3.6377Z"/>
  </g>
  <g id="Thin-M" transform="matrix(1 0 0 1 791.397 1126)">
   <path d="M19.4221-39.5256L53.6507-39.5256Q57.0587-39.5256 58.8398-41.2083Q60.6209-42.8909 60.6209-46.5645L60.6209-71.344Q60.6209-75.0175 58.8398-76.6933Q57.0587-78.3691 53.6507-78.3691L19.4221-78.3691Q16.0141-78.3691 14.2326-76.6933Q12.4512-75.0175 12.4512-71.344L12.4512-46.5645Q12.4512-42.8909 14.2326-41.2083Q16.0141-39.5256 19.4221-39.5256ZM19.5549-42.9649Q17.5819-42.9649 16.7187-43.8244Q15.8554-44.6838 15.8554-46.6698L15.8554-71.2379Q15.8554-73.2246 16.7187-74.0772Q17.5819-74.9298 19.5549-74.9298L53.5042-74.9298Q55.4764-74.9298 56.3465-74.0772Q57.2166-73.2246 57.2166-71.2379L57.2166-46.6698Q57.2166-44.6838 56.3465-43.8244Q55.4764-42.9649 53.5042-42.9649ZM76.4008-39.5256L110.594-39.5256Q114.002-39.5256 115.801-41.2083Q117.599-42.8909 117.599-46.5645L117.599-71.344Q117.599-75.0175 115.801-76.6933Q114.002-78.3691 110.594-78.3691L76.4008-78.3691Q72.9919-78.3691 71.2109-76.6933Q69.4298-75.0175 69.4298-71.344L69.4298-46.5645Q69.4298-42.8909 71.2109-41.2083Q72.9919-39.5256 76.4008-39.5256ZM76.5121-42.9649Q74.5605-42.9649 73.6973-43.8244Q72.834-44.6838 72.834-46.6698L72.834-71.2379Q72.834-73.2246 73.6973-74.0772Q74.5605-74.9298 76.5121-74.9298L110.497-74.9298Q112.434-74.9298 113.297-74.0772Q114.16-73.2246 114.16-71.2379L114.16-46.6698Q114.16-44.6838 113.297-43.8244Q112.434-42.9649 110.497-42.9649ZM19.4221 8.078L53.6507 8.078Q57.0587 8.078 58.8398 6.40221Q60.6209 4.72641 60.6209 1.05286L60.6209-23.7404Q60.6209-27.4002 58.8398-29.0829Q57.0587-30.7655 53.6507-30.7655L19.4221-30.7655Q16.0141-30.7655 14.2326-29.0829Q12.4512-27.4002 12.4512-23.7404L12.4512 1.05286Q12.4512 4.72641 14.2326 6.40221Q16.0141 8.078 19.4221 8.078ZM19.5549 4.63867Q17.5819 4.63867 16.7187 3.78609Q15.8554 2.9335 15.8554 0.947571L15.8554-23.6214Q15.8554-25.621 16.7187-26.4736Q17.5819-27.3262 19.5549-27.3262L53.5042-27.3262Q55.4764-27.3262 56.3465-26.4736Q57.2166-25.621 57.2166-23.6214L57.2166 0.947571Q57.2166 2.9335 56.3465 3.78609Q55.4764 4.63867 53.5042 4.63867ZM76.4008 8.078L110.594 8.078Q114.002 8.078 115.801 6.40221Q117.599 4.72641 117.599 1.05286L117.599-23.7404Q117.599-27.4002 115.801-29.0829Q114.002-30.7655 110.594-30.7655L76.4008-30.7655Q72.9919-30.7655 71.2109-29.0829Q69.4298-27.4002 69.4298-23.7404L69.4298 1.05286Q69.4298 4.72641 71.2109 6.40221Q72.9919 8.078 76.4008 8.078ZM76.5121 4.63867Q74.5605 4.63867 73.6973 3.78609Q72.834 2.9335 72.834 0.947571L72.834-23.6214Q72.834-25.621 73.6973-26.4736Q74.5605-27.3262 76.5121-27.3262L110.497-27.3262Q112.434-27.3262 113.297-26.4736Q114.16-25.621 114.16-23.6214L114.16 0.947571Q114.16 2.9335 113.297 3.78609Q112.434 4.63867 110.497 4.63867Z"/>
  </g>
  <g id="Ultralight-M" transform="matrix(1 0 0 1 495.188 1126)">
   <path d="M18.7347-39.6179L53.7323-39.6179Q56.7818-39.6179 58.3988-41.1003Q60.0159-42.5827 60.0159-45.9183L60.0159-71.5591Q60.0159-74.8947 58.3988-76.3756Q56.7818-77.8564 53.7323-77.8564L18.7347-77.8564Q15.6853-77.8564 14.0682-76.3756Q12.4512-74.8947 12.4512-71.5591L12.4512-45.9183Q12.4512-42.5827 14.0682-41.1003Q15.6853-39.6179 18.7347-39.6179ZM18.8782-42.0525Q16.7-42.0525 15.7703-42.963Q14.8407-43.8736 14.8407-46.0548L14.8407-71.4226Q14.8407-73.6038 15.7703-74.5129Q16.7-75.4219 18.8782-75.4219L53.5858-75.4219Q55.764-75.4219 56.6956-74.5129Q57.6271-73.6038 57.6271-71.4226L57.6271-46.0548Q57.6271-43.8736 56.6956-42.963Q55.764-42.0525 53.5858-42.0525ZM75.3136-39.6179L110.265-39.6179Q113.315-39.6179 114.955-41.1003Q116.595-42.5827 116.595-45.9183L116.595-71.5591Q116.595-74.8947 114.955-76.3756Q113.315-77.8564 110.265-77.8564L75.3136-77.8564Q72.2641-77.8564 70.647-76.3756Q69.03-74.8947 69.03-71.5591L69.03-45.9183Q69.03-42.5827 70.647-41.1003Q72.2641-39.6179 75.3136-39.6179ZM75.4143-42.0525Q73.2788-42.0525 72.3488-42.963Q71.4188-43.8736 71.4188-46.0548L71.4188-71.4226Q71.4188-73.6038 72.3488-74.5129Q73.2788-75.4219 75.4143-75.4219L110.168-75.4219Q112.3-75.4219 113.23-74.5129Q114.16-73.6038 114.16-71.4226L114.16-46.0548Q114.16-43.8736 113.23-42.963Q112.3-42.0525 110.168-42.0525ZM18.7347 7.58591L53.7323 7.58591Q56.7818 7.58591 58.3988 6.10504Q60.0159 4.62418 60.0159 1.2886L60.0159-24.3553Q60.0159-27.6878 58.3988-29.1702Q56.7818-30.6526 53.7323-30.6526L18.7347-30.6526Q15.6853-30.6526 14.0682-29.1702Q12.4512-27.6878 12.4512-24.3553L12.4512 1.2886Q12.4512 4.62418 14.0682 6.10504Q15.6853 7.58591 18.7347 7.58591ZM18.8782 5.15137Q16.7 5.15137 15.7703 4.24232Q14.8407 3.33328 14.8407 1.15204L14.8407-24.2157Q14.8407-26.4 15.7703-27.309Q16.7-28.2181 18.8782-28.2181L53.5858-28.2181Q55.764-28.2181 56.6956-27.309Q57.6271-26.4 57.6271-24.2157L57.6271 1.15204Q57.6271 3.33328 56.6956 4.24232Q55.764 5.15137 53.5858 5.15137ZM75.3136 7.58591L110.265 7.58591Q113.315 7.58591 114.955 6.10504Q116.595 4.62418 116.595 1.2886L116.595-24.3553Q116.595-27.6878 114.955-29.1702Q113.315-30.6526 110.265-30.6526L75.3136-30.6526Q72.2641-30.6526 70.647-29.1702Q69.03-27.6878 69.03-24.3553L69.03 1.2886Q69.03 4.62418 70.647 6.10504Q72.2641 7.58591 75.3136 7.58591ZM75.4143 5.15137Q73.2788 5.15137 72.3488 4.24232Q71.4188 3.33328 71.4188 1.15204L71.4188-24.2157Q71.4188-26.4 72.3488-27.309Q73.2788-28.2181 75.4143-28.2181L110.168-28.2181Q112.3-28.2181 113.23-27.309Q114.16-26.4 114.16-24.2157L114.16 1.15204Q114.16 3.33328 113.23 4.24232Q112.3 5.15137 110.168 5.15137Z"/>
  </g>
  <g id="Black-S" transform="matrix(1 0 0 1 2878.18 696)">
   <path d="M22.5586-37.3047L40.332-37.3047Q46.9238-37.3047 50.0244-40.4053Q53.125-43.5059 53.125-50.0977L53.125-60.5469Q53.125-67.1387 50.0244-70.2393Q46.9238-73.3398 40.332-73.3398L22.5586-73.3398Q15.9668-73.3398 12.8662-70.2393Q9.76562-67.1387 9.76562-60.5469L9.76562-50.0977Q9.76562-43.5059 12.8662-40.4053Q15.9668-37.3047 22.5586-37.3047ZM22.4609-48.0469Q20.5078-48.0469 20.5078-50L20.5078-60.6445Q20.5078-62.5977 22.4609-62.5977L40.4297-62.5977Q42.3828-62.5977 42.3828-60.6445L42.3828-50Q42.3828-48.0469 40.4297-48.0469ZM70.1172-37.3047L87.8906-37.3047Q94.4824-37.3047 97.583-40.4053Q100.684-43.5059 100.684-50.0977L100.684-60.5469Q100.684-67.1387 97.583-70.2393Q94.4824-73.3398 87.8906-73.3398L70.1172-73.3398Q63.5254-73.3398 60.4248-70.2393Q57.3242-67.1387 57.3242-60.5469L57.3242-50.0977Q57.3242-43.5059 60.4248-40.4053Q63.5254-37.3047 70.1172-37.3047ZM70.0195-48.0469Q68.0664-48.0469 68.0664-50L68.0664-60.6445Q68.0664-62.5977 70.0195-62.5977L87.9883-62.5977Q89.9414-62.5977 89.9414-60.6445L89.9414-50Q89.9414-48.0469 87.9883-48.0469ZM22.5586 2.92969L40.332 2.92969Q46.9238 2.92969 50.0244-0.170898Q53.125-3.27148 53.125-9.86328L53.125-20.3125Q53.125-26.9043 50.0244-30.0049Q46.9238-33.1055 40.332-33.1055L22.5586-33.1055Q15.9668-33.1055 12.8662-30.0049Q9.76562-26.9043 9.76562-20.3125L9.76562-9.86328Q9.76562-3.27148 12.8662-0.170898Q15.9668 2.92969 22.5586 2.92969ZM22.4609-7.8125Q20.5078-7.8125 20.5078-9.76562L20.5078-20.4102Q20.5078-22.3633 22.4609-22.3633L40.4297-22.3633Q42.3828-22.3633 42.3828-20.4102L42.3828-9.76562Q42.3828-7.8125 40.4297-7.8125ZM70.1172 2.92969L87.8906 2.92969Q94.4824 2.92969 97.583-0.170898Q100.684-3.27148 100.684-9.86328L100.684-20.3125Q100.684-26.9043 97.583-30.0049Q94.4824-33.1055 87.8906-33.1055L70.1172-33.1055Q63.5254-33.1055 60.4248-30.0049Q57.3242-26.9043 57.3242-20.3125L57.3242-9.86328Q57.3242-3.27148 60.4248-0.170898Q63.5254 2.92969 70.1172 2.92969ZM70.0195-7.8125Q68.0664-7.8125 68.0664-9.76562L68.0664-20.4102Q68.0664-22.3633 70.0195-22.3633L87.9883-22.3633Q89.9414-22.3633 89.9414-20.4102L89.9414-9.76562Q89.9414-7.8125 87.9883-7.8125Z"/>
  </g>
  <g id="Heavy-S" transform="matrix(1 0 0 1 2582.07 696)">
   <path d="M21.3829-37.5351L40.6662-37.5351Q46.624-37.5351 49.4537-40.3763Q52.2835-43.2175 52.2835-49.1989L52.2835-61.0771Q52.2835-67.0578 49.4537-69.8994Q46.624-72.7409 40.6662-72.7409L21.3829-72.7409Q15.4251-72.7409 12.5954-69.8994Q9.76562-67.0578 9.76562-61.0771L9.76562-49.1989Q9.76562-43.2175 12.5954-40.3763Q15.4251-37.5351 21.3829-37.5351ZM21.3203-47.1939Q19.413-47.1939 19.413-49.1241L19.413-61.1633Q19.413-63.0814 21.3203-63.0814L40.7181-63.0814Q42.6361-63.0814 42.6361-61.1633L42.6361-49.1241Q42.6361-47.1939 40.7181-47.1939ZM68.573-37.5351L87.8563-37.5351Q93.8255-37.5351 96.6496-40.3763Q99.4736-43.2175 99.4736-49.1989L99.4736-61.0771Q99.4736-67.0578 96.6496-69.8994Q93.8255-72.7409 87.8563-72.7409L68.573-72.7409Q62.6152-72.7409 59.7855-69.8994Q56.9557-67.0578 56.9557-61.0771L56.9557-49.1989Q56.9557-43.2175 59.7855-40.3763Q62.6152-37.5351 68.573-37.5351ZM68.5211-47.1939Q66.6031-47.1939 66.6031-49.1241L66.6031-61.1633Q66.6031-63.0814 68.5211-63.0814L87.9189-63.0814Q89.8262-63.0814 89.8262-61.1633L89.8262-49.1241Q89.8262-47.1939 87.9189-47.1939ZM21.3829 2.33078L40.6662 2.33078Q46.624 2.33078 49.4537-0.505066Q52.2835-3.34091 52.2835-9.33304L52.2835-21.2112Q52.2835-27.1927 49.4537-30.0282Q46.624-32.8636 40.6662-32.8636L21.3829-32.8636Q15.4251-32.8636 12.5954-30.0282Q9.76562-27.1927 9.76562-21.2112L9.76562-9.33304Q9.76562-3.34091 12.5954-0.505066Q15.4251 2.33078 21.3829 2.33078ZM21.3203-7.3288Q19.413-7.3288 19.413-9.24683L19.413-21.286Q19.413-23.2162 21.3203-23.2162L40.7181-23.2162Q42.6361-23.2162 42.6361-21.286L42.6361-9.24683Q42.6361-7.3288 40.7181-7.3288ZM68.573 2.33078L87.8563 2.33078Q93.8255 2.33078 96.6496-0.505066Q99.4736-3.34091 99.4736-9.33304L99.4736-21.2112Q99.4736-27.1927 96.6496-30.0282Q93.8255-32.8636 87.8563-32.8636L68.573-32.8636Q62.6152-32.8636 59.7855-30.0282Q56.9557-27.1927 56.9557-21.2112L56.9557-9.33304Q56.9557-3.34091 59.7855-0.505066Q62.6152 2.33078 68.573 2.33078ZM68.5211-7.3288Q66.6031-7.3288 66.6031-9.24683L66.6031-21.286Q66.6031-23.2162 68.5211-23.2162L87.9189-23.2162Q89.8262-23.2162 89.8262-21.286L89.8262-9.24683Q89.8262-7.3288 87.9189-7.3288Z"/>
  </g>
  <g id="Bold-S" transform="matrix(1 0 0 1 2286.03 696)">
   <path d="M20.0684-37.793L41.04-37.793Q46.2891-37.793 48.8159-40.3442Q51.3428-42.8955 51.3428-48.1934L51.3428-61.6699Q51.3428-66.9678 48.8159-69.519Q46.2891-72.0703 41.04-72.0703L20.0684-72.0703Q14.8193-72.0703 12.2925-69.519Q9.76562-66.9678 9.76562-61.6699L9.76562-48.1934Q9.76562-42.8955 12.2925-40.3442Q14.8193-37.793 20.0684-37.793ZM20.0439-46.2402Q18.1885-46.2402 18.1885-48.1445L18.1885-61.7432Q18.1885-63.623 20.0439-63.623L41.04-63.623Q42.9199-63.623 42.9199-61.7432L42.9199-48.1445Q42.9199-46.2402 41.04-46.2402ZM66.8457-37.793L87.8174-37.793Q93.0908-37.793 95.6055-40.3442Q98.1201-42.8955 98.1201-48.1934L98.1201-61.6699Q98.1201-66.9678 95.6055-69.519Q93.0908-72.0703 87.8174-72.0703L66.8457-72.0703Q61.5967-72.0703 59.0698-69.519Q56.543-66.9678 56.543-61.6699L56.543-48.1934Q56.543-42.8955 59.0698-40.3442Q61.5967-37.793 66.8457-37.793ZM66.8457-46.2402Q64.9658-46.2402 64.9658-48.1445L64.9658-61.7432Q64.9658-63.623 66.8457-63.623L87.8418-63.623Q89.6973-63.623 89.6973-61.7432L89.6973-48.1445Q89.6973-46.2402 87.8418-46.2402ZM20.0684 1.66016L41.04 1.66016Q46.2891 1.66016 48.8159-0.878906Q51.3428-3.41797 51.3428-8.74023L51.3428-22.2168Q51.3428-27.5146 48.8159-30.0537Q46.2891-32.5928 41.04-32.5928L20.0684-32.5928Q14.8193-32.5928 12.2925-30.0537Q9.76562-27.5146 9.76562-22.2168L9.76562-8.74023Q9.76562-3.41797 12.2925-0.878906Q14.8193 1.66016 20.0684 1.66016ZM20.0439-6.78711Q18.1885-6.78711 18.1885-8.66699L18.1885-22.2656Q18.1885-24.1699 20.0439-24.1699L41.04-24.1699Q42.9199-24.1699 42.9199-22.2656L42.9199-8.66699Q42.9199-6.78711 41.04-6.78711ZM66.8457 1.66016L87.8174 1.66016Q93.0908 1.66016 95.6055-0.878906Q98.1201-3.41797 98.1201-8.74023L98.1201-22.2168Q98.1201-27.5146 95.6055-30.0537Q93.0908-32.5928 87.8174-32.5928L66.8457-32.5928Q61.5967-32.5928 59.0698-30.0537Q56.543-27.5146 56.543-22.2168L56.543-8.74023Q56.543-3.41797 59.0698-0.878906Q61.5967 1.66016 66.8457 1.66016ZM66.8457-6.78711Q64.9658-6.78711 64.9658-8.66699L64.9658-22.2656Q64.9658-24.1699 66.8457-24.1699L87.8418-24.1699Q89.6973-24.1699 89.6973-22.2656L89.6973-8.66699Q89.6973-6.78711 87.8418-6.78711Z"/>
  </g>
  <g id="Semibold-S" transform="matrix(1 0 0 1 1989.79 696)">
   <path d="M19.162-37.9707L41.2979-37.9707Q46.0579-37.9707 48.3761-40.3221Q50.6943-42.6735 50.6943-47.4998L50.6943-62.0789Q50.6943-66.9052 48.3761-69.2566Q46.0579-71.608 41.2979-71.608L19.162-71.608Q14.402-71.608 12.0838-69.2566Q9.76562-66.9052 9.76562-62.0789L9.76562-47.4998Q9.76562-42.6735 12.0838-40.3221Q14.402-37.9707 19.162-37.9707ZM19.1643-45.5826Q17.3439-45.5826 17.3439-47.4693L17.3439-62.1429Q17.3439-63.9961 19.1643-63.9961L41.2621-63.9961Q43.1152-63.9961 43.1152-62.1429L43.1152-47.4693Q43.1152-45.5826 41.2621-45.5826ZM65.6548-37.9707L87.7907-37.9707Q92.5842-37.9707 94.8856-40.3221Q97.187-42.6735 97.187-47.4998L97.187-62.0789Q97.187-66.9052 94.8856-69.2566Q92.5842-71.608 87.7907-71.608L65.6548-71.608Q60.8948-71.608 58.5766-69.2566Q56.2584-66.9052 56.2584-62.0789L56.2584-47.4998Q56.2584-42.6735 58.5766-40.3221Q60.8948-37.9707 65.6548-37.9707ZM65.6906-45.5826Q63.8374-45.5826 63.8374-47.4693L63.8374-62.1429Q63.8374-63.9961 65.6906-63.9961L87.7884-63.9961Q89.6088-63.9961 89.6088-62.1429L89.6088-47.4693Q89.6088-45.5826 87.7884-45.5826ZM19.162 1.19781L41.2979 1.19781Q46.0579 1.19781 48.3761-1.13678Q50.6943-3.47137 50.6943-8.3313L50.6943-22.9103Q50.6943-27.7367 48.3761-30.0713Q46.0579-32.4059 41.2979-32.4059L19.162-32.4059Q14.402-32.4059 12.0838-30.0713Q9.76562-27.7367 9.76562-22.9103L9.76562-8.3313Q9.76562-3.47137 12.0838-1.13678Q14.402 1.19781 19.162 1.19781ZM19.1643-6.41403Q17.3439-6.41403 17.3439-8.26721L17.3439-22.9408Q17.3439-24.8276 19.1643-24.8276L41.2621-24.8276Q43.1152-24.8276 43.1152-22.9408L43.1152-8.26721Q43.1152-6.41403 41.2621-6.41403ZM65.6548 1.19781L87.7907 1.19781Q92.5842 1.19781 94.8856-1.13678Q97.187-3.47137 97.187-8.3313L97.187-22.9103Q97.187-27.7367 94.8856-30.0713Q92.5842-32.4059 87.7907-32.4059L65.6548-32.4059Q60.8948-32.4059 58.5766-30.0713Q56.2584-27.7367 56.2584-22.9103L56.2584-8.3313Q56.2584-3.47137 58.5766-1.13678Q60.8948 1.19781 65.6548 1.19781ZM65.6906-6.41403Q63.8374-6.41403 63.8374-8.26721L63.8374-22.9408Q63.8374-24.8276 65.6906-24.8276L87.7884-24.8276Q89.6088-24.8276 89.6088-22.9408L89.6088-8.26721Q89.6088-6.41403 87.7884-6.41403Z"/>
  </g>
  <g id="Medium-S" transform="matrix(1 0 0 1 1693.43 696)">
   <path d="M18.4746-38.1058L41.4932-38.1058Q45.8832-38.1058 48.0427-40.3053Q50.2022-42.5049 50.2022-46.9749L50.2022-62.3886Q50.2022-66.8587 48.0427-69.0582Q45.8832-71.2578 41.4932-71.2578L18.4746-71.2578Q14.0846-71.2578 11.9251-69.0582Q9.76562-66.8587 9.76562-62.3886L9.76562-46.9749Q9.76562-42.5049 11.9251-40.3053Q14.0846-38.1058 18.4746-38.1058ZM18.4967-45.0836Q16.7038-45.0836 16.7038-46.9566L16.7038-62.4466Q16.7038-64.2792 18.4967-64.2792L41.4307-64.2792Q43.264-64.2792 43.264-62.4466L43.264-46.9566Q43.264-45.0836 41.4307-45.0836ZM64.7522-38.1058L87.7708-38.1058Q92.2005-38.1058 94.3401-40.3053Q96.4798-42.5049 96.4798-46.9749L96.4798-62.3886Q96.4798-66.8587 94.3401-69.0582Q92.2005-71.2578 87.7708-71.2578L64.7522-71.2578Q60.3622-71.2578 58.2027-69.0582Q56.0432-66.8587 56.0432-62.3886L56.0432-46.9749Q56.0432-42.5049 58.2027-40.3053Q60.3622-38.1058 64.7522-38.1058ZM64.8148-45.0836Q62.9814-45.0836 62.9814-46.9566L62.9814-62.4466Q62.9814-64.2792 64.8148-64.2792L87.748-64.2792Q89.5409-64.2792 89.5409-62.4466L89.5409-46.9566Q89.5409-45.0836 87.748-45.0836ZM18.4746 0.847626L41.4932 0.847626Q45.8832 0.847626 48.0427-1.33209Q50.2022-3.51181 50.2022-8.02155L50.2022-23.4352Q50.2022-27.9053 48.0427-30.085Q45.8832-32.2647 41.4932-32.2647L18.4746-32.2647Q14.0846-32.2647 11.9251-30.085Q9.76562-27.9053 9.76562-23.4352L9.76562-8.02155Q9.76562-3.51181 11.9251-1.33209Q14.0846 0.847626 18.4746 0.847626ZM18.4967-6.13098Q16.7038-6.13098 16.7038-7.96356L16.7038-23.4535Q16.7038-25.3265 18.4967-25.3265L41.4307-25.3265Q43.264-25.3265 43.264-23.4535L43.264-7.96356Q43.264-6.13098 41.4307-6.13098ZM64.7522 0.847626L87.7708 0.847626Q92.2005 0.847626 94.3401-1.33209Q96.4798-3.51181 96.4798-8.02155L96.4798-23.4352Q96.4798-27.9053 94.3401-30.085Q92.2005-32.2647 87.7708-32.2647L64.7522-32.2647Q60.3622-32.2647 58.2027-30.085Q56.0432-27.9053 56.0432-23.4352L56.0432-8.02155Q56.0432-3.51181 58.2027-1.33209Q60.3622 0.847626 64.7522 0.847626ZM64.8148-6.13098Q62.9814-6.13098 62.9814-7.96356L62.9814-23.4535Q62.9814-25.3265 64.8148-25.3265L87.748-25.3265Q89.5409-25.3265 89.5409-23.4535L89.5409-7.96356Q89.5409-6.13098 87.748-6.13098Z"/>
  </g>
  <g id="Regular-S" transform="matrix(1 0 0 1 1397.18 696)">
   <path d="M17.5781-38.2812L41.748-38.2812Q45.6543-38.2812 47.6074-40.2832Q49.5605-42.2852 49.5605-46.2891L49.5605-62.793Q49.5605-66.7969 47.6074-68.7988Q45.6543-70.8008 41.748-70.8008L17.5781-70.8008Q13.6719-70.8008 11.7188-68.7988Q9.76562-66.7969 9.76562-62.793L9.76562-46.2891Q9.76562-42.2852 11.7188-40.2832Q13.6719-38.2812 17.5781-38.2812ZM17.627-44.4336Q15.8691-44.4336 15.8691-46.2891L15.8691-62.8418Q15.8691-64.6484 17.627-64.6484L41.6504-64.6484Q43.457-64.6484 43.457-62.8418L43.457-46.2891Q43.457-44.4336 41.6504-44.4336ZM63.5742-38.2812L87.7441-38.2812Q91.6992-38.2812 93.6279-40.2832Q95.5566-42.2852 95.5566-46.2891L95.5566-62.793Q95.5566-66.7969 93.6279-68.7988Q91.6992-70.8008 87.7441-70.8008L63.5742-70.8008Q59.668-70.8008 57.7148-68.7988Q55.7617-66.7969 55.7617-62.793L55.7617-46.2891Q55.7617-42.2852 57.7148-40.2832Q59.668-38.2812 63.5742-38.2812ZM63.6719-44.4336Q61.8652-44.4336 61.8652-46.2891L61.8652-62.8418Q61.8652-64.6484 63.6719-64.6484L87.6953-64.6484Q89.4531-64.6484 89.4531-62.8418L89.4531-46.2891Q89.4531-44.4336 87.6953-44.4336ZM17.5781 0.390625L41.748 0.390625Q45.6543 0.390625 47.6074-1.58691Q49.5605-3.56445 49.5605-7.61719L49.5605-24.1211Q49.5605-28.125 47.6074-30.1025Q45.6543-32.0801 41.748-32.0801L17.5781-32.0801Q13.6719-32.0801 11.7188-30.1025Q9.76562-28.125 9.76562-24.1211L9.76562-7.61719Q9.76562-3.56445 11.7188-1.58691Q13.6719 0.390625 17.5781 0.390625ZM17.627-5.76172Q15.8691-5.76172 15.8691-7.56836L15.8691-24.1211Q15.8691-25.9766 17.627-25.9766L41.6504-25.9766Q43.457-25.9766 43.457-24.1211L43.457-7.56836Q43.457-5.76172 41.6504-5.76172ZM63.5742 0.390625L87.7441 0.390625Q91.6992 0.390625 93.6279-1.58691Q95.5566-3.56445 95.5566-7.61719L95.5566-24.1211Q95.5566-28.125 93.6279-30.1025Q91.6992-32.0801 87.7441-32.0801L63.5742-32.0801Q59.668-32.0801 57.7148-30.1025Q55.7617-28.125 55.7617-24.1211L55.7617-7.61719Q55.7617-3.56445 57.7148-1.58691Q59.668 0.390625 63.5742 0.390625ZM63.6719-5.76172Q61.8652-5.76172 61.8652-7.56836L61.8652-24.1211Q61.8652-25.9766 63.6719-25.9766L87.6953-25.9766Q89.4531-25.9766 89.4531-24.1211L89.4531-7.56836Q89.4531-5.76172 87.6953-5.76172Z"/>
  </g>
  <g id="Light-S" transform="matrix(1 0 0 1 1101.13 696)">
   <path d="M16.6847-38.4026L41.8541-38.4026Q45.2911-38.4026 47.0322-40.1394Q48.7732-41.8762 48.7732-45.4567L48.7732-63.0653Q48.7732-66.6458 47.0322-68.3826Q45.2911-70.1195 41.8541-70.1195L16.6847-70.1195Q13.2477-70.1195 11.5067-68.3826Q9.76562-66.6458 9.76562-63.0653L9.76562-45.4567Q9.76562-41.8762 11.5067-40.1394Q13.2477-38.4026 16.6847-38.4026ZM16.7488-43.2228Q14.5523-43.2228 14.5523-45.4865L14.5523-63.0692Q14.5523-65.2992 16.7488-65.2992L41.7564-65.2992Q43.9865-65.2992 43.9865-63.0692L43.9865-45.4865Q43.9865-43.2228 41.7564-43.2228ZM62.1513-38.4026L87.3199-38.4026Q90.7913-38.4026 92.5156-40.1394Q94.2398-41.8762 94.2398-45.4567L94.2398-63.0653Q94.2398-66.6458 92.5156-68.3826Q90.7913-70.1195 87.3199-70.1195L62.1513-70.1195Q58.7143-70.1195 56.9733-68.3826Q55.2322-66.6458 55.2322-63.0653L55.2322-45.4567Q55.2322-41.8762 56.9733-40.1394Q58.7143-38.4026 62.1513-38.4026ZM62.249-43.2228Q60.0189-43.2228 60.0189-45.4865L60.0189-63.0692Q60.0189-65.2992 62.249-65.2992L87.2566-65.2992Q89.4531-65.2992 89.4531-63.0692L89.4531-45.4865Q89.4531-43.2228 87.2566-43.2228ZM16.6847-0.260162L41.8541-0.260162Q45.2911-0.260162 47.0322-1.98059Q48.7732-3.70102 48.7732-7.3143L48.7732-24.9237Q48.7732-28.5034 47.0322-30.2235Q45.2911-31.9435 41.8541-31.9435L16.6847-31.9435Q13.2477-31.9435 11.5067-30.2235Q9.76562-28.5034 9.76562-24.9237L9.76562-7.3143Q9.76562-3.70102 11.5067-1.98059Q13.2477-0.260162 16.6847-0.260162ZM16.7488-5.08041Q14.5523-5.08041 14.5523-7.31125L14.5523-24.8932Q14.5523-27.1576 16.7488-27.1576L41.7564-27.1576Q43.9865-27.1576 43.9865-24.8932L43.9865-7.31125Q43.9865-5.08041 41.7564-5.08041ZM62.1513-0.260162L87.3199-0.260162Q90.7913-0.260162 92.5156-1.98059Q94.2398-3.70102 94.2398-7.3143L94.2398-24.9237Q94.2398-28.5034 92.5156-30.2235Q90.7913-31.9435 87.3199-31.9435L62.1513-31.9435Q58.7143-31.9435 56.9733-30.2235Q55.2322-28.5034 55.2322-24.9237L55.2322-7.3143Q55.2322-3.70102 56.9733-1.98059Q58.7143-0.260162 62.1513-0.260162ZM62.249-5.08041Q60.0189-5.08041 60.0189-7.31125L60.0189-24.8932Q60.0189-27.1576 62.249-27.1576L87.2566-27.1576Q89.4531-27.1576 89.4531-24.8932L89.4531-7.31125Q89.4531-5.08041 87.2566-5.08041Z"/>
  </g>
  <g id="Thin-S" transform="matrix(1 0 0 1 805.29 696)">
   <path d="M15.5037-38.5628L41.9945-38.5628Q44.8105-38.5628 46.2715-39.9494Q47.7325-41.3361 47.7325-44.3558L47.7325-63.4254Q47.7325-66.4452 46.2715-67.8318Q44.8105-69.2184 41.9945-69.2184L15.5037-69.2184Q12.6877-69.2184 11.2267-67.8318Q9.76562-66.4452 9.76562-63.4254L9.76562-44.3558Q9.76562-41.3361 11.2267-39.9494Q12.6877-38.5628 15.5037-38.5628ZM15.5876-41.6214Q12.8105-41.6214 12.8105-44.426L12.8105-63.369Q12.8105-66.1598 15.5876-66.1598L41.8968-66.1598Q44.6877-66.1598 44.6877-63.369L44.6877-44.426Q44.6877-41.6214 41.8968-41.6214ZM60.2699-38.5628L86.7599-38.5628Q89.5897-38.5628 91.0439-39.9494Q92.498-41.3361 92.498-44.3558L92.498-63.4254Q92.498-66.4452 91.0439-67.8318Q89.5897-69.2184 86.7599-69.2184L60.2699-69.2184Q57.4532-69.2184 55.9921-67.8318Q54.5311-66.4452 54.5311-63.4254L54.5311-44.3558Q54.5311-41.3361 55.9921-39.9494Q57.4532-38.5628 60.2699-38.5628ZM60.3676-41.6214Q57.576-41.6214 57.576-44.426L57.576-63.369Q57.576-66.1598 60.3676-66.1598L86.676-66.1598Q89.4531-66.1598 89.4531-63.369L89.4531-44.426Q89.4531-41.6214 86.676-41.6214ZM15.5037-1.12076L41.9945-1.12076Q44.8105-1.12076 46.2715-2.50092Q47.7325-3.88107 47.7325-6.91376L47.7325-25.9842Q47.7325-29.0039 46.2715-30.3837Q44.8105-31.7635 41.9945-31.7635L15.5037-31.7635Q12.6877-31.7635 11.2267-30.3837Q9.76562-29.0039 9.76562-25.9842L9.76562-6.91376Q9.76562-3.88107 11.2267-2.50092Q12.6877-1.12076 15.5037-1.12076ZM15.5876-4.17938Q12.8105-4.17938 12.8105-6.97098L12.8105-25.914Q12.8105-28.7186 15.5876-28.7186L41.8968-28.7186Q44.6877-28.7186 44.6877-25.914L44.6877-6.97098Q44.6877-4.17938 41.8968-4.17938ZM60.2699-1.12076L86.7599-1.12076Q89.5897-1.12076 91.0439-2.50092Q92.498-3.88107 92.498-6.91376L92.498-25.9842Q92.498-29.0039 91.0439-30.3837Q89.5897-31.7635 86.7599-31.7635L60.2699-31.7635Q57.4532-31.7635 55.9921-30.3837Q54.5311-29.0039 54.5311-25.9842L54.5311-6.91376Q54.5311-3.88107 55.9921-2.50092Q57.4532-1.12076 60.2699-1.12076ZM60.3676-4.17938Q57.576-4.17938 57.576-6.97098L57.576-25.914Q57.576-28.7186 60.3676-28.7186L86.676-28.7186Q89.4531-28.7186 89.4531-25.914L89.4531-6.97098Q89.4531-4.17938 86.676-4.17938Z"/>
  </g>
  <g id="Ultralight-S" transform="matrix(1 0 0 1 509.025 696)">
   <path d="M14.8987-38.6444L42.0662-38.6444Q44.5648-38.6444 45.882-39.8518Q47.1992-41.0591 47.1992-43.7912L47.1992-63.6101Q47.1992-66.3429 45.882-67.5503Q44.5648-68.7576 42.0662-68.7576L14.8987-68.7576Q12.4001-68.7576 11.0828-67.5503Q9.76562-66.3429 9.76562-63.6101L9.76562-43.7912Q9.76562-41.0591 11.0828-39.8518Q12.4001-38.6444 14.8987-38.6444ZM14.9933-40.8005Q11.9186-40.8005 11.9186-43.882L11.9186-63.5231Q11.9186-66.6008 14.9933-66.6008L41.9685-66.6008Q45.0462-66.6008 45.0462-63.5231L45.0462-43.882Q45.0462-40.8005 41.9685-40.8005ZM59.3056-38.6444L86.4723-38.6444Q88.9748-38.6444 90.2905-39.8518Q91.6061-41.0591 91.6061-43.7912L91.6061-63.6101Q91.6061-66.3429 90.2905-67.5503Q88.9748-68.7576 86.4723-68.7576L59.3056-68.7576Q56.8069-68.7576 55.4897-67.5503Q54.1725-66.3429 54.1725-63.6101L54.1725-43.7912Q54.1725-41.0591 55.4897-39.8518Q56.8069-38.6444 59.3056-38.6444ZM59.4032-40.8005Q56.3255-40.8005 56.3255-43.882L56.3255-63.5231Q56.3255-66.6008 59.4032-66.6008L86.3785-66.6008Q89.4531-66.6008 89.4531-63.5231L89.4531-43.882Q89.4531-40.8005 86.3785-40.8005ZM14.8987-1.56174L42.0662-1.56174Q44.5648-1.56174 45.882-2.76756Q47.1992-3.97339 47.1992-6.70929L47.1992-26.5282Q47.1992-29.2603 45.882-30.4657Q44.5648-31.6711 42.0662-31.6711L14.8987-31.6711Q12.4001-31.6711 11.0828-30.4657Q9.76562-29.2603 9.76562-26.5282L9.76562-6.70929Q9.76562-3.97339 11.0828-2.76756Q12.4001-1.56174 14.8987-1.56174ZM14.9933-3.71857Q11.9186-3.71857 11.9186-6.79626L11.9186-26.4366Q11.9186-29.5189 14.9933-29.5189L41.9685-29.5189Q45.0462-29.5189 45.0462-26.4366L45.0462-6.79626Q45.0462-3.71857 41.9685-3.71857ZM59.3056-1.56174L86.4723-1.56174Q88.9748-1.56174 90.2905-2.76756Q91.6061-3.97339 91.6061-6.70929L91.6061-26.5282Q91.6061-29.2603 90.2905-30.4657Q88.9748-31.6711 86.4723-31.6711L59.3056-31.6711Q56.8069-31.6711 55.4897-30.4657Q54.1725-29.2603 54.1725-26.5282L54.1725-6.70929Q54.1725-3.97339 55.4897-2.76756Q56.8069-1.56174 59.3056-1.56174ZM59.4032-3.71857Q56.3255-3.71857 56.3255-6.79626L56.3255-26.4366Q56.3255-29.5189 59.4032-29.5189L86.3785-29.5189Q89.4531-29.5189 89.4531-26.4366L89.4531-6.79626Q89.4531-3.71857 86.3785-3.71857Z"/>
  </g>
 </g>
</svg>
